<svg width="16" height="16" viewBox="0 0 16 16" fill="none" xmlns="http://www.w3.org/2000/svg">
<g clip-path="url(#clip0_261_1089)">
<path d="M16 8C16 12.4183 12.4183 16 8 16C3.58172 16 0 12.4183 0 8C0 3.58172 3.58172 0 8 0C12.4183 0 16 3.58172 16 8Z" fill="black"/>
<path d="M8.03904 6.6754C8.01325 6.60712 7.98746 6.60712 7.96167 6.6754L5.97306 11.9726C5.96561 11.9909 5.95243 12 5.93351 12H4.62584C4.55877 12 4.53785 11.9682 4.56307 11.9046C5.11847 10.4926 5.63948 9.16098 6.1261 7.90965C6.33817 7.36521 6.54623 6.81665 6.75028 6.26398C7.28791 4.809 7.67508 3.77104 7.9118 3.15009C7.92723 3.1103 7.93979 3.07673 7.94947 3.04937C7.9593 3.02161 7.98493 3.00211 8.01437 3.00132V3.00132C8.04355 3.00053 8.07003 3.01831 8.08036 3.04562L11.4445 11.947C11.4462 11.9518 11.4467 11.957 11.4461 11.9621C11.4455 11.9672 11.4437 11.972 11.4409 11.9761C11.4381 11.9803 11.4344 11.9837 11.4301 11.986C11.4258 11.9883 11.421 11.9895 11.4161 11.9894H10.1188C10.0978 11.9894 10.0772 11.9829 10.0597 11.9706C10.0422 11.9583 10.0287 11.9409 10.0208 11.9205L8.03904 6.6754Z" fill="white"/>
</g>
<defs>
<clipPath id="clip0_261_1089">
<rect width="16" height="16" fill="white"/>
</clipPath>
</defs>
</svg>
