<svg width="320" height="54" viewBox="0 0 320 54" fill="none" xmlns="http://www.w3.org/2000/svg">
<path d="M28.1962 46.6208H6.68851V6.88455C6.68851 6.14961 6.10062 5.56165 5.36574 5.56165H1.37285C0.63796 5.56165 0.0500488 6.14961 0.0500488 6.88455V51.1284C0.0500488 51.8634 0.63796 52.4513 1.37285 52.4513H28.1717C28.9066 52.4513 29.4945 51.8634 29.4945 51.1284V47.9437C29.4945 47.2087 28.9066 46.6208 28.1717 46.6208H28.1962Z" fill="white" stroke="black" stroke-width="0.1" stroke-miterlimit="10"/>
<path d="M58.8898 17.5658H55.1664C54.4315 17.5658 53.8436 18.1538 53.8436 18.8887V37.6789C53.8436 40.8147 53.0107 43.2645 51.3205 45.0284C49.6547 46.7922 47.4256 47.6742 44.6575 47.6742C38.8519 47.6742 35.9369 44.3424 35.9369 37.6789V23.8619V18.8887C35.9369 18.1538 35.349 17.5658 34.6141 17.5658H30.8172C30.1313 17.5658 29.5679 18.0803 29.4944 18.7662V38.0219C29.4944 40.9616 30.0088 43.583 31.0376 45.8613C32.0665 48.1396 33.5852 49.928 35.5694 51.2019C37.5536 52.4758 39.9787 53.1128 42.8448 53.1128C45.7109 53.1128 47.94 52.6473 49.6547 51.6919C51.3695 50.761 52.8392 49.5115 54.0396 47.9437V51.1039C54.0396 51.8389 54.6275 52.4268 55.3623 52.4268H58.8653C59.6002 52.4268 60.1881 51.8389 60.1881 51.1039V18.8887C60.1881 18.1538 59.6002 17.5658 58.8653 17.5658H58.8898Z" fill="white" stroke="black" stroke-width="0.1" stroke-miterlimit="10"/>
<path d="M70.8929 31.2848C70.8929 26.3362 74.9103 22.343 79.834 22.343C84.7578 22.343 88.7752 26.3607 88.7752 31.2848V32.3383V46.1553V51.1284C88.7752 51.2264 88.7752 51.2999 88.7997 51.3979C88.8731 51.8144 89.1671 52.1574 89.5345 52.3289C89.5345 52.3289 89.559 52.3289 89.5835 52.3289C89.5835 52.3289 89.608 52.3289 89.6325 52.3289C89.7795 52.3778 89.9265 52.4268 90.0979 52.4268H93.8949C93.8949 52.4268 94.0663 52.4268 94.1643 52.4023C94.1888 52.4023 94.2133 52.4023 94.2378 52.4023C94.2868 52.4023 94.3358 52.3779 94.4093 52.3534C94.4338 52.3534 94.4583 52.3289 94.5073 52.3044C94.5563 52.3044 94.6052 52.2554 94.6297 52.2309C94.6542 52.2309 94.6787 52.1819 94.7032 52.1819C94.7522 52.1574 94.7767 52.1329 94.8257 52.0839C94.8257 52.0839 94.8747 52.0349 94.8992 52.0104C94.9482 51.9614 94.9727 51.9369 94.9972 51.8879C94.9972 51.8879 95.0217 51.8389 95.0462 51.8144C95.0707 51.7654 95.1197 51.7164 95.1442 51.6429C95.1442 51.6429 95.1442 51.6184 95.1442 51.5939C95.1687 51.5204 95.1931 51.4714 95.2176 51.3979C95.2176 51.3979 95.2176 51.3734 95.2176 51.3489C95.2176 51.2999 95.2176 51.2754 95.2176 51.2264V51.1039C95.2176 51.1039 95.2176 51.1039 95.2176 51.0794C95.2176 51.0549 95.2176 51.0794 95.2176 51.0549V31.9463C95.2176 29.0065 94.7032 26.3852 93.6744 24.1068C92.6455 21.8285 91.1268 20.0401 89.1426 18.7662C87.1584 17.4923 84.7333 16.8553 81.8672 16.8553C79.0012 16.8553 76.772 17.3208 75.0573 18.2763C73.3426 19.2072 71.8728 20.4566 70.6725 22.0245V18.8642C70.6725 18.6192 70.599 18.3987 70.501 18.2273C70.3295 17.9333 70.0601 17.7128 69.7416 17.6148C69.6926 17.6148 69.6681 17.5903 69.6191 17.5658C69.6191 17.5658 69.5946 17.5658 69.5702 17.5658C69.4967 17.5658 69.4232 17.5658 69.3497 17.5658H65.8467C65.8467 17.5658 65.7977 17.5658 65.7487 17.5658C65.1608 17.6148 64.6709 18.0313 64.5484 18.5947C64.5484 18.5947 64.5484 18.5947 64.5484 18.6192C64.5484 18.6927 64.5239 18.7907 64.5239 18.8642V51.0794C64.5239 51.1774 64.5239 51.2509 64.5484 51.3489C64.5484 51.3489 64.5484 51.3734 64.5484 51.3979C64.6709 51.8879 65.0384 52.2554 65.5283 52.3778C65.5283 52.3778 65.5528 52.3778 65.5773 52.3778C65.6508 52.3778 65.7487 52.4023 65.8222 52.4023H69.5457C69.7171 52.4023 69.8641 52.3779 70.0111 52.3044C70.0111 52.3044 70.0356 52.3044 70.0601 52.3044C70.0601 52.3044 70.0601 52.3044 70.0846 52.3044C70.305 52.2064 70.501 52.0349 70.648 51.8389C70.7949 51.6184 70.8684 51.3734 70.8684 51.1039V31.2848" fill="white"/>
<path d="M70.8929 31.2848C70.8929 26.3362 74.9103 22.343 79.834 22.343C84.7578 22.343 88.7752 26.3607 88.7752 31.2848V32.3383V46.1553V51.1284C88.7752 51.2264 88.7752 51.2999 88.7997 51.3979C88.8731 51.8144 89.1671 52.1574 89.5345 52.3289C89.5345 52.3289 89.559 52.3289 89.5835 52.3289C89.5835 52.3289 89.608 52.3289 89.6325 52.3289C89.7795 52.3778 89.9265 52.4268 90.0979 52.4268H93.8949C93.8949 52.4268 94.0663 52.4268 94.1643 52.4023C94.1888 52.4023 94.2133 52.4023 94.2378 52.4023C94.2868 52.4023 94.3358 52.3779 94.4093 52.3534C94.4338 52.3534 94.4583 52.3289 94.5073 52.3044C94.5563 52.3044 94.6052 52.2554 94.6297 52.2309C94.6542 52.2309 94.6787 52.1819 94.7032 52.1819C94.7522 52.1574 94.7767 52.1329 94.8257 52.0839C94.8257 52.0839 94.8747 52.0349 94.8992 52.0104C94.9482 51.9614 94.9727 51.9369 94.9972 51.8879C94.9972 51.8879 95.0217 51.8389 95.0462 51.8144C95.0707 51.7654 95.1197 51.7164 95.1442 51.6429C95.1442 51.6429 95.1442 51.6184 95.1442 51.5939C95.1687 51.5204 95.1931 51.4714 95.2176 51.3979C95.2176 51.3979 95.2176 51.3734 95.2176 51.3489C95.2176 51.2999 95.2176 51.2754 95.2176 51.2264V51.1039C95.2176 51.1039 95.2176 51.1039 95.2176 51.0794C95.2176 51.0549 95.2176 51.0794 95.2176 51.0549V31.9463C95.2176 29.0065 94.7032 26.3852 93.6744 24.1068C92.6455 21.8285 91.1268 20.0401 89.1426 18.7662C87.1584 17.4923 84.7333 16.8553 81.8672 16.8553C79.0012 16.8553 76.772 17.3208 75.0573 18.2763C73.3426 19.2072 71.8728 20.4566 70.6725 22.0245V18.8642C70.6725 18.6192 70.599 18.3987 70.501 18.2273C70.3295 17.9333 70.0601 17.7128 69.7416 17.6148C69.6926 17.6148 69.6681 17.5903 69.6191 17.5658C69.6191 17.5658 69.5946 17.5658 69.5702 17.5658C69.4967 17.5658 69.4232 17.5658 69.3497 17.5658H65.8467C65.8467 17.5658 65.7977 17.5658 65.7487 17.5658C65.1608 17.6148 64.6709 18.0313 64.5484 18.5947C64.5484 18.5947 64.5484 18.5947 64.5484 18.6192C64.5484 18.6927 64.5239 18.7907 64.5239 18.8642V51.0794C64.5239 51.1774 64.5239 51.2509 64.5484 51.3489C64.5484 51.3489 64.5484 51.3734 64.5484 51.3979C64.6709 51.8879 65.0384 52.2554 65.5283 52.3778C65.5283 52.3778 65.5528 52.3778 65.5773 52.3778C65.6508 52.3778 65.7487 52.4023 65.8222 52.4023H69.5457C69.7171 52.4023 69.8641 52.3779 70.0111 52.3044C70.0111 52.3044 70.0356 52.3044 70.0601 52.3044C70.0601 52.3044 70.0601 52.3044 70.0846 52.3044C70.305 52.2064 70.501 52.0349 70.648 51.8389C70.7949 51.6184 70.8684 51.3734 70.8684 51.1039V31.2848" stroke="black" stroke-width="0.1" stroke-miterlimit="10"/>
<path d="M124.76 20.7261C123.707 19.5747 122.262 18.6438 120.449 17.9333C118.612 17.2474 116.358 16.8799 113.663 16.8799C111.238 16.8799 109.205 17.1984 107.539 17.8598C105.849 18.4968 104.477 19.3052 103.424 20.2362C102.346 21.1671 101.562 22.1225 101.048 23.127C100.534 24.1069 100.289 24.9398 100.289 25.6013V25.6993C100.289 25.6993 100.289 25.7238 100.289 25.7483C100.289 25.7728 100.289 25.7728 100.289 25.7973V25.8708C100.289 25.8708 100.289 25.9197 100.289 25.9442C100.289 25.9687 100.289 26.0177 100.289 26.0422C100.289 26.0912 100.313 26.1402 100.338 26.1647C100.338 26.2137 100.362 26.2382 100.387 26.2872C100.387 26.3117 100.411 26.3607 100.436 26.3852C100.436 26.4342 100.485 26.4587 100.509 26.5077C100.509 26.5322 100.558 26.5567 100.558 26.5812C100.583 26.6302 100.632 26.6547 100.656 26.7037C100.656 26.7037 100.705 26.7527 100.729 26.7527C100.778 26.7772 100.803 26.8262 100.852 26.8507C100.876 26.8507 100.925 26.8752 100.95 26.8997C100.999 26.8997 101.023 26.9487 101.072 26.9487C101.121 26.9487 101.17 26.9732 101.219 26.9977C101.244 26.9977 101.293 26.9977 101.317 27.0222C101.391 27.0222 101.489 27.0467 101.587 27.0467H104.747C105.408 27.0467 105.874 26.7037 106.143 26.0422C106.633 24.7928 107.515 23.7639 108.764 22.9555C110.014 22.147 111.63 21.755 113.59 21.755C116.358 21.755 118.367 22.3675 119.592 23.5679C120.816 24.7683 121.429 26.4587 121.429 28.5901V30.5254L111.434 31.9218C107.417 32.5098 104.159 33.7102 101.636 35.5476C99.1372 37.3849 97.8879 39.8348 97.8879 42.9216C97.8879 44.8569 98.4514 46.5718 99.5782 48.0907C100.681 49.6096 102.175 50.81 104.012 51.7164C105.849 52.6229 107.882 53.0638 110.112 53.0638C112.341 53.0638 114.055 52.7944 115.55 52.3044C117.019 51.7899 118.244 51.153 119.224 50.369C120.204 49.5851 120.988 48.8011 121.576 47.9927V51.0795C121.576 51.8144 122.164 52.4024 122.899 52.4024H126.426C127.161 52.4024 127.749 51.8144 127.749 51.0795V29.129C127.749 27.6101 127.504 26.1157 127.038 24.6458C126.573 23.1759 125.814 21.853 124.76 20.7016V20.7261ZM121.429 37.0175C121.429 39.5163 120.988 41.5986 120.13 43.2645C119.249 44.9304 118.048 46.1308 116.53 46.9148C115.011 47.6987 113.345 48.0907 111.508 48.0907C110.307 48.0907 109.132 47.8947 107.98 47.4782C106.829 47.0618 105.898 46.4738 105.163 45.6409C104.428 44.8079 104.061 43.779 104.061 42.5296C104.061 40.9127 104.869 39.5898 106.486 38.5364C108.103 37.4829 110.479 36.7235 113.663 36.2825L121.453 35.1311V37.0175H121.429Z" fill="white" stroke="black" stroke-width="0.1" stroke-miterlimit="10"/>
<path d="M200.649 20.7261C199.596 19.5747 198.151 18.6438 196.338 17.9333C194.501 17.2474 192.247 16.8799 189.553 16.8799C187.128 16.8799 185.094 17.1984 183.429 17.8598C181.738 18.4968 180.367 19.3052 179.313 20.2362C178.235 21.1671 177.452 22.1225 176.937 23.127C176.423 24.1069 176.178 24.9398 176.178 25.6013V25.6993C176.178 25.6993 176.178 25.7238 176.178 25.7483C176.178 25.7728 176.178 25.7728 176.178 25.7973V25.8708C176.178 25.8708 176.178 25.9197 176.178 25.9442C176.178 25.9687 176.178 26.0177 176.178 26.0422C176.178 26.0912 176.202 26.1402 176.227 26.1647C176.227 26.2137 176.251 26.2382 176.276 26.2872C176.276 26.3117 176.3 26.3607 176.325 26.3852C176.325 26.4342 176.374 26.4587 176.398 26.5077C176.398 26.5322 176.447 26.5567 176.447 26.5812C176.472 26.6302 176.521 26.6547 176.545 26.6792C176.545 26.6792 176.594 26.7282 176.619 26.7527C176.668 26.7772 176.692 26.8262 176.741 26.8507C176.766 26.8507 176.815 26.8752 176.839 26.8997C176.888 26.8997 176.913 26.9487 176.962 26.9487C177.011 26.9487 177.06 26.9732 177.109 26.9977C177.133 26.9977 177.182 26.9977 177.207 27.0222C177.28 27.0222 177.378 27.0467 177.476 27.0467H180.636C181.297 27.0467 181.763 26.7037 182.032 26.0422C182.522 24.7928 183.404 23.7639 184.653 22.9555C185.903 22.147 187.519 21.755 189.479 21.755C192.247 21.755 194.256 22.3675 195.481 23.5679C196.706 24.7683 197.318 26.4587 197.318 28.5901V30.5254L187.323 31.9218C183.306 32.5098 180.048 33.7102 177.525 35.5476C175.026 37.3849 173.777 39.8348 173.777 42.9216C173.777 44.8569 174.341 46.5718 175.467 48.0907C176.57 49.6096 178.064 50.81 179.901 51.7164C181.738 52.6229 183.772 53.0638 186.001 53.0638C188.23 53.0638 189.945 52.7944 191.439 52.3044C192.909 51.7899 194.133 51.153 195.113 50.369C196.093 49.5851 196.877 48.8011 197.465 47.9927V51.0795C197.465 51.8144 198.053 52.4024 198.788 52.4024H202.315C203.05 52.4024 203.638 51.8144 203.638 51.0795V29.129C203.638 27.6101 203.393 26.1157 202.928 24.6458C202.462 23.1759 201.703 21.853 200.649 20.7016V20.7261ZM197.342 37.0175C197.342 39.5163 196.901 41.5986 196.044 43.2645C195.162 44.9304 193.962 46.1308 192.443 46.9148C190.924 47.6987 189.259 48.0907 187.421 48.0907C186.221 48.0907 185.045 47.8947 183.894 47.4782C182.743 47.0618 181.812 46.4738 181.077 45.6409C180.342 44.8079 179.975 43.779 179.975 42.5296C179.975 40.9127 180.783 39.5898 182.4 38.5364C184.016 37.4829 186.393 36.7235 189.577 36.2825L197.367 35.1311V37.0175H197.342Z" fill="white" stroke="black" stroke-width="0.1" stroke-miterlimit="10"/>
<path d="M175.59 7.15404C175.59 7.15404 175.614 6.98255 175.614 6.88455C175.614 6.14961 175.026 5.56165 174.292 5.56165H170.446C170.446 5.56165 170.274 5.56165 170.201 5.58614C170.176 5.58614 170.152 5.58614 170.127 5.58614C170.078 5.58614 170.029 5.61064 169.98 5.63514C169.956 5.63514 169.931 5.65964 169.882 5.68414C169.833 5.68414 169.809 5.73313 169.76 5.75763C169.735 5.75763 169.686 5.80663 169.662 5.83113C169.637 5.83113 169.588 5.88013 169.564 5.90462C169.539 5.92912 169.515 5.95362 169.466 6.00262C169.466 6.02711 169.417 6.05161 169.392 6.07611C169.368 6.12511 169.343 6.1496 169.319 6.1986C169.319 6.1986 169.319 6.2476 169.294 6.2476C169.221 6.37009 169.172 6.51708 169.147 6.66407L168.682 8.94241L162.239 41.3291L154.964 18.5212C154.842 18.1293 154.597 17.7618 154.254 17.4188C153.911 17.0758 153.445 16.9288 152.808 16.9288H150.481C149.844 16.9288 149.379 17.1003 149.036 17.4188C148.693 17.7618 148.473 18.1293 148.326 18.5212L141.124 41.2801L134.681 8.94241L134.216 6.66407C134.191 6.51708 134.142 6.37009 134.069 6.2476C134.069 6.2476 134.069 6.1986 134.044 6.1986C134.02 6.1496 133.995 6.12511 133.971 6.07611C133.971 6.05161 133.922 6.02711 133.897 6.00262C133.873 5.97812 133.848 5.95362 133.799 5.90462C133.775 5.88013 133.75 5.85563 133.701 5.83113C133.677 5.83113 133.652 5.78213 133.603 5.75763C133.554 5.73313 133.53 5.70864 133.481 5.68414C133.456 5.68414 133.432 5.65964 133.383 5.63514C133.334 5.63514 133.285 5.61064 133.236 5.58614C133.211 5.58614 133.187 5.58614 133.162 5.58614C133.089 5.58614 132.991 5.56165 132.917 5.56165H129.072C128.337 5.56165 127.749 6.14961 127.749 6.88455C127.749 6.98255 127.749 7.05604 127.773 7.15404L128.337 9.97134L136.518 50.663C136.641 51.2509 136.886 51.6919 137.229 52.0104C137.572 52.3289 138.013 52.4758 138.601 52.4758H141.222C141.859 52.4758 142.324 52.3289 142.667 52.0104C143.01 51.6919 143.255 51.2999 143.451 50.81L151.657 25.3808L159.863 50.81C160.035 51.2999 160.304 51.6919 160.647 52.0104C160.99 52.3289 161.456 52.4758 162.092 52.4758H164.762C165.35 52.4758 165.816 52.3289 166.134 52.0104C166.477 51.6919 166.698 51.2509 166.845 50.663L175.026 9.97134L175.59 7.15404Z" fill="white" stroke="black" stroke-width="0.1" stroke-miterlimit="10"/>
<path d="M236.242 50.173L218.728 33.0977L233.597 20.7751L234.601 19.9422H234.626C234.626 19.9422 234.626 19.8932 234.65 19.8687C234.675 19.8442 234.724 19.7952 234.748 19.7707C234.773 19.7462 234.797 19.6972 234.846 19.6727C234.846 19.6482 234.895 19.5992 234.92 19.5747C234.944 19.5257 234.969 19.5012 234.993 19.4522C234.993 19.4032 235.018 19.3787 235.042 19.3297C235.042 19.2807 235.067 19.2317 235.091 19.1827C235.091 19.1092 235.091 19.0602 235.091 18.9867C235.091 18.9622 235.091 18.9377 235.091 18.9132C235.091 18.8153 235.091 18.7418 235.067 18.6438C235.067 18.6438 235.067 18.6438 235.067 18.6193C235.018 18.3743 234.895 18.1538 234.724 17.9823C234.479 17.7373 234.16 17.5903 233.793 17.5903H230.094C229.432 17.5903 228.943 17.6638 228.649 17.8353C228.355 17.9823 227.938 18.3008 227.399 18.7418L214.196 29.766V6.90909C214.196 6.17414 213.608 5.58618 212.873 5.58618H209.321C208.586 5.58618 207.998 6.17414 207.998 6.90909V51.153C207.998 51.5204 208.145 51.8634 208.39 52.0839C208.488 52.1819 208.586 52.2554 208.684 52.3044C208.733 52.3044 208.758 52.3534 208.807 52.3779C208.954 52.4514 209.125 52.4759 209.321 52.4759H212.898C213.216 52.4759 213.51 52.3534 213.73 52.1574C214.024 51.9124 214.22 51.5449 214.22 51.1285V37.0665L229.187 51.3245C229.677 51.7654 230.069 52.0594 230.388 52.2309C230.706 52.3779 231.196 52.4759 231.858 52.4759H235.361C235.679 52.4759 235.997 52.3534 236.218 52.1574C236.512 51.9124 236.683 51.5449 236.683 51.153C236.683 50.7855 236.536 50.4425 236.291 50.1975L236.242 50.173Z" fill="white" stroke="black" stroke-width="0.1" stroke-miterlimit="10"/>
<path d="M265.981 34.4206C265.981 30.8928 265.368 27.806 264.168 25.1602C262.968 22.5144 261.204 20.481 258.901 19.0601C256.599 17.6392 253.757 16.9043 250.352 16.9043C247.315 16.9043 244.669 17.5658 242.415 18.8397C240.162 20.1381 238.374 21.9754 237.075 24.3763C235.777 26.7771 235.042 29.5454 234.871 32.7302C234.822 33.3181 234.797 34.0531 234.797 34.984C234.797 35.915 234.797 36.6499 234.871 37.2379C235.14 42.162 236.634 46.0327 239.353 48.8745C242.072 51.7163 245.771 53.1373 250.426 53.1373C252.704 53.1373 254.762 52.8433 256.574 52.2308C258.387 51.6184 259.906 50.8589 261.131 49.928C262.355 48.997 263.311 48.0416 263.972 47.0862C264.462 46.4002 264.829 45.6163 265.025 45.0038C265.025 45.0038 265.025 44.9548 265.025 44.9303C265.025 44.9303 265.025 44.9303 265.025 44.9058C265.025 44.9058 265.025 44.8813 265.025 44.8568C265.025 44.7833 265.05 44.6853 265.05 44.6119V44.5629C265.05 44.3914 265.001 44.2199 264.952 44.0484C264.952 44.0484 264.952 44.0484 264.952 44.0239C264.927 43.9504 264.878 43.9014 264.854 43.8279C264.854 43.8279 264.829 43.8034 264.805 43.7789C264.78 43.7299 264.731 43.6809 264.682 43.6319C264.682 43.6319 264.658 43.6074 264.633 43.5829C264.584 43.5339 264.535 43.5094 264.486 43.4604C264.486 43.4604 264.462 43.4604 264.437 43.4359C264.388 43.4114 264.315 43.3624 264.266 43.3379C264.266 43.3379 264.242 43.3379 264.217 43.3379C264.144 43.3134 264.07 43.2889 263.997 43.2644C263.948 43.2644 263.923 43.2644 263.874 43.2399H263.752H260.347C259.857 43.2399 259.489 43.2889 259.269 43.4114C259.048 43.5094 258.73 43.8524 258.338 44.3914C258.117 44.7588 257.652 45.2243 256.991 45.8368C256.329 46.4492 255.447 46.9882 254.37 47.4781C253.292 47.9681 251.944 48.2131 250.352 48.2131C248.515 48.2131 246.923 47.7231 245.551 46.7432C244.179 45.7633 243.15 44.4649 242.44 42.8725C241.73 41.2801 241.338 39.5897 241.24 37.7523V37.1399H264.658C265.393 37.1399 265.981 36.5519 265.981 35.817V34.4696V34.4206ZM259.612 32.4607H241.24V32.2647C241.24 30.2559 241.607 28.4675 242.317 26.8996C243.028 25.3317 244.081 24.1068 245.428 23.1759C246.8 22.2694 248.441 21.804 250.352 21.804C252.263 21.804 253.929 22.2694 255.325 23.1759C256.721 24.0823 257.775 25.3317 258.509 26.8996C259.244 28.4675 259.612 30.2559 259.612 32.2647V32.4607Z" fill="white" stroke="black" stroke-width="0.1" stroke-miterlimit="10"/>
<path d="M310.955 37.0664C303.925 34.8616 298.952 27.953 299.761 20.0156C300.471 12.7641 306.203 6.76204 313.405 5.70861C315.267 5.43913 317.079 5.48813 318.819 5.8066C319.309 5.9046 319.627 6.41906 319.505 6.90903L312.082 36.405C311.96 36.8949 311.445 37.1889 310.955 37.0419V37.0664Z" fill="white" stroke="black" stroke-width="0.1" stroke-miterlimit="10"/>
<path d="M285.381 37.0664C292.779 34.739 297.85 27.2181 296.405 18.7907C295.253 12.1026 289.791 6.7865 283.103 5.75757C281.242 5.46359 279.429 5.51259 277.714 5.80657C277.224 5.90456 276.906 6.39453 277.028 6.88449L284.279 36.4049C284.402 36.8949 284.916 37.2134 285.406 37.0419L285.381 37.0664Z" fill="white" stroke="black" stroke-width="0.1" stroke-miterlimit="10"/>
</svg>

