<svg width="320" height="48" viewBox="0 0 320 48" fill="none" xmlns="http://www.w3.org/2000/svg">
<path d="M28.1461 41.087H6.63846V1.35076C6.63846 0.615812 6.05056 0.027832 5.31568 0.027832H1.3228C0.587911 0.027832 0 0.615812 0 1.35076V45.5946C0 46.3296 0.587911 46.9176 1.3228 46.9176H28.1216C28.8565 46.9176 29.4444 46.3296 29.4444 45.5946V42.4099C29.4444 41.6749 28.8565 41.087 28.1216 41.087H28.1461Z" fill="black"/>
<path d="M58.8398 12.0565H55.1163C54.3815 12.0565 53.7935 12.6445 53.7935 13.3794V32.1696C53.7935 35.3054 52.9607 37.7552 51.2704 39.5191C49.6047 41.283 47.3755 42.1649 44.6075 42.1649C38.8019 42.1649 35.8868 38.8332 35.8868 32.1696V18.3526V13.3794C35.8868 12.6445 35.2989 12.0565 34.564 12.0565H30.7671C30.0812 12.0565 29.5178 12.571 29.4443 13.2569V32.5126C29.4443 35.4524 29.9587 38.0737 30.9876 40.352C32.0164 42.6304 33.5352 44.4188 35.5194 45.6927C37.5036 46.9666 39.9287 47.6035 42.7947 47.6035C45.6608 47.6035 47.89 47.1381 49.6047 46.1826C51.3194 45.2517 52.7892 44.0023 53.9895 42.4344V45.5947C53.9895 46.3296 54.5774 46.9176 55.3123 46.9176H58.8153C59.5501 46.9176 60.1381 46.3296 60.1381 45.5947V13.3794C60.1381 12.6445 59.5501 12.0565 58.8153 12.0565H58.8398Z" fill="black"/>
<path d="M70.8429 25.7756C70.8429 20.8269 74.8603 16.8337 79.784 16.8337C84.7077 16.8337 88.7251 20.8514 88.7251 25.7756V26.829V40.646V45.6191C88.7251 45.7171 88.7251 45.7906 88.7496 45.8886C88.8231 46.3051 89.117 46.6481 89.4845 46.8196C89.4845 46.8196 89.509 46.8196 89.5335 46.8196C89.5335 46.8196 89.558 46.8196 89.5825 46.8196C89.7294 46.8686 89.8764 46.9176 90.0479 46.9176H93.8448C93.8448 46.9176 94.0163 46.9175 94.1143 46.8931C94.1388 46.8931 94.1632 46.8931 94.1877 46.8931C94.2367 46.8931 94.2857 46.8685 94.3592 46.844C94.3837 46.844 94.4082 46.8196 94.4572 46.7951C94.5062 46.7951 94.5552 46.7461 94.5797 46.7216C94.6042 46.7216 94.6287 46.6726 94.6532 46.6726C94.7022 46.6481 94.7267 46.6236 94.7756 46.5746C94.7756 46.5746 94.8246 46.5256 94.8491 46.5011C94.8981 46.4521 94.9226 46.4276 94.9471 46.3786C94.9471 46.3786 94.9716 46.3296 94.9961 46.3051C95.0206 46.2561 95.0696 46.2071 95.0941 46.1336C95.0941 46.1336 95.0941 46.1091 95.0941 46.0846C95.1186 46.0111 95.1431 45.9621 95.1676 45.8886C95.1676 45.8886 95.1676 45.8641 95.1676 45.8396C95.1676 45.7906 95.1676 45.7661 95.1676 45.7171V45.5946C95.1676 45.5946 95.1676 45.5947 95.1676 45.5702C95.1676 45.5457 95.1676 45.5701 95.1676 45.5456V26.437C95.1676 23.4972 94.6532 20.8759 93.6243 18.5975C92.5955 16.3192 91.0767 14.5308 89.0925 13.2569C87.1083 11.983 84.6832 11.3461 81.8172 11.3461C78.9511 11.3461 76.722 11.8115 75.0072 12.767C73.2925 13.6979 71.8227 14.9473 70.6224 16.5152V13.3549C70.6224 13.1099 70.5489 12.8895 70.4509 12.718C70.2795 12.424 70.01 12.2035 69.6916 12.1055C69.6426 12.1055 69.6181 12.081 69.5691 12.0565C69.5691 12.0565 69.5446 12.0565 69.5201 12.0565C69.4466 12.0565 69.3731 12.0565 69.2996 12.0565H65.7967C65.7967 12.0565 65.7477 12.0565 65.6987 12.0565C65.1108 12.1055 64.6208 12.522 64.4984 13.0854C64.4984 13.0854 64.4984 13.0854 64.4984 13.1099C64.4984 13.1834 64.4739 13.2814 64.4739 13.3549V45.5702C64.4739 45.6682 64.4739 45.7416 64.4984 45.8396C64.4984 45.8396 64.4984 45.8641 64.4984 45.8886C64.6208 46.3786 64.9883 46.7461 65.4782 46.8686C65.4782 46.8686 65.5027 46.8686 65.5272 46.8686C65.6007 46.8686 65.6987 46.8931 65.7722 46.8931H69.4956C69.6671 46.8931 69.814 46.8686 69.961 46.7951C69.961 46.7951 69.9855 46.7951 70.01 46.7951C70.01 46.7951 70.01 46.7951 70.0345 46.7951C70.255 46.6971 70.4509 46.5256 70.5979 46.3296C70.7449 46.1091 70.8184 45.8641 70.8184 45.5946V25.7756" fill="black"/>
<path d="M124.686 15.2169C123.632 14.0654 122.187 13.1345 120.374 12.4241C118.537 11.7381 116.283 11.3706 113.589 11.3706C111.164 11.3706 109.13 11.6891 107.465 12.3506C105.774 12.9875 104.403 13.7959 103.349 14.7269C102.272 15.6578 101.488 16.6132 100.973 17.6177C100.459 18.5976 100.214 19.4305 100.214 20.092V20.19C100.214 20.19 100.214 20.2145 100.214 20.239C100.214 20.2635 100.214 20.2635 100.214 20.288V20.3615C100.214 20.3615 100.214 20.4105 100.214 20.435C100.214 20.4595 100.214 20.5085 100.214 20.533C100.214 20.582 100.238 20.631 100.263 20.6555C100.263 20.7045 100.287 20.7289 100.312 20.7779C100.312 20.8024 100.336 20.8515 100.361 20.8759C100.361 20.9249 100.41 20.9495 100.434 20.9984C100.434 21.0229 100.483 21.0474 100.483 21.0719C100.508 21.1209 100.557 21.1454 100.581 21.1944C100.581 21.1944 100.63 21.2434 100.655 21.2434C100.704 21.2679 100.728 21.3169 100.777 21.3414C100.802 21.3414 100.851 21.3659 100.875 21.3904C100.924 21.3904 100.949 21.4394 100.998 21.4394C101.047 21.4394 101.096 21.4639 101.145 21.4884C101.169 21.4884 101.218 21.4884 101.243 21.5129C101.316 21.5129 101.414 21.5374 101.512 21.5374H104.672C105.334 21.5374 105.799 21.1944 106.068 20.533C106.558 19.2836 107.44 18.2546 108.69 17.4462C109.939 16.6377 111.556 16.2458 113.515 16.2458C116.283 16.2458 118.292 16.8582 119.517 18.0586C120.742 19.259 121.354 20.9494 121.354 23.0808V25.0162L111.36 26.4125C107.342 27.0005 104.084 28.2009 101.561 30.0383C99.0626 31.8757 97.8132 34.3255 97.8132 37.4123C97.8132 39.3476 98.3767 41.0625 99.5035 42.5814C100.606 44.1003 102.1 45.3007 103.937 46.2072C105.774 47.1136 107.808 47.5546 110.037 47.5546C112.266 47.5546 113.981 47.2851 115.475 46.7951C116.945 46.2807 118.17 45.6437 119.149 44.8597C120.129 44.0758 120.913 43.2919 121.501 42.4834V45.5702C121.501 46.3052 122.089 46.8931 122.824 46.8931H126.351C127.086 46.8931 127.674 46.3052 127.674 45.5702V23.6197C127.674 22.1009 127.429 20.6065 126.964 19.1366C126.498 17.6667 125.739 16.3437 124.686 15.1923V15.2169ZM121.379 31.5082C121.379 34.007 120.938 36.0894 120.08 37.7553C119.198 39.4211 117.998 40.6216 116.479 41.4055C114.961 42.1895 113.295 42.5814 111.458 42.5814C110.257 42.5814 109.081 42.3854 107.93 41.969C106.779 41.5525 105.848 40.9645 105.113 40.1316C104.378 39.2987 104.011 38.2697 104.011 37.0203C104.011 35.4034 104.819 34.0805 106.436 33.0271C108.053 31.9736 110.429 31.2142 113.613 30.7732L121.403 29.6218V31.5082H121.379Z" fill="black"/>
<path d="M200.599 15.2169C199.546 14.0654 198.101 13.1345 196.288 12.4241C194.451 11.7381 192.197 11.3706 189.503 11.3706C187.077 11.3706 185.044 11.6891 183.379 12.3506C181.688 12.9875 180.317 13.7959 179.263 14.7269C178.185 15.6578 177.401 16.6132 176.887 17.6177C176.373 18.5976 176.128 19.4305 176.128 20.092V20.19C176.128 20.19 176.128 20.2145 176.128 20.239C176.128 20.2635 176.128 20.2635 176.128 20.288V20.3615C176.128 20.3615 176.128 20.4105 176.128 20.435C176.128 20.4595 176.128 20.5085 176.128 20.533C176.128 20.582 176.152 20.631 176.177 20.6555C176.177 20.7045 176.201 20.7289 176.226 20.7779C176.226 20.8024 176.25 20.8515 176.275 20.8759C176.275 20.9249 176.324 20.9495 176.348 20.9984C176.348 21.0229 176.397 21.0474 176.397 21.0719C176.422 21.1209 176.471 21.1454 176.495 21.1699C176.495 21.1699 176.544 21.2189 176.569 21.2434C176.618 21.2679 176.642 21.3169 176.691 21.3414C176.716 21.3414 176.765 21.3659 176.789 21.3904C176.838 21.3904 176.863 21.4394 176.912 21.4394C176.961 21.4394 177.01 21.4639 177.059 21.4884C177.083 21.4884 177.132 21.4884 177.157 21.5129C177.23 21.5129 177.328 21.5374 177.426 21.5374H180.586C181.247 21.5374 181.713 21.1944 181.982 20.533C182.472 19.2836 183.354 18.2546 184.603 17.4462C185.853 16.6377 187.469 16.2458 189.429 16.2458C192.197 16.2458 194.206 16.8582 195.431 18.0586C196.655 19.259 197.268 20.9494 197.268 23.0808V25.0162L187.273 26.4125C183.256 27.0005 179.998 28.2009 177.475 30.0383C174.976 31.8757 173.727 34.3255 173.727 37.4123C173.727 39.3476 174.29 41.0625 175.417 42.5814C176.52 44.1003 178.014 45.3007 179.851 46.2072C181.688 47.1136 183.722 47.5546 185.951 47.5546C188.18 47.5546 189.895 47.2851 191.389 46.7951C192.859 46.2807 194.083 45.6437 195.063 44.8597C196.043 44.0758 196.827 43.2919 197.415 42.4834V45.5702C197.415 46.3052 198.003 46.8931 198.738 46.8931H202.265C203 46.8931 203.588 46.3052 203.588 45.5702V23.6197C203.588 22.1009 203.343 20.6065 202.877 19.1366C202.412 17.6667 201.653 16.3437 200.599 15.1923V15.2169ZM197.292 31.5082C197.292 34.007 196.851 36.0894 195.994 37.7553C195.112 39.4211 193.912 40.6216 192.393 41.4055C190.874 42.1895 189.209 42.5814 187.371 42.5814C186.171 42.5814 184.995 42.3854 183.844 41.969C182.693 41.5525 181.762 40.9645 181.027 40.1316C180.292 39.2987 179.925 38.2697 179.925 37.0203C179.925 35.4034 180.733 34.0805 182.35 33.0271C183.966 31.9736 186.343 31.2142 189.527 30.7732L197.317 29.6218V31.5082H197.292Z" fill="black"/>
<path d="M175.54 1.62024C175.54 1.62024 175.564 1.44875 175.564 1.35076C175.564 0.615812 174.976 0.027832 174.241 0.027832H170.396C170.396 0.027832 170.224 0.027856 170.151 0.0523542C170.126 0.0523542 170.102 0.0523542 170.077 0.0523542C170.028 0.0523542 169.979 0.076863 169.93 0.101361C169.906 0.101361 169.881 0.125833 169.832 0.150331C169.783 0.150331 169.759 0.199324 169.71 0.223823C169.685 0.223823 169.636 0.272816 169.612 0.297315C169.587 0.297315 169.538 0.346345 169.514 0.370844C169.489 0.395342 169.465 0.419824 169.416 0.46882C169.416 0.493319 169.367 0.517814 169.342 0.542312C169.318 0.591309 169.293 0.615815 169.269 0.664811C169.269 0.664811 169.269 0.713818 169.244 0.713818C169.171 0.836309 169.122 0.983295 169.097 1.13028L168.632 3.40861L162.189 35.7953L154.914 12.9874C154.792 12.5955 154.547 12.228 154.204 11.885C153.861 11.542 153.395 11.3951 152.758 11.3951H150.431C149.794 11.3951 149.329 11.5665 148.986 11.885C148.643 12.228 148.423 12.5955 148.276 12.9874L141.074 35.7463L134.631 3.40861L134.166 1.13028C134.141 0.983295 134.092 0.836309 134.019 0.713818C134.019 0.713818 134.019 0.664811 133.994 0.664811C133.97 0.615815 133.945 0.591309 133.921 0.542312C133.921 0.517814 133.872 0.493319 133.847 0.46882C133.823 0.444322 133.798 0.41984 133.749 0.370844C133.725 0.346345 133.7 0.321813 133.651 0.297315C133.627 0.297315 133.602 0.248321 133.553 0.223823C133.504 0.199324 133.48 0.174829 133.431 0.150331C133.406 0.150331 133.382 0.12586 133.333 0.101361C133.284 0.101361 133.235 0.0768525 133.186 0.0523542C133.161 0.0523542 133.137 0.0523542 133.112 0.0523542C133.039 0.0523542 132.941 0.027832 132.867 0.027832H129.022C128.287 0.027832 127.699 0.615812 127.699 1.35076C127.699 1.44875 127.699 1.52225 127.723 1.62024L128.287 4.43753L136.468 45.1292C136.591 45.7171 136.836 46.1581 137.179 46.4766C137.522 46.7951 137.963 46.9421 138.551 46.9421H141.172C141.809 46.9421 142.274 46.7951 142.617 46.4766C142.96 46.1581 143.205 45.7661 143.401 45.2761L151.607 19.847L159.813 45.2761C159.985 45.7661 160.254 46.1581 160.597 46.4766C160.94 46.7951 161.405 46.9421 162.042 46.9421H164.712C165.3 46.9421 165.766 46.7951 166.084 46.4766C166.427 46.1581 166.648 45.7171 166.795 45.1292L174.976 4.43753L175.54 1.62024Z" fill="black"/>
<path d="M236.192 44.6636L218.677 27.5883L233.547 15.2657L234.551 14.4328H234.575C234.575 14.4328 234.575 14.3838 234.6 14.3593C234.624 14.3348 234.673 14.2858 234.698 14.2613C234.722 14.2368 234.747 14.1878 234.796 14.1633C234.796 14.1388 234.845 14.0898 234.869 14.0653C234.894 14.0163 234.918 13.9918 234.943 13.9428C234.943 13.8938 234.967 13.8693 234.992 13.8203C234.992 13.7713 235.016 13.7223 235.041 13.6733C235.041 13.5998 235.041 13.5508 235.041 13.4773C235.041 13.4528 235.041 13.4283 235.041 13.4039C235.041 13.3059 235.041 13.2324 235.016 13.1344C235.016 13.1344 235.016 13.1344 235.016 13.1099C234.967 12.8649 234.845 12.6444 234.673 12.4729C234.428 12.2279 234.11 12.081 233.742 12.081H230.044C229.382 12.081 228.892 12.1544 228.598 12.3259C228.304 12.4729 227.888 12.7914 227.349 13.2324L214.146 24.2566V1.39971C214.146 0.664762 213.558 0.0767822 212.823 0.0767822H209.271C208.536 0.0767822 207.948 0.664762 207.948 1.39971V45.6436C207.948 46.0111 208.095 46.354 208.34 46.5745C208.438 46.6725 208.536 46.746 208.634 46.795C208.683 46.795 208.707 46.844 208.756 46.8685C208.903 46.942 209.075 46.9665 209.271 46.9665H212.847C213.166 46.9665 213.46 46.844 213.68 46.648C213.974 46.403 214.17 46.0355 214.17 45.6191V31.5571L229.137 45.8151C229.627 46.256 230.019 46.55 230.338 46.7215C230.656 46.8685 231.146 46.9665 231.807 46.9665H235.31C235.629 46.9665 235.947 46.844 236.168 46.648C236.462 46.403 236.633 46.0356 236.633 45.6436C236.633 45.2761 236.486 44.9331 236.241 44.6882L236.192 44.6636Z" fill="black"/>
<path d="M265.93 28.8869C265.93 25.3591 265.318 22.2723 264.118 19.6265C262.917 16.9807 261.154 14.9474 258.851 13.5265C256.548 12.1056 253.707 11.3706 250.302 11.3706C247.264 11.3706 244.619 12.0321 242.365 13.306C240.111 14.6044 238.323 16.4418 237.025 18.8426C235.727 21.2434 234.992 24.0117 234.82 27.1965C234.771 27.7845 234.747 28.5194 234.747 29.4503C234.747 30.3813 234.747 31.1162 234.82 31.7042C235.09 36.6283 236.584 40.4991 239.303 43.3409C242.022 46.1827 245.721 47.6036 250.375 47.6036C252.654 47.6036 254.711 47.3096 256.524 46.6971C258.337 46.0847 259.855 45.3252 261.08 44.3943C262.305 43.4633 263.26 42.5079 263.922 41.5525C264.412 40.8665 264.779 40.0826 264.975 39.4701C264.975 39.4701 264.975 39.4211 264.975 39.3966C264.975 39.3966 264.975 39.3967 264.975 39.3722C264.975 39.3722 264.975 39.3476 264.975 39.3231C264.975 39.2497 265 39.1516 265 39.0781V39.0292C265 38.8577 264.951 38.6862 264.902 38.5147C264.902 38.5147 264.902 38.5147 264.902 38.4902C264.877 38.4167 264.828 38.3677 264.804 38.2942C264.804 38.2942 264.779 38.2697 264.755 38.2452C264.73 38.1962 264.681 38.1472 264.632 38.0982C264.632 38.0982 264.608 38.0737 264.583 38.0492C264.534 38.0002 264.485 37.9757 264.436 37.9267C264.436 37.9267 264.412 37.9267 264.387 37.9022C264.338 37.8777 264.265 37.8288 264.216 37.8043C264.216 37.8043 264.191 37.8043 264.167 37.8043C264.093 37.7798 264.02 37.7553 263.946 37.7308C263.897 37.7308 263.873 37.7308 263.824 37.7063H263.701H260.296C259.806 37.7063 259.439 37.7553 259.218 37.8778C258.998 37.9758 258.68 38.3187 258.288 38.8577C258.067 39.2251 257.602 39.6906 256.94 40.3031C256.279 40.9155 255.397 41.4545 254.319 41.9444C253.241 42.4344 251.894 42.6794 250.302 42.6794C248.465 42.6794 246.872 42.1895 245.501 41.2095C244.129 40.2296 243.1 38.9312 242.39 37.3388C241.679 35.7464 241.287 34.056 241.189 32.2187V31.6062H264.608C265.343 31.6062 265.93 31.0182 265.93 30.2833V28.9359V28.8869ZM259.561 26.9515H241.189V26.7555C241.189 24.7467 241.557 22.9583 242.267 21.3904C242.978 19.8225 244.031 18.5976 245.378 17.6667C246.75 16.7602 248.391 16.2948 250.302 16.2948C252.213 16.2948 253.878 16.7602 255.275 17.6667C256.671 18.5731 257.724 19.8225 258.459 21.3904C259.194 22.9583 259.561 24.7467 259.561 26.7555V26.9515Z" fill="black"/>
<path d="M310.906 31.5327C303.875 29.3278 298.902 22.4194 299.711 14.4819C300.421 7.23042 306.153 1.22835 313.355 0.174928C315.217 -0.0945532 317.03 -0.0455731 318.769 0.272904C319.259 0.370898 319.577 0.885354 319.455 1.37532L312.032 30.8713C311.91 31.3612 311.396 31.6552 310.906 31.5082V31.5327Z" fill="url(#paint0_linear_8182_23346)"/>
<path d="M285.307 31.5327C292.705 29.2053 297.776 21.6844 296.33 13.257C295.179 6.56894 289.716 1.2528 283.029 0.223873C281.167 -0.0701064 279.354 -0.0210994 277.64 0.27288C277.15 0.370873 276.831 0.860845 276.954 1.35081L284.205 30.8712C284.327 31.3612 284.842 31.6797 285.331 31.5082L285.307 31.5327Z" fill="url(#paint1_linear_8182_23346)"/>
<defs>
<linearGradient id="paint0_linear_8182_23346" x1="322.37" y1="3.72717" x2="301.448" y2="24.6469" gradientUnits="userSpaceOnUse">
<stop stop-color="#FD975A"/>
<stop offset="1" stop-color="#F34444"/>
</linearGradient>
<linearGradient id="paint1_linear_8182_23346" x1="275.851" y1="22.7133" x2="292.829" y2="5.71294" gradientUnits="userSpaceOnUse">
<stop stop-color="#FD975A"/>
<stop offset="1" stop-color="#F34444"/>
</linearGradient>
</defs>
</svg>

