<svg width="40" height="40" viewBox="0 0 40 40" fill="none" xmlns="http://www.w3.org/2000/svg">
<path d="M20 14.793C17.1328 14.793 14.793 17.1328 14.793 20C14.793 22.8672 17.1328 25.207 20 25.207C22.8672 25.207 25.207 22.8672 25.207 20C25.207 17.1328 22.8672 14.793 20 14.793Z" fill="black"/>
<path d="M35.6172 20.0002C35.6172 17.8439 35.6367 15.7072 35.5156 13.5549C35.3945 11.0549 34.8242 8.83612 32.9961 7.008C31.1641 5.17597 28.9492 4.60956 26.4492 4.48847C24.293 4.36737 22.1562 4.3869 20.0039 4.3869C17.8477 4.3869 15.7109 4.36737 13.5586 4.48847C11.0586 4.60956 8.83985 5.17987 7.01172 7.008C5.17969 8.84003 4.61328 11.0549 4.49219 13.5549C4.3711 15.7111 4.39063 17.8478 4.39063 20.0002C4.39063 22.1525 4.3711 24.2932 4.49219 26.4455C4.61328 28.9455 5.1836 31.1642 7.01172 32.9924C8.84375 34.8244 11.0586 35.3908 13.5586 35.5119C15.7148 35.633 17.8516 35.6135 20.0039 35.6135C22.1602 35.6135 24.2969 35.633 26.4492 35.5119C28.9492 35.3908 31.168 34.8205 32.9961 32.9924C34.8281 31.1603 35.3945 28.9455 35.5156 26.4455C35.6406 24.2932 35.6172 22.1564 35.6172 20.0002ZM20 28.0119C15.5664 28.0119 11.9883 24.4338 11.9883 20.0002C11.9883 15.5666 15.5664 11.9885 20 11.9885C24.4336 11.9885 28.0117 15.5666 28.0117 20.0002C28.0117 24.4338 24.4336 28.0119 20 28.0119ZM28.3398 13.5314C27.3047 13.5314 26.4688 12.6955 26.4688 11.6603C26.4688 10.6252 27.3047 9.78925 28.3398 9.78925C29.375 9.78925 30.2109 10.6252 30.2109 11.6603C30.207 12.6994 29.375 13.5314 28.3398 13.5314Z" fill="black"/>
</svg>
