<svg width="40" height="40" viewBox="0 0 40 40" fill="none" xmlns="http://www.w3.org/2000/svg">
<rect width="40" height="40" transform="matrix(-1 0 0 1 40 0)" fill="white"/>
<path d="M20 37C24.5087 37 28.8327 35.2089 32.0208 32.0208C35.2089 28.8327 37 24.5087 37 20C37 15.4913 35.2089 11.1673 32.0208 7.97918C28.8327 4.79107 24.5087 3 20 3C15.4913 3 11.1673 4.79107 7.97918 7.97918C4.79107 11.1673 3 15.4913 3 20C3 24.5087 4.79107 28.8327 7.97918 32.0208C11.1673 35.2089 15.4913 37 20 37ZM12.86 11.5H14.73L19.2146 17.3344L19.0276 17.6098L23.2209 11.5H28.5L21.989 20.9577L27.7792 28.4943H25.9296L21.1129 22.2247L21.4371 21.7465L16.7983 28.4943H11.5204L18.3204 18.6037L12.86 11.5ZM16.209 26.6572L25.372 13.3383H23.7978L14.6348 26.6572H16.209Z" fill="black"/>
</svg>
