<svg width="1142" height="220" viewBox="0 0 1142 220" fill="none" xmlns="http://www.w3.org/2000/svg">
<path opacity="0.8" d="M180.636 68.3636V80H179.273L172.932 70.8636H172.818V80H171.409V68.3636H172.773L179.136 77.5227H179.25V68.3636H180.636ZM186.82 80.1818C186.032 80.1818 185.34 79.9943 184.746 79.6193C184.155 79.2443 183.693 78.7197 183.359 78.0455C183.03 77.3712 182.865 76.5833 182.865 75.6818C182.865 74.7727 183.03 73.9792 183.359 73.3011C183.693 72.6231 184.155 72.0966 184.746 71.7216C185.34 71.3466 186.032 71.1591 186.82 71.1591C187.607 71.1591 188.297 71.3466 188.888 71.7216C189.482 72.0966 189.945 72.6231 190.274 73.3011C190.607 73.9792 190.774 74.7727 190.774 75.6818C190.774 76.5833 190.607 77.3712 190.274 78.0455C189.945 78.7197 189.482 79.2443 188.888 79.6193C188.297 79.9943 187.607 80.1818 186.82 80.1818ZM186.82 78.9773C187.418 78.9773 187.911 78.8239 188.297 78.517C188.683 78.2102 188.969 77.8068 189.155 77.3068C189.34 76.8068 189.433 76.2652 189.433 75.6818C189.433 75.0985 189.34 74.5549 189.155 74.0511C188.969 73.5473 188.683 73.1402 188.297 72.8295C187.911 72.5189 187.418 72.3636 186.82 72.3636C186.221 72.3636 185.729 72.5189 185.342 72.8295C184.956 73.1402 184.67 73.5473 184.484 74.0511C184.299 74.5549 184.206 75.0985 184.206 75.6818C184.206 76.2652 184.299 76.8068 184.484 77.3068C184.67 77.8068 184.956 78.2102 185.342 78.517C185.729 78.8239 186.221 78.9773 186.82 78.9773ZM199.645 71.2727L196.418 80H195.054L191.827 71.2727H193.281L195.69 78.2273H195.781L198.19 71.2727H199.645ZM201.845 80.0909C201.565 80.0909 201.324 79.9905 201.124 79.7898C200.923 79.589 200.822 79.3485 200.822 79.0682C200.822 78.7879 200.923 78.5473 201.124 78.3466C201.324 78.1458 201.565 78.0455 201.845 78.0455C202.125 78.0455 202.366 78.1458 202.567 78.3466C202.768 78.5473 202.868 78.7879 202.868 79.0682C202.868 79.2538 202.821 79.4242 202.726 79.5795C202.635 79.7348 202.512 79.8598 202.357 79.9545C202.205 80.0455 202.035 80.0909 201.845 80.0909ZM213.842 68.3636V80H212.433V69.8409H212.365L209.524 71.7273V70.2955L212.433 68.3636H213.842ZM220.825 80.1591C220.159 80.1591 219.558 80.0265 219.024 79.7614C218.49 79.4962 218.062 79.1326 217.74 78.6705C217.418 78.2083 217.242 77.6818 217.212 77.0909H218.575C218.628 77.6174 218.867 78.053 219.291 78.3977C219.719 78.7386 220.231 78.9091 220.825 78.9091C221.303 78.9091 221.727 78.7973 222.098 78.5739C222.473 78.3504 222.767 78.0436 222.979 77.6534C223.195 77.2595 223.303 76.8144 223.303 76.3182C223.303 75.8106 223.191 75.358 222.967 74.9602C222.748 74.5587 222.445 74.2424 222.058 74.0114C221.672 73.7803 221.231 73.6629 220.734 73.6591C220.378 73.6553 220.013 73.7102 219.638 73.8239C219.263 73.9337 218.954 74.0758 218.712 74.25L217.393 74.0909L218.098 68.3636H224.143V69.6136H219.28L218.871 73.0455H218.939C219.178 72.8561 219.477 72.6989 219.837 72.5739C220.196 72.4489 220.571 72.3864 220.962 72.3864C221.674 72.3864 222.308 72.5568 222.865 72.8977C223.426 73.2348 223.865 73.697 224.183 74.2841C224.505 74.8712 224.666 75.5417 224.666 76.2955C224.666 77.0379 224.5 77.7008 224.166 78.2841C223.837 78.8636 223.382 79.322 222.803 79.6591C222.223 79.9924 221.564 80.1591 220.825 80.1591ZM249.628 68.3636H251.31L255.264 78.0227H255.401L259.355 68.3636H261.037V80H259.719V71.1591H259.605L255.969 80H254.696L251.06 71.1591H250.946V80H249.628V68.3636ZM267.226 80.1818C266.438 80.1818 265.747 79.9943 265.152 79.6193C264.561 79.2443 264.099 78.7197 263.766 78.0455C263.436 77.3712 263.271 76.5833 263.271 75.6818C263.271 74.7727 263.436 73.9792 263.766 73.3011C264.099 72.6231 264.561 72.0966 265.152 71.7216C265.747 71.3466 266.438 71.1591 267.226 71.1591C268.014 71.1591 268.703 71.3466 269.294 71.7216C269.889 72.0966 270.351 72.6231 270.68 73.3011C271.014 73.9792 271.18 74.7727 271.18 75.6818C271.18 76.5833 271.014 77.3712 270.68 78.0455C270.351 78.7197 269.889 79.2443 269.294 79.6193C268.703 79.9943 268.014 80.1818 267.226 80.1818ZM267.226 78.9773C267.824 78.9773 268.317 78.8239 268.703 78.517C269.089 78.2102 269.375 77.8068 269.561 77.3068C269.747 76.8068 269.839 76.2652 269.839 75.6818C269.839 75.0985 269.747 74.5549 269.561 74.0511C269.375 73.5473 269.089 73.1402 268.703 72.8295C268.317 72.5189 267.824 72.3636 267.226 72.3636C266.627 72.3636 266.135 72.5189 265.749 72.8295C265.362 73.1402 265.076 73.5473 264.891 74.0511C264.705 74.5549 264.612 75.0985 264.612 75.6818C264.612 76.2652 264.705 76.8068 264.891 77.3068C265.076 77.8068 265.362 78.2102 265.749 78.517C266.135 78.8239 266.627 78.9773 267.226 78.9773ZM276.773 80.1818C275.985 80.1818 275.294 79.9943 274.699 79.6193C274.108 79.2443 273.646 78.7197 273.312 78.0455C272.983 77.3712 272.818 76.5833 272.818 75.6818C272.818 74.7727 272.983 73.9792 273.312 73.3011C273.646 72.6231 274.108 72.0966 274.699 71.7216C275.294 71.3466 275.985 71.1591 276.773 71.1591C277.561 71.1591 278.25 71.3466 278.841 71.7216C279.436 72.0966 279.898 72.6231 280.227 73.3011C280.561 73.9792 280.727 74.7727 280.727 75.6818C280.727 76.5833 280.561 77.3712 280.227 78.0455C279.898 78.7197 279.436 79.2443 278.841 79.6193C278.25 79.9943 277.561 80.1818 276.773 80.1818ZM276.773 78.9773C277.371 78.9773 277.864 78.8239 278.25 78.517C278.636 78.2102 278.922 77.8068 279.108 77.3068C279.294 76.8068 279.386 76.2652 279.386 75.6818C279.386 75.0985 279.294 74.5549 279.108 74.0511C278.922 73.5473 278.636 73.1402 278.25 72.8295C277.864 72.5189 277.371 72.3636 276.773 72.3636C276.174 72.3636 275.682 72.5189 275.295 72.8295C274.909 73.1402 274.623 73.5473 274.438 74.0511C274.252 74.5549 274.159 75.0985 274.159 75.6818C274.159 76.2652 274.252 76.8068 274.438 77.3068C274.623 77.8068 274.909 78.2102 275.295 78.517C275.682 78.8239 276.174 78.9773 276.773 78.9773ZM286.07 80.1818C285.342 80.1818 284.7 79.9981 284.143 79.6307C283.587 79.2595 283.151 78.7367 282.837 78.0625C282.522 77.3845 282.365 76.5833 282.365 75.6591C282.365 74.7424 282.522 73.947 282.837 73.2727C283.151 72.5985 283.589 72.0777 284.149 71.7102C284.71 71.3428 285.357 71.1591 286.092 71.1591C286.661 71.1591 287.109 71.2538 287.439 71.4432C287.772 71.6288 288.026 71.8409 288.2 72.0795C288.378 72.3144 288.517 72.5076 288.615 72.6591H288.729V68.3636H290.07V80H288.774V78.6591H288.615C288.517 78.8182 288.376 79.0189 288.195 79.2614C288.013 79.5 287.753 79.714 287.416 79.9034C287.079 80.089 286.63 80.1818 286.07 80.1818ZM286.251 78.9773C286.789 78.9773 287.244 78.8371 287.615 78.5568C287.986 78.2727 288.268 77.8807 288.462 77.3807C288.655 76.8769 288.751 76.2955 288.751 75.6364C288.751 74.9848 288.657 74.4148 288.467 73.9261C288.278 73.4337 287.998 73.0511 287.626 72.7784C287.255 72.5019 286.797 72.3636 286.251 72.3636C285.683 72.3636 285.21 72.5095 284.831 72.8011C284.456 73.089 284.174 73.4811 283.984 73.9773C283.799 74.4697 283.706 75.0227 283.706 75.6364C283.706 76.2576 283.801 76.822 283.99 77.3295C284.183 77.8333 284.467 78.2348 284.842 78.5341C285.221 78.8295 285.691 78.9773 286.251 78.9773ZM293.689 80.0909C293.409 80.0909 293.168 79.9905 292.967 79.7898C292.767 79.589 292.666 79.3485 292.666 79.0682C292.666 78.7879 292.767 78.5473 292.967 78.3466C293.168 78.1458 293.409 78.0455 293.689 78.0455C293.969 78.0455 294.21 78.1458 294.411 78.3466C294.611 78.5473 294.712 78.7879 294.712 79.0682C294.712 79.2538 294.664 79.4242 294.57 79.5795C294.479 79.7348 294.356 79.8598 294.2 79.9545C294.049 80.0455 293.878 80.0909 293.689 80.0909ZM293.689 73.6136C293.409 73.6136 293.168 73.5133 292.967 73.3125C292.767 73.1117 292.666 72.8712 292.666 72.5909C292.666 72.3106 292.767 72.0701 292.967 71.8693C293.168 71.6686 293.409 71.5682 293.689 71.5682C293.969 71.5682 294.21 71.6686 294.411 71.8693C294.611 72.0701 294.712 72.3106 294.712 72.5909C294.712 72.7765 294.664 72.947 294.57 73.1023C294.479 73.2576 294.356 73.3826 294.2 73.4773C294.049 73.5682 293.878 73.6136 293.689 73.6136ZM301.959 80L307.163 69.7045V69.6136H301.163V68.3636H308.618V69.6818L303.436 80H301.959ZM314.229 80.1591C313.448 80.1591 312.759 80.0208 312.161 79.7443C311.566 79.464 311.102 79.0795 310.768 78.5909C310.435 78.0985 310.27 77.5379 310.274 76.9091C310.27 76.4167 310.367 75.9621 310.564 75.5455C310.761 75.125 311.03 74.7746 311.371 74.4943C311.715 74.2102 312.1 74.0303 312.524 73.9545V73.8864C311.967 73.7424 311.524 73.4299 311.195 72.9489C310.865 72.464 310.702 71.9129 310.706 71.2955C310.702 70.7045 310.852 70.1761 311.155 69.7102C311.458 69.2443 311.875 68.8769 312.405 68.608C312.939 68.339 313.547 68.2045 314.229 68.2045C314.903 68.2045 315.505 68.339 316.036 68.608C316.566 68.8769 316.982 69.2443 317.286 69.7102C317.592 70.1761 317.748 70.7045 317.751 71.2955C317.748 71.9129 317.579 72.464 317.246 72.9489C316.916 73.4299 316.479 73.7424 315.933 73.8864V73.9545C316.354 74.0303 316.732 74.2102 317.07 74.4943C317.407 74.7746 317.676 75.125 317.876 75.5455C318.077 75.9621 318.179 76.4167 318.183 76.9091C318.179 77.5379 318.009 78.0985 317.672 78.5909C317.339 79.0795 316.875 79.464 316.28 79.7443C315.689 80.0208 315.005 80.1591 314.229 80.1591ZM314.229 78.9091C314.755 78.9091 315.21 78.8239 315.592 78.6534C315.975 78.483 316.27 78.2424 316.479 77.9318C316.687 77.6212 316.793 77.2576 316.797 76.8409C316.793 76.4015 316.679 76.0133 316.456 75.6761C316.232 75.339 315.928 75.0739 315.541 74.8807C315.159 74.6875 314.721 74.5909 314.229 74.5909C313.732 74.5909 313.289 74.6875 312.899 74.8807C312.513 75.0739 312.208 75.339 311.984 75.6761C311.765 76.0133 311.657 76.4015 311.661 76.8409C311.657 77.2576 311.757 77.6212 311.962 77.9318C312.17 78.2424 312.467 78.483 312.854 78.6534C313.24 78.8239 313.698 78.9091 314.229 78.9091ZM314.229 73.3864C314.645 73.3864 315.015 73.303 315.337 73.1364C315.662 72.9697 315.918 72.7367 316.104 72.4375C316.289 72.1383 316.384 71.7879 316.388 71.3864C316.384 70.9924 316.291 70.6496 316.109 70.358C315.928 70.0625 315.676 69.8352 315.354 69.6761C315.032 69.5133 314.657 69.4318 314.229 69.4318C313.793 69.4318 313.412 69.5133 313.087 69.6761C312.761 69.8352 312.509 70.0625 312.331 70.358C312.153 70.6496 312.066 70.9924 312.07 71.3864C312.066 71.7879 312.155 72.1383 312.337 72.4375C312.522 72.7367 312.778 72.9697 313.104 73.1364C313.429 73.303 313.804 73.3864 314.229 73.3864Z" fill="white"/>
<path d="M202 104.719V103H214V104.719H208.969V119H207.031V104.719H202ZM215.494 119V107H217.275V108.812H217.4C217.619 108.219 218.015 107.737 218.588 107.367C219.161 106.997 219.807 106.812 220.525 106.812C220.661 106.812 220.83 106.815 221.033 106.82C221.236 106.826 221.39 106.833 221.494 106.844V108.719C221.432 108.703 221.288 108.68 221.064 108.648C220.846 108.612 220.614 108.594 220.369 108.594C219.786 108.594 219.265 108.716 218.807 108.961C218.354 109.201 217.994 109.534 217.729 109.961C217.468 110.383 217.338 110.865 217.338 111.406V119H215.494ZM231.242 114.094V107H233.086V119H231.242V116.969H231.117C230.836 117.578 230.398 118.096 229.805 118.523C229.211 118.945 228.461 119.156 227.555 119.156C226.805 119.156 226.138 118.992 225.555 118.664C224.971 118.331 224.513 117.831 224.18 117.164C223.846 116.492 223.68 115.646 223.68 114.625V107H225.523V114.5C225.523 115.375 225.768 116.073 226.258 116.594C226.753 117.115 227.383 117.375 228.148 117.375C228.607 117.375 229.073 117.258 229.547 117.023C230.026 116.789 230.427 116.43 230.75 115.945C231.078 115.461 231.242 114.844 231.242 114.094ZM244.963 109.687L243.307 110.156C243.202 109.88 243.049 109.612 242.846 109.352C242.648 109.086 242.377 108.867 242.033 108.695C241.689 108.523 241.249 108.437 240.713 108.437C239.979 108.437 239.367 108.607 238.877 108.945C238.393 109.279 238.15 109.703 238.15 110.219C238.15 110.677 238.317 111.039 238.65 111.305C238.984 111.57 239.505 111.792 240.213 111.969L241.994 112.406C243.067 112.667 243.867 113.065 244.393 113.602C244.919 114.133 245.182 114.818 245.182 115.656C245.182 116.344 244.984 116.958 244.588 117.5C244.197 118.042 243.65 118.469 242.947 118.781C242.244 119.094 241.426 119.25 240.494 119.25C239.27 119.25 238.257 118.984 237.455 118.453C236.653 117.922 236.145 117.146 235.932 116.125L237.682 115.687C237.848 116.333 238.163 116.818 238.627 117.141C239.096 117.464 239.708 117.625 240.463 117.625C241.322 117.625 242.005 117.443 242.51 117.078C243.02 116.708 243.275 116.266 243.275 115.75C243.275 115.333 243.13 114.984 242.838 114.703C242.546 114.417 242.098 114.203 241.494 114.062L239.494 113.594C238.395 113.333 237.588 112.93 237.072 112.383C236.562 111.831 236.307 111.141 236.307 110.312C236.307 109.635 236.497 109.036 236.877 108.516C237.262 107.995 237.786 107.586 238.447 107.289C239.114 106.992 239.869 106.844 240.713 106.844C241.9 106.844 242.833 107.104 243.51 107.625C244.192 108.146 244.676 108.833 244.963 109.687ZM253.176 107V108.562H246.957V107H253.176ZM248.77 104.125H250.613V115.562C250.613 116.083 250.689 116.474 250.84 116.734C250.996 116.99 251.194 117.161 251.434 117.25C251.678 117.333 251.936 117.375 252.207 117.375C252.41 117.375 252.577 117.365 252.707 117.344C252.837 117.318 252.941 117.297 253.02 117.281L253.395 118.937C253.27 118.984 253.095 119.031 252.871 119.078C252.647 119.13 252.363 119.156 252.02 119.156C251.499 119.156 250.988 119.044 250.488 118.82C249.993 118.596 249.582 118.255 249.254 117.797C248.931 117.339 248.77 116.76 248.77 116.062V104.125ZM267.355 107V108.562H261.137V107H267.355ZM262.949 104.125H264.793V115.562C264.793 116.083 264.868 116.474 265.02 116.734C265.176 116.99 265.374 117.161 265.613 117.25C265.858 117.333 266.116 117.375 266.387 117.375C266.59 117.375 266.757 117.365 266.887 117.344C267.017 117.318 267.121 117.297 267.199 117.281L267.574 118.937C267.449 118.984 267.275 119.031 267.051 119.078C266.827 119.13 266.543 119.156 266.199 119.156C265.678 119.156 265.168 119.044 264.668 118.82C264.173 118.596 263.762 118.255 263.434 117.797C263.111 117.339 262.949 116.76 262.949 116.062V104.125ZM272.23 111.781V119H270.387V103H272.23V108.875H272.387C272.668 108.255 273.09 107.763 273.652 107.398C274.22 107.029 274.975 106.844 275.918 106.844C276.736 106.844 277.452 107.008 278.066 107.336C278.681 107.659 279.158 108.156 279.496 108.828C279.84 109.495 280.012 110.344 280.012 111.375V119H278.168V111.5C278.168 110.547 277.921 109.81 277.426 109.289C276.936 108.763 276.257 108.5 275.387 108.5C274.783 108.5 274.241 108.628 273.762 108.883C273.288 109.138 272.913 109.51 272.637 110C272.366 110.49 272.23 111.083 272.23 111.781ZM288.416 119.25C287.26 119.25 286.262 118.995 285.424 118.484C284.59 117.969 283.947 117.25 283.494 116.328C283.046 115.401 282.822 114.323 282.822 113.094C282.822 111.865 283.046 110.781 283.494 109.844C283.947 108.901 284.577 108.167 285.385 107.641C286.197 107.109 287.145 106.844 288.229 106.844C288.854 106.844 289.471 106.948 290.08 107.156C290.689 107.365 291.244 107.703 291.744 108.172C292.244 108.635 292.643 109.25 292.939 110.016C293.236 110.781 293.385 111.724 293.385 112.844V113.625H284.135V112.031H291.51C291.51 111.354 291.374 110.75 291.104 110.219C290.838 109.687 290.458 109.268 289.963 108.961C289.473 108.654 288.895 108.5 288.229 108.5C287.494 108.5 286.859 108.682 286.322 109.047C285.791 109.406 285.382 109.875 285.096 110.453C284.809 111.031 284.666 111.651 284.666 112.312V113.375C284.666 114.281 284.822 115.049 285.135 115.68C285.452 116.305 285.893 116.781 286.455 117.109C287.018 117.432 287.671 117.594 288.416 117.594C288.9 117.594 289.338 117.526 289.729 117.391C290.124 117.25 290.465 117.042 290.752 116.766C291.038 116.484 291.26 116.135 291.416 115.719L293.197 116.219C293.01 116.823 292.695 117.354 292.252 117.812C291.809 118.266 291.262 118.62 290.611 118.875C289.96 119.125 289.229 119.25 288.416 119.25ZM302.377 119V107H304.158V108.812H304.283C304.502 108.219 304.898 107.737 305.471 107.367C306.044 106.997 306.689 106.812 307.408 106.812C307.544 106.812 307.713 106.815 307.916 106.82C308.119 106.826 308.273 106.833 308.377 106.844V108.719C308.314 108.703 308.171 108.68 307.947 108.648C307.729 108.612 307.497 108.594 307.252 108.594C306.669 108.594 306.148 108.716 305.689 108.961C305.236 109.201 304.877 109.534 304.611 109.961C304.351 110.383 304.221 110.865 304.221 111.406V119H302.377ZM312.406 111.781V119H310.563V103H312.406V108.875H312.563C312.844 108.255 313.266 107.763 313.828 107.398C314.396 107.029 315.151 106.844 316.094 106.844C316.911 106.844 317.628 107.008 318.242 107.336C318.857 107.659 319.333 108.156 319.672 108.828C320.016 109.495 320.188 110.344 320.188 111.375V119H318.344V111.5C318.344 110.547 318.096 109.81 317.602 109.289C317.112 108.763 316.432 108.5 315.563 108.5C314.958 108.5 314.417 108.628 313.938 108.883C313.464 109.138 313.089 109.51 312.813 110C312.542 110.49 312.406 111.083 312.406 111.781ZM324.318 123.5C324.006 123.5 323.727 123.474 323.482 123.422C323.238 123.375 323.068 123.328 322.975 123.281L323.443 121.656C323.891 121.771 324.287 121.813 324.631 121.781C324.975 121.75 325.279 121.596 325.545 121.32C325.816 121.049 326.063 120.609 326.287 120L326.631 119.063L322.193 107H324.193L327.506 116.562H327.631L330.943 107H332.943L327.85 120.75C327.62 121.37 327.337 121.883 326.998 122.289C326.66 122.701 326.266 123.005 325.818 123.203C325.376 123.401 324.876 123.5 324.318 123.5ZM340.596 107V108.562H334.377V107H340.596ZM336.189 104.125H338.033V115.562C338.033 116.083 338.109 116.474 338.26 116.734C338.416 116.99 338.614 117.161 338.854 117.25C339.098 117.333 339.356 117.375 339.627 117.375C339.83 117.375 339.997 117.365 340.127 117.344C340.257 117.318 340.361 117.297 340.439 117.281L340.814 118.937C340.689 118.984 340.515 119.031 340.291 119.078C340.067 119.13 339.783 119.156 339.439 119.156C338.919 119.156 338.408 119.044 337.908 118.82C337.413 118.596 337.002 118.255 336.674 117.797C336.351 117.339 336.189 116.76 336.189 116.062V104.125ZM345.471 111.781V119H343.627V103H345.471V108.875H345.627C345.908 108.255 346.33 107.763 346.893 107.398C347.46 107.029 348.215 106.844 349.158 106.844C349.976 106.844 350.692 107.008 351.307 107.336C351.921 107.659 352.398 108.156 352.736 108.828C353.08 109.495 353.252 110.344 353.252 111.375V119H351.408V111.5C351.408 110.547 351.161 109.81 350.666 109.289C350.176 108.763 349.497 108.5 348.627 108.5C348.023 108.5 347.481 108.628 347.002 108.883C346.528 109.138 346.153 109.51 345.877 110C345.606 110.49 345.471 111.083 345.471 111.781ZM356.625 119V107H358.406V108.875H358.563C358.813 108.234 359.216 107.737 359.773 107.383C360.331 107.023 361 106.844 361.781 106.844C362.573 106.844 363.232 107.023 363.758 107.383C364.289 107.737 364.703 108.234 365 108.875H365.125C365.432 108.255 365.893 107.763 366.508 107.398C367.122 107.029 367.859 106.844 368.719 106.844C369.792 106.844 370.669 107.18 371.352 107.852C372.034 108.518 372.375 109.557 372.375 110.969V119H370.531V110.969C370.531 110.083 370.289 109.451 369.805 109.07C369.32 108.69 368.75 108.5 368.094 108.5C367.25 108.5 366.596 108.755 366.133 109.266C365.669 109.771 365.438 110.411 365.438 111.187V119H363.563V110.781C363.563 110.099 363.341 109.549 362.898 109.133C362.456 108.711 361.885 108.5 361.187 108.5C360.708 108.5 360.26 108.628 359.844 108.883C359.432 109.138 359.099 109.492 358.844 109.945C358.594 110.393 358.469 110.911 358.469 111.5V119H356.625ZM386.809 119.25C385.725 119.25 384.775 118.992 383.957 118.477C383.145 117.961 382.509 117.24 382.051 116.312C381.598 115.385 381.371 114.302 381.371 113.062C381.371 111.812 381.598 110.721 382.051 109.789C382.509 108.857 383.145 108.133 383.957 107.617C384.775 107.102 385.725 106.844 386.809 106.844C387.892 106.844 388.84 107.102 389.652 107.617C390.47 108.133 391.105 108.857 391.559 109.789C392.017 110.721 392.246 111.812 392.246 113.062C392.246 114.302 392.017 115.385 391.559 116.312C391.105 117.24 390.47 117.961 389.652 118.477C388.84 118.992 387.892 119.25 386.809 119.25ZM386.809 117.594C387.632 117.594 388.309 117.383 388.84 116.961C389.371 116.539 389.764 115.984 390.02 115.297C390.275 114.609 390.402 113.865 390.402 113.062C390.402 112.26 390.275 111.513 390.02 110.82C389.764 110.128 389.371 109.568 388.84 109.141C388.309 108.714 387.632 108.5 386.809 108.5C385.986 108.5 385.309 108.714 384.777 109.141C384.246 109.568 383.853 110.128 383.598 110.82C383.342 111.513 383.215 112.26 383.215 113.062C383.215 113.865 383.342 114.609 383.598 115.297C383.853 115.984 384.246 116.539 384.777 116.961C385.309 117.383 385.986 117.594 386.809 117.594ZM400.404 107V108.562H393.936V107H400.404ZM395.873 119V105.344C395.873 104.656 396.035 104.083 396.357 103.625C396.68 103.167 397.1 102.823 397.615 102.594C398.131 102.365 398.675 102.25 399.248 102.25C399.701 102.25 400.071 102.286 400.357 102.359C400.644 102.432 400.857 102.5 400.998 102.562L400.467 104.156C400.373 104.125 400.243 104.086 400.076 104.039C399.915 103.992 399.701 103.969 399.436 103.969C398.826 103.969 398.386 104.122 398.115 104.43C397.85 104.737 397.717 105.187 397.717 105.781V119H395.873ZM410.363 123.5C410.051 123.5 409.772 123.474 409.527 123.422C409.283 123.375 409.113 123.328 409.02 123.281L409.488 121.656C409.936 121.771 410.332 121.813 410.676 121.781C411.02 121.75 411.324 121.596 411.59 121.32C411.861 121.049 412.108 120.609 412.332 120L412.676 119.063L408.238 107H410.238L413.551 116.562H413.676L416.988 107H418.988L413.895 120.75C413.665 121.37 413.382 121.883 413.043 122.289C412.704 122.701 412.311 123.005 411.863 123.203C411.421 123.401 410.921 123.5 410.363 123.5ZM425.867 119.25C424.784 119.25 423.833 118.992 423.016 118.477C422.203 117.961 421.568 117.24 421.109 116.312C420.656 115.385 420.43 114.302 420.43 113.062C420.43 111.812 420.656 110.721 421.109 109.789C421.568 108.857 422.203 108.133 423.016 107.617C423.833 107.102 424.784 106.844 425.867 106.844C426.951 106.844 427.898 107.102 428.711 107.617C429.529 108.133 430.164 108.857 430.617 109.789C431.076 110.721 431.305 111.812 431.305 113.062C431.305 114.302 431.076 115.385 430.617 116.312C430.164 117.24 429.529 117.961 428.711 118.477C427.898 118.992 426.951 119.25 425.867 119.25ZM425.867 117.594C426.69 117.594 427.367 117.383 427.898 116.961C428.43 116.539 428.823 115.984 429.078 115.297C429.333 114.609 429.461 113.865 429.461 113.062C429.461 112.26 429.333 111.513 429.078 110.82C428.823 110.128 428.43 109.568 427.898 109.141C427.367 108.714 426.69 108.5 425.867 108.5C425.044 108.5 424.367 108.714 423.836 109.141C423.305 109.568 422.911 110.128 422.656 110.82C422.401 111.513 422.273 112.26 422.273 113.062C422.273 113.865 422.401 114.609 422.656 115.297C422.911 115.984 423.305 116.539 423.836 116.961C424.367 117.383 425.044 117.594 425.867 117.594ZM441.682 114.094V107H443.525V119H441.682V116.969H441.557C441.275 117.578 440.838 118.096 440.244 118.523C439.65 118.945 438.9 119.156 437.994 119.156C437.244 119.156 436.577 118.992 435.994 118.664C435.411 118.331 434.952 117.831 434.619 117.164C434.286 116.492 434.119 115.646 434.119 114.625V107H435.963V114.5C435.963 115.375 436.208 116.073 436.697 116.594C437.192 117.115 437.822 117.375 438.588 117.375C439.046 117.375 439.512 117.258 439.986 117.023C440.465 116.789 440.867 116.43 441.189 115.945C441.518 115.461 441.682 114.844 441.682 114.094ZM446.902 119V107H448.684V108.812H448.809C449.027 108.219 449.423 107.737 449.996 107.367C450.569 106.997 451.215 106.812 451.934 106.812C452.069 106.812 452.238 106.815 452.441 106.82C452.645 106.826 452.798 106.833 452.902 106.844V108.719C452.84 108.703 452.697 108.68 452.473 108.648C452.254 108.612 452.022 108.594 451.777 108.594C451.194 108.594 450.673 108.716 450.215 108.961C449.762 109.201 449.402 109.534 449.137 109.961C448.876 110.383 448.746 110.865 448.746 111.406V119H446.902ZM171.688 149.5V133H173.469V134.906H173.688C173.823 134.698 174.01 134.432 174.25 134.109C174.495 133.781 174.844 133.49 175.297 133.234C175.755 132.974 176.375 132.844 177.156 132.844C178.167 132.844 179.057 133.096 179.828 133.602C180.599 134.107 181.201 134.823 181.633 135.75C182.065 136.677 182.281 137.771 182.281 139.031C182.281 140.302 182.065 141.404 181.633 142.336C181.201 143.263 180.602 143.982 179.836 144.492C179.07 144.997 178.188 145.25 177.188 145.25C176.417 145.25 175.799 145.122 175.336 144.867C174.872 144.607 174.516 144.312 174.266 143.984C174.016 143.651 173.823 143.375 173.688 143.156H173.531V149.5H171.688ZM173.5 139C173.5 139.906 173.633 140.706 173.898 141.398C174.164 142.086 174.552 142.625 175.063 143.016C175.573 143.401 176.198 143.594 176.937 143.594C177.708 143.594 178.352 143.391 178.867 142.984C179.388 142.573 179.779 142.021 180.039 141.328C180.305 140.63 180.438 139.854 180.438 139C180.438 138.156 180.307 137.396 180.047 136.719C179.792 136.036 179.404 135.497 178.883 135.102C178.367 134.701 177.719 134.5 176.937 134.5C176.188 134.5 175.557 134.69 175.047 135.07C174.536 135.445 174.151 135.971 173.891 136.648C173.63 137.32 173.5 138.104 173.5 139ZM190.125 145.25C188.969 145.25 187.971 144.995 187.133 144.484C186.299 143.969 185.656 143.25 185.203 142.328C184.755 141.401 184.531 140.323 184.531 139.094C184.531 137.865 184.755 136.781 185.203 135.844C185.656 134.901 186.286 134.167 187.094 133.641C187.906 133.109 188.854 132.844 189.938 132.844C190.563 132.844 191.18 132.948 191.789 133.156C192.398 133.365 192.953 133.703 193.453 134.172C193.953 134.635 194.352 135.25 194.648 136.016C194.945 136.781 195.094 137.724 195.094 138.844V139.625H185.844V138.031H193.219C193.219 137.354 193.083 136.75 192.813 136.219C192.547 135.687 192.167 135.268 191.672 134.961C191.182 134.654 190.604 134.5 189.938 134.5C189.203 134.5 188.568 134.682 188.031 135.047C187.5 135.406 187.091 135.875 186.805 136.453C186.518 137.031 186.375 137.651 186.375 138.312V139.375C186.375 140.281 186.531 141.049 186.844 141.68C187.161 142.305 187.602 142.781 188.164 143.109C188.727 143.432 189.38 143.594 190.125 143.594C190.609 143.594 191.047 143.526 191.438 143.391C191.833 143.25 192.174 143.042 192.461 142.766C192.747 142.484 192.969 142.135 193.125 141.719L194.906 142.219C194.719 142.823 194.404 143.354 193.961 143.812C193.518 144.266 192.971 144.62 192.32 144.875C191.669 145.125 190.938 145.25 190.125 145.25ZM197.898 145V133H199.68V134.812H199.805C200.023 134.219 200.419 133.737 200.992 133.367C201.565 132.997 202.211 132.812 202.93 132.812C203.065 132.812 203.234 132.815 203.438 132.82C203.641 132.826 203.794 132.833 203.898 132.844V134.719C203.836 134.703 203.693 134.68 203.469 134.648C203.25 134.612 203.018 134.594 202.773 134.594C202.19 134.594 201.669 134.716 201.211 134.961C200.758 135.201 200.398 135.534 200.133 135.961C199.872 136.383 199.742 136.865 199.742 137.406V145H197.898ZM214.584 135.687L212.928 136.156C212.824 135.88 212.67 135.612 212.467 135.352C212.269 135.086 211.998 134.867 211.654 134.695C211.311 134.523 210.87 134.437 210.334 134.437C209.6 134.437 208.988 134.607 208.498 134.945C208.014 135.279 207.771 135.703 207.771 136.219C207.771 136.677 207.938 137.039 208.271 137.305C208.605 137.57 209.126 137.792 209.834 137.969L211.615 138.406C212.688 138.667 213.488 139.065 214.014 139.602C214.54 140.133 214.803 140.818 214.803 141.656C214.803 142.344 214.605 142.958 214.209 143.5C213.818 144.042 213.271 144.469 212.568 144.781C211.865 145.094 211.048 145.25 210.115 145.25C208.891 145.25 207.878 144.984 207.076 144.453C206.274 143.922 205.766 143.146 205.553 142.125L207.303 141.687C207.469 142.333 207.785 142.818 208.248 143.141C208.717 143.464 209.329 143.625 210.084 143.625C210.943 143.625 211.626 143.443 212.131 143.078C212.641 142.708 212.896 142.266 212.896 141.75C212.896 141.333 212.751 140.984 212.459 140.703C212.167 140.417 211.719 140.203 211.115 140.062L209.115 139.594C208.016 139.333 207.209 138.93 206.693 138.383C206.183 137.831 205.928 137.141 205.928 136.312C205.928 135.635 206.118 135.036 206.498 134.516C206.883 133.995 207.407 133.586 208.068 133.289C208.735 132.992 209.49 132.844 210.334 132.844C211.521 132.844 212.454 133.104 213.131 133.625C213.813 134.146 214.298 134.833 214.584 135.687ZM217.578 145V133H219.422V145H217.578ZM218.516 131C218.156 131 217.846 130.878 217.586 130.633C217.331 130.388 217.203 130.094 217.203 129.75C217.203 129.406 217.331 129.112 217.586 128.867C217.846 128.622 218.156 128.5 218.516 128.5C218.875 128.5 219.182 128.622 219.438 128.867C219.698 129.112 219.828 129.406 219.828 129.75C219.828 130.094 219.698 130.388 219.438 130.633C219.182 130.878 218.875 131 218.516 131ZM231.299 135.687L229.643 136.156C229.538 135.88 229.385 135.612 229.182 135.352C228.984 135.086 228.713 134.867 228.369 134.695C228.025 134.523 227.585 134.437 227.049 134.437C226.314 134.437 225.702 134.607 225.213 134.945C224.729 135.279 224.486 135.703 224.486 136.219C224.486 136.677 224.653 137.039 224.986 137.305C225.32 137.57 225.84 137.792 226.549 137.969L228.33 138.406C229.403 138.667 230.202 139.065 230.729 139.602C231.255 140.133 231.518 140.818 231.518 141.656C231.518 142.344 231.32 142.958 230.924 143.5C230.533 144.042 229.986 144.469 229.283 144.781C228.58 145.094 227.762 145.25 226.83 145.25C225.606 145.25 224.593 144.984 223.791 144.453C222.989 143.922 222.481 143.146 222.268 142.125L224.018 141.687C224.184 142.333 224.499 142.818 224.963 143.141C225.432 143.464 226.044 143.625 226.799 143.625C227.658 143.625 228.34 143.443 228.846 143.078C229.356 142.708 229.611 142.266 229.611 141.75C229.611 141.333 229.465 140.984 229.174 140.703C228.882 140.417 228.434 140.203 227.83 140.062L225.83 139.594C224.731 139.333 223.924 138.93 223.408 138.383C222.898 137.831 222.643 137.141 222.643 136.312C222.643 135.635 222.833 135.036 223.213 134.516C223.598 133.995 224.122 133.586 224.783 133.289C225.45 132.992 226.205 132.844 227.049 132.844C228.236 132.844 229.169 133.104 229.846 133.625C230.528 134.146 231.012 134.833 231.299 135.687ZM239.512 133V134.562H233.293V133H239.512ZM235.105 130.125H236.949V141.562C236.949 142.083 237.025 142.474 237.176 142.734C237.332 142.99 237.53 143.161 237.77 143.25C238.014 143.333 238.272 143.375 238.543 143.375C238.746 143.375 238.913 143.365 239.043 143.344C239.173 143.318 239.277 143.297 239.355 143.281L239.73 144.937C239.605 144.984 239.431 145.031 239.207 145.078C238.983 145.13 238.699 145.156 238.355 145.156C237.835 145.156 237.324 145.044 236.824 144.82C236.329 144.596 235.918 144.255 235.59 143.797C235.267 143.339 235.105 142.76 235.105 142.062V130.125ZM247.188 145.25C246.031 145.25 245.034 144.995 244.195 144.484C243.362 143.969 242.719 143.25 242.266 142.328C241.818 141.401 241.594 140.323 241.594 139.094C241.594 137.865 241.818 136.781 242.266 135.844C242.719 134.901 243.349 134.167 244.156 133.641C244.969 133.109 245.917 132.844 247 132.844C247.625 132.844 248.242 132.948 248.852 133.156C249.461 133.365 250.016 133.703 250.516 134.172C251.016 134.635 251.414 135.25 251.711 136.016C252.008 136.781 252.156 137.724 252.156 138.844V139.625H242.906V138.031H250.281C250.281 137.354 250.146 136.75 249.875 136.219C249.609 135.687 249.229 135.268 248.734 134.961C248.245 134.654 247.667 134.5 247 134.5C246.266 134.5 245.63 134.682 245.094 135.047C244.563 135.406 244.154 135.875 243.867 136.453C243.581 137.031 243.438 137.651 243.438 138.312V139.375C243.438 140.281 243.594 141.049 243.906 141.68C244.224 142.305 244.664 142.781 245.227 143.109C245.789 143.432 246.443 143.594 247.188 143.594C247.672 143.594 248.109 143.526 248.5 143.391C248.896 143.25 249.237 143.042 249.523 142.766C249.81 142.484 250.031 142.135 250.188 141.719L251.969 142.219C251.781 142.823 251.466 143.354 251.023 143.812C250.581 144.266 250.034 144.62 249.383 144.875C248.732 145.125 248 145.25 247.188 145.25ZM256.805 137.781V145H254.961V133H256.742V134.875H256.898C257.18 134.266 257.607 133.776 258.18 133.406C258.753 133.031 259.492 132.844 260.398 132.844C261.211 132.844 261.922 133.01 262.531 133.344C263.141 133.672 263.615 134.172 263.953 134.844C264.292 135.51 264.461 136.354 264.461 137.375V145H262.617V137.5C262.617 136.557 262.372 135.823 261.883 135.297C261.393 134.766 260.721 134.5 259.867 134.5C259.279 134.5 258.753 134.628 258.289 134.883C257.831 135.138 257.469 135.51 257.203 136C256.938 136.49 256.805 137.083 256.805 137.781ZM272.705 145.25C271.58 145.25 270.611 144.984 269.799 144.453C268.986 143.922 268.361 143.19 267.924 142.258C267.486 141.326 267.268 140.26 267.268 139.062C267.268 137.844 267.492 136.768 267.939 135.836C268.393 134.898 269.023 134.167 269.83 133.641C270.643 133.109 271.59 132.844 272.674 132.844C273.518 132.844 274.278 133 274.955 133.312C275.632 133.625 276.187 134.062 276.619 134.625C277.051 135.187 277.32 135.844 277.424 136.594H275.58C275.439 136.047 275.127 135.562 274.643 135.141C274.163 134.714 273.518 134.5 272.705 134.5C271.986 134.5 271.356 134.687 270.814 135.062C270.278 135.432 269.859 135.956 269.557 136.633C269.26 137.305 269.111 138.094 269.111 139C269.111 139.927 269.257 140.734 269.549 141.422C269.846 142.109 270.262 142.643 270.799 143.023C271.34 143.404 271.976 143.594 272.705 143.594C273.184 143.594 273.619 143.51 274.01 143.344C274.4 143.177 274.731 142.938 275.002 142.625C275.273 142.312 275.465 141.937 275.58 141.5H277.424C277.32 142.208 277.062 142.846 276.65 143.414C276.244 143.977 275.705 144.424 275.033 144.758C274.367 145.086 273.59 145.25 272.705 145.25ZM285.15 145.25C283.994 145.25 282.997 144.995 282.158 144.484C281.325 143.969 280.682 143.25 280.229 142.328C279.781 141.401 279.557 140.323 279.557 139.094C279.557 137.865 279.781 136.781 280.229 135.844C280.682 134.901 281.312 134.167 282.119 133.641C282.932 133.109 283.88 132.844 284.963 132.844C285.588 132.844 286.205 132.948 286.814 133.156C287.424 133.365 287.979 133.703 288.479 134.172C288.979 134.635 289.377 135.25 289.674 136.016C289.971 136.781 290.119 137.724 290.119 138.844V139.625H280.869V138.031H288.244C288.244 137.354 288.109 136.75 287.838 136.219C287.572 135.687 287.192 135.268 286.697 134.961C286.208 134.654 285.63 134.5 284.963 134.5C284.229 134.5 283.593 134.682 283.057 135.047C282.525 135.406 282.117 135.875 281.83 136.453C281.544 137.031 281.4 137.651 281.4 138.312V139.375C281.4 140.281 281.557 141.049 281.869 141.68C282.187 142.305 282.627 142.781 283.189 143.109C283.752 143.432 284.406 143.594 285.15 143.594C285.635 143.594 286.072 143.526 286.463 143.391C286.859 143.25 287.2 143.042 287.486 142.766C287.773 142.484 287.994 142.135 288.15 141.719L289.932 142.219C289.744 142.823 289.429 143.354 288.986 143.812C288.544 144.266 287.997 144.62 287.346 144.875C286.695 145.125 285.963 145.25 285.15 145.25ZM294.268 145.125C293.882 145.125 293.551 144.987 293.275 144.711C292.999 144.435 292.861 144.104 292.861 143.719C292.861 143.333 292.999 143.003 293.275 142.727C293.551 142.451 293.882 142.312 294.268 142.312C294.653 142.312 294.984 142.451 295.26 142.727C295.536 143.003 295.674 143.333 295.674 143.719C295.674 143.974 295.609 144.208 295.479 144.422C295.354 144.635 295.184 144.807 294.971 144.937C294.762 145.063 294.528 145.125 294.268 145.125ZM304.545 130.719V129H316.545V130.719H311.514V145H309.576V130.719H304.545ZM322.42 145.25C321.337 145.25 320.386 144.992 319.568 144.477C318.756 143.961 318.12 143.24 317.662 142.312C317.209 141.385 316.982 140.302 316.982 139.062C316.982 137.812 317.209 136.721 317.662 135.789C318.12 134.857 318.756 134.133 319.568 133.617C320.386 133.102 321.337 132.844 322.42 132.844C323.503 132.844 324.451 133.102 325.264 133.617C326.081 134.133 326.717 134.857 327.17 135.789C327.628 136.721 327.857 137.812 327.857 139.062C327.857 140.302 327.628 141.385 327.17 142.312C326.717 143.24 326.081 143.961 325.264 144.477C324.451 144.992 323.503 145.25 322.42 145.25ZM322.42 143.594C323.243 143.594 323.92 143.383 324.451 142.961C324.982 142.539 325.376 141.984 325.631 141.297C325.886 140.609 326.014 139.865 326.014 139.062C326.014 138.26 325.886 137.513 325.631 136.82C325.376 136.128 324.982 135.568 324.451 135.141C323.92 134.714 323.243 134.5 322.42 134.5C321.597 134.5 320.92 134.714 320.389 135.141C319.857 135.568 319.464 136.128 319.209 136.82C318.954 137.513 318.826 138.26 318.826 139.062C318.826 139.865 318.954 140.609 319.209 141.297C319.464 141.984 319.857 142.539 320.389 142.961C320.92 143.383 321.597 143.594 322.42 143.594ZM335.203 145.25C334.203 145.25 333.32 144.997 332.555 144.492C331.789 143.982 331.19 143.263 330.758 142.336C330.326 141.404 330.109 140.302 330.109 139.031C330.109 137.771 330.326 136.677 330.758 135.75C331.19 134.823 331.792 134.107 332.563 133.602C333.333 133.096 334.224 132.844 335.234 132.844C336.016 132.844 336.633 132.974 337.086 133.234C337.544 133.49 337.893 133.781 338.133 134.109C338.378 134.432 338.568 134.698 338.703 134.906H338.859V129H340.703V145H338.922V143.156H338.703C338.568 143.375 338.375 143.651 338.125 143.984C337.875 144.312 337.518 144.607 337.055 144.867C336.591 145.122 335.974 145.25 335.203 145.25ZM335.453 143.594C336.193 143.594 336.818 143.401 337.328 143.016C337.839 142.625 338.227 142.086 338.492 141.398C338.758 140.706 338.891 139.906 338.891 139C338.891 138.104 338.76 137.32 338.5 136.648C338.24 135.971 337.854 135.445 337.344 135.07C336.833 134.69 336.203 134.5 335.453 134.5C334.672 134.5 334.021 134.701 333.5 135.102C332.984 135.497 332.596 136.036 332.336 136.719C332.081 137.396 331.953 138.156 331.953 139C331.953 139.854 332.083 140.63 332.344 141.328C332.609 142.021 333 142.573 333.516 142.984C334.036 143.391 334.682 143.594 335.453 143.594ZM347.867 145.281C347.107 145.281 346.417 145.138 345.797 144.852C345.177 144.56 344.685 144.141 344.32 143.594C343.956 143.042 343.773 142.375 343.773 141.594C343.773 140.906 343.909 140.349 344.18 139.922C344.451 139.49 344.813 139.151 345.266 138.906C345.719 138.661 346.219 138.479 346.766 138.359C347.318 138.234 347.872 138.135 348.43 138.063C349.159 137.969 349.75 137.898 350.203 137.852C350.661 137.799 350.995 137.714 351.203 137.594C351.417 137.474 351.523 137.266 351.523 136.969V136.906C351.523 136.135 351.313 135.536 350.891 135.109C350.474 134.682 349.841 134.469 348.992 134.469C348.112 134.469 347.422 134.661 346.922 135.047C346.422 135.432 346.07 135.844 345.867 136.281L344.117 135.656C344.43 134.927 344.846 134.359 345.367 133.953C345.893 133.542 346.466 133.255 347.086 133.094C347.711 132.927 348.326 132.844 348.93 132.844C349.315 132.844 349.758 132.891 350.258 132.984C350.763 133.073 351.25 133.258 351.719 133.539C352.193 133.82 352.586 134.245 352.898 134.812C353.211 135.38 353.367 136.141 353.367 137.094V145H351.523V143.375H351.43C351.305 143.635 351.096 143.914 350.805 144.211C350.513 144.508 350.125 144.76 349.641 144.969C349.156 145.177 348.565 145.281 347.867 145.281ZM348.148 143.625C348.878 143.625 349.492 143.482 349.992 143.195C350.497 142.909 350.878 142.539 351.133 142.086C351.393 141.633 351.523 141.156 351.523 140.656V138.969C351.445 139.062 351.273 139.148 351.008 139.227C350.747 139.299 350.445 139.365 350.102 139.422C349.763 139.474 349.432 139.521 349.109 139.562C348.792 139.599 348.534 139.63 348.336 139.656C347.857 139.719 347.409 139.82 346.992 139.961C346.581 140.096 346.247 140.302 345.992 140.578C345.742 140.849 345.617 141.219 345.617 141.687C345.617 142.328 345.854 142.812 346.328 143.141C346.807 143.464 347.414 143.625 348.148 143.625ZM357.49 149.5C357.178 149.5 356.899 149.474 356.654 149.422C356.41 149.375 356.24 149.328 356.146 149.281L356.615 147.656C357.063 147.771 357.459 147.813 357.803 147.781C358.146 147.75 358.451 147.596 358.717 147.32C358.988 147.049 359.235 146.609 359.459 146L359.803 145.063L355.365 133H357.365L360.678 142.562H360.803L364.115 133H366.115L361.021 146.75C360.792 147.37 360.508 147.883 360.17 148.289C359.831 148.701 359.438 149.005 358.99 149.203C358.548 149.401 358.048 149.5 357.49 149.5ZM374.736 145V133H376.518V134.812H376.643C376.861 134.219 377.257 133.737 377.83 133.367C378.403 132.997 379.049 132.812 379.768 132.812C379.903 132.812 380.072 132.815 380.275 132.82C380.479 132.826 380.632 132.833 380.736 132.844V134.719C380.674 134.703 380.531 134.68 380.307 134.648C380.088 134.612 379.856 134.594 379.611 134.594C379.028 134.594 378.507 134.716 378.049 134.961C377.596 135.201 377.236 135.534 376.971 135.961C376.71 136.383 376.58 136.865 376.58 137.406V145H374.736ZM387.588 145.25C386.432 145.25 385.434 144.995 384.596 144.484C383.762 143.969 383.119 143.25 382.666 142.328C382.218 141.401 381.994 140.323 381.994 139.094C381.994 137.865 382.218 136.781 382.666 135.844C383.119 134.901 383.749 134.167 384.557 133.641C385.369 133.109 386.317 132.844 387.4 132.844C388.025 132.844 388.643 132.948 389.252 133.156C389.861 133.365 390.416 133.703 390.916 134.172C391.416 134.635 391.814 135.25 392.111 136.016C392.408 136.781 392.557 137.724 392.557 138.844V139.625H383.307V138.031H390.682C390.682 137.354 390.546 136.75 390.275 136.219C390.01 135.687 389.63 135.268 389.135 134.961C388.645 134.654 388.067 134.5 387.4 134.5C386.666 134.5 386.031 134.682 385.494 135.047C384.963 135.406 384.554 135.875 384.268 136.453C383.981 137.031 383.838 137.651 383.838 138.312V139.375C383.838 140.281 383.994 141.049 384.307 141.68C384.624 142.305 385.064 142.781 385.627 143.109C386.189 143.432 386.843 143.594 387.588 143.594C388.072 143.594 388.51 143.526 388.9 143.391C389.296 143.25 389.637 143.042 389.924 142.766C390.21 142.484 390.432 142.135 390.588 141.719L392.369 142.219C392.182 142.823 391.867 143.354 391.424 143.812C390.981 144.266 390.434 144.62 389.783 144.875C389.132 145.125 388.4 145.25 387.588 145.25ZM398.08 145L394.424 133H396.361L398.955 142.188H399.08L401.643 133H403.611L406.143 142.156H406.268L408.861 133H410.799L407.143 145H405.33L402.705 135.781H402.518L399.893 145H398.08ZM416.768 145.281C416.007 145.281 415.317 145.138 414.697 144.852C414.077 144.56 413.585 144.141 413.221 143.594C412.856 143.042 412.674 142.375 412.674 141.594C412.674 140.906 412.809 140.349 413.08 139.922C413.351 139.49 413.713 139.151 414.166 138.906C414.619 138.661 415.119 138.479 415.666 138.359C416.218 138.234 416.773 138.135 417.33 138.063C418.059 137.969 418.65 137.898 419.104 137.852C419.562 137.799 419.895 137.714 420.104 137.594C420.317 137.474 420.424 137.266 420.424 136.969V136.906C420.424 136.135 420.213 135.536 419.791 135.109C419.374 134.682 418.742 134.469 417.893 134.469C417.012 134.469 416.322 134.661 415.822 135.047C415.322 135.432 414.971 135.844 414.768 136.281L413.018 135.656C413.33 134.927 413.747 134.359 414.268 133.953C414.794 133.542 415.367 133.255 415.986 133.094C416.611 132.927 417.226 132.844 417.83 132.844C418.215 132.844 418.658 132.891 419.158 132.984C419.663 133.073 420.15 133.258 420.619 133.539C421.093 133.82 421.486 134.245 421.799 134.812C422.111 135.38 422.268 136.141 422.268 137.094V145H420.424V143.375H420.33C420.205 143.635 419.997 143.914 419.705 144.211C419.413 144.508 419.025 144.76 418.541 144.969C418.057 145.177 417.465 145.281 416.768 145.281ZM417.049 143.625C417.778 143.625 418.393 143.482 418.893 143.195C419.398 142.909 419.778 142.539 420.033 142.086C420.294 141.633 420.424 141.156 420.424 140.656V138.969C420.346 139.062 420.174 139.148 419.908 139.227C419.648 139.299 419.346 139.365 419.002 139.422C418.663 139.474 418.333 139.521 418.01 139.562C417.692 139.599 417.434 139.63 417.236 139.656C416.757 139.719 416.309 139.82 415.893 139.961C415.481 140.096 415.148 140.302 414.893 140.578C414.643 140.849 414.518 141.219 414.518 141.687C414.518 142.328 414.755 142.812 415.229 143.141C415.708 143.464 416.314 143.625 417.049 143.625ZM425.633 145V133H427.414V134.812H427.539C427.758 134.219 428.154 133.737 428.727 133.367C429.299 132.997 429.945 132.812 430.664 132.812C430.799 132.812 430.969 132.815 431.172 132.82C431.375 132.826 431.529 132.833 431.633 132.844V134.719C431.57 134.703 431.427 134.68 431.203 134.648C430.984 134.612 430.753 134.594 430.508 134.594C429.924 134.594 429.404 134.716 428.945 134.961C428.492 135.201 428.133 135.534 427.867 135.961C427.607 136.383 427.477 136.865 427.477 137.406V145H425.633ZM437.984 145.25C436.984 145.25 436.102 144.997 435.336 144.492C434.57 143.982 433.971 143.263 433.539 142.336C433.107 141.404 432.891 140.302 432.891 139.031C432.891 137.771 433.107 136.677 433.539 135.75C433.971 134.823 434.573 134.107 435.344 133.602C436.115 133.096 437.005 132.844 438.016 132.844C438.797 132.844 439.414 132.974 439.867 133.234C440.326 133.49 440.674 133.781 440.914 134.109C441.159 134.432 441.349 134.698 441.484 134.906H441.641V129H443.484V145H441.703V143.156H441.484C441.349 143.375 441.156 143.651 440.906 143.984C440.656 144.312 440.299 144.607 439.836 144.867C439.372 145.122 438.755 145.25 437.984 145.25ZM438.234 143.594C438.974 143.594 439.599 143.401 440.109 143.016C440.62 142.625 441.008 142.086 441.273 141.398C441.539 140.706 441.672 139.906 441.672 139C441.672 138.104 441.542 137.32 441.281 136.648C441.021 135.971 440.635 135.445 440.125 135.07C439.615 134.69 438.984 134.5 438.234 134.5C437.453 134.5 436.802 134.701 436.281 135.102C435.766 135.497 435.378 136.036 435.117 136.719C434.862 137.396 434.734 138.156 434.734 139C434.734 139.854 434.865 140.63 435.125 141.328C435.391 142.021 435.781 142.573 436.297 142.984C436.818 143.391 437.464 143.594 438.234 143.594ZM455.617 135.687L453.961 136.156C453.857 135.88 453.703 135.612 453.5 135.352C453.302 135.086 453.031 134.867 452.688 134.695C452.344 134.523 451.904 134.437 451.367 134.437C450.633 134.437 450.021 134.607 449.531 134.945C449.047 135.279 448.805 135.703 448.805 136.219C448.805 136.677 448.971 137.039 449.305 137.305C449.638 137.57 450.159 137.792 450.867 137.969L452.648 138.406C453.721 138.667 454.521 139.065 455.047 139.602C455.573 140.133 455.836 140.818 455.836 141.656C455.836 142.344 455.638 142.958 455.242 143.5C454.852 144.042 454.305 144.469 453.602 144.781C452.898 145.094 452.081 145.25 451.148 145.25C449.924 145.25 448.911 144.984 448.109 144.453C447.307 143.922 446.799 143.146 446.586 142.125L448.336 141.687C448.503 142.333 448.818 142.818 449.281 143.141C449.75 143.464 450.362 143.625 451.117 143.625C451.977 143.625 452.659 143.443 453.164 143.078C453.674 142.708 453.93 142.266 453.93 141.75C453.93 141.333 453.784 140.984 453.492 140.703C453.201 140.417 452.753 140.203 452.148 140.062L450.148 139.594C449.049 139.333 448.242 138.93 447.727 138.383C447.216 137.831 446.961 137.141 446.961 136.312C446.961 135.635 447.151 135.036 447.531 134.516C447.917 133.995 448.44 133.586 449.102 133.289C449.768 132.992 450.523 132.844 451.367 132.844C452.555 132.844 453.487 133.104 454.164 133.625C454.846 134.146 455.331 134.833 455.617 135.687ZM176.906 159V160.562H170.688V159H176.906ZM172.5 156.125H174.344V167.562C174.344 168.083 174.419 168.474 174.57 168.734C174.727 168.99 174.924 169.161 175.164 169.25C175.409 169.333 175.667 169.375 175.938 169.375C176.141 169.375 176.307 169.365 176.438 169.344C176.568 169.318 176.672 169.297 176.75 169.281L177.125 170.937C177 170.984 176.826 171.031 176.602 171.078C176.378 171.13 176.094 171.156 175.75 171.156C175.229 171.156 174.719 171.044 174.219 170.82C173.724 170.596 173.313 170.255 172.984 169.797C172.661 169.339 172.5 168.76 172.5 168.062V156.125ZM181.781 163.781V171H179.938V155H181.781V160.875H181.938C182.219 160.255 182.641 159.763 183.203 159.398C183.771 159.029 184.526 158.844 185.469 158.844C186.286 158.844 187.003 159.008 187.617 159.336C188.232 159.659 188.708 160.156 189.047 160.828C189.391 161.495 189.563 162.344 189.563 163.375V171H187.719V163.5C187.719 162.547 187.471 161.81 186.977 161.289C186.487 160.763 185.807 160.5 184.938 160.5C184.333 160.5 183.792 160.628 183.313 160.883C182.839 161.138 182.464 161.51 182.188 162C181.917 162.49 181.781 163.083 181.781 163.781ZM197.811 171.25C196.727 171.25 195.777 170.992 194.959 170.477C194.146 169.961 193.511 169.24 193.053 168.312C192.6 167.385 192.373 166.302 192.373 165.062C192.373 163.812 192.6 162.721 193.053 161.789C193.511 160.857 194.146 160.133 194.959 159.617C195.777 159.102 196.727 158.844 197.811 158.844C198.894 158.844 199.842 159.102 200.654 159.617C201.472 160.133 202.107 160.857 202.561 161.789C203.019 162.721 203.248 163.812 203.248 165.062C203.248 166.302 203.019 167.385 202.561 168.312C202.107 169.24 201.472 169.961 200.654 170.477C199.842 170.992 198.894 171.25 197.811 171.25ZM197.811 169.594C198.633 169.594 199.311 169.383 199.842 168.961C200.373 168.539 200.766 167.984 201.021 167.297C201.277 166.609 201.404 165.865 201.404 165.062C201.404 164.26 201.277 163.513 201.021 162.82C200.766 162.128 200.373 161.568 199.842 161.141C199.311 160.714 198.633 160.5 197.811 160.5C196.988 160.5 196.311 160.714 195.779 161.141C195.248 161.568 194.855 162.128 194.6 162.82C194.344 163.513 194.217 164.26 194.217 165.062C194.217 165.865 194.344 166.609 194.6 167.297C194.855 167.984 195.248 168.539 195.779 168.961C196.311 169.383 196.988 169.594 197.811 169.594ZM214.563 161.687L212.906 162.156C212.802 161.88 212.648 161.612 212.445 161.352C212.247 161.086 211.977 160.867 211.633 160.695C211.289 160.523 210.849 160.437 210.313 160.437C209.578 160.437 208.966 160.607 208.477 160.945C207.992 161.279 207.75 161.703 207.75 162.219C207.75 162.677 207.917 163.039 208.25 163.305C208.583 163.57 209.104 163.792 209.813 163.969L211.594 164.406C212.667 164.667 213.466 165.065 213.992 165.602C214.518 166.133 214.781 166.818 214.781 167.656C214.781 168.344 214.583 168.958 214.188 169.5C213.797 170.042 213.25 170.469 212.547 170.781C211.844 171.094 211.026 171.25 210.094 171.25C208.87 171.25 207.857 170.984 207.055 170.453C206.253 169.922 205.745 169.146 205.531 168.125L207.281 167.687C207.448 168.333 207.763 168.818 208.227 169.141C208.695 169.464 209.307 169.625 210.063 169.625C210.922 169.625 211.604 169.443 212.109 169.078C212.62 168.708 212.875 168.266 212.875 167.75C212.875 167.333 212.729 166.984 212.438 166.703C212.146 166.417 211.698 166.203 211.094 166.062L209.094 165.594C207.995 165.333 207.187 164.93 206.672 164.383C206.161 163.831 205.906 163.141 205.906 162.312C205.906 161.635 206.096 161.036 206.477 160.516C206.862 159.995 207.385 159.586 208.047 159.289C208.714 158.992 209.469 158.844 210.313 158.844C211.5 158.844 212.432 159.104 213.109 159.625C213.792 160.146 214.276 160.833 214.563 161.687ZM222.588 171.25C221.432 171.25 220.434 170.995 219.596 170.484C218.762 169.969 218.119 169.25 217.666 168.328C217.218 167.401 216.994 166.323 216.994 165.094C216.994 163.865 217.218 162.781 217.666 161.844C218.119 160.901 218.749 160.167 219.557 159.641C220.369 159.109 221.317 158.844 222.4 158.844C223.025 158.844 223.643 158.948 224.252 159.156C224.861 159.365 225.416 159.703 225.916 160.172C226.416 160.635 226.814 161.25 227.111 162.016C227.408 162.781 227.557 163.724 227.557 164.844V165.625H218.307V164.031H225.682C225.682 163.354 225.546 162.75 225.275 162.219C225.01 161.687 224.63 161.268 224.135 160.961C223.645 160.654 223.067 160.5 222.4 160.5C221.666 160.5 221.031 160.682 220.494 161.047C219.963 161.406 219.554 161.875 219.268 162.453C218.981 163.031 218.838 163.651 218.838 164.312V165.375C218.838 166.281 218.994 167.049 219.307 167.68C219.624 168.305 220.064 168.781 220.627 169.109C221.189 169.432 221.843 169.594 222.588 169.594C223.072 169.594 223.51 169.526 223.9 169.391C224.296 169.25 224.637 169.042 224.924 168.766C225.21 168.484 225.432 168.135 225.588 167.719L227.369 168.219C227.182 168.823 226.867 169.354 226.424 169.812C225.981 170.266 225.434 170.62 224.783 170.875C224.132 171.125 223.4 171.25 222.588 171.25ZM239.268 171L235.611 159H237.549L240.143 168.188H240.268L242.83 159H244.799L247.33 168.156H247.455L250.049 159H251.986L248.33 171H246.518L243.893 161.781H243.705L241.08 171H239.268ZM256.268 163.781V171H254.424V155H256.268V160.875H256.424C256.705 160.255 257.127 159.763 257.689 159.398C258.257 159.029 259.012 158.844 259.955 158.844C260.773 158.844 261.489 159.008 262.104 159.336C262.718 159.659 263.195 160.156 263.533 160.828C263.877 161.495 264.049 162.344 264.049 163.375V171H262.205V163.5C262.205 162.547 261.958 161.81 261.463 161.289C260.973 160.763 260.294 160.5 259.424 160.5C258.82 160.5 258.278 160.628 257.799 160.883C257.325 161.138 256.95 161.51 256.674 162C256.403 162.49 256.268 163.083 256.268 163.781ZM272.297 171.25C271.214 171.25 270.263 170.992 269.445 170.477C268.633 169.961 267.997 169.24 267.539 168.312C267.086 167.385 266.859 166.302 266.859 165.062C266.859 163.812 267.086 162.721 267.539 161.789C267.997 160.857 268.633 160.133 269.445 159.617C270.263 159.102 271.214 158.844 272.297 158.844C273.38 158.844 274.328 159.102 275.141 159.617C275.958 160.133 276.594 160.857 277.047 161.789C277.505 162.721 277.734 163.812 277.734 165.062C277.734 166.302 277.505 167.385 277.047 168.312C276.594 169.24 275.958 169.961 275.141 170.477C274.328 170.992 273.38 171.25 272.297 171.25ZM272.297 169.594C273.12 169.594 273.797 169.383 274.328 168.961C274.859 168.539 275.253 167.984 275.508 167.297C275.763 166.609 275.891 165.865 275.891 165.062C275.891 164.26 275.763 163.513 275.508 162.82C275.253 162.128 274.859 161.568 274.328 161.141C273.797 160.714 273.12 160.5 272.297 160.5C271.474 160.5 270.797 160.714 270.266 161.141C269.734 161.568 269.341 162.128 269.086 162.82C268.831 163.513 268.703 164.26 268.703 165.062C268.703 165.865 268.831 166.609 269.086 167.297C269.341 167.984 269.734 168.539 270.266 168.961C270.797 169.383 271.474 169.594 272.297 169.594ZM286.736 171V159H288.58V171H286.736ZM287.674 157C287.314 157 287.005 156.878 286.744 156.633C286.489 156.388 286.361 156.094 286.361 155.75C286.361 155.406 286.489 155.112 286.744 154.867C287.005 154.622 287.314 154.5 287.674 154.5C288.033 154.5 288.34 154.622 288.596 154.867C288.856 155.112 288.986 155.406 288.986 155.75C288.986 156.094 288.856 156.388 288.596 156.633C288.34 156.878 288.033 157 287.674 157ZM297.176 159V160.562H290.957V159H297.176ZM292.77 156.125H294.613V167.562C294.613 168.083 294.689 168.474 294.84 168.734C294.996 168.99 295.194 169.161 295.434 169.25C295.678 169.333 295.936 169.375 296.207 169.375C296.41 169.375 296.577 169.365 296.707 169.344C296.837 169.318 296.941 169.297 297.02 169.281L297.395 170.937C297.27 170.984 297.095 171.031 296.871 171.078C296.647 171.13 296.363 171.156 296.02 171.156C295.499 171.156 294.988 171.044 294.488 170.82C293.993 170.596 293.582 170.255 293.254 169.797C292.931 169.339 292.77 168.76 292.77 168.062V156.125ZM304.852 171.25C303.695 171.25 302.698 170.995 301.859 170.484C301.026 169.969 300.383 169.25 299.93 168.328C299.482 167.401 299.258 166.323 299.258 165.094C299.258 163.865 299.482 162.781 299.93 161.844C300.383 160.901 301.013 160.167 301.82 159.641C302.633 159.109 303.581 158.844 304.664 158.844C305.289 158.844 305.906 158.948 306.516 159.156C307.125 159.365 307.68 159.703 308.18 160.172C308.68 160.635 309.078 161.25 309.375 162.016C309.672 162.781 309.82 163.724 309.82 164.844V165.625H300.57V164.031H307.945C307.945 163.354 307.81 162.75 307.539 162.219C307.273 161.687 306.893 161.268 306.398 160.961C305.909 160.654 305.331 160.5 304.664 160.5C303.93 160.5 303.294 160.682 302.758 161.047C302.227 161.406 301.818 161.875 301.531 162.453C301.245 163.031 301.102 163.651 301.102 164.312V165.375C301.102 166.281 301.258 167.049 301.57 167.68C301.888 168.305 302.328 168.781 302.891 169.109C303.453 169.432 304.107 169.594 304.852 169.594C305.336 169.594 305.773 169.526 306.164 169.391C306.56 169.25 306.901 169.042 307.188 168.766C307.474 168.484 307.695 168.135 307.852 167.719L309.633 168.219C309.445 168.823 309.13 169.354 308.688 169.812C308.245 170.266 307.698 170.62 307.047 170.875C306.396 171.125 305.664 171.25 304.852 171.25ZM312.625 171V159H314.406V160.812H314.531C314.75 160.219 315.146 159.737 315.719 159.367C316.292 158.997 316.938 158.812 317.656 158.812C317.792 158.812 317.961 158.815 318.164 158.82C318.367 158.826 318.521 158.833 318.625 158.844V160.719C318.563 160.703 318.419 160.68 318.195 160.648C317.977 160.612 317.745 160.594 317.5 160.594C316.917 160.594 316.396 160.716 315.938 160.961C315.484 161.201 315.125 161.534 314.859 161.961C314.599 162.383 314.469 162.865 314.469 163.406V171H312.625ZM324.342 171.281C323.581 171.281 322.891 171.138 322.271 170.852C321.652 170.56 321.16 170.141 320.795 169.594C320.43 169.042 320.248 168.375 320.248 167.594C320.248 166.906 320.383 166.349 320.654 165.922C320.925 165.49 321.287 165.151 321.74 164.906C322.193 164.661 322.693 164.479 323.24 164.359C323.792 164.234 324.347 164.135 324.904 164.063C325.633 163.969 326.225 163.898 326.678 163.852C327.136 163.799 327.469 163.714 327.678 163.594C327.891 163.474 327.998 163.266 327.998 162.969V162.906C327.998 162.135 327.787 161.536 327.365 161.109C326.949 160.682 326.316 160.469 325.467 160.469C324.587 160.469 323.896 160.661 323.396 161.047C322.896 161.432 322.545 161.844 322.342 162.281L320.592 161.656C320.904 160.927 321.321 160.359 321.842 159.953C322.368 159.542 322.941 159.255 323.561 159.094C324.186 158.927 324.8 158.844 325.404 158.844C325.79 158.844 326.232 158.891 326.732 158.984C327.238 159.073 327.725 159.258 328.193 159.539C328.667 159.82 329.061 160.245 329.373 160.812C329.686 161.38 329.842 162.141 329.842 163.094V171H327.998V169.375H327.904C327.779 169.635 327.571 169.914 327.279 170.211C326.988 170.508 326.6 170.76 326.115 170.969C325.631 171.177 325.04 171.281 324.342 171.281ZM324.623 169.625C325.352 169.625 325.967 169.482 326.467 169.195C326.972 168.909 327.352 168.539 327.607 168.086C327.868 167.633 327.998 167.156 327.998 166.656V164.969C327.92 165.062 327.748 165.148 327.482 165.227C327.222 165.299 326.92 165.365 326.576 165.422C326.238 165.474 325.907 165.521 325.584 165.562C325.266 165.599 325.008 165.63 324.811 165.656C324.331 165.719 323.883 165.82 323.467 165.961C323.055 166.096 322.722 166.302 322.467 166.578C322.217 166.849 322.092 167.219 322.092 167.687C322.092 168.328 322.329 168.812 322.803 169.141C323.282 169.464 323.889 169.625 324.623 169.625ZM338.426 159V160.562H332.207V159H338.426ZM334.02 156.125H335.863V167.562C335.863 168.083 335.939 168.474 336.09 168.734C336.246 168.99 336.444 169.161 336.684 169.25C336.928 169.333 337.186 169.375 337.457 169.375C337.66 169.375 337.827 169.365 337.957 169.344C338.087 169.318 338.191 169.297 338.27 169.281L338.645 170.937C338.52 170.984 338.345 171.031 338.121 171.078C337.897 171.13 337.613 171.156 337.27 171.156C336.749 171.156 336.238 171.044 335.738 170.82C335.243 170.596 334.832 170.255 334.504 169.797C334.181 169.339 334.02 168.76 334.02 168.062V156.125ZM346.102 171.25C344.945 171.25 343.948 170.995 343.109 170.484C342.276 169.969 341.633 169.25 341.18 168.328C340.732 167.401 340.508 166.323 340.508 165.094C340.508 163.865 340.732 162.781 341.18 161.844C341.633 160.901 342.263 160.167 343.07 159.641C343.883 159.109 344.831 158.844 345.914 158.844C346.539 158.844 347.156 158.948 347.766 159.156C348.375 159.365 348.93 159.703 349.43 160.172C349.93 160.635 350.328 161.25 350.625 162.016C350.922 162.781 351.07 163.724 351.07 164.844V165.625H341.82V164.031H349.195C349.195 163.354 349.06 162.75 348.789 162.219C348.523 161.687 348.143 161.268 347.648 160.961C347.159 160.654 346.581 160.5 345.914 160.5C345.18 160.5 344.544 160.682 344.008 161.047C343.477 161.406 343.068 161.875 342.781 162.453C342.495 163.031 342.352 163.651 342.352 164.312V165.375C342.352 166.281 342.508 167.049 342.82 167.68C343.138 168.305 343.578 168.781 344.141 169.109C344.703 169.432 345.357 169.594 346.102 169.594C346.586 169.594 347.023 169.526 347.414 169.391C347.81 169.25 348.151 169.042 348.438 168.766C348.724 168.484 348.945 168.135 349.102 167.719L350.883 168.219C350.695 168.823 350.38 169.354 349.938 169.812C349.495 170.266 348.948 170.62 348.297 170.875C347.646 171.125 346.914 171.25 346.102 171.25ZM355.219 171.125C354.833 171.125 354.503 170.987 354.227 170.711C353.951 170.435 353.813 170.104 353.813 169.719C353.813 169.333 353.951 169.003 354.227 168.727C354.503 168.451 354.833 168.312 355.219 168.312C355.604 168.312 355.935 168.451 356.211 168.727C356.487 169.003 356.625 169.333 356.625 169.719C356.625 169.974 356.56 170.208 356.43 170.422C356.305 170.635 356.135 170.807 355.922 170.937C355.714 171.063 355.479 171.125 355.219 171.125Z" fill="white"/>
<circle cx="173.547" cy="113.5" r="3.5" fill="#A7DE50"/>
<circle cx="173.547" cy="113.5" r="3.5" fill="url(#paint0_linear_282_825)"/>
<circle cx="173.547" cy="113.5" r="3.5" fill="url(#paint1_radial_282_825)"/>
<circle cx="173.547" cy="113.5" r="3.5" fill="url(#paint2_radial_282_825)"/>
<circle cx="173.547" cy="113.5" r="3.5" fill="url(#paint3_radial_282_825)"/>
<g filter="url(#filter0_f_282_825)">
<circle cx="172.73" cy="112.637" r="0.5" fill="#5B841C"/>
</g>
<path d="M172.998 116.98L180.984 116V118.5C180.984 119.328 180.313 120 179.484 120H174.498C173.67 120 172.998 119.328 172.998 118.5V116.98Z" fill="#A7CD4C"/>
<path d="M172.998 116.98L180.984 116V118.5C180.984 119.328 180.313 120 179.484 120H174.498C173.67 120 172.998 119.328 172.998 118.5V116.98Z" fill="url(#paint4_radial_282_825)"/>
<path d="M172.998 116.98L180.984 116V118.5C180.984 119.328 180.313 120 179.484 120H174.498C173.67 120 172.998 119.328 172.998 118.5V116.98Z" fill="url(#paint5_linear_282_825)"/>
<path d="M172.998 116.98L180.984 116V118.5C180.984 119.328 180.313 120 179.484 120H174.498C173.67 120 172.998 119.328 172.998 118.5V116.98Z" fill="url(#paint6_linear_282_825)"/>
<path d="M172.998 116.98L180.984 116V118.5C180.984 119.328 180.313 120 179.484 120H174.498C173.67 120 172.998 119.328 172.998 118.5V116.98Z" fill="url(#paint7_linear_282_825)"/>
<path d="M172.998 116.98L180.984 116V118.5C180.984 119.328 180.313 120 179.484 120H174.498C173.67 120 172.998 119.328 172.998 118.5V116.98Z" fill="url(#paint8_linear_282_825)"/>
<path d="M187.967 115.938H195.953V118.438C195.953 119.266 195.282 119.938 194.453 119.938H189.467C188.638 119.938 187.967 119.266 187.967 118.438V115.938Z" fill="#A7CD4C"/>
<path d="M187.967 115.938H195.953V118.438C195.953 119.266 195.282 119.938 194.453 119.938H189.467C188.638 119.938 187.967 119.266 187.967 118.438V115.938Z" fill="url(#paint9_radial_282_825)"/>
<path d="M187.967 115.938H195.953V118.438C195.953 119.266 195.282 119.938 194.453 119.938H189.467C188.638 119.938 187.967 119.266 187.967 118.438V115.938Z" fill="url(#paint10_linear_282_825)"/>
<path d="M187.967 115.938H195.953V118.438C195.953 119.266 195.282 119.938 194.453 119.938H189.467C188.638 119.938 187.967 119.266 187.967 118.438V115.938Z" fill="url(#paint11_linear_282_825)"/>
<path d="M187.967 115.938H195.953V118.438C195.953 119.266 195.282 119.938 194.453 119.938H189.467C188.638 119.938 187.967 119.266 187.967 118.438V115.938Z" fill="url(#paint12_linear_282_825)"/>
<path d="M187.967 115.938H195.953V118.438C195.953 119.266 195.282 119.938 194.453 119.938H189.467C188.638 119.938 187.967 119.266 187.967 118.438V115.938Z" fill="url(#paint13_radial_282_825)"/>
<path d="M197.641 115.586C197.391 115.367 195.488 113.535 195.488 113.535L194.832 116.977H197.191C197.441 116.977 197.77 116.812 197.902 116.516C198.035 116.219 197.891 115.805 197.641 115.586Z" fill="url(#paint14_linear_282_825)"/>
<path d="M197.641 115.586C197.391 115.367 195.488 113.535 195.488 113.535L194.832 116.977H197.191C197.441 116.977 197.77 116.812 197.902 116.516C198.035 116.219 197.891 115.805 197.641 115.586Z" fill="url(#paint15_linear_282_825)"/>
<path d="M197.641 115.586C197.391 115.367 195.488 113.535 195.488 113.535L194.832 116.977H197.191C197.441 116.977 197.77 116.812 197.902 116.516C198.035 116.219 197.891 115.805 197.641 115.586Z" fill="url(#paint16_linear_282_825)"/>
<path d="M197.641 115.586C197.391 115.367 195.488 113.535 195.488 113.535L194.832 116.977H197.191C197.441 116.977 197.77 116.812 197.902 116.516C198.035 116.219 197.891 115.805 197.641 115.586Z" fill="url(#paint17_linear_282_825)"/>
<g filter="url(#filter1_i_282_825)">
<path d="M184.391 102.781C177.97 102.781 173.045 107.83 173.045 114.25C173.045 115.173 172.998 116.062 172.998 116.977H195.937V114.219C195.937 107.798 190.811 102.781 184.391 102.781Z" fill="url(#paint18_radial_282_825)"/>
<path d="M184.391 102.781C177.97 102.781 173.045 107.83 173.045 114.25C173.045 115.173 172.998 116.062 172.998 116.977H195.937V114.219C195.937 107.798 190.811 102.781 184.391 102.781Z" fill="url(#paint19_radial_282_825)"/>
<path d="M184.391 102.781C177.97 102.781 173.045 107.83 173.045 114.25C173.045 115.173 172.998 116.062 172.998 116.977H195.937V114.219C195.937 107.798 190.811 102.781 184.391 102.781Z" fill="url(#paint20_linear_282_825)"/>
<path d="M184.391 102.781C177.97 102.781 173.045 107.83 173.045 114.25C173.045 115.173 172.998 116.062 172.998 116.977H195.937V114.219C195.937 107.798 190.811 102.781 184.391 102.781Z" fill="url(#paint21_linear_282_825)"/>
<path d="M184.391 102.781C177.97 102.781 173.045 107.83 173.045 114.25C173.045 115.173 172.998 116.062 172.998 116.977H195.937V114.219C195.937 107.798 190.811 102.781 184.391 102.781Z" fill="url(#paint22_radial_282_825)"/>
</g>
<path d="M184.391 102.781C177.97 102.781 173.045 107.83 173.045 114.25C173.045 115.173 172.998 116.062 172.998 116.977H195.937V114.219C195.937 107.798 190.811 102.781 184.391 102.781Z" fill="url(#paint23_linear_282_825)"/>
<path d="M184.391 102.781C177.97 102.781 173.045 107.83 173.045 114.25C173.045 115.173 172.998 116.062 172.998 116.977H195.937V114.219C195.937 107.798 190.811 102.781 184.391 102.781Z" fill="url(#paint24_linear_282_825)"/>
<circle cx="172.484" cy="112.438" r="0.5" fill="url(#paint25_radial_282_825)"/>
<circle cx="172.484" cy="112.438" r="0.5" fill="url(#paint26_radial_282_825)"/>
<g filter="url(#filter2_i_282_825)">
<path fill-rule="evenodd" clip-rule="evenodd" d="M178.902 106.219C178.739 105.998 178.428 105.95 178.206 106.111C177.983 106.274 177.933 106.586 178.096 106.81L178.5 106.516C178.096 106.81 178.096 106.81 178.096 106.81L178.097 106.811L178.098 106.812L178.1 106.816L178.107 106.824C178.112 106.831 178.119 106.84 178.127 106.851C178.144 106.872 178.167 106.9 178.197 106.934C178.257 107.003 178.345 107.095 178.462 107.204C178.697 107.422 179.051 107.704 179.546 107.983C179.863 108.161 180.237 108.338 180.672 108.495L178.56 112.882C178.282 112.759 178.027 112.632 177.795 112.506C177.121 112.14 176.636 111.775 176.323 111.507C176.166 111.373 176.052 111.263 175.98 111.189C175.944 111.152 175.918 111.124 175.902 111.106L175.886 111.088L175.883 111.085C175.706 110.874 175.392 110.846 175.18 111.022C174.968 111.199 174.939 111.514 175.116 111.726L175.5 111.406C175.116 111.726 175.116 111.727 175.116 111.727L175.117 111.727L175.118 111.729L175.121 111.732L175.129 111.742C175.137 111.751 175.146 111.762 175.159 111.775C175.183 111.803 175.219 111.841 175.265 111.888C175.357 111.982 175.492 112.113 175.672 112.267C176.033 112.576 176.576 112.982 177.318 113.385C178.803 114.192 181.075 114.984 184.261 114.984C187.444 114.984 189.819 114.201 191.404 113.408C192.196 113.012 192.79 112.615 193.19 112.312C193.39 112.161 193.541 112.034 193.644 111.943C193.696 111.897 193.735 111.86 193.763 111.834C193.776 111.821 193.787 111.81 193.795 111.803L193.805 111.793L193.808 111.79L193.809 111.789L193.809 111.788C193.81 111.788 193.81 111.788 193.453 111.438L193.81 111.788C194.003 111.591 194.001 111.275 193.804 111.081C193.607 110.887 193.291 110.89 193.097 111.087L193.097 111.087L193.094 111.09L193.073 111.11C193.054 111.128 193.023 111.157 192.981 111.194C192.896 111.27 192.765 111.38 192.587 111.515C192.231 111.784 191.689 112.148 190.957 112.514C190.771 112.607 190.572 112.7 190.361 112.792L188.259 108.427C188.632 108.29 188.962 108.141 189.252 107.991C189.782 107.716 190.172 107.439 190.434 107.226C190.564 107.119 190.663 107.029 190.731 106.963C190.765 106.93 190.791 106.903 190.81 106.883C190.82 106.873 190.827 106.865 190.833 106.859L190.84 106.851L190.843 106.848L190.844 106.847L190.844 106.846C190.844 106.846 190.844 106.846 190.469 106.516L190.844 106.846C191.027 106.638 191.006 106.322 190.799 106.14C190.592 105.958 190.277 105.978 190.094 106.184L190.094 106.185C190.095 106.184 190.095 106.183 190.095 106.184L190.094 106.184L190.094 106.184C190.094 106.184 190.094 106.185 190.094 106.185L190.094 106.185L190.085 106.195C190.075 106.205 190.058 106.222 190.034 106.246C189.986 106.293 189.909 106.363 189.802 106.45C189.589 106.624 189.255 106.862 188.791 107.103C187.866 107.583 186.409 108.078 184.328 108.078C182.247 108.078 180.875 107.583 180.036 107.111C179.615 106.874 179.324 106.64 179.142 106.472C179.051 106.387 178.988 106.319 178.949 106.275C178.929 106.252 178.916 106.236 178.909 106.227L178.902 106.219L178.902 106.219ZM190.094 106.185C190.094 106.185 190.094 106.185 190.094 106.185L190.094 106.185L190.094 106.185ZM189.427 113.157L187.294 108.726C186.464 108.937 185.479 109.078 184.328 109.078C183.287 109.078 182.397 108.963 181.643 108.784L179.494 113.247C180.727 113.669 182.303 113.984 184.261 113.984C186.365 113.984 188.084 113.623 189.427 113.157Z" fill="url(#paint27_linear_282_825)"/>
</g>
<g filter="url(#filter3_i_282_825)">
<path fill-rule="evenodd" clip-rule="evenodd" d="M178.902 106.219C178.739 105.998 178.428 105.95 178.206 106.111C177.983 106.274 177.933 106.586 178.096 106.81L178.5 106.516C178.096 106.81 178.096 106.81 178.096 106.81L178.097 106.811L178.098 106.812L178.1 106.816L178.107 106.824C178.112 106.831 178.119 106.84 178.127 106.851C178.144 106.872 178.167 106.9 178.197 106.934C178.257 107.003 178.345 107.095 178.462 107.204C178.697 107.422 179.051 107.704 179.546 107.983C179.863 108.161 180.237 108.338 180.672 108.495L178.56 112.882C178.282 112.759 178.027 112.632 177.795 112.506C177.121 112.14 176.636 111.775 176.323 111.507C176.166 111.373 176.052 111.263 175.98 111.189C175.944 111.152 175.918 111.124 175.902 111.106L175.886 111.088L175.883 111.085C175.706 110.874 175.392 110.846 175.18 111.022C174.968 111.199 174.939 111.514 175.116 111.726L175.5 111.406C175.116 111.726 175.116 111.727 175.116 111.727L175.117 111.727L175.118 111.729L175.121 111.732L175.129 111.742C175.137 111.751 175.146 111.762 175.159 111.775C175.183 111.803 175.219 111.841 175.265 111.888C175.357 111.982 175.492 112.113 175.672 112.267C176.033 112.576 176.576 112.982 177.318 113.385C178.803 114.192 181.075 114.984 184.261 114.984C187.444 114.984 189.819 114.201 191.404 113.408C192.196 113.012 192.79 112.615 193.19 112.312C193.39 112.161 193.541 112.034 193.644 111.943C193.696 111.897 193.735 111.86 193.763 111.834C193.776 111.821 193.787 111.81 193.795 111.803L193.805 111.793L193.808 111.79L193.809 111.789L193.809 111.788C193.81 111.788 193.81 111.788 193.453 111.438L193.81 111.788C194.003 111.591 194.001 111.275 193.804 111.081C193.607 110.887 193.291 110.89 193.097 111.087L193.097 111.087L193.094 111.09L193.073 111.11C193.054 111.128 193.023 111.157 192.981 111.194C192.896 111.27 192.765 111.38 192.587 111.515C192.231 111.784 191.689 112.148 190.957 112.514C190.771 112.607 190.572 112.7 190.361 112.792L188.259 108.427C188.632 108.29 188.962 108.141 189.252 107.991C189.782 107.716 190.172 107.439 190.434 107.226C190.564 107.119 190.663 107.029 190.731 106.963C190.765 106.93 190.791 106.903 190.81 106.883C190.82 106.873 190.827 106.865 190.833 106.859L190.84 106.851L190.843 106.848L190.844 106.847L190.844 106.846C190.844 106.846 190.844 106.846 190.469 106.516L190.844 106.846C191.027 106.638 191.006 106.322 190.799 106.14C190.592 105.958 190.277 105.978 190.094 106.184L190.094 106.185C190.095 106.184 190.095 106.183 190.095 106.184L190.094 106.184L190.094 106.184C190.094 106.184 190.094 106.185 190.094 106.185L190.094 106.185L190.085 106.195C190.075 106.205 190.058 106.222 190.034 106.246C189.986 106.293 189.909 106.363 189.802 106.45C189.589 106.624 189.255 106.862 188.791 107.103C187.866 107.583 186.409 108.078 184.328 108.078C182.247 108.078 180.875 107.583 180.036 107.111C179.615 106.874 179.324 106.64 179.142 106.472C179.051 106.387 178.988 106.319 178.949 106.275C178.929 106.252 178.916 106.236 178.909 106.227L178.902 106.219L178.902 106.219ZM190.094 106.185C190.094 106.185 190.094 106.185 190.094 106.185L190.094 106.185L190.094 106.185ZM189.427 113.157L187.294 108.726C186.464 108.937 185.479 109.078 184.328 109.078C183.287 109.078 182.397 108.963 181.643 108.784L179.494 113.247C180.727 113.669 182.303 113.984 184.261 113.984C186.365 113.984 188.084 113.623 189.427 113.157Z" fill="url(#paint28_radial_282_825)"/>
</g>
<g filter="url(#filter4_f_282_825)">
<path d="M185.672 108.406C186.578 108.417 188.903 107.962 190.453 106.438" stroke="url(#paint29_linear_282_825)" stroke-width="0.15" stroke-linecap="round"/>
</g>
<g filter="url(#filter5_f_282_825)">
<path d="M184.828 114.641C188.672 114.391 191.031 113.531 193.562 111.531" stroke="url(#paint30_linear_282_825)" stroke-width="0.15" stroke-linecap="round"/>
</g>
<g filter="url(#filter6_f_282_825)">
<path d="M181 108.656L179.156 112.641" stroke="url(#paint31_linear_282_825)" stroke-width="0.15" stroke-linecap="round"/>
</g>
<g filter="url(#filter7_f_282_825)">
<path d="M178.523 106.82C178.674 107.003 179.164 107.406 179.648 107.68" stroke="url(#paint32_linear_282_825)" stroke-width="0.15" stroke-linecap="round"/>
</g>
<g filter="url(#filter8_f_282_825)">
<path d="M175.631 111.707C175.782 111.889 176.271 112.293 176.756 112.566" stroke="url(#paint33_linear_282_825)" stroke-opacity="0.5" stroke-width="0.15" stroke-linecap="round"/>
</g>
<defs>
<filter id="filter0_f_282_825" x="171.73" y="111.637" width="2" height="2" filterUnits="userSpaceOnUse" color-interpolation-filters="sRGB">
<feFlood flood-opacity="0" result="BackgroundImageFix"/>
<feBlend mode="normal" in="SourceGraphic" in2="BackgroundImageFix" result="shape"/>
<feGaussianBlur stdDeviation="0.25" result="effect1_foregroundBlur_282_825"/>
</filter>
<filter id="filter1_i_282_825" x="172.998" y="102.781" width="23.0895" height="14.3463" filterUnits="userSpaceOnUse" color-interpolation-filters="sRGB">
<feFlood flood-opacity="0" result="BackgroundImageFix"/>
<feBlend mode="normal" in="SourceGraphic" in2="BackgroundImageFix" result="shape"/>
<feColorMatrix in="SourceAlpha" type="matrix" values="0 0 0 0 0 0 0 0 0 0 0 0 0 0 0 0 0 0 127 0" result="hardAlpha"/>
<feOffset dx="0.15" dy="0.15"/>
<feGaussianBlur stdDeviation="0.5"/>
<feComposite in2="hardAlpha" operator="arithmetic" k2="-1" k3="1"/>
<feColorMatrix type="matrix" values="0 0 0 0 0.905882 0 0 0 0 0.968627 0 0 0 0 0.941176 0 0 0 1 0"/>
<feBlend mode="normal" in2="shape" result="effect1_innerShadow_282_825"/>
</filter>
<filter id="filter2_i_282_825" x="175" y="106.016" width="18.9531" height="9.11875" filterUnits="userSpaceOnUse" color-interpolation-filters="sRGB">
<feFlood flood-opacity="0" result="BackgroundImageFix"/>
<feBlend mode="normal" in="SourceGraphic" in2="BackgroundImageFix" result="shape"/>
<feColorMatrix in="SourceAlpha" type="matrix" values="0 0 0 0 0 0 0 0 0 0 0 0 0 0 0 0 0 0 127 0" result="hardAlpha"/>
<feOffset dy="0.15"/>
<feGaussianBlur stdDeviation="0.25"/>
<feComposite in2="hardAlpha" operator="arithmetic" k2="-1" k3="1"/>
<feColorMatrix type="matrix" values="0 0 0 0 0.333333 0 0 0 0 0.635294 0 0 0 0 0.47451 0 0 0 1 0"/>
<feBlend mode="normal" in2="shape" result="effect1_innerShadow_282_825"/>
</filter>
<filter id="filter3_i_282_825" x="175" y="106.016" width="18.9531" height="9.11875" filterUnits="userSpaceOnUse" color-interpolation-filters="sRGB">
<feFlood flood-opacity="0" result="BackgroundImageFix"/>
<feBlend mode="normal" in="SourceGraphic" in2="BackgroundImageFix" result="shape"/>
<feColorMatrix in="SourceAlpha" type="matrix" values="0 0 0 0 0 0 0 0 0 0 0 0 0 0 0 0 0 0 127 0" result="hardAlpha"/>
<feOffset dy="0.15"/>
<feGaussianBlur stdDeviation="0.25"/>
<feComposite in2="hardAlpha" operator="arithmetic" k2="-1" k3="1"/>
<feColorMatrix type="matrix" values="0 0 0 0 0.333333 0 0 0 0 0.635294 0 0 0 0 0.47451 0 0 0 1 0"/>
<feBlend mode="normal" in2="shape" result="effect1_innerShadow_282_825"/>
</filter>
<filter id="filter4_f_282_825" x="185.347" y="106.113" width="5.43164" height="2.6189" filterUnits="userSpaceOnUse" color-interpolation-filters="sRGB">
<feFlood flood-opacity="0" result="BackgroundImageFix"/>
<feBlend mode="normal" in="SourceGraphic" in2="BackgroundImageFix" result="shape"/>
<feGaussianBlur stdDeviation="0.125" result="effect1_foregroundBlur_282_825"/>
</filter>
<filter id="filter5_f_282_825" x="184.503" y="111.206" width="9.38477" height="3.75928" filterUnits="userSpaceOnUse" color-interpolation-filters="sRGB">
<feFlood flood-opacity="0" result="BackgroundImageFix"/>
<feBlend mode="normal" in="SourceGraphic" in2="BackgroundImageFix" result="shape"/>
<feGaussianBlur stdDeviation="0.125" result="effect1_foregroundBlur_282_825"/>
</filter>
<filter id="filter6_f_282_825" x="178.831" y="108.331" width="2.49414" height="4.63428" filterUnits="userSpaceOnUse" color-interpolation-filters="sRGB">
<feFlood flood-opacity="0" result="BackgroundImageFix"/>
<feBlend mode="normal" in="SourceGraphic" in2="BackgroundImageFix" result="shape"/>
<feGaussianBlur stdDeviation="0.125" result="effect1_foregroundBlur_282_825"/>
</filter>
<filter id="filter7_f_282_825" x="178.198" y="106.495" width="1.77539" height="1.50928" filterUnits="userSpaceOnUse" color-interpolation-filters="sRGB">
<feFlood flood-opacity="0" result="BackgroundImageFix"/>
<feBlend mode="normal" in="SourceGraphic" in2="BackgroundImageFix" result="shape"/>
<feGaussianBlur stdDeviation="0.125" result="effect1_foregroundBlur_282_825"/>
</filter>
<filter id="filter8_f_282_825" x="175.306" y="111.382" width="1.77539" height="1.50928" filterUnits="userSpaceOnUse" color-interpolation-filters="sRGB">
<feFlood flood-opacity="0" result="BackgroundImageFix"/>
<feBlend mode="normal" in="SourceGraphic" in2="BackgroundImageFix" result="shape"/>
<feGaussianBlur stdDeviation="0.125" result="effect1_foregroundBlur_282_825"/>
</filter>
<linearGradient id="paint0_linear_282_825" x1="171.797" y1="116.344" x2="171.797" y2="113.5" gradientUnits="userSpaceOnUse">
<stop stop-color="#A3A560"/>
<stop offset="0.957511" stop-color="#A3A560" stop-opacity="0"/>
</linearGradient>
<radialGradient id="paint1_radial_282_825" cx="0" cy="0" r="1" gradientUnits="userSpaceOnUse" gradientTransform="translate(173.547 113.172) rotate(90) scale(3.9375 4.36106)">
<stop offset="0.84" stop-color="#D4A6C6" stop-opacity="0"/>
<stop offset="0.979" stop-color="#D5A6C6"/>
</radialGradient>
<radialGradient id="paint2_radial_282_825" cx="0" cy="0" r="1" gradientUnits="userSpaceOnUse" gradientTransform="translate(173.75 112.531) rotate(-108.52) scale(3.3451 2.12947)">
<stop offset="0.224598" stop-color="#79B037"/>
<stop offset="1" stop-color="#79B037" stop-opacity="0"/>
</radialGradient>
<radialGradient id="paint3_radial_282_825" cx="0" cy="0" r="1" gradientUnits="userSpaceOnUse" gradientTransform="translate(173.672 113.766) rotate(169.695) scale(3.84324 3.8125)">
<stop offset="0.869455" stop-color="#F0FADA" stop-opacity="0"/>
<stop offset="1" stop-color="#F0FADA"/>
</radialGradient>
<radialGradient id="paint4_radial_282_825" cx="0" cy="0" r="1" gradientUnits="userSpaceOnUse" gradientTransform="translate(182.047 118) rotate(-165.763) scale(4.32019 2.61535)">
<stop stop-color="#79B037"/>
<stop offset="1" stop-color="#79B037" stop-opacity="0"/>
</radialGradient>
<linearGradient id="paint5_linear_282_825" x1="174.984" y1="120.344" x2="174.984" y2="118.25" gradientUnits="userSpaceOnUse">
<stop stop-color="#A3A560"/>
<stop offset="0.957511" stop-color="#A3A560" stop-opacity="0"/>
</linearGradient>
<linearGradient id="paint6_linear_282_825" x1="178.328" y1="116" x2="177.516" y2="118.5" gradientUnits="userSpaceOnUse">
<stop offset="0.118712" stop-color="#858D4A"/>
<stop offset="0.957511" stop-color="#858D4A" stop-opacity="0"/>
</linearGradient>
<linearGradient id="paint7_linear_282_825" x1="176.991" y1="115.563" x2="176.991" y2="120.141" gradientUnits="userSpaceOnUse">
<stop offset="0.808725" stop-color="#D4A6C6" stop-opacity="0"/>
<stop offset="0.979" stop-color="#D5A6C6"/>
</linearGradient>
<linearGradient id="paint8_linear_282_825" x1="181.448" y1="117.759" x2="172.789" y2="117.759" gradientUnits="userSpaceOnUse">
<stop offset="0.938646" stop-color="#F0FADA" stop-opacity="0"/>
<stop offset="1" stop-color="#F0FADA"/>
</linearGradient>
<radialGradient id="paint9_radial_282_825" cx="0" cy="0" r="1" gradientUnits="userSpaceOnUse" gradientTransform="translate(187.297 115.937) rotate(15.8192) scale(3.89762 2.35953)">
<stop stop-color="#79B037"/>
<stop offset="1" stop-color="#79B037" stop-opacity="0"/>
</radialGradient>
<linearGradient id="paint10_linear_282_825" x1="189.953" y1="121" x2="189.953" y2="118.813" gradientUnits="userSpaceOnUse">
<stop stop-color="#A3A560"/>
<stop offset="0.957511" stop-color="#A3A560" stop-opacity="0"/>
</linearGradient>
<linearGradient id="paint11_linear_282_825" x1="190.672" y1="115.938" x2="191.96" y2="118.75" gradientUnits="userSpaceOnUse">
<stop offset="0.118712" stop-color="#858D4A"/>
<stop offset="0.957511" stop-color="#858D4A" stop-opacity="0"/>
</linearGradient>
<linearGradient id="paint12_linear_282_825" x1="191.96" y1="115.5" x2="191.96" y2="119.937" gradientUnits="userSpaceOnUse">
<stop offset="0.808725" stop-color="#D4A6C6" stop-opacity="0"/>
<stop offset="0.979" stop-color="#D5A6C6"/>
</linearGradient>
<radialGradient id="paint13_radial_282_825" cx="0" cy="0" r="1" gradientUnits="userSpaceOnUse" gradientTransform="translate(196.172 116.875) rotate(154.878) scale(7.21361 1.91255)">
<stop stop-color="#C0EF52"/>
<stop offset="1" stop-color="#C0EF52" stop-opacity="0"/>
</radialGradient>
<linearGradient id="paint14_linear_282_825" x1="196.828" y1="114.906" x2="196.641" y2="116.719" gradientUnits="userSpaceOnUse">
<stop stop-color="#C4FF66"/>
<stop offset="1" stop-color="#B0E254"/>
</linearGradient>
<linearGradient id="paint15_linear_282_825" x1="196.953" y1="114.859" x2="196.703" y2="115.172" gradientUnits="userSpaceOnUse">
<stop stop-color="#B0E254"/>
<stop offset="1" stop-color="#B0E254" stop-opacity="0"/>
</linearGradient>
<linearGradient id="paint16_linear_282_825" x1="195.766" y1="117.813" x2="195.608" y2="116.009" gradientUnits="userSpaceOnUse">
<stop stop-color="#A3A560"/>
<stop offset="0.957511" stop-color="#A3A560" stop-opacity="0"/>
</linearGradient>
<linearGradient id="paint17_linear_282_825" x1="196.392" y1="113.159" x2="196.392" y2="117.141" gradientUnits="userSpaceOnUse">
<stop offset="0.903861" stop-color="#D4A6C6" stop-opacity="0"/>
<stop offset="0.964684" stop-color="#D5A6C6"/>
</linearGradient>
<radialGradient id="paint18_radial_282_825" cx="0" cy="0" r="1" gradientUnits="userSpaceOnUse" gradientTransform="translate(192.484 109.879) rotate(-130.58) scale(7.49417 10.5379)">
<stop stop-color="#6FC1AD"/>
<stop offset="1" stop-color="#3B9990"/>
</radialGradient>
<radialGradient id="paint19_radial_282_825" cx="0" cy="0" r="1" gradientUnits="userSpaceOnUse" gradientTransform="translate(184.468 104.438) rotate(90) scale(7.125 12.5459)">
<stop stop-color="#4CA589"/>
<stop offset="1" stop-color="#4CA589" stop-opacity="0"/>
</radialGradient>
<linearGradient id="paint20_linear_282_825" x1="184.468" y1="118" x2="184.468" y2="115.25" gradientUnits="userSpaceOnUse">
<stop stop-color="#3D7F92"/>
<stop offset="1" stop-color="#3D7F92" stop-opacity="0"/>
</linearGradient>
<linearGradient id="paint21_linear_282_825" x1="198.234" y1="115.25" x2="194.297" y2="115.25" gradientUnits="userSpaceOnUse">
<stop stop-color="#3D7F92"/>
<stop offset="1" stop-color="#3D7F92" stop-opacity="0"/>
</linearGradient>
<radialGradient id="paint22_radial_282_825" cx="0" cy="0" r="1" gradientUnits="userSpaceOnUse" gradientTransform="translate(173.614 109.879) rotate(16.2208) scale(5.91201 6.50475)">
<stop stop-color="#7CAE9F"/>
<stop offset="1" stop-color="#7CAE9F" stop-opacity="0"/>
</radialGradient>
<linearGradient id="paint23_linear_282_825" x1="184.468" y1="118.063" x2="184.468" y2="115.75" gradientUnits="userSpaceOnUse">
<stop stop-color="#3C9A91"/>
<stop offset="1" stop-color="#3C9A91" stop-opacity="0"/>
</linearGradient>
<linearGradient id="paint24_linear_282_825" x1="184.468" y1="117.375" x2="184.468" y2="115.25" gradientUnits="userSpaceOnUse">
<stop stop-color="#3D7F92"/>
<stop offset="0.647059" stop-color="#3D7F92" stop-opacity="0"/>
</linearGradient>
<radialGradient id="paint25_radial_282_825" cx="0" cy="0" r="1" gradientUnits="userSpaceOnUse" gradientTransform="translate(172.22 112.732) rotate(-40.6013) scale(0.813489)">
<stop stop-color="#5A2D67"/>
<stop offset="1" stop-color="#2B2426"/>
</radialGradient>
<radialGradient id="paint26_radial_282_825" cx="0" cy="0" r="1" gradientUnits="userSpaceOnUse" gradientTransform="translate(172.852 112.789) rotate(-140.622) scale(1.07134 0.712095)">
<stop offset="0.686147" stop-color="#736C6C" stop-opacity="0"/>
<stop offset="1" stop-color="#736C6C"/>
</radialGradient>
<linearGradient id="paint27_linear_282_825" x1="184.477" y1="107.563" x2="184.477" y2="117.375" gradientUnits="userSpaceOnUse">
<stop stop-color="#67BD5B"/>
<stop offset="1" stop-color="#6CB768"/>
</linearGradient>
<radialGradient id="paint28_radial_282_825" cx="0" cy="0" r="1" gradientUnits="userSpaceOnUse" gradientTransform="translate(190.672 106.625) rotate(109.058) scale(14.5473 30.7419)">
<stop stop-color="#6CD45B"/>
<stop offset="1" stop-color="#6CD45B" stop-opacity="0"/>
</radialGradient>
<linearGradient id="paint29_linear_282_825" x1="190.453" y1="106.438" x2="185.672" y2="108.75" gradientUnits="userSpaceOnUse">
<stop stop-color="#87E27A"/>
<stop offset="1" stop-color="#87E27A" stop-opacity="0"/>
</linearGradient>
<linearGradient id="paint30_linear_282_825" x1="192.844" y1="111.652" x2="179.797" y2="116" gradientUnits="userSpaceOnUse">
<stop stop-color="#87E27A"/>
<stop offset="1" stop-color="#87E27A" stop-opacity="0"/>
</linearGradient>
<linearGradient id="paint31_linear_282_825" x1="180.817" y1="108.579" x2="177.766" y2="108.744" gradientUnits="userSpaceOnUse">
<stop stop-color="#87E27A"/>
<stop offset="1" stop-color="#87E27A" stop-opacity="0"/>
</linearGradient>
<linearGradient id="paint32_linear_282_825" x1="178.68" y1="106.82" x2="179.573" y2="108.583" gradientUnits="userSpaceOnUse">
<stop stop-color="#87E27A"/>
<stop offset="1" stop-color="#87E27A" stop-opacity="0"/>
</linearGradient>
<linearGradient id="paint33_linear_282_825" x1="175.787" y1="111.707" x2="176.68" y2="113.47" gradientUnits="userSpaceOnUse">
<stop stop-color="#87E27A"/>
<stop offset="1" stop-color="#87E27A" stop-opacity="0"/>
</linearGradient>
</defs>
</svg>
