<svg width="522" height="294" viewBox="0 0 522 294" fill="none" xmlns="http://www.w3.org/2000/svg">
<g clip-path="url(#clip0_166_609)">
<path d="M522 0H0V300H522V0Z" fill="#F7F7F7"/>
<path d="M233.432 52.8794L227.822 51.5166L229.447 57.0567L233.432 52.8794ZM166.371 120.777L170.498 116.74L164.938 115.184L166.371 120.777ZM166.987 120.432C167.062 120.167 166.907 119.89 166.642 119.815C166.376 119.74 166.1 119.895 166.024 120.16L166.987 120.432ZM166.886 117.282C166.803 117.545 166.949 117.826 167.212 117.909C167.475 117.992 167.756 117.846 167.839 117.583L166.886 117.282ZM168.143 116.639C168.229 116.376 168.086 116.094 167.824 116.008C167.561 115.922 167.279 116.065 167.193 116.327L168.143 116.639ZM168.172 113.486C168.078 113.746 168.212 114.033 168.472 114.127C168.731 114.221 169.018 114.086 169.112 113.827L168.172 113.486ZM169.454 112.896C169.551 112.637 169.419 112.349 169.16 112.253C168.902 112.156 168.614 112.288 168.517 112.546L169.454 112.896ZM169.612 109.748C169.507 110.003 169.629 110.295 169.885 110.4C170.141 110.504 170.433 110.382 170.537 110.126L169.612 109.748ZM170.917 109.211C171.024 108.956 170.904 108.663 170.65 108.556C170.395 108.449 170.102 108.569 169.995 108.823L170.917 109.211ZM171.203 106.071C171.088 106.323 171.199 106.619 171.45 106.734C171.701 106.849 171.998 106.739 172.112 106.487L171.203 106.071ZM172.53 105.588C172.647 105.338 172.54 105.04 172.29 104.923C172.04 104.805 171.742 104.912 171.624 105.162L172.53 105.588ZM172.944 102.463C172.819 102.709 172.917 103.01 173.163 103.135C173.409 103.26 173.71 103.162 173.835 102.915L172.944 102.463ZM174.289 102.033C174.416 101.789 174.321 101.487 174.076 101.359C173.831 101.232 173.53 101.327 173.402 101.572L174.289 102.033ZM174.83 98.928C174.695 99.1689 174.781 99.4736 175.022 99.6086C175.263 99.7435 175.568 99.6576 175.703 99.4167L174.83 98.928ZM176.192 98.5544C176.329 98.3148 176.246 98.0093 176.007 97.8719C175.767 97.7345 175.462 97.8172 175.324 98.0568L176.192 98.5544ZM176.859 95.4734C176.715 95.7086 176.788 96.0166 177.023 96.1612C177.258 96.3059 177.566 96.2325 177.711 95.9973L176.859 95.4734ZM178.234 95.1556C178.382 94.9219 178.311 94.6132 178.078 94.4661C177.844 94.3191 177.535 94.3894 177.388 94.6231L178.234 95.1556ZM179.027 92.1044C178.873 92.3335 178.933 92.6442 179.163 92.7983C179.392 92.9524 179.702 92.8915 179.856 92.6624L179.027 92.1044ZM180.414 91.8421C180.57 91.6146 180.513 91.3033 180.285 91.1469C180.058 90.9905 179.746 91.0482 179.59 91.2757L180.414 91.8421ZM181.329 88.8256C181.166 89.0483 181.214 89.3612 181.437 89.5244C181.66 89.6877 181.973 89.6395 182.136 89.4168L181.329 88.8256ZM182.726 88.6201C182.892 88.399 182.847 88.0857 182.626 87.9202C182.405 87.7547 182.091 87.7997 181.926 88.0207L182.726 88.6201ZM183.763 85.6431C183.591 85.859 183.626 86.1736 183.842 86.3457C184.058 86.5179 184.373 86.4824 184.545 86.2665L183.763 85.6431ZM185.167 85.4945C185.341 85.2803 185.309 84.9654 185.095 84.791C184.88 84.6167 184.566 84.649 184.391 84.8632L185.167 85.4945ZM186.323 82.5618C186.142 82.7706 186.165 83.0863 186.374 83.2671C186.583 83.4478 186.899 83.4251 187.079 83.2163L186.323 82.5618ZM187.732 82.4699C187.915 82.263 187.895 81.947 187.688 81.7642C187.481 81.5813 187.165 81.6009 186.983 81.8078L187.732 82.4699ZM189.006 79.5865C188.817 79.7878 188.827 80.1042 189.028 80.2932C189.23 80.4823 189.546 80.4723 189.735 80.271L189.006 79.5865ZM190.417 79.5516C190.609 79.3523 190.602 79.0358 190.402 78.8447C190.203 78.6536 189.886 78.6604 189.695 78.8598L190.417 79.5516ZM191.807 76.722C191.61 76.9155 191.607 77.2321 191.801 77.4291C191.994 77.6261 192.311 77.629 192.508 77.4355L191.807 76.722ZM193.219 76.7443C193.418 76.5528 193.424 76.2363 193.232 76.0373C193.041 75.8383 192.724 75.8323 192.525 76.0238L193.219 76.7443ZM194.721 73.9731C194.517 74.1585 194.501 74.4747 194.686 74.6794C194.872 74.8841 195.188 74.8997 195.393 74.7143L194.721 73.9731ZM196.131 74.0524C196.338 73.8691 196.356 73.5531 196.173 73.3466C195.99 73.14 195.674 73.1212 195.467 73.3045L196.131 74.0524ZM197.745 71.3442C197.533 71.5212 197.504 71.8365 197.681 72.0485C197.858 72.2605 198.173 72.2889 198.385 72.112L197.745 71.3442ZM199.15 71.4806C199.363 71.3058 199.395 70.9908 199.22 70.777C199.045 70.5632 198.73 70.5316 198.517 70.7064L199.15 71.4806ZM200.872 68.84C200.653 69.0082 200.611 69.3221 200.78 69.5411C200.948 69.7601 201.262 69.8012 201.481 69.633L200.872 68.84ZM202.27 69.0329C202.491 68.8669 202.535 68.5535 202.369 68.3328C202.203 68.1121 201.89 68.0678 201.669 68.2338L202.27 69.0329ZM204.097 66.4642C203.872 66.6235 203.818 66.9354 203.977 67.1611C204.136 67.3867 204.448 67.4405 204.674 67.2813L204.097 66.4642ZM205.487 66.7136C205.714 66.5567 205.771 66.2453 205.615 66.018C205.458 65.7908 205.146 65.7338 204.919 65.8907L205.487 66.7136ZM207.417 64.2211C207.185 64.371 207.119 64.6806 207.269 64.9125C207.419 65.1444 207.728 65.2108 207.96 65.0609L207.417 64.2211ZM208.795 64.527C209.029 64.3794 209.098 64.0706 208.951 63.8372C208.803 63.6038 208.494 63.5342 208.261 63.6817L208.795 64.527ZM210.825 62.115C210.587 62.2553 210.508 62.5619 210.649 62.7997C210.789 63.0375 211.096 63.1165 211.333 62.9761L210.825 62.115ZM212.19 62.4766C212.429 62.3386 212.511 62.0329 212.373 61.7937C212.235 61.5544 211.929 61.4723 211.69 61.6103L212.19 62.4766ZM214.316 60.1492C214.072 60.2798 213.981 60.5829 214.112 60.8262C214.242 61.0695 214.545 61.1609 214.789 61.0304L214.316 60.1492ZM215.665 60.5659C215.91 60.4378 216.004 60.1356 215.876 59.891C215.748 59.6464 215.446 59.5519 215.201 59.6799L215.665 60.5659ZM217.884 58.3272C217.636 58.4477 217.532 58.7468 217.653 58.9953C217.773 59.2437 218.072 59.3474 218.321 59.2269L217.884 58.3272ZM219.215 58.7985C219.465 58.6806 219.572 58.3825 219.454 58.1328C219.336 57.8832 219.038 57.7764 218.788 57.8944L219.215 58.7985ZM221.524 56.6522C221.271 56.7625 221.155 57.0571 221.266 57.3103C221.376 57.5635 221.67 57.6793 221.924 57.569L221.524 56.6522ZM222.834 57.1781C223.088 57.0704 223.207 56.777 223.099 56.5227C222.992 56.2684 222.698 56.1496 222.444 56.2572L222.834 57.1781ZM225.229 55.1281C224.971 55.2279 224.843 55.5175 224.943 55.775C225.043 56.0325 225.333 56.1603 225.59 56.0605L225.229 55.1281ZM226.516 55.7068C226.775 55.6096 226.906 55.3213 226.808 55.0628C226.711 54.8044 226.423 54.6736 226.164 54.7708L226.516 55.7068ZM228.993 53.7567C228.732 53.8459 228.592 54.13 228.681 54.3914C228.771 54.6527 229.055 54.7923 229.316 54.7031L228.993 53.7567ZM230.257 54.3874C230.519 54.3009 230.661 54.0182 230.575 53.7559C230.488 53.4937 230.206 53.3512 229.943 53.4377L230.257 54.3874ZM232.811 52.5405C232.546 52.6189 232.395 52.8971 232.474 53.1618C232.552 53.4266 232.83 53.5777 233.095 53.4993L232.811 52.5405ZM167.839 117.583C167.939 117.268 168.04 116.953 168.143 116.639L167.193 116.327C167.089 116.645 166.987 116.963 166.886 117.282L167.839 117.583ZM169.112 113.827C169.224 113.516 169.338 113.206 169.454 112.896L168.517 112.546C168.4 112.859 168.285 113.172 168.172 113.486L169.112 113.827ZM170.537 110.126C170.662 109.82 170.789 109.515 170.917 109.211L169.995 108.823C169.866 109.131 169.738 109.439 169.612 109.748L170.537 110.126ZM172.112 106.487C172.25 106.187 172.389 105.887 172.53 105.588L171.624 105.162C171.482 105.465 171.342 105.768 171.203 106.071L172.112 106.487ZM173.835 102.915C173.985 102.621 174.136 102.327 174.289 102.033L173.402 101.572C173.248 101.868 173.095 102.165 172.944 102.463L173.835 102.915ZM175.703 99.4167C175.864 99.1284 176.027 98.8409 176.192 98.5544L175.324 98.0568C175.158 98.3462 174.994 98.6366 174.83 98.928L175.703 99.4167ZM177.711 95.9973C177.884 95.7158 178.059 95.4352 178.234 95.1556L177.388 94.6231C177.21 94.9056 177.034 95.189 176.859 95.4734L177.711 95.9973ZM179.856 92.6624C180.041 92.388 180.227 92.1146 180.414 91.8421L179.59 91.2757C179.401 91.5509 179.213 91.8272 179.027 92.1044L179.856 92.6624ZM182.136 89.4168C182.331 89.1502 182.528 88.8846 182.726 88.6201L181.926 88.0207C181.726 88.288 181.527 88.5563 181.329 88.8256L182.136 89.4168ZM184.545 86.2665C184.751 86.0081 184.958 85.7507 185.167 85.4945L184.391 84.8632C184.18 85.1221 183.971 85.382 183.763 85.6431L184.545 86.2665ZM187.079 83.2163C187.296 82.9664 187.513 82.7176 187.732 82.4699L186.983 81.8078C186.762 82.058 186.542 82.3093 186.323 82.5618L187.079 83.2163ZM189.735 80.271C189.961 80.0301 190.189 79.7903 190.417 79.5516L189.695 78.8598C189.464 79.1008 189.235 79.3431 189.006 79.5865L189.735 80.271ZM192.508 77.4355C192.744 77.2039 192.98 76.9735 193.219 76.7443L192.525 76.0238C192.285 76.2553 192.045 76.4881 191.807 76.722L192.508 77.4355ZM195.393 74.7143C195.638 74.4925 195.884 74.2718 196.131 74.0524L195.467 73.3045C195.217 73.5261 194.969 73.749 194.721 73.9731L195.393 74.7143ZM198.385 72.112C198.639 71.9002 198.894 71.6898 199.15 71.4806L198.517 70.7064C198.258 70.9177 198.001 71.1304 197.745 71.3442L198.385 72.112ZM201.481 69.633C201.743 69.4317 202.006 69.2316 202.27 69.0329L201.669 68.2338C201.402 68.4345 201.136 68.6366 200.872 68.84L201.481 69.633ZM204.674 67.2813C204.944 67.0907 205.215 66.9015 205.487 66.7136L204.919 65.8907C204.644 66.0805 204.37 66.2717 204.097 66.4642L204.674 67.2813ZM207.96 65.0609C208.238 64.8816 208.516 64.7036 208.795 64.527L208.261 63.6817C207.979 63.8601 207.698 64.0399 207.417 64.2211L207.96 65.0609ZM211.333 62.9761C211.618 62.8082 211.903 62.6417 212.19 62.4766L211.69 61.6103C211.401 61.7771 211.113 61.9453 210.825 62.115L211.333 62.9761ZM214.789 61.0304C215.08 60.8741 215.372 60.7193 215.665 60.5659L215.201 59.6799C214.905 59.8349 214.61 59.9913 214.316 60.1492L214.789 61.0304ZM218.321 59.2269C218.618 59.0826 218.916 58.9398 219.215 58.7985L218.788 57.8944C218.486 58.0372 218.185 58.1814 217.884 58.3272L218.321 59.2269ZM221.924 57.569C222.226 57.4372 222.53 57.3069 222.834 57.1781L222.444 56.2572C222.137 56.3874 221.83 56.5191 221.524 56.6522L221.924 57.569ZM225.59 56.0605C225.898 55.9411 226.207 55.8232 226.516 55.7068L226.164 54.7708C225.852 54.8883 225.54 55.0074 225.229 55.1281L225.59 56.0605ZM229.316 54.7031C229.629 54.5963 229.942 54.4911 230.257 54.3874L229.943 53.4377C229.626 53.5425 229.309 53.6488 228.993 53.7567L229.316 54.7031Z" fill="#FF3B30"/>
<g filter="url(#filter0_dddd_166_609)">
<path d="M260.823 219C300.588 219 332.823 186.765 332.823 147C332.823 107.236 300.588 75.0002 260.823 75.0002C221.059 75.0002 188.823 107.236 188.823 147C188.823 186.765 221.059 219 260.823 219Z" fill="white"/>
<path d="M259.33 218.985C259.661 218.992 259.993 218.996 260.325 218.999L260.321 219.499C260.4 219.499 260.479 219.499 260.558 219.5C260.647 219.5 260.735 219.5 260.823 219.5C260.991 219.5 261.158 219.5 261.325 219.499L261.322 218.999C261.654 218.996 261.986 218.992 262.317 218.985L262.327 219.485C262.66 219.478 262.993 219.469 263.325 219.458L263.308 218.958C263.638 218.947 263.967 218.934 264.296 218.918L264.32 219.417C264.653 219.402 264.987 219.383 265.319 219.363L265.289 218.864C265.62 218.844 265.95 218.821 266.28 218.797L266.317 219.295C266.65 219.27 266.981 219.243 267.312 219.214L267.268 218.716C267.597 218.687 267.925 218.655 268.252 218.622L268.303 219.119C268.636 219.085 268.968 219.049 269.3 219.01L269.242 218.513C269.571 218.475 269.899 218.434 270.227 218.392L270.292 218.887C270.622 218.844 270.951 218.799 271.28 218.752L271.208 218.257C271.536 218.21 271.863 218.16 272.189 218.108L272.267 218.602C272.597 218.55 272.926 218.495 273.255 218.438L273.169 217.946C273.496 217.889 273.821 217.831 274.146 217.77L274.238 218.262C274.565 218.2 274.891 218.137 275.216 218.072L275.117 217.581C275.442 217.516 275.767 217.448 276.09 217.378L276.196 217.867C276.522 217.797 276.847 217.724 277.172 217.649L277.059 217.162C277.382 217.088 277.703 217.011 278.024 216.933L278.143 217.418C278.466 217.339 278.788 217.258 279.11 217.174L278.984 216.69C279.305 216.607 279.625 216.521 279.945 216.434L280.077 216.916C280.399 216.827 280.719 216.737 281.039 216.644L280.9 216.164C281.217 216.072 281.534 215.978 281.849 215.882L281.995 216.36C282.314 216.263 282.632 216.163 282.949 216.062L282.797 215.586C283.112 215.485 283.427 215.382 283.74 215.276L283.899 215.75C284.215 215.644 284.53 215.536 284.844 215.426L284.678 214.954C284.99 214.845 285.301 214.733 285.611 214.62L285.783 215.089C286.096 214.974 286.409 214.857 286.72 214.738L286.541 214.271C286.85 214.153 287.159 214.033 287.466 213.91L287.651 214.375C287.96 214.251 288.268 214.126 288.576 213.999L288.384 213.537C288.69 213.41 288.994 213.281 289.298 213.15L289.496 213.61C289.802 213.478 290.107 213.344 290.411 213.207L290.207 212.751C290.509 212.616 290.81 212.479 291.109 212.34L291.32 212.793C291.622 212.653 291.923 212.511 292.222 212.367L292.005 211.916C292.304 211.772 292.601 211.627 292.897 211.479L293.12 211.927C293.419 211.778 293.716 211.627 294.012 211.475L293.782 211.03C294.076 210.879 294.369 210.725 294.661 210.57L294.896 211.011C295.19 210.854 295.483 210.695 295.774 210.535L295.533 210.097C295.823 209.937 296.111 209.775 296.399 209.612L296.646 210.046C296.936 209.881 297.224 209.714 297.511 209.546L297.257 209.115C297.542 208.947 297.826 208.778 298.109 208.606L298.368 209.034C298.653 208.861 298.937 208.686 299.219 208.51L298.954 208.086C299.234 207.91 299.514 207.733 299.792 207.554L300.063 207.974C300.342 207.793 300.621 207.611 300.898 207.427L300.621 207.011C300.897 206.827 301.171 206.643 301.444 206.456L301.726 206.868C302.001 206.68 302.275 206.49 302.547 206.298L302.259 205.889C302.529 205.699 302.798 205.507 303.066 205.312L303.36 205.717C303.629 205.521 303.897 205.324 304.164 205.125L303.865 204.724C304.13 204.526 304.393 204.327 304.656 204.125L304.96 204.521C305.224 204.319 305.487 204.114 305.748 203.907L305.438 203.515C305.698 203.31 305.956 203.103 306.212 202.895L306.528 203.282C306.786 203.072 307.043 202.861 307.298 202.647L306.978 202.263C307.232 202.051 307.484 201.837 307.735 201.622L308.061 202.001C308.313 201.784 308.564 201.565 308.814 201.344L308.483 200.97C308.73 200.751 308.977 200.53 309.221 200.308L309.558 200.678C309.804 200.454 310.049 200.228 310.293 200.001L309.951 199.636C310.193 199.41 310.433 199.182 310.672 198.953L311.018 199.314C311.258 199.084 311.497 198.851 311.734 198.617L311.383 198.262C311.618 198.029 311.852 197.795 312.084 197.56L312.44 197.911C312.674 197.674 312.907 197.435 313.137 197.195L312.776 196.849C313.005 196.61 313.233 196.37 313.458 196.128L313.824 196.47C314.051 196.226 314.277 195.981 314.501 195.735L314.131 195.398C314.353 195.154 314.574 194.907 314.793 194.66L315.167 194.991C315.388 194.741 315.607 194.49 315.824 194.238L315.445 193.912C315.66 193.661 315.874 193.409 316.086 193.155L316.47 193.475C316.683 193.22 316.895 192.963 317.105 192.705L316.717 192.389C316.926 192.133 317.133 191.875 317.338 191.615L317.73 191.925C317.937 191.664 318.141 191.401 318.344 191.137L317.948 190.833C318.15 190.57 318.349 190.307 318.547 190.042L318.948 190.341C319.147 190.074 319.344 189.806 319.54 189.537L319.135 189.243C319.329 188.975 319.522 188.706 319.712 188.436L320.121 188.724C320.313 188.452 320.503 188.178 320.691 187.903L320.279 187.621C320.465 187.348 320.65 187.074 320.833 186.798L321.25 187.075C321.434 186.798 321.616 186.519 321.797 186.24L321.377 185.969C321.556 185.691 321.733 185.411 321.909 185.131L322.333 185.396C322.509 185.114 322.684 184.83 322.857 184.545L322.429 184.286C322.601 184.003 322.77 183.719 322.938 183.434L323.369 183.688C323.537 183.401 323.704 183.113 323.869 182.823L323.435 182.576C323.598 182.288 323.76 182 323.92 181.71L324.358 181.951C324.518 181.66 324.677 181.367 324.834 181.073L324.393 180.838C324.548 180.546 324.702 180.253 324.853 179.959L325.298 180.189C325.45 179.893 325.601 179.596 325.75 179.297L325.302 179.074C325.45 178.778 325.595 178.481 325.739 178.182L326.19 178.399C326.334 178.1 326.476 177.799 326.616 177.497L326.163 177.286C326.302 176.987 326.439 176.686 326.574 176.384L327.03 176.588C327.167 176.284 327.301 175.979 327.433 175.673L326.973 175.475C327.104 175.171 327.233 174.867 327.36 174.561L327.822 174.752C327.949 174.445 328.074 174.137 328.198 173.828L327.733 173.643C327.856 173.336 327.976 173.027 328.094 172.718L328.561 172.897C328.68 172.586 328.797 172.273 328.912 171.96L328.443 171.788C328.556 171.478 328.668 171.167 328.777 170.855L329.249 171.021C329.359 170.707 329.467 170.392 329.573 170.076L329.099 169.917C329.205 169.604 329.308 169.289 329.409 168.974L329.885 169.126C329.986 168.809 330.086 168.491 330.183 168.172L329.705 168.026C329.801 167.711 329.895 167.394 329.987 167.077L330.467 167.216C330.56 166.896 330.65 166.575 330.739 166.254L330.257 166.122C330.344 165.802 330.43 165.482 330.513 165.161L330.997 165.287C331.081 164.965 331.162 164.643 331.241 164.32L330.756 164.201C330.834 163.88 330.911 163.559 330.985 163.236L331.472 163.349C331.547 163.024 331.62 162.699 331.69 162.373L331.201 162.267C331.271 161.944 331.339 161.619 331.404 161.294L331.895 161.393C331.96 161.068 332.023 160.742 332.085 160.415L331.593 160.323C331.654 159.998 331.712 159.673 331.769 159.346L332.261 159.432C332.318 159.103 332.373 158.774 332.425 158.444L331.931 158.366C331.983 158.04 332.033 157.713 332.08 157.385L332.575 157.457C332.622 157.128 332.667 156.799 332.71 156.469L332.215 156.404C332.257 156.076 332.298 155.748 332.336 155.419L332.833 155.477C332.872 155.145 332.908 154.813 332.942 154.48L332.445 154.429C332.478 154.102 332.51 153.774 332.539 153.445L333.037 153.489C333.066 153.158 333.093 152.827 333.118 152.494L332.62 152.457C332.644 152.127 332.667 151.797 332.687 151.466L333.186 151.496C333.206 151.164 333.225 150.83 333.24 150.497L332.741 150.473C332.757 150.144 332.77 149.815 332.781 149.485L333.281 149.502C333.292 149.17 333.301 148.837 333.308 148.504L332.808 148.494C332.815 148.162 332.819 147.831 332.822 147.499L333.322 147.502C333.322 147.426 333.322 147.35 333.323 147.274C333.323 147.183 333.323 147.092 333.323 147C333.323 146.833 333.323 146.665 333.322 146.498L332.822 146.502C332.819 146.169 332.815 145.838 332.808 145.507L333.308 145.497C333.301 145.163 333.292 144.831 333.281 144.499L332.781 144.515C332.77 144.186 332.757 143.856 332.741 143.527L333.24 143.504C333.225 143.17 333.206 142.837 333.186 142.504L332.687 142.535C332.667 142.204 332.644 141.873 332.62 141.543L333.118 141.506C333.093 141.174 333.066 140.842 333.037 140.511L332.539 140.556C332.51 140.227 332.478 139.899 332.445 139.571L332.942 139.52C332.908 139.187 332.872 138.855 332.833 138.524L332.336 138.582C332.298 138.253 332.257 137.924 332.215 137.596L332.71 137.532C332.667 137.202 332.622 136.872 332.575 136.544L332.08 136.615C332.033 136.288 331.983 135.961 331.931 135.635L332.425 135.557C332.373 135.227 332.318 134.897 332.261 134.569L331.769 134.654C331.712 134.328 331.654 134.002 331.593 133.678L332.085 133.586C332.023 133.259 331.96 132.933 331.895 132.607L331.404 132.706C331.339 132.381 331.271 132.057 331.201 131.733L331.69 131.628C331.62 131.302 331.547 130.976 331.472 130.652L330.985 130.764C330.911 130.442 330.834 130.12 330.756 129.8L331.241 129.681C331.162 129.357 331.081 129.035 330.997 128.714L330.513 128.839C330.43 128.518 330.344 128.198 330.257 127.879L330.739 127.746C330.65 127.425 330.56 127.104 330.467 126.785L329.987 126.924C329.895 126.606 329.801 126.29 329.705 125.974L330.183 125.828C330.086 125.51 329.986 125.192 329.885 124.874L329.409 125.027C329.308 124.711 329.205 124.397 329.099 124.083L329.573 123.924C329.467 123.608 329.359 123.293 329.249 122.98L328.777 123.145C328.668 122.833 328.556 122.523 328.443 122.213L328.912 122.041C328.797 121.727 328.68 121.415 328.561 121.104L328.094 121.282C327.976 120.973 327.856 120.665 327.733 120.358L328.198 120.173C328.074 119.863 327.949 119.555 327.822 119.248L327.36 119.44C327.233 119.134 327.104 118.829 326.973 118.526L327.433 118.328C327.301 118.022 327.167 117.716 327.03 117.412L326.574 117.617C326.439 117.315 326.302 117.014 326.163 116.714L326.616 116.503C326.476 116.202 326.334 115.901 326.19 115.601L325.739 115.818C325.595 115.52 325.45 115.222 325.302 114.926L325.75 114.703C325.601 114.405 325.45 114.108 325.298 113.812L324.853 114.041C324.702 113.747 324.548 113.454 324.393 113.163L324.834 112.928C324.677 112.634 324.518 112.341 324.358 112.049L323.92 112.291C323.76 112.001 323.598 111.712 323.435 111.425L323.869 111.177C323.704 110.888 323.537 110.6 323.369 110.313L322.938 110.566C322.77 110.281 322.601 109.997 322.429 109.715L322.857 109.456C322.684 109.171 322.509 108.887 322.333 108.604L321.909 108.87C321.733 108.589 321.556 108.31 321.377 108.032L321.797 107.761C321.616 107.481 321.434 107.203 321.25 106.925L320.834 107.202C320.65 106.927 320.466 106.652 320.279 106.38L320.691 106.097C320.503 105.822 320.313 105.549 320.121 105.276L319.712 105.565C319.522 105.294 319.33 105.025 319.135 104.758L319.54 104.464C319.344 104.194 319.147 103.926 318.948 103.66L318.547 103.959C318.349 103.694 318.15 103.43 317.948 103.168L318.344 102.863C318.142 102.599 317.937 102.336 317.73 102.075L317.338 102.385C317.133 102.126 316.926 101.868 316.718 101.611L317.105 101.296C316.895 101.037 316.684 100.78 316.47 100.525L316.086 100.846C315.874 100.592 315.66 100.34 315.445 100.089L315.824 99.7629C315.607 99.5103 315.388 99.2593 315.167 99.0098L314.793 99.3409C314.574 99.0931 314.353 98.8468 314.131 98.6021L314.501 98.2659C314.277 98.0194 314.051 97.7744 313.824 97.531L313.459 97.8722C313.233 97.6305 313.005 97.3903 312.776 97.1517L313.137 96.8054C312.907 96.5652 312.674 96.3265 312.44 96.0894L312.085 96.4405C311.852 96.2051 311.618 95.9712 311.383 95.739L311.734 95.383C311.497 95.1492 311.258 94.917 311.018 94.6864L310.672 95.0471C310.433 94.8181 310.193 94.5907 309.951 94.365L310.293 93.9995C310.049 93.7723 309.804 93.5466 309.558 93.3227L309.221 93.6927C308.977 93.4704 308.73 93.2498 308.483 93.0308L308.814 92.6561C308.564 92.4356 308.313 92.2168 308.061 91.9997L307.735 92.3789C307.484 92.1632 307.232 91.9493 306.978 91.7371L307.298 91.3535C307.043 91.14 306.786 90.9281 306.528 90.718L306.212 91.106C305.956 90.8974 305.698 90.6906 305.438 90.4855L305.748 90.0933C305.487 89.8868 305.224 89.682 304.96 89.479L304.656 89.8755C304.393 89.6739 304.13 89.4741 303.865 89.2761L304.164 88.8755C303.897 88.6764 303.629 88.479 303.36 88.2835L303.066 88.6882C302.798 88.494 302.529 88.3016 302.259 88.111L302.547 87.7023C302.275 87.5104 302.001 87.3204 301.726 87.1321L301.444 87.5447C301.171 87.358 300.897 87.1731 300.621 86.99L300.898 86.5736C300.621 86.3894 300.342 86.207 300.063 86.0266L299.792 86.4468C299.514 86.2675 299.234 86.0902 298.954 85.9147L299.219 85.4908C298.937 85.3141 298.653 85.1394 298.368 84.9665L298.109 85.394C297.826 85.2227 297.542 85.0533 297.257 84.8857L297.511 84.4547C297.224 84.286 296.936 84.1192 296.646 83.9544L296.399 84.3889C296.111 84.2252 295.823 84.0635 295.533 83.9036L295.774 83.4658C295.483 83.3051 295.19 83.1463 294.896 82.9896L294.661 83.4307C294.369 83.2752 294.076 83.1217 293.782 82.9701L294.012 82.5257C293.716 82.3731 293.419 82.2224 293.12 82.0738L292.897 82.5213C292.601 82.3737 292.304 82.228 292.005 82.0844L292.222 81.6338C291.923 81.4897 291.622 81.3475 291.32 81.2074L291.109 81.6609C290.81 81.5217 290.509 81.3845 290.207 81.2494L290.411 80.793C290.107 80.6569 289.802 80.5229 289.496 80.3908L289.298 80.85C288.994 80.7192 288.69 80.5904 288.384 80.4636L288.575 80.0018C288.268 79.8744 287.96 79.7491 287.651 79.6258L287.466 80.0903C287.159 79.9679 286.85 79.8475 286.541 79.7293L286.72 79.2623C286.409 79.1432 286.096 79.0261 285.783 78.9112L285.611 79.3807C285.301 79.2671 284.99 79.1556 284.678 79.0461L284.844 78.5744C284.53 78.4642 284.215 78.3561 283.899 78.2501L283.74 78.7242C283.427 78.6189 283.112 78.5158 282.797 78.4148L282.949 77.9386C282.632 77.8371 282.314 77.7377 281.995 77.6405L281.849 78.1188C281.534 78.0226 281.217 77.9284 280.9 77.8365L281.039 77.3562C280.719 77.2636 280.398 77.1731 280.077 77.0848L279.945 77.5669C279.625 77.4792 279.305 77.3936 278.984 77.3102L279.11 76.8262C278.788 76.7427 278.466 76.6613 278.143 76.5821L278.024 77.0677C277.703 76.9891 277.382 76.9127 277.059 76.8384L277.172 76.3511C276.847 76.2763 276.522 76.2037 276.196 76.1333L276.09 76.622C275.767 76.5522 275.442 76.4846 275.117 76.4191L275.216 75.9289C274.891 75.8634 274.565 75.8001 274.238 75.7389L274.146 76.2304C273.821 76.1696 273.496 76.1111 273.169 76.0547L273.255 75.562C272.926 75.5052 272.597 75.4507 272.267 75.3984L272.189 75.8922C271.863 75.8405 271.536 75.791 271.208 75.7437L271.28 75.2488C270.951 75.2013 270.622 75.1561 270.292 75.113L270.227 75.6088C269.899 75.5661 269.571 75.5255 269.242 75.4872L269.3 74.9905C268.968 74.9519 268.636 74.9156 268.303 74.8815L268.252 75.3789C267.925 75.3453 267.597 75.3139 267.268 75.2847L267.312 74.7867C266.981 74.7573 266.65 74.7302 266.317 74.7053L266.28 75.2039C265.95 75.1792 265.62 75.1567 265.289 75.1365L265.319 74.6374C264.987 74.617 264.653 74.5989 264.32 74.5831L264.296 75.0825C263.967 75.0669 263.638 75.0535 263.308 75.0423L263.325 74.5426C262.993 74.5313 262.66 74.5223 262.327 74.5155L262.317 75.0154C261.985 75.0087 261.654 75.0042 261.322 75.0019L261.325 74.5019C261.158 74.5008 260.991 74.5002 260.823 74.5002C260.656 74.5002 260.488 74.5008 260.321 74.5019L260.325 75.0019C259.992 75.0042 259.661 75.0087 259.33 75.0154L259.32 74.5155C258.986 74.5223 258.654 74.5313 258.322 74.5426L258.338 75.0423C258.009 75.0535 257.679 75.0669 257.35 75.0825L257.327 74.5831C256.993 74.5989 256.66 74.617 256.327 74.6374L256.358 75.1365C256.027 75.1567 255.696 75.1792 255.366 75.2039L255.329 74.7053C254.997 74.7302 254.665 74.7574 254.334 74.7867L254.379 75.2847C254.05 75.3139 253.722 75.3453 253.394 75.3789L253.343 74.8815C253.01 74.9156 252.678 74.9519 252.347 74.9905L252.405 75.4872C252.076 75.5255 251.747 75.5661 251.419 75.6088L251.355 75.113C251.025 75.1561 250.695 75.2013 250.367 75.2488L250.438 75.7437C250.111 75.791 249.784 75.8405 249.458 75.8922L249.38 75.3984C249.05 75.4507 248.72 75.5052 248.392 75.562L248.477 76.0547C248.151 76.1111 247.825 76.1696 247.501 76.2304L247.409 75.7389C247.082 75.8001 246.756 75.8634 246.43 75.929L246.529 76.4191C246.204 76.4846 245.88 76.5522 245.556 76.622L245.451 76.1333C245.125 76.2037 244.799 76.2764 244.475 76.3512L244.587 76.8384C244.265 76.9127 243.943 76.9891 243.623 77.0677L243.504 76.5821C243.18 76.6613 242.858 76.7427 242.537 76.8263L242.662 77.3102C242.341 77.3936 242.021 77.4792 241.702 77.5669L241.569 77.0848C241.248 77.1731 240.927 77.2636 240.608 77.3562L240.747 77.8365C240.429 77.9285 240.113 78.0226 239.797 78.1188L239.651 77.6405C239.333 77.7377 239.015 77.8371 238.697 77.9386L238.85 78.4148C238.534 78.5158 238.22 78.6189 237.906 78.7242L237.747 78.2501C237.431 78.3561 237.116 78.4642 236.803 78.5744L236.968 79.0461C236.656 79.1556 236.346 79.2671 236.036 79.3807L235.864 78.9112C235.55 79.0262 235.238 79.1432 234.927 79.2623L235.105 79.7293C234.796 79.8476 234.488 79.9679 234.181 80.0903L233.996 79.6258C233.686 79.7491 233.378 79.8744 233.071 80.0018L233.263 80.4636C232.957 80.5904 232.652 80.7192 232.349 80.85L232.151 80.3908C231.845 80.5229 231.539 80.6569 231.235 80.793L231.44 81.2494C231.138 81.3845 230.837 81.5217 230.537 81.6609L230.326 81.2074C230.025 81.3475 229.724 81.4897 229.424 81.6338L229.641 82.0844C229.343 82.228 229.045 82.3737 228.749 82.5213L228.526 82.0738C228.228 82.2224 227.931 82.3731 227.635 82.5257L227.864 82.9701C227.57 83.1217 227.277 83.2752 226.986 83.4307L226.751 82.9896C226.457 83.1463 226.164 83.3051 225.872 83.4657L226.114 83.9036C225.824 84.0634 225.535 84.2252 225.248 84.3889L225 83.9544C224.711 84.1192 224.423 84.286 224.136 84.4547L224.389 84.8857C224.104 85.0532 223.82 85.2227 223.538 85.394L223.279 84.9665C222.994 85.1393 222.71 85.3141 222.427 85.4908L222.693 85.9147C222.412 86.0902 222.133 86.2675 221.855 86.4468L221.584 86.0265C221.304 86.207 221.026 86.3893 220.748 86.5735L221.025 86.99C220.75 87.1731 220.475 87.358 220.203 87.5447L219.92 87.1321C219.645 87.3203 219.372 87.5104 219.099 87.7023L219.388 88.111C219.117 88.3016 218.848 88.494 218.581 88.6881L218.287 88.2835C218.017 88.479 217.749 88.6763 217.483 88.8755L217.782 89.2761C217.517 89.4741 217.253 89.6739 216.991 89.8755L216.686 89.479C216.422 89.682 216.159 89.8867 215.898 90.0932L216.208 90.4855C215.949 90.6906 215.691 90.8974 215.434 91.106L215.119 90.718C214.86 90.9281 214.603 91.14 214.348 91.3535L214.669 91.7371C214.415 91.9493 214.163 92.1632 213.912 92.3788L213.586 91.9997C213.333 92.2168 213.082 92.4356 212.833 92.6561L213.164 93.0307C212.916 93.2497 212.67 93.4704 212.425 93.6927L212.089 93.3226C211.842 93.5466 211.597 93.7722 211.354 93.9995L211.695 94.365C211.453 94.5907 211.213 94.8181 210.975 95.0471L210.628 94.6863C210.388 94.9169 210.149 95.1491 209.912 95.383L210.264 95.739C210.028 95.9712 209.794 96.2051 209.562 96.4405L209.206 96.0894C208.972 96.3265 208.74 96.5651 208.509 96.8054L208.87 97.1516C208.641 97.3902 208.414 97.6304 208.188 97.8722L207.823 97.5309C207.595 97.7743 207.37 98.0193 207.146 98.2658L207.516 98.602C207.293 98.8468 207.073 99.0931 206.854 99.3408L206.479 99.0097C206.259 99.2592 206.04 99.5103 205.823 99.7628L206.202 100.089C205.986 100.34 205.772 100.592 205.56 100.846L205.177 100.525C204.963 100.78 204.751 101.037 204.541 101.296L204.929 101.611C204.72 101.868 204.514 102.126 204.308 102.385L203.916 102.075C203.71 102.336 203.505 102.599 203.302 102.863L203.698 103.168C203.497 103.43 203.297 103.694 203.099 103.959L202.699 103.66C202.499 103.926 202.302 104.194 202.106 104.464L202.511 104.758C202.317 105.025 202.125 105.294 201.934 105.564L201.525 105.276C201.333 105.549 201.143 105.822 200.955 106.097L201.368 106.38C201.181 106.652 200.996 106.927 200.813 107.202L200.397 106.925C200.212 107.203 200.03 107.481 199.85 107.761L200.27 108.032C200.091 108.31 199.913 108.589 199.738 108.87L199.314 108.604C199.137 108.887 198.962 109.171 198.789 109.456L199.217 109.715C199.046 109.997 198.876 110.281 198.709 110.566L198.278 110.313C198.109 110.6 197.942 110.888 197.777 111.177L198.212 111.425C198.048 111.712 197.886 112.001 197.727 112.291L197.289 112.049C197.128 112.341 196.969 112.634 196.813 112.928L197.254 113.163C197.098 113.454 196.945 113.747 196.793 114.041L196.349 113.812C196.196 114.108 196.045 114.405 195.897 114.703L196.344 114.926C196.197 115.222 196.051 115.52 195.907 115.818L195.457 115.601C195.313 115.901 195.171 116.202 195.03 116.503L195.484 116.714C195.345 117.014 195.208 117.315 195.072 117.617L194.616 117.412C194.48 117.716 194.346 118.022 194.214 118.328L194.673 118.526C194.542 118.829 194.413 119.134 194.287 119.44L193.825 119.248C193.697 119.555 193.572 119.863 193.449 120.173L193.913 120.358C193.791 120.665 193.671 120.973 193.552 121.282L193.085 121.104C192.966 121.415 192.849 121.727 192.734 122.041L193.204 122.213C193.09 122.523 192.979 122.833 192.869 123.145L192.397 122.98C192.287 123.293 192.179 123.608 192.073 123.924L192.547 124.083C192.442 124.397 192.339 124.711 192.238 125.027L191.762 124.875C191.66 125.192 191.561 125.51 191.464 125.828L191.942 125.974C191.846 126.29 191.751 126.606 191.659 126.924L191.179 126.785C191.087 127.104 190.996 127.425 190.908 127.746L191.39 127.879C191.302 128.198 191.217 128.518 191.133 128.839L190.649 128.714C190.566 129.035 190.484 129.357 190.405 129.681L190.891 129.8C190.812 130.12 190.736 130.442 190.661 130.764L190.174 130.652C190.099 130.976 190.027 131.302 189.956 131.628L190.445 131.733C190.375 132.057 190.308 132.381 190.242 132.706L189.752 132.607C189.686 132.933 189.623 133.259 189.562 133.586L190.053 133.678C189.993 134.002 189.934 134.328 189.878 134.654L189.385 134.569C189.328 134.897 189.274 135.227 189.221 135.557L189.715 135.635C189.663 135.961 189.614 136.288 189.567 136.615L189.072 136.544C189.024 136.872 188.979 137.202 188.936 137.532L189.432 137.596C189.389 137.924 189.349 138.253 189.31 138.582L188.814 138.524C188.775 138.855 188.739 139.187 188.704 139.52L189.202 139.571C189.168 139.899 189.137 140.227 189.108 140.556L188.61 140.512C188.58 140.842 188.553 141.174 188.528 141.506L189.027 141.543C189.002 141.873 188.98 142.204 188.959 142.535L188.46 142.504C188.44 142.837 188.422 143.17 188.406 143.504L188.906 143.528C188.89 143.856 188.876 144.186 188.865 144.516L188.366 144.499C188.354 144.831 188.345 145.164 188.339 145.497L188.838 145.507C188.832 145.838 188.827 146.17 188.825 146.502L188.325 146.498C188.324 146.665 188.323 146.833 188.323 147C188.323 147.168 188.324 147.335 188.325 147.502L188.825 147.499C188.827 147.831 188.832 148.163 188.838 148.494L188.339 148.504C188.345 148.837 188.354 149.17 188.366 149.502L188.865 149.485C188.877 149.815 188.89 150.144 188.906 150.473L188.406 150.497C188.422 150.83 188.44 151.164 188.46 151.496L188.959 151.466C188.98 151.797 189.002 152.127 189.027 152.457L188.528 152.494C188.553 152.827 188.58 153.158 188.61 153.489L189.108 153.445C189.137 153.774 189.168 154.102 189.202 154.429L188.704 154.48C188.739 154.813 188.775 155.145 188.814 155.477L189.31 155.419C189.349 155.748 189.389 156.076 189.432 156.404L188.936 156.469C188.979 156.799 189.024 157.128 189.072 157.457L189.567 157.385C189.614 157.713 189.663 158.04 189.715 158.366L189.221 158.444C189.274 158.774 189.328 159.103 189.385 159.432L189.878 159.346C189.934 159.673 189.993 159.998 190.053 160.323L189.562 160.415C189.623 160.742 189.686 161.068 189.752 161.393L190.242 161.294C190.308 161.619 190.375 161.944 190.445 162.267L189.956 162.373C190.027 162.699 190.099 163.024 190.174 163.349L190.661 163.236C190.736 163.559 190.812 163.88 190.891 164.201L190.405 164.32C190.484 164.643 190.566 164.965 190.649 165.287L191.133 165.161C191.217 165.482 191.302 165.802 191.39 166.122L190.908 166.254C190.996 166.576 191.087 166.896 191.179 167.216L191.659 167.077C191.751 167.394 191.846 167.711 191.942 168.026L191.464 168.172C191.561 168.491 191.66 168.809 191.762 169.126L192.238 168.974C192.339 169.289 192.442 169.604 192.547 169.917L192.073 170.076C192.179 170.392 192.287 170.707 192.397 171.021L192.869 170.855C192.979 171.167 193.09 171.478 193.204 171.788L192.734 171.96C192.849 172.273 192.966 172.586 193.085 172.897L193.552 172.718C193.671 173.027 193.791 173.336 193.913 173.643L193.449 173.828C193.572 174.137 193.697 174.445 193.825 174.753L194.287 174.561C194.413 174.867 194.542 175.171 194.673 175.475L194.214 175.673C194.346 175.979 194.48 176.284 194.616 176.588L195.072 176.384C195.208 176.686 195.345 176.987 195.484 177.286L195.03 177.497C195.171 177.799 195.313 178.1 195.457 178.399L195.907 178.182C196.051 178.481 196.197 178.778 196.344 179.074L195.897 179.297C196.045 179.596 196.196 179.893 196.349 180.189L196.793 179.959C196.945 180.253 197.098 180.546 197.254 180.838L196.813 181.073C196.969 181.367 197.128 181.66 197.289 181.951L197.727 181.71C197.886 182 198.048 182.288 198.212 182.576L197.777 182.823C197.942 183.113 198.109 183.401 198.278 183.688L198.709 183.434C198.876 183.719 199.046 184.003 199.217 184.286L198.789 184.545C198.962 184.83 199.137 185.114 199.314 185.396L199.738 185.131C199.913 185.411 200.091 185.691 200.27 185.969L199.85 186.24C200.03 186.519 200.212 186.798 200.397 187.075L200.813 186.798C200.996 187.074 201.181 187.348 201.368 187.621L200.955 187.903C201.143 188.178 201.333 188.452 201.525 188.724L201.934 188.436C202.125 188.706 202.317 188.975 202.511 189.243L202.106 189.537C202.302 189.806 202.499 190.074 202.698 190.341L203.099 190.042C203.297 190.307 203.497 190.57 203.698 190.833L203.302 191.137C203.505 191.401 203.71 191.664 203.916 191.925L204.308 191.615C204.514 191.875 204.72 192.133 204.929 192.389L204.541 192.705C204.751 192.963 204.963 193.22 205.177 193.475L205.56 193.155C205.772 193.409 205.986 193.661 206.202 193.912L205.823 194.238C206.04 194.49 206.259 194.741 206.479 194.991L206.854 194.66C207.073 194.907 207.293 195.154 207.516 195.398L207.146 195.735C207.37 195.981 207.595 196.226 207.823 196.47L208.188 196.128C208.414 196.37 208.641 196.61 208.87 196.849L208.509 197.195C208.74 197.435 208.972 197.674 209.206 197.911L209.562 197.56C209.794 197.795 210.028 198.029 210.264 198.261L209.912 198.617C210.149 198.851 210.388 199.084 210.628 199.314L210.975 198.953C211.213 199.182 211.453 199.41 211.695 199.635L211.354 200.001C211.597 200.228 211.842 200.454 212.089 200.678L212.425 200.308C212.67 200.53 212.916 200.751 213.164 200.97L212.833 201.344C213.082 201.565 213.333 201.784 213.586 202.001L213.912 201.622C214.163 201.837 214.415 202.051 214.669 202.263L214.348 202.647C214.603 202.86 214.86 203.072 215.119 203.282L215.434 202.894C215.691 203.103 215.949 203.31 216.208 203.515L215.898 203.907C216.159 204.114 216.422 204.318 216.686 204.521L216.991 204.125C217.253 204.327 217.517 204.526 217.782 204.724L217.483 205.125C217.749 205.324 218.017 205.521 218.287 205.717L218.581 205.312C218.848 205.506 219.117 205.699 219.387 205.889L219.099 206.298C219.372 206.49 219.645 206.68 219.92 206.868L220.203 206.456C220.475 206.642 220.75 206.827 221.025 207.01L220.748 207.427C221.026 207.611 221.304 207.793 221.584 207.974L221.855 207.554C222.133 207.733 222.412 207.91 222.693 208.086L222.427 208.51C222.71 208.686 222.994 208.861 223.279 209.034L223.538 208.606C223.82 208.778 224.104 208.947 224.389 209.115L224.136 209.546C224.423 209.714 224.711 209.881 225 210.046L225.248 209.612C225.535 209.775 225.824 209.937 226.114 210.097L225.872 210.535C226.164 210.695 226.457 210.854 226.751 211.011L226.986 210.57C227.277 210.725 227.57 210.879 227.864 211.03L227.635 211.475C227.931 211.627 228.228 211.778 228.526 211.927L228.749 211.479C229.045 211.627 229.343 211.772 229.641 211.916L229.424 212.367C229.724 212.511 230.025 212.653 230.326 212.793L230.537 212.34C230.837 212.479 231.138 212.616 231.44 212.751L231.235 213.207C231.539 213.344 231.845 213.478 232.151 213.61L232.349 213.15C232.652 213.281 232.957 213.41 233.263 213.537L233.071 213.999C233.378 214.126 233.686 214.251 233.996 214.375L234.181 213.91C234.488 214.033 234.796 214.153 235.105 214.271L234.927 214.738C235.238 214.857 235.55 214.974 235.864 215.089L236.036 214.62C236.346 214.733 236.656 214.845 236.968 214.954L236.803 215.426C237.116 215.536 237.431 215.644 237.747 215.75L237.906 215.276C238.22 215.382 238.534 215.485 238.85 215.586L238.698 216.062C239.015 216.163 239.333 216.263 239.651 216.36L239.797 215.882C240.113 215.978 240.429 216.072 240.747 216.164L240.608 216.644C240.927 216.737 241.248 216.827 241.569 216.916L241.702 216.434C242.021 216.521 242.341 216.607 242.662 216.69L242.537 217.174C242.858 217.258 243.18 217.339 243.504 217.418L243.623 216.933C243.943 217.011 244.265 217.088 244.587 217.162L244.475 217.649C244.799 217.724 245.125 217.797 245.451 217.867L245.556 217.378C245.88 217.448 246.204 217.516 246.529 217.581L246.43 218.072C246.756 218.137 247.082 218.2 247.409 218.262L247.501 217.77C247.825 217.831 248.151 217.889 248.477 217.946L248.392 218.438C248.72 218.495 249.05 218.55 249.38 218.602L249.458 218.108C249.784 218.16 250.111 218.21 250.438 218.257L250.367 218.752C250.695 218.799 251.025 218.844 251.355 218.887L251.419 218.392C251.747 218.434 252.076 218.475 252.405 218.513L252.347 219.01C252.678 219.049 253.01 219.085 253.343 219.119L253.394 218.622C253.722 218.655 254.05 218.687 254.379 218.716L254.335 219.214C254.665 219.243 254.997 219.27 255.329 219.295L255.366 218.797C255.696 218.821 256.027 218.844 256.358 218.864L256.327 219.363C256.66 219.383 256.993 219.402 257.327 219.417L257.351 218.918C257.679 218.934 258.009 218.947 258.339 218.958L258.322 219.458C258.654 219.469 258.987 219.478 259.32 219.485L259.33 218.985Z" stroke="black" stroke-opacity="0.05" stroke-dasharray="1 1"/>
</g>
<path d="M260.824 147L211.326 97.5027" stroke="#CCCCCC"/>
<path d="M231.125 117.302L209.912 96.0884" stroke="#FF3B30" stroke-width="2"/>
<path d="M178.056 75.4162L177.31 76.1619L172.558 71.4097C172.549 71.7605 172.484 72.1679 172.363 72.6319C172.244 73.0932 172.111 73.4827 171.965 73.8003L171.244 73.0794C171.465 72.4662 171.592 71.864 171.625 71.2729C171.658 70.6819 171.609 70.1902 171.476 69.798L171.957 69.3174L178.056 75.4162ZM177.824 69.0605C177.401 69.2566 177.01 69.3243 176.651 69.2635C176.292 69.2027 175.966 69.0259 175.673 68.7332C175.231 68.2912 175.019 67.7609 175.035 67.1422C175.052 66.5235 175.324 65.9503 175.851 65.4227C176.382 64.8924 176.963 64.6203 177.596 64.6065C178.225 64.59 178.761 64.8026 179.203 65.2446C179.485 65.5263 179.656 65.8467 179.717 66.2058C179.778 66.5594 179.714 66.9433 179.526 67.3576C180.021 67.1063 180.5 67.0193 180.964 67.0966C181.431 67.1712 181.852 67.3963 182.228 67.7719C182.747 68.2912 183 68.9113 182.986 69.6322C182.972 70.3532 182.666 71.0133 182.066 71.6127C181.467 72.2121 180.807 72.5187 180.086 72.5325C179.362 72.5435 178.735 72.2839 178.205 71.7536C177.81 71.3586 177.579 70.9291 177.513 70.465C177.447 69.9955 177.55 69.5273 177.824 69.0605ZM176.411 67.946C176.698 68.2332 177.025 68.3755 177.393 68.3727C177.76 68.3699 178.091 68.2208 178.387 67.9252C178.674 67.638 178.819 67.3134 178.822 66.9516C178.825 66.5842 178.695 66.2693 178.433 66.0069C178.159 65.7335 177.835 65.5995 177.459 65.605C177.083 65.605 176.755 65.7459 176.473 66.0277C176.188 66.3122 176.043 66.6395 176.038 67.0096C176.032 67.3797 176.157 67.6918 176.411 67.946ZM178.975 70.9912C179.188 71.2039 179.444 71.36 179.742 71.4594C180.043 71.5561 180.348 71.5602 180.658 71.4718C180.964 71.3807 181.232 71.2205 181.461 70.9912C181.818 70.6349 181.997 70.2261 182 69.7648C182.003 69.3035 181.827 68.8961 181.474 68.5426C181.115 68.1835 180.698 68.0067 180.222 68.0122C179.75 68.015 179.334 68.1959 178.975 68.555C178.625 68.9058 178.449 69.3132 178.449 69.7773C178.452 70.2385 178.627 70.6432 178.975 70.9912ZM181.697 65.7832C180.979 65.065 180.475 64.4146 180.185 63.8318C179.895 63.2434 179.776 62.6855 179.829 62.1579C179.884 61.6276 180.133 61.1414 180.575 60.6995C180.901 60.3736 181.253 60.154 181.631 60.0407C182.007 59.9247 182.399 59.9109 182.808 59.9993C183.214 60.0849 183.641 60.2603 184.088 60.5255C184.533 60.7879 185.056 61.2202 185.658 61.8223C186.371 62.5349 186.874 63.184 187.166 63.7696C187.457 64.3524 187.575 64.9104 187.523 65.4435C187.47 65.971 187.222 66.4572 186.777 66.9019C186.191 67.4874 185.522 67.7374 184.768 67.6518C183.862 67.5468 182.838 66.924 181.697 65.7832ZM182.464 65.0167C183.461 66.0138 184.241 66.5621 184.805 66.6616C185.368 66.7555 185.821 66.6312 186.164 66.2887C186.506 65.9462 186.628 65.4932 186.528 64.9297C186.432 64.3635 185.886 63.5832 184.892 62.5888C183.892 61.5889 183.11 61.042 182.547 60.9481C181.986 60.8514 181.532 60.9771 181.184 61.3251C180.841 61.6676 180.713 62.0861 180.798 62.5805C180.912 63.2075 181.467 64.0196 182.464 65.0167ZM184.565 58.8475C184.247 58.5298 184.088 58.1473 184.088 57.6998C184.091 57.2496 184.25 56.867 184.565 56.5521C184.885 56.2317 185.269 56.0715 185.716 56.0715C186.164 56.0715 186.546 56.2304 186.864 56.548C187.182 56.8656 187.34 57.251 187.34 57.704C187.34 58.1514 187.182 58.534 186.864 58.8516C186.549 59.1665 186.167 59.3253 185.716 59.3281C185.269 59.3281 184.885 59.1679 184.565 58.8475ZM185.016 58.3959C185.21 58.5892 185.443 58.6873 185.716 58.69C185.99 58.6873 186.223 58.5892 186.417 58.3959C186.607 58.2053 186.702 57.9746 186.702 57.704C186.702 57.4277 186.606 57.193 186.412 56.9996C186.219 56.8063 185.986 56.711 185.712 56.7137C185.439 56.711 185.207 56.8049 185.016 56.9955C184.823 57.1888 184.726 57.4236 184.726 57.6998C184.726 57.9705 184.823 58.2025 185.016 58.3959Z" fill="#FF3B30"/>
<path d="M246.711 36V35.616H248.379V27.54H247.671C247.079 27.54 246.747 27.828 246.675 28.404L246.507 29.688H246.171V27H246.387L246.747 27.12H250.851L251.211 27H251.427V29.688H251.091L250.923 28.404C250.851 27.828 250.519 27.54 249.927 27.54H249.219V35.616H250.887V36H246.711ZM252.147 36V35.592H254.415V30.144H252.711V29.856L254.415 29.7L254.943 29.4H255.231V35.592H257.499V36H252.147ZM254.823 28.44C254.639 28.44 254.483 28.376 254.355 28.248C254.227 28.12 254.163 27.964 254.163 27.78C254.163 27.596 254.227 27.44 254.355 27.312C254.483 27.184 254.639 27.12 254.823 27.12C255.007 27.12 255.163 27.184 255.291 27.312C255.419 27.44 255.483 27.596 255.483 27.78C255.483 27.964 255.419 28.12 255.291 28.248C255.163 28.376 255.007 28.44 254.823 28.44ZM258.087 36V35.592H258.615V30.144H257.967V29.904L258.687 29.724L259.167 29.4H259.395V30.252H259.431C259.495 30.068 259.619 29.88 259.803 29.688C259.995 29.496 260.227 29.4 260.499 29.4C260.715 29.4 260.891 29.472 261.027 29.616C261.171 29.76 261.251 29.972 261.267 30.252H261.303C261.375 30.068 261.503 29.88 261.687 29.688C261.871 29.496 262.099 29.4 262.371 29.4C262.619 29.4 262.811 29.484 262.947 29.652C263.083 29.812 263.151 30.048 263.151 30.36V35.592H263.739V36H262.371V30.396C262.371 30.092 262.239 29.94 261.975 29.94C261.831 29.94 261.707 29.992 261.603 30.096C261.507 30.192 261.431 30.316 261.375 30.468C261.319 30.612 261.283 30.752 261.267 30.888V35.592H261.855V36H260.499V30.396C260.499 30.092 260.355 29.94 260.067 29.94C259.931 29.94 259.815 29.992 259.719 30.096C259.623 30.192 259.547 30.316 259.491 30.468C259.443 30.612 259.411 30.752 259.395 30.888V35.592H259.983V36H258.087ZM267.111 36.12C266.623 36.12 266.183 35.984 265.791 35.712C265.407 35.432 265.103 35.044 264.879 34.548C264.663 34.052 264.555 33.476 264.555 32.82C264.555 32.388 264.603 31.972 264.699 31.572C264.803 31.164 264.959 30.796 265.167 30.468C265.383 30.14 265.647 29.88 265.959 29.688C266.279 29.496 266.655 29.4 267.087 29.4C267.719 29.4 268.227 29.616 268.611 30.048C269.003 30.48 269.199 31.084 269.199 31.86C269.199 31.964 269.195 32.06 269.187 32.148C269.187 32.236 269.183 32.304 269.175 32.352H265.443V33.36C265.443 33.864 265.531 34.284 265.707 34.62C265.883 34.948 266.115 35.196 266.403 35.364C266.691 35.532 266.995 35.616 267.315 35.616C267.619 35.616 267.875 35.552 268.083 35.424C268.299 35.296 268.471 35.14 268.599 34.956C268.735 34.764 268.827 34.584 268.875 34.416L269.127 34.5C269.079 34.732 268.971 34.976 268.803 35.232C268.635 35.48 268.411 35.692 268.131 35.868C267.851 36.036 267.511 36.12 267.111 36.12ZM267.063 29.784C266.727 29.784 266.439 29.884 266.199 30.084C265.967 30.276 265.787 30.544 265.659 30.888C265.531 31.224 265.459 31.608 265.443 32.04H267.843C267.931 32.04 268.015 32.032 268.095 32.016C268.183 31.992 268.255 31.932 268.311 31.836C268.375 31.732 268.407 31.56 268.407 31.32C268.407 30.824 268.279 30.444 268.023 30.18C267.767 29.916 267.447 29.784 267.063 29.784ZM273.363 36.12C272.963 36.12 272.631 36.028 272.367 35.844C272.111 35.66 271.915 35.436 271.779 35.172C271.643 34.9 271.559 34.644 271.527 34.404H271.431V36H271.047V33.192H271.671V33.336C271.671 33.416 271.675 33.548 271.683 33.732C271.699 33.916 271.735 34.12 271.791 34.344C271.847 34.568 271.931 34.784 272.043 34.992C272.163 35.2 272.327 35.372 272.535 35.508C272.743 35.644 273.007 35.712 273.327 35.712C273.687 35.712 273.959 35.62 274.143 35.436C274.335 35.252 274.431 35.012 274.431 34.716C274.431 34.428 274.355 34.18 274.203 33.972C274.051 33.756 273.855 33.568 273.615 33.408C273.375 33.24 273.119 33.076 272.847 32.916C272.583 32.756 272.331 32.588 272.091 32.412C271.851 32.228 271.655 32.02 271.503 31.788C271.351 31.548 271.275 31.264 271.275 30.936C271.275 30.488 271.423 30.12 271.719 29.832C272.015 29.544 272.415 29.4 272.919 29.4C273.287 29.4 273.579 29.472 273.795 29.616C274.011 29.752 274.171 29.916 274.275 30.108C274.387 30.292 274.463 30.46 274.503 30.612H274.599V29.52H274.983V31.848H274.479V31.812C274.479 31.604 274.455 31.384 274.407 31.152C274.359 30.92 274.275 30.7 274.155 30.492C274.043 30.284 273.887 30.116 273.687 29.988C273.495 29.86 273.251 29.796 272.955 29.796C272.587 29.796 272.335 29.892 272.199 30.084C272.063 30.276 271.995 30.476 271.995 30.684C271.995 30.94 272.071 31.168 272.223 31.368C272.375 31.56 272.571 31.74 272.811 31.908C273.051 32.068 273.303 32.228 273.567 32.388C273.839 32.548 274.095 32.724 274.335 32.916C274.575 33.1 274.771 33.316 274.923 33.564C275.075 33.804 275.151 34.092 275.151 34.428C275.151 34.748 275.071 35.036 274.911 35.292C274.759 35.548 274.547 35.752 274.275 35.904C274.011 36.048 273.707 36.12 273.363 36.12Z" fill="#333333"/>
<path d="M234.195 268V267.592H235.203V259.528H234.195V259.12H239.127V261.688H238.791L238.623 260.404C238.551 259.828 238.219 259.54 237.627 259.54H236.043V262.948H237.591V261.424H237.975V264.88H237.591V263.356H236.043V267.58H237.747C238.331 267.58 238.659 267.288 238.731 266.704L238.911 265.192H239.247V268H234.195ZM239.991 268V267.664L240.999 267.568V262.144H239.775V261.856L240.999 261.7L241.527 261.4H241.815V262.372H241.851C241.915 262.228 242.015 262.084 242.151 261.94C242.287 261.788 242.459 261.66 242.667 261.556C242.875 261.452 243.115 261.4 243.387 261.4C243.779 261.4 244.087 261.524 244.311 261.772C244.543 262.012 244.659 262.368 244.659 262.84V267.592H245.667V268H243.843V262.912C243.843 262.272 243.563 261.952 243.003 261.952C242.779 261.952 242.583 262.004 242.415 262.108C242.255 262.212 242.123 262.344 242.019 262.504C241.923 262.656 241.855 262.804 241.815 262.948V267.568L243.003 267.664V268H239.991ZM249.111 268.12C248.623 268.12 248.183 267.984 247.791 267.712C247.407 267.432 247.103 267.044 246.879 266.548C246.663 266.052 246.555 265.476 246.555 264.82C246.555 264.388 246.603 263.972 246.699 263.572C246.803 263.164 246.959 262.796 247.167 262.468C247.383 262.14 247.647 261.88 247.959 261.688C248.279 261.496 248.655 261.4 249.087 261.4C249.719 261.4 250.227 261.616 250.611 262.048C251.003 262.48 251.199 263.084 251.199 263.86C251.199 263.964 251.195 264.06 251.187 264.148C251.187 264.236 251.183 264.304 251.175 264.352H247.443V265.36C247.443 265.864 247.531 266.284 247.707 266.62C247.883 266.948 248.115 267.196 248.403 267.364C248.691 267.532 248.995 267.616 249.315 267.616C249.619 267.616 249.875 267.552 250.083 267.424C250.299 267.296 250.471 267.14 250.599 266.956C250.735 266.764 250.827 266.584 250.875 266.416L251.127 266.5C251.079 266.732 250.971 266.976 250.803 267.232C250.635 267.48 250.411 267.692 250.131 267.868C249.851 268.036 249.511 268.12 249.111 268.12ZM249.063 261.784C248.727 261.784 248.439 261.884 248.199 262.084C247.967 262.276 247.787 262.544 247.659 262.888C247.531 263.224 247.459 263.608 247.443 264.04H249.843C249.931 264.04 250.015 264.032 250.095 264.016C250.183 263.992 250.255 263.932 250.311 263.836C250.375 263.732 250.407 263.56 250.407 263.32C250.407 262.824 250.279 262.444 250.023 262.18C249.767 261.916 249.447 261.784 249.063 261.784ZM256.095 267.592V268H251.883V267.592H253.323V262.144H252.099V261.856L253.323 261.7L253.851 261.4H254.139V263.512H254.175L254.235 263.332C254.419 262.78 254.687 262.32 255.039 261.952C255.391 261.584 255.811 261.4 256.299 261.4C256.603 261.4 256.863 261.468 257.079 261.604C257.295 261.74 257.403 261.936 257.403 262.192C257.403 262.344 257.363 262.468 257.283 262.564C257.203 262.66 257.079 262.708 256.911 262.708C256.711 262.708 256.563 262.644 256.467 262.516C256.371 262.388 256.291 262.268 256.227 262.156L256.047 261.808C255.759 261.808 255.507 261.912 255.291 262.12C255.075 262.32 254.887 262.588 254.727 262.924C254.567 263.252 254.427 263.608 254.307 263.992L254.139 264.532V267.592H256.095ZM260.619 270.28C259.883 270.28 259.307 270.128 258.891 269.824C258.475 269.52 258.267 269.136 258.267 268.672C258.267 268.392 258.331 268.156 258.459 267.964C258.595 267.772 258.759 267.62 258.951 267.508C259.151 267.388 259.339 267.308 259.515 267.268V267.22C259.115 267.18 258.815 267.068 258.615 266.884C258.415 266.7 258.315 266.472 258.315 266.2C258.315 265.952 258.375 265.748 258.495 265.588C258.623 265.42 258.767 265.284 258.927 265.18C259.087 265.076 259.219 264.992 259.323 264.928L259.407 264.88C259.207 264.68 259.059 264.452 258.963 264.196C258.875 263.932 258.831 263.668 258.831 263.404C258.831 263.076 258.899 262.76 259.035 262.456C259.179 262.152 259.399 261.9 259.695 261.7C259.991 261.5 260.371 261.4 260.835 261.4C261.115 261.4 261.367 261.44 261.591 261.52H263.403V261.892H262.227C262.435 262.084 262.587 262.316 262.683 262.588C262.787 262.86 262.839 263.132 262.839 263.404C262.839 263.724 262.767 264.04 262.623 264.352C262.487 264.656 262.271 264.908 261.975 265.108C261.687 265.308 261.307 265.408 260.835 265.408C260.579 265.408 260.347 265.376 260.139 265.312C259.931 265.248 259.751 265.16 259.599 265.048L259.431 265.144C259.303 265.224 259.175 265.32 259.047 265.432C258.919 265.536 258.855 265.672 258.855 265.84C258.855 266.008 258.919 266.136 259.047 266.224C259.175 266.304 259.319 266.36 259.479 266.392C259.647 266.416 259.783 266.432 259.887 266.44L261.423 266.56C261.943 266.6 262.383 266.772 262.743 267.076C263.103 267.372 263.283 267.78 263.283 268.3C263.283 268.7 263.171 269.048 262.947 269.344C262.723 269.648 262.411 269.88 262.011 270.04C261.611 270.2 261.147 270.28 260.619 270.28ZM260.835 265.072C261.259 265.072 261.563 264.936 261.747 264.664C261.931 264.392 262.023 264.056 262.023 263.656V263.152C262.023 262.752 261.931 262.416 261.747 262.144C261.563 261.872 261.259 261.736 260.835 261.736C260.411 261.736 260.107 261.872 259.923 262.144C259.739 262.416 259.647 262.752 259.647 263.152V263.656C259.647 264.056 259.739 264.392 259.923 264.664C260.107 264.936 260.411 265.072 260.835 265.072ZM260.739 269.848C261.283 269.848 261.735 269.724 262.095 269.476C262.455 269.236 262.635 268.904 262.635 268.48C262.635 268.184 262.551 267.956 262.383 267.796C262.215 267.636 262.015 267.524 261.783 267.46C261.551 267.388 261.339 267.348 261.147 267.34L259.995 267.256C259.907 267.28 259.775 267.336 259.599 267.424C259.431 267.504 259.275 267.632 259.131 267.808C258.995 267.976 258.927 268.208 258.927 268.504C258.927 268.92 259.095 269.248 259.431 269.488C259.767 269.728 260.203 269.848 260.739 269.848ZM267.111 268.12C266.623 268.12 266.183 267.984 265.791 267.712C265.407 267.432 265.103 267.044 264.879 266.548C264.663 266.052 264.555 265.476 264.555 264.82C264.555 264.388 264.603 263.972 264.699 263.572C264.803 263.164 264.959 262.796 265.167 262.468C265.383 262.14 265.647 261.88 265.959 261.688C266.279 261.496 266.655 261.4 267.087 261.4C267.719 261.4 268.227 261.616 268.611 262.048C269.003 262.48 269.199 263.084 269.199 263.86C269.199 263.964 269.195 264.06 269.187 264.148C269.187 264.236 269.183 264.304 269.175 264.352H265.443V265.36C265.443 265.864 265.531 266.284 265.707 266.62C265.883 266.948 266.115 267.196 266.403 267.364C266.691 267.532 266.995 267.616 267.315 267.616C267.619 267.616 267.875 267.552 268.083 267.424C268.299 267.296 268.471 267.14 268.599 266.956C268.735 266.764 268.827 266.584 268.875 266.416L269.127 266.5C269.079 266.732 268.971 266.976 268.803 267.232C268.635 267.48 268.411 267.692 268.131 267.868C267.851 268.036 267.511 268.12 267.111 268.12ZM267.063 261.784C266.727 261.784 266.439 261.884 266.199 262.084C265.967 262.276 265.787 262.544 265.659 262.888C265.531 263.224 265.459 263.608 265.443 264.04H267.843C267.931 264.04 268.015 264.032 268.095 264.016C268.183 263.992 268.255 263.932 268.311 263.836C268.375 263.732 268.407 263.56 268.407 263.32C268.407 262.824 268.279 262.444 268.023 262.18C267.767 261.916 267.447 261.784 267.063 261.784ZM273.387 268.12C272.803 268.12 272.327 267.94 271.959 267.58C271.599 267.212 271.419 266.672 271.419 265.96V261.904H270.051V261.52H271.419L271.959 260.236H272.235V261.52H275.367V261.904H272.235V265.9C272.235 266.452 272.347 266.88 272.571 267.184C272.795 267.48 273.127 267.628 273.567 267.628C273.919 267.628 274.199 267.544 274.407 267.376C274.623 267.208 274.775 266.988 274.863 266.716C274.959 266.436 275.007 266.136 275.007 265.816V265.504H275.367V265.816C275.367 266.04 275.339 266.288 275.283 266.56C275.227 266.824 275.127 267.076 274.983 267.316C274.847 267.548 274.647 267.74 274.383 267.892C274.127 268.044 273.795 268.12 273.387 268.12ZM276.147 268V267.592H278.415V262.144H276.711V261.856L278.415 261.7L278.943 261.4H279.231V267.592H281.499V268H276.147ZM278.823 260.44C278.639 260.44 278.483 260.376 278.355 260.248C278.227 260.12 278.163 259.964 278.163 259.78C278.163 259.596 278.227 259.44 278.355 259.312C278.483 259.184 278.639 259.12 278.823 259.12C279.007 259.12 279.163 259.184 279.291 259.312C279.419 259.44 279.483 259.596 279.483 259.78C279.483 259.964 279.419 260.12 279.291 260.248C279.163 260.376 279.007 260.44 278.823 260.44ZM285.051 268.12C284.579 268.12 284.159 267.984 283.791 267.712C283.431 267.432 283.147 267.048 282.939 266.56C282.739 266.064 282.639 265.496 282.639 264.856C282.639 264.192 282.747 263.6 282.963 263.08C283.179 262.56 283.479 262.152 283.863 261.856C284.255 261.552 284.707 261.4 285.219 261.4C285.571 261.4 285.891 261.472 286.179 261.616C286.467 261.752 286.695 261.94 286.863 262.18C287.031 262.412 287.115 262.676 287.115 262.972C287.115 263.252 287.043 263.456 286.899 263.584C286.763 263.712 286.615 263.776 286.455 263.776C286.327 263.776 286.207 263.736 286.095 263.656C285.991 263.568 285.939 263.448 285.939 263.296C285.939 263.136 285.999 262.988 286.119 262.852C286.239 262.708 286.371 262.512 286.515 262.264C286.435 262.16 286.287 262.056 286.071 261.952C285.863 261.84 285.607 261.784 285.303 261.784C284.743 261.784 284.307 261.996 283.995 262.42C283.683 262.844 283.527 263.424 283.527 264.16V265.36C283.527 265.864 283.607 266.284 283.767 266.62C283.935 266.948 284.151 267.196 284.415 267.364C284.679 267.532 284.963 267.616 285.267 267.616C285.555 267.616 285.803 267.552 286.011 267.424C286.219 267.296 286.387 267.14 286.515 266.956C286.643 266.764 286.731 266.584 286.779 266.416L287.031 266.5C286.983 266.732 286.875 266.976 286.707 267.232C286.547 267.48 286.327 267.692 286.047 267.868C285.775 268.036 285.443 268.12 285.051 268.12Z" fill="#333333"/>
<path d="M264.823 49C264.823 51.2091 263.032 53 260.823 53C258.614 53 256.823 51.2091 256.823 49C256.823 46.7909 258.614 45 260.823 45C263.032 45 264.823 46.7909 264.823 49Z" stroke="#CCCCCC" stroke-width="2"/>
<path d="M260.823 251C264.137 251 266.823 248.314 266.823 245C266.823 241.686 264.137 239 260.823 239C257.51 239 254.823 241.686 254.823 245C254.823 248.314 257.51 251 260.823 251Z" fill="#CCCCCC"/>
</g>
<defs>
<filter id="filter0_dddd_166_609" x="170.823" y="71.0002" width="180" height="207" filterUnits="userSpaceOnUse" color-interpolation-filters="sRGB">
<feFlood flood-opacity="0" result="BackgroundImageFix"/>
<feColorMatrix in="SourceAlpha" type="matrix" values="0 0 0 0 0 0 0 0 0 0 0 0 0 0 0 0 0 0 127 0" result="hardAlpha"/>
<feOffset dy="3"/>
<feGaussianBlur stdDeviation="3"/>
<feColorMatrix type="matrix" values="0 0 0 0 0.501961 0 0 0 0 0.501961 0 0 0 0 0.501961 0 0 0 0.1 0"/>
<feBlend mode="normal" in2="BackgroundImageFix" result="effect1_dropShadow_166_609"/>
<feColorMatrix in="SourceAlpha" type="matrix" values="0 0 0 0 0 0 0 0 0 0 0 0 0 0 0 0 0 0 127 0" result="hardAlpha"/>
<feOffset dy="10"/>
<feGaussianBlur stdDeviation="5"/>
<feColorMatrix type="matrix" values="0 0 0 0 0.501961 0 0 0 0 0.501961 0 0 0 0 0.501961 0 0 0 0.09 0"/>
<feBlend mode="normal" in2="effect1_dropShadow_166_609" result="effect2_dropShadow_166_609"/>
<feColorMatrix in="SourceAlpha" type="matrix" values="0 0 0 0 0 0 0 0 0 0 0 0 0 0 0 0 0 0 127 0" result="hardAlpha"/>
<feOffset dy="23"/>
<feGaussianBlur stdDeviation="7"/>
<feColorMatrix type="matrix" values="0 0 0 0 0.501961 0 0 0 0 0.501961 0 0 0 0 0.501961 0 0 0 0.05 0"/>
<feBlend mode="normal" in2="effect2_dropShadow_166_609" result="effect3_dropShadow_166_609"/>
<feColorMatrix in="SourceAlpha" type="matrix" values="0 0 0 0 0 0 0 0 0 0 0 0 0 0 0 0 0 0 127 0" result="hardAlpha"/>
<feOffset dy="41"/>
<feGaussianBlur stdDeviation="8.5"/>
<feColorMatrix type="matrix" values="0 0 0 0 0.501961 0 0 0 0 0.501961 0 0 0 0 0.501961 0 0 0 0.01 0"/>
<feBlend mode="normal" in2="effect3_dropShadow_166_609" result="effect4_dropShadow_166_609"/>
<feBlend mode="normal" in="SourceGraphic" in2="effect4_dropShadow_166_609" result="shape"/>
</filter>
<clipPath id="clip0_166_609">
<rect width="522" height="294" fill="white"/>
</clipPath>
</defs>
</svg>
