<svg width="266" height="48" viewBox="0 0 266 48" fill="none" xmlns="http://www.w3.org/2000/svg">
<path d="M28.1461 41.0591H6.63846V1.32293C6.63846 0.58798 6.05056 0 5.31568 0H1.3228C0.587911 0 0 0.58798 0 1.32293V45.5668C0 46.3018 0.587911 46.8897 1.3228 46.8897H28.1216C28.8565 46.8897 29.4444 46.3018 29.4444 45.5668V42.382C29.4444 41.6471 28.8565 41.0591 28.1216 41.0591H28.1461Z" fill="black"/>
<path d="M58.8398 12.0287H55.1163C54.3815 12.0287 53.7935 12.6167 53.7935 13.3516V32.1418C53.7935 35.2776 52.9607 37.7274 51.2704 39.4913C49.6047 41.2551 47.3755 42.1371 44.6075 42.1371C38.8019 42.1371 35.8868 38.8053 35.8868 32.1418V18.3248V13.3516C35.8868 12.6167 35.2989 12.0287 34.564 12.0287H30.7671C30.0812 12.0287 29.5178 12.5432 29.4443 13.2291V32.4848C29.4443 35.4246 29.9587 38.0459 30.9876 40.3242C32.0164 42.6025 33.5352 44.3909 35.5194 45.6648C37.5036 46.9388 39.9287 47.5757 42.7947 47.5757C45.6608 47.5757 47.89 47.1102 49.6047 46.1548C51.3194 45.2239 52.7892 43.9745 53.9895 42.4066V45.5668C53.9895 46.3018 54.5774 46.8898 55.3123 46.8898H58.8153C59.5501 46.8898 60.1381 46.3018 60.1381 45.5668V13.3516C60.1381 12.6167 59.5501 12.0287 58.8153 12.0287H58.8398Z" fill="black"/>
<path d="M70.8429 25.7477C70.8429 20.7991 74.8603 16.8058 79.784 16.8058C84.7077 16.8058 88.7251 20.8236 88.7251 25.7477V26.8011V40.6182V45.5913C88.7251 45.6893 88.7251 45.7628 88.7496 45.8608C88.8231 46.2773 89.117 46.6202 89.4845 46.7917C89.4845 46.7917 89.509 46.7917 89.5335 46.7917C89.5335 46.7917 89.558 46.7917 89.5825 46.7917C89.7294 46.8407 89.8764 46.8897 90.0479 46.8897H93.8448C93.8448 46.8897 94.0163 46.8897 94.1143 46.8652C94.1388 46.8652 94.1632 46.8652 94.1877 46.8652C94.2367 46.8652 94.2857 46.8407 94.3592 46.8162C94.3837 46.8162 94.4082 46.7917 94.4572 46.7672C94.5062 46.7672 94.5552 46.7183 94.5797 46.6938C94.6042 46.6938 94.6287 46.6447 94.6532 46.6447C94.7022 46.6202 94.7267 46.5957 94.7756 46.5467C94.7756 46.5467 94.8246 46.4977 94.8491 46.4732C94.8981 46.4242 94.9226 46.3998 94.9471 46.3508C94.9471 46.3508 94.9716 46.3018 94.9961 46.2773C95.0206 46.2283 95.0696 46.1793 95.0941 46.1058C95.0941 46.1058 95.0941 46.0813 95.0941 46.0568C95.1186 45.9833 95.1431 45.9343 95.1676 45.8608C95.1676 45.8608 95.1676 45.8363 95.1676 45.8118C95.1676 45.7628 95.1676 45.7383 95.1676 45.6893V45.5668C95.1676 45.5668 95.1676 45.5668 95.1676 45.5423C95.1676 45.5178 95.1676 45.5423 95.1676 45.5178V26.4092C95.1676 23.4694 94.6532 20.848 93.6243 18.5697C92.5955 16.2914 91.0767 14.503 89.0925 13.2291C87.1083 11.9552 84.6832 11.3182 81.8172 11.3182C78.9511 11.3182 76.722 11.7837 75.0072 12.7391C73.2925 13.6701 71.8227 14.9195 70.6224 16.4874V13.3271C70.6224 13.0821 70.5489 12.8616 70.4509 12.6901C70.2795 12.3962 70.01 12.1757 69.6916 12.0777C69.6426 12.0777 69.6181 12.0532 69.5691 12.0287C69.5691 12.0287 69.5446 12.0287 69.5201 12.0287C69.4466 12.0287 69.3731 12.0287 69.2996 12.0287H65.7967C65.7967 12.0287 65.7477 12.0287 65.6987 12.0287C65.1108 12.0777 64.6208 12.4941 64.4984 13.0576C64.4984 13.0576 64.4984 13.0576 64.4984 13.0821C64.4984 13.1556 64.4739 13.2536 64.4739 13.3271V45.5423C64.4739 45.6403 64.4739 45.7138 64.4984 45.8118C64.4984 45.8118 64.4984 45.8363 64.4984 45.8608C64.6208 46.3507 64.9883 46.7182 65.4782 46.8407C65.4782 46.8407 65.5027 46.8407 65.5272 46.8407C65.6007 46.8407 65.6987 46.8652 65.7722 46.8652H69.4956C69.6671 46.8652 69.814 46.8407 69.961 46.7672C69.961 46.7672 69.9855 46.7672 70.01 46.7672C70.01 46.7672 70.01 46.7672 70.0345 46.7672C70.255 46.6693 70.4509 46.4978 70.5979 46.3018C70.7449 46.0813 70.8184 45.8363 70.8184 45.5668V25.7477" fill="black"/>
<path d="M124.686 15.189C123.632 14.0376 122.187 13.1067 120.374 12.3962C118.537 11.7103 116.283 11.3428 113.589 11.3428C111.164 11.3428 109.13 11.6613 107.465 12.3227C105.774 12.9597 104.403 13.7681 103.349 14.699C102.272 15.63 101.488 16.5854 100.973 17.5898C100.459 18.5698 100.214 19.4027 100.214 20.0642V20.1622C100.214 20.1622 100.214 20.1866 100.214 20.2111C100.214 20.2356 100.214 20.2356 100.214 20.2601V20.3336C100.214 20.3336 100.214 20.3826 100.214 20.4071C100.214 20.4316 100.214 20.4806 100.214 20.5051C100.214 20.5541 100.238 20.6031 100.263 20.6276C100.263 20.6766 100.287 20.7011 100.312 20.7501C100.312 20.7746 100.336 20.8236 100.361 20.8481C100.361 20.8971 100.41 20.9216 100.434 20.9706C100.434 20.9951 100.483 21.0196 100.483 21.0441C100.508 21.0931 100.557 21.1176 100.581 21.1666C100.581 21.1666 100.63 21.2156 100.655 21.2156C100.704 21.2401 100.728 21.2891 100.777 21.3136C100.802 21.3136 100.851 21.3381 100.875 21.3626C100.924 21.3626 100.949 21.4116 100.998 21.4116C101.047 21.4116 101.096 21.4361 101.145 21.4606C101.169 21.4606 101.218 21.4606 101.243 21.4851C101.316 21.4851 101.414 21.5096 101.512 21.5096H104.672C105.334 21.5096 105.799 21.1666 106.068 20.5051C106.558 19.2557 107.44 18.2268 108.69 17.4183C109.939 16.6099 111.556 16.2179 113.515 16.2179C116.283 16.2179 118.292 16.8304 119.517 18.0308C120.742 19.2312 121.354 20.9216 121.354 23.0529V24.9883L111.36 26.3847C107.342 26.9727 104.084 28.1731 101.561 30.0104C99.0626 31.8478 97.8132 34.2977 97.8132 37.3845C97.8132 39.3198 98.3767 41.0347 99.5035 42.5536C100.606 44.0725 102.1 45.2729 103.937 46.1793C105.774 47.0858 107.808 47.5267 110.037 47.5267C112.266 47.5267 113.981 47.2573 115.475 46.7673C116.945 46.2528 118.17 45.6159 119.149 44.8319C120.129 44.048 120.913 43.264 121.501 42.4556V45.5424C121.501 46.2773 122.089 46.8653 122.824 46.8653H126.351C127.086 46.8653 127.674 46.2773 127.674 45.5424V23.5919C127.674 22.073 127.429 20.5786 126.964 19.1087C126.498 17.6388 125.739 16.3159 124.686 15.1645V15.189ZM121.379 31.4804C121.379 33.9792 120.938 36.0615 120.08 37.7274C119.198 39.3933 117.998 40.5937 116.479 41.3777C114.961 42.1616 113.295 42.5536 111.458 42.5536C110.257 42.5536 109.081 42.3576 107.93 41.9411C106.779 41.5247 105.848 40.9367 105.113 40.1038C104.378 39.2708 104.011 38.2419 104.011 36.9925C104.011 35.3756 104.819 34.0527 106.436 32.9992C108.053 31.9458 110.429 31.1864 113.613 30.7454L121.403 29.594V31.4804H121.379Z" fill="black"/>
<path d="M200.599 15.189C199.546 14.0376 198.101 13.1067 196.288 12.3962C194.451 11.7103 192.197 11.3428 189.503 11.3428C187.077 11.3428 185.044 11.6613 183.379 12.3227C181.688 12.9597 180.317 13.7681 179.263 14.699C178.185 15.63 177.401 16.5854 176.887 17.5898C176.373 18.5698 176.128 19.4027 176.128 20.0642V20.1622C176.128 20.1622 176.128 20.1866 176.128 20.2111C176.128 20.2356 176.128 20.2356 176.128 20.2601V20.3336C176.128 20.3336 176.128 20.3826 176.128 20.4071C176.128 20.4316 176.128 20.4806 176.128 20.5051C176.128 20.5541 176.152 20.6031 176.177 20.6276C176.177 20.6766 176.201 20.7011 176.226 20.7501C176.226 20.7746 176.25 20.8236 176.275 20.8481C176.275 20.8971 176.324 20.9216 176.348 20.9706C176.348 20.9951 176.397 21.0196 176.397 21.0441C176.422 21.0931 176.471 21.1176 176.495 21.1421C176.495 21.1421 176.544 21.1911 176.569 21.2156C176.618 21.2401 176.642 21.2891 176.691 21.3136C176.716 21.3136 176.765 21.3381 176.789 21.3626C176.838 21.3626 176.863 21.4116 176.912 21.4116C176.961 21.4116 177.01 21.4361 177.059 21.4606C177.083 21.4606 177.132 21.4606 177.157 21.4851C177.23 21.4851 177.328 21.5096 177.426 21.5096H180.586C181.247 21.5096 181.713 21.1666 181.982 20.5051C182.472 19.2557 183.354 18.2268 184.603 17.4183C185.853 16.6099 187.469 16.2179 189.429 16.2179C192.197 16.2179 194.206 16.8304 195.431 18.0308C196.655 19.2312 197.268 20.9216 197.268 23.0529V24.9883L187.273 26.3847C183.256 26.9727 179.998 28.1731 177.475 30.0104C174.976 31.8478 173.727 34.2977 173.727 37.3845C173.727 39.3198 174.29 41.0347 175.417 42.5536C176.52 44.0725 178.014 45.2729 179.851 46.1793C181.688 47.0858 183.722 47.5267 185.951 47.5267C188.18 47.5267 189.895 47.2573 191.389 46.7673C192.859 46.2528 194.083 45.6159 195.063 44.8319C196.043 44.048 196.827 43.264 197.415 42.4556V45.5424C197.415 46.2773 198.003 46.8653 198.738 46.8653H202.265C203 46.8653 203.588 46.2773 203.588 45.5424V23.5919C203.588 22.073 203.343 20.5786 202.877 19.1087C202.412 17.6388 201.653 16.3159 200.599 15.1645V15.189ZM197.292 31.4804C197.292 33.9792 196.851 36.0615 195.994 37.7274C195.112 39.3933 193.912 40.5937 192.393 41.3777C190.874 42.1616 189.209 42.5536 187.371 42.5536C186.171 42.5536 184.995 42.3576 183.844 41.9411C182.693 41.5247 181.762 40.9367 181.027 40.1038C180.292 39.2708 179.925 38.2419 179.925 36.9925C179.925 35.3756 180.733 34.0527 182.35 32.9992C183.966 31.9458 186.343 31.1864 189.527 30.7454L197.317 29.594V31.4804H197.292Z" fill="black"/>
<path d="M175.54 1.59241C175.54 1.59241 175.564 1.42092 175.564 1.32293C175.564 0.587979 174.976 0 174.241 0H170.396C170.396 0 170.224 2.39246e-05 170.151 0.0245222C170.126 0.0245222 170.102 0.0245222 170.077 0.0245222C170.028 0.0245222 169.979 0.0490309 169.93 0.0735292C169.906 0.0735292 169.881 0.0980006 169.832 0.122499C169.783 0.122499 169.759 0.171492 169.71 0.195991C169.685 0.195991 169.636 0.244984 169.612 0.269483C169.587 0.269483 169.538 0.318513 169.514 0.343012C169.489 0.36751 169.465 0.391992 169.416 0.440988C169.416 0.465487 169.367 0.489982 169.342 0.51448C169.318 0.563477 169.293 0.587983 169.269 0.636979C169.269 0.636979 169.269 0.685986 169.244 0.685986C169.171 0.808477 169.122 0.955463 169.097 1.10245L168.632 3.38077L162.189 35.7675L154.914 12.9596C154.792 12.5676 154.547 12.2002 154.204 11.8572C153.861 11.5142 153.395 11.3672 152.758 11.3672H150.431C149.794 11.3672 149.329 11.5387 148.986 11.8572C148.643 12.2002 148.423 12.5676 148.276 12.9596L141.074 35.7185L134.631 3.38077L134.166 1.10245C134.141 0.955463 134.092 0.808477 134.019 0.685986C134.019 0.685986 134.019 0.636979 133.994 0.636979C133.97 0.587983 133.945 0.563477 133.921 0.51448C133.921 0.489982 133.872 0.465487 133.847 0.440988C133.823 0.41649 133.798 0.392008 133.749 0.343012C133.725 0.318513 133.7 0.293981 133.651 0.269483C133.627 0.269483 133.602 0.220489 133.553 0.195991C133.504 0.171492 133.48 0.146997 133.431 0.122499C133.406 0.122499 133.382 0.0980275 133.333 0.0735292C133.284 0.0735292 133.235 0.0490205 133.186 0.0245222C133.161 0.0245222 133.137 0.0245222 133.112 0.0245222C133.039 0.0245222 132.941 0 132.867 0H129.022C128.287 0 127.699 0.587979 127.699 1.32293C127.699 1.42092 127.699 1.49442 127.723 1.59241L128.287 4.4097L136.468 45.1013C136.591 45.6893 136.836 46.1303 137.179 46.4487C137.522 46.7672 137.963 46.9142 138.551 46.9142H141.172C141.809 46.9142 142.274 46.7672 142.617 46.4487C142.96 46.1303 143.205 45.7383 143.401 45.2483L151.607 19.8191L159.813 45.2483C159.985 45.7383 160.254 46.1303 160.597 46.4487C160.94 46.7672 161.405 46.9142 162.042 46.9142H164.712C165.3 46.9142 165.766 46.7672 166.084 46.4487C166.427 46.1303 166.648 45.6893 166.795 45.1013L174.976 4.4097L175.54 1.59241Z" fill="black"/>
<path d="M236.192 44.6358L218.677 27.5605L233.547 15.2379L234.551 14.4049H234.575C234.575 14.4049 234.575 14.3559 234.6 14.3315C234.624 14.307 234.673 14.258 234.698 14.2335C234.722 14.209 234.747 14.16 234.796 14.1355C234.796 14.111 234.845 14.062 234.869 14.0375C234.894 13.9885 234.918 13.964 234.943 13.915C234.943 13.866 234.967 13.8415 234.992 13.7925C234.992 13.7435 235.016 13.6945 235.041 13.6455C235.041 13.572 235.041 13.523 235.041 13.4495C235.041 13.425 235.041 13.4005 235.041 13.376C235.041 13.278 235.041 13.2045 235.016 13.1065C235.016 13.1065 235.016 13.1065 235.016 13.0821C234.967 12.8371 234.845 12.6166 234.673 12.4451C234.428 12.2001 234.11 12.0531 233.742 12.0531H230.044C229.382 12.0531 228.892 12.1266 228.598 12.2981C228.304 12.4451 227.888 12.7636 227.349 13.2045L214.146 24.2288V1.37188C214.146 0.63693 213.558 0.0489502 212.823 0.0489502H209.271C208.536 0.0489502 207.948 0.63693 207.948 1.37188V45.6158C207.948 45.9832 208.095 46.3262 208.34 46.5467C208.438 46.6447 208.536 46.7182 208.634 46.7672C208.683 46.7672 208.707 46.8162 208.756 46.8407C208.903 46.9142 209.075 46.9387 209.271 46.9387H212.847C213.166 46.9387 213.46 46.8162 213.68 46.6202C213.974 46.3752 214.17 46.0077 214.17 45.5912V31.5293L229.137 45.7872C229.627 46.2282 230.019 46.5222 230.338 46.6937C230.656 46.8407 231.146 46.9387 231.807 46.9387H235.31C235.629 46.9387 235.947 46.8162 236.168 46.6202C236.462 46.3752 236.633 46.0077 236.633 45.6158C236.633 45.2483 236.486 44.9053 236.241 44.6603L236.192 44.6358Z" fill="black"/>
<path d="M265.93 28.8591C265.93 25.3313 265.318 22.2445 264.118 19.5987C262.917 16.9529 261.154 14.9195 258.851 13.4986C256.548 12.0777 253.707 11.3428 250.302 11.3428C247.264 11.3428 244.619 12.0042 242.365 13.2782C240.111 14.5766 238.323 16.4139 237.025 18.8148C235.727 21.2156 234.992 23.9839 234.82 27.1687C234.771 27.7566 234.747 28.4916 234.747 29.4225C234.747 30.3534 234.747 31.0884 234.82 31.6763C235.09 36.6005 236.584 40.4712 239.303 43.313C242.022 46.1548 245.721 47.5757 250.375 47.5757C252.654 47.5757 254.711 47.2817 256.524 46.6693C258.337 46.0568 259.855 45.2974 261.08 44.3664C262.305 43.4355 263.26 42.4801 263.922 41.5247C264.412 40.8387 264.779 40.0548 264.975 39.4423C264.975 39.4423 264.975 39.3933 264.975 39.3688C264.975 39.3688 264.975 39.3688 264.975 39.3443C264.975 39.3443 264.975 39.3198 264.975 39.2953C264.975 39.2218 265 39.1238 265 39.0503V39.0013C265 38.8299 264.951 38.6584 264.902 38.4869C264.902 38.4869 264.902 38.4869 264.902 38.4624C264.877 38.3889 264.828 38.3399 264.804 38.2664C264.804 38.2664 264.779 38.2419 264.755 38.2174C264.73 38.1684 264.681 38.1194 264.632 38.0704C264.632 38.0704 264.608 38.0459 264.583 38.0214C264.534 37.9724 264.485 37.9479 264.436 37.8989C264.436 37.8989 264.412 37.8989 264.387 37.8744C264.338 37.8499 264.265 37.8009 264.216 37.7764C264.216 37.7764 264.191 37.7764 264.167 37.7764C264.093 37.7519 264.02 37.7274 263.946 37.7029C263.897 37.7029 263.873 37.7029 263.824 37.6784H263.701H260.296C259.806 37.6784 259.439 37.7274 259.218 37.8499C258.998 37.9479 258.68 38.2909 258.288 38.8298C258.067 39.1973 257.602 39.6628 256.94 40.2752C256.279 40.8877 255.397 41.4266 254.319 41.9166C253.241 42.4066 251.894 42.6516 250.302 42.6516C248.465 42.6516 246.872 42.1616 245.501 41.1817C244.129 40.2018 243.1 38.9033 242.39 37.311C241.679 35.7186 241.287 34.0282 241.189 32.1908V31.5784H264.608C265.343 31.5784 265.93 30.9904 265.93 30.2554V28.908V28.8591ZM259.561 26.9237H241.189V26.7277C241.189 24.7188 241.557 22.9304 242.267 21.3626C242.978 19.7947 244.031 18.5698 245.378 17.6388C246.75 16.7324 248.391 16.267 250.302 16.267C252.213 16.267 253.878 16.7324 255.275 17.6388C256.671 18.5453 257.724 19.7947 258.459 21.3626C259.194 22.9304 259.561 24.7188 259.561 26.7277V26.9237Z" fill="black"/>
</svg>
