<svg width="60" height="60" viewBox="0 0 60 60" fill="none" xmlns="http://www.w3.org/2000/svg">
<path d="M29.7474 27.1676C29.69 27.0158 29.6327 27.0158 29.5754 27.1676L25.1563 38.9392C25.1397 38.9797 25.1104 39 25.0684 39H22.1624C22.0134 39 21.9669 38.9294 22.023 38.7881C23.2572 35.6503 24.415 32.6911 25.4964 29.9103C25.9676 28.7005 26.43 27.4815 26.8834 26.2533C28.0782 23.02 28.9386 20.7134 29.4646 19.3335C29.4989 19.2451 29.5268 19.1705 29.5483 19.1097C29.5701 19.048 29.6271 19.0047 29.6925 19.0029V19.0029C29.7574 19.0012 29.8162 19.0407 29.8392 19.1014L37.3151 38.8823C37.3188 38.893 37.32 38.9045 37.3186 38.9157C37.3172 38.927 37.3132 38.9377 37.307 38.947C37.3008 38.9562 37.2926 38.9637 37.283 38.9689C37.2734 38.974 37.2628 38.9766 37.252 38.9765H34.369C34.3223 38.9765 34.2766 38.962 34.2377 38.9347C34.1989 38.9074 34.1688 38.8686 34.1512 38.8234L29.7474 27.1676Z" fill="#999999"/>
</svg>
