<svg width="121" height="48" viewBox="0 0 121 48" fill="none" xmlns="http://www.w3.org/2000/svg">
<path fill-rule="evenodd" clip-rule="evenodd" d="M46.6673 21.274C43.755 20.2163 42.1994 18.1368 42.0005 15.0354C41.9949 14.943 42.0383 14.8967 42.1308 14.8967H45.0304C45.1061 14.8967 45.1474 14.9346 45.1544 15.0102C45.3085 16.8691 46.3164 18.0605 48.1781 18.5844C49.0606 18.8323 50.2394 18.8575 51.0841 18.7462C52.7293 18.5277 54.1266 17.6325 54.2737 15.9137C54.446 13.8882 52.9121 12.8838 51.0799 12.6316C49.0879 12.3571 47.9252 12.1953 47.5918 12.1462C46.9404 12.0496 46.1784 11.7785 45.3057 11.3331C43.6247 10.4744 42.6414 9.07566 42.3556 7.13694C42.0488 5.05673 42.6981 2.73488 44.4001 1.45523C45.707 0.473961 47.1653 0.141967 48.8378 0.0285008C50.9139 -0.112281 53.0697 0.251236 54.7423 1.50567C56.4401 2.77901 57.2834 4.57695 57.2722 6.8995C57.2722 6.96113 57.242 6.99195 57.1818 6.99195H54.28C54.203 6.99195 54.1644 6.95343 54.1644 6.87639C54.1539 3.4661 50.8466 2.55417 48.0625 3.08788C47.3453 3.22516 46.7702 3.48361 46.3374 3.86323C45.8065 4.3297 45.5067 4.92785 45.4381 5.65767C45.3288 6.84486 45.5915 7.96902 46.6715 8.58678C47.2935 8.94258 47.9343 9.1506 48.5941 9.21084C50.1406 9.35232 51.1688 9.46019 51.6787 9.53443C54.5048 9.94837 56.9297 11.7197 57.31 14.6866C57.8332 18.7798 55.1184 21.4147 51.2479 21.7782C49.5572 21.9379 48.0303 21.7698 46.6673 21.274ZM104.39 15.7834C106.01 18.057 108.851 19.1958 111.542 18.265C112.911 17.7915 114.032 16.8838 114.907 15.5418L115.228 15.048C115.28 14.9794 115.334 14.9451 115.39 14.9451L118.67 14.9556C118.681 14.9553 118.692 14.958 118.702 14.9633C118.712 14.9685 118.721 14.9763 118.728 14.9858C118.734 14.9954 118.738 15.0064 118.739 15.018C118.741 15.0296 118.739 15.0413 118.735 15.0522C118.228 16.3816 117.481 17.5709 116.493 18.6201C113.986 21.2865 110.418 22.3456 106.899 21.2571C103.539 20.217 101.146 17.4119 100.253 13.968C98.767 8.24846 101.562 1.50564 107.813 0.240706C112.725 -0.753172 117.226 2.30621 118.796 6.92679C118.831 7.02905 118.794 7.08018 118.687 7.08018H115.549C115.484 7.08018 115.435 7.05147 115.402 6.99403C114.638 5.63805 113.77 4.66168 112.801 4.06493C110.867 2.87284 108.88 2.78739 106.84 3.80858C105.737 4.3605 104.833 5.2248 104.127 6.40149C102.524 9.07214 102.551 13.2073 104.39 15.7834ZM68.6797 8.89986C68.6746 8.90905 68.6671 8.91672 68.6581 8.92206C68.649 8.9274 68.6387 8.93021 68.6282 8.93021C68.6177 8.93021 68.6074 8.9274 68.5983 8.92206C68.5893 8.91672 68.5818 8.90905 68.5767 8.89986L63.8868 0.459256C63.8403 0.375205 63.7721 0.30515 63.6893 0.256374C63.6065 0.207598 63.5122 0.18188 63.4161 0.181894H59.9995C59.9871 0.181623 59.9749 0.184688 59.9641 0.190762C59.9533 0.196836 59.9443 0.2057 59.938 0.216431C59.9318 0.227162 59.9286 0.239365 59.9287 0.25177C59.9288 0.264175 59.9322 0.276324 59.9386 0.286955L66.818 11.789C66.9583 12.0242 67.0323 12.2929 67.0323 12.5665V21.274C67.0323 21.3986 67.0947 21.461 67.2193 21.461H70.035C70.046 21.461 70.0569 21.4588 70.0671 21.4546C70.0773 21.4503 70.0866 21.4441 70.0944 21.4363C70.1022 21.4285 70.1084 21.4193 70.1126 21.4091C70.1168 21.3989 70.119 21.3879 70.119 21.3769C70.1344 17.2291 70.1379 14.4121 70.1295 12.9258C70.1281 12.5644 70.1891 12.2618 70.3123 12.0181C70.479 11.6903 70.6324 11.4115 70.7725 11.1818C72.1019 8.98951 74.0945 5.54701 76.7505 0.854287C76.913 0.568521 77.0075 0.401823 77.0341 0.354195C77.0442 0.337224 77.0495 0.317892 77.0497 0.29817C77.0498 0.278448 77.0447 0.259043 77.0349 0.241946C77.025 0.224849 77.0108 0.210668 76.9937 0.200855C76.9766 0.191042 76.9572 0.185947 76.9375 0.186094H73.5587C73.3654 0.186094 73.2232 0.272246 73.1322 0.444546L68.6797 8.89986ZM83.7575 21.4647C83.7437 21.4785 83.725 21.4862 83.7055 21.4862H80.6819C80.6623 21.4862 80.6436 21.4785 80.6298 21.4647C80.6161 21.4509 80.6083 21.4322 80.6083 21.4127V0.244961C80.6083 0.225457 80.6161 0.206748 80.6298 0.192957C80.6436 0.179165 80.6623 0.171417 80.6819 0.171417H83.5227C83.5348 0.171554 83.5468 0.174695 83.5574 0.180561C83.568 0.186428 83.577 0.194838 83.5836 0.205038L93.3753 15.3464C93.3841 15.3594 93.3967 15.3692 93.4115 15.3745C93.4262 15.3798 93.4422 15.3802 93.4572 15.3758C93.4722 15.3713 93.4854 15.3622 93.4948 15.3497C93.5043 15.3373 93.5095 15.3221 93.5098 15.3065V0.249161C93.5098 0.229657 93.5176 0.210949 93.5313 0.197157C93.5451 0.183365 93.5638 0.175617 93.5833 0.175617H96.5545C96.5641 0.175617 96.5737 0.17752 96.5826 0.181215C96.5915 0.184911 96.5996 0.190328 96.6065 0.197157C96.6133 0.203986 96.6187 0.212095 96.6224 0.221017C96.6261 0.22994 96.628 0.239504 96.628 0.249161V21.4631C96.628 21.4727 96.6261 21.4823 96.6224 21.4912C96.6187 21.5002 96.6133 21.5083 96.6065 21.5151C96.6034 21.5181 96.6001 21.5209 96.5966 21.5233C96.5923 21.5264 96.5876 21.529 96.5826 21.531C96.5737 21.5347 96.5641 21.5366 96.5545 21.5366H93.6464C93.6342 21.5365 93.6223 21.5334 93.6117 21.5275C93.6011 21.5216 93.592 21.5132 93.5854 21.503L83.9135 6.54652C83.9048 6.53356 83.8921 6.52372 83.8774 6.51845C83.8627 6.51317 83.8466 6.51273 83.8317 6.51718C83.8167 6.52163 83.8035 6.53074 83.794 6.5432C83.7846 6.55565 83.7793 6.57081 83.779 6.58644V21.4127C83.779 21.4322 83.7713 21.4509 83.7575 21.4647ZM120.25 25.2956C120.25 25.2611 120.237 25.228 120.212 25.2035C120.188 25.1791 120.155 25.1654 120.12 25.1654H100.339C100.305 25.1654 100.272 25.1791 100.247 25.2035C100.223 25.228 100.209 25.2611 100.209 25.2956V28.1701C100.209 28.2047 100.223 28.2378 100.247 28.2622C100.272 28.2867 100.305 28.3004 100.339 28.3004H120.12C120.155 28.3004 120.188 28.2867 120.212 28.2622C120.237 28.2378 120.25 28.2047 120.25 28.1701V25.2956ZM89.362 28.2731C86.2592 28.2745 84.4339 28.2794 83.8862 28.2878C83.7994 28.2906 83.7559 28.3354 83.7559 28.4222V46.4528C83.7559 46.5593 83.7027 46.6125 83.5962 46.6125H80.7134C80.6335 46.6125 80.5936 46.5726 80.5936 46.4927V25.2788C80.5936 25.256 80.6027 25.2341 80.6188 25.2179C80.635 25.2017 80.6569 25.1927 80.6797 25.1927C84.9676 25.1787 87.7125 25.166 88.9144 25.1548C90.3517 25.1408 91.3932 25.2361 92.0389 25.4406C93.8068 25.9981 95.1333 27.1293 96.0187 28.8341C96.9012 30.5319 96.9999 32.9041 96.3296 34.7007C95.5662 36.7445 94.0666 38.0668 91.8309 38.6678C91.7693 38.6846 91.7567 38.7189 91.7931 38.7708L97.2857 46.4717C97.2953 46.4856 97.3009 46.5018 97.3019 46.5186C97.3029 46.5353 97.2994 46.5521 97.2916 46.567C97.2838 46.5819 97.2721 46.5945 97.2577 46.6032C97.2434 46.612 97.2269 46.6166 97.2101 46.6167H93.7136C93.6591 46.6167 93.6053 46.6038 93.5567 46.5789C93.5081 46.5541 93.4661 46.5181 93.4342 46.4738L86.0505 36.119C85.9636 35.9971 85.9951 35.9376 86.145 35.9404C87.4282 35.9656 88.7898 35.9628 90.2298 35.932C90.6101 35.9236 91.0976 35.8669 91.4338 35.6841C93.0896 34.7791 93.8103 33.4133 93.596 31.5867C93.4251 30.1396 92.7008 29.1275 91.4233 28.5504C91.0129 28.3655 90.3258 28.2731 89.362 28.2731ZM109.576 31.6392C109.576 31.603 109.561 31.5683 109.536 31.5427C109.51 31.5171 109.475 31.5027 109.439 31.5027H106.548C106.512 31.5027 106.477 31.5171 106.451 31.5427C106.426 31.5683 106.411 31.603 106.411 31.6392V46.4655C106.411 46.5017 106.426 46.5364 106.451 46.562C106.477 46.5877 106.512 46.602 106.548 46.602H109.439C109.475 46.602 109.51 46.5877 109.536 46.562C109.561 46.5364 109.576 46.5017 109.576 46.4655V31.6392ZM68.4066 34.0835C68.4702 33.9178 68.5338 33.9178 68.5974 34.0835L73.4844 46.8072C73.5039 46.8566 73.5374 46.8989 73.5805 46.9287C73.6236 46.9585 73.6743 46.9744 73.7261 46.9743H76.9255C76.9375 46.9745 76.9493 46.9716 76.9599 46.966C76.9705 46.9604 76.9797 46.9522 76.9865 46.9421C76.9934 46.932 76.9978 46.9203 76.9994 46.908C77.0009 46.8957 76.9996 46.8832 76.9955 46.8715L68.6568 25.1676C68.5706 24.942 68.49 24.9441 68.4151 25.174C68.391 25.2511 68.3472 25.3704 68.2836 25.5317C67.6999 27.038 66.7451 29.5559 65.4193 33.0854C64.9161 34.4261 64.403 35.7568 63.88 37.0775C62.68 40.113 61.3951 43.3434 60.0255 46.7687C59.9633 46.9229 60.0149 47 60.1803 47H63.4051C63.4517 47 63.4842 46.9779 63.5026 46.9336L68.4066 34.0835Z" fill="black" fill-opacity="0.17"/>
<path d="M18.2063 19.1937C18.0716 18.8372 17.9369 18.8372 17.8022 19.1937L7.41727 46.8571C7.37836 46.9524 7.30952 47 7.21074 47H0.381749C0.0315442 47 -0.0777127 46.834 0.0539883 46.5021C2.9544 39.1282 5.67522 32.174 8.21645 25.6393C9.32394 22.7961 10.4105 19.9314 11.4761 17.0452C14.2837 9.44701 16.3056 4.02656 17.5418 0.7838C17.6224 0.576029 17.6879 0.400698 17.7385 0.257815C17.7898 0.112863 17.9237 0.0110219 18.0774 0.00687241C18.2298 0.00275805 18.3681 0.0956045 18.422 0.238224L35.9904 46.7234C35.9991 46.7485 36.002 46.7755 35.9987 46.802C35.9954 46.8285 35.9861 46.8536 35.9715 46.8754C35.957 46.8971 35.9376 46.9148 35.9151 46.9268C35.8926 46.9389 35.8676 46.945 35.8422 46.9447H29.0671C28.9574 46.9448 28.8499 46.9106 28.7587 46.8465C28.6674 46.7824 28.5966 46.6913 28.5553 46.585L18.2063 19.1937Z" fill="black"/>
</svg>
