<svg width="60" height="60" viewBox="0 0 60 60" fill="none" xmlns="http://www.w3.org/2000/svg">
<path d="M59.5 30C59.5 46.2924 46.2924 59.5 30 59.5C13.7076 59.5 0.5 46.2924 0.5 30C0.5 13.7076 13.7076 0.5 30 0.5C46.2924 0.5 59.5 13.7076 59.5 30Z" stroke="#999999"/>
<path d="M13.9098 19.6917C9.14689 27.0524 9.99028 36.9854 16.44 43.4351C22.8897 49.8848 32.8227 50.7281 40.1833 45.9652M19.5667 14.0348C26.9273 9.27192 36.8603 10.1153 43.31 16.565C49.7597 23.0147 50.6031 32.9477 45.8402 40.3084" stroke="#999999"/>
<path d="M45 43.5C45 44.3284 44.3284 45 43.5 45C42.6716 45 42 44.3284 42 43.5C42 42.6716 42.6716 42 43.5 42C44.3284 42 45 42.6716 45 43.5Z" fill="#999999"/>
<path d="M16.3695 15.0996L16.37 15.0981C16.4073 14.9673 16.5927 14.9673 16.63 15.0981L16.6305 15.0996C16.6311 15.1018 16.6317 15.104 16.6317 15.104C16.8051 15.7163 17.2837 16.1949 17.896 16.3683C17.896 16.3683 17.8982 16.3689 17.9004 16.3695L17.9019 16.37C18.0327 16.4073 18.0327 16.5927 17.9019 16.63L17.9004 16.6305C17.8982 16.6311 17.896 16.6317 17.896 16.6317C17.2837 16.8051 16.8051 17.2837 16.6317 17.896C16.6317 17.896 16.6311 17.8982 16.6305 17.9004L16.63 17.9019C16.5927 18.0327 16.4073 18.0327 16.37 17.9019L16.3695 17.9004C16.3689 17.8982 16.3683 17.896 16.3683 17.896C16.1949 17.2837 15.7163 16.8051 15.104 16.6317C15.104 16.6317 15.1018 16.6311 15.0996 16.6305L15.0981 16.63C14.9673 16.5927 14.9673 16.4073 15.0981 16.37L15.0996 16.3695C15.1018 16.3689 15.104 16.3683 15.104 16.3683C15.7163 16.1949 16.1949 15.7163 16.3683 15.104C16.3683 15.104 16.3689 15.1018 16.3695 15.0996Z" fill="#999999"/>
<path d="M47.8888 46C51.6892 41.7539 54 36.1468 54 30C54 23.8532 51.6892 18.2461 47.8888 14M12.1112 14C8.31083 18.2461 6 23.8532 6 30C6 36.1468 8.31083 41.7539 12.1112 46" stroke="#CCCCCC"/>
<path d="M35.6612 56.6928L34.477 51.5637L32.8791 51.9327L32.7495 51.3714L36.5534 50.4932L36.683 51.0545L35.0928 51.4216L36.277 56.5507L35.6612 56.6928Z" fill="#999999"/>
<path d="M27.7842 57.2042V51.3642H29.5362C29.8829 51.3642 30.1842 51.4335 30.4402 51.5722C30.7015 51.7109 30.9015 51.9055 31.0402 52.1562C31.1842 52.4015 31.2562 52.6922 31.2562 53.0282C31.2562 53.4335 31.1495 53.7775 30.9362 54.0602C30.7282 54.3375 30.4455 54.5269 30.0882 54.6282L31.3282 57.2042H30.6162L29.4322 54.6842H28.4082V57.2042H27.7842ZM28.4082 54.1082H29.5362C29.8615 54.1082 30.1202 54.0095 30.3122 53.8122C30.5095 53.6149 30.6082 53.3509 30.6082 53.0202C30.6082 52.6949 30.5095 52.4335 30.3122 52.2362C30.1149 52.0389 29.8562 51.9402 29.5362 51.9402H28.4082V54.1082Z" fill="#999999"/>
<path d="M20.9132 55.6756L23.7779 50.3574L24.5947 50.5535L24.7249 56.5907L24.1026 56.4413L24.0757 54.8059L22.3021 54.38L21.5433 55.8269L20.9132 55.6756ZM22.5535 53.881L24.0704 54.2451L24.0438 52.2313C24.042 51.8963 24.0432 51.6168 24.0476 51.393C24.052 51.1692 24.0571 51.0223 24.0629 50.9524C24.0363 51.0173 23.9742 51.1505 23.8765 51.3519C23.7787 51.5533 23.653 51.8029 23.4993 52.1005L22.5535 53.881Z" fill="#999999"/>
<path d="M21.8158 10.3041C21.3136 10.5267 20.8484 10.5696 20.4202 10.4327C19.9898 10.2909 19.6698 9.98355 19.4602 9.5106L20.0453 9.25125C20.1836 9.5633 20.3938 9.76766 20.6758 9.86434C20.9557 9.95613 21.2589 9.92963 21.5856 9.78482C21.9025 9.64435 22.1161 9.44176 22.2263 9.17707C22.3365 8.91237 22.3267 8.63375 22.1971 8.3412C22.0933 8.10716 21.9403 7.93291 21.7378 7.81845C21.5403 7.70183 21.3153 7.66153 21.063 7.69756L20.1653 7.8242C19.7905 7.87365 19.4505 7.81726 19.1452 7.65504C18.8448 7.49066 18.619 7.23782 18.4677 6.89652C18.3445 6.61859 18.2999 6.34671 18.3337 6.08086C18.3675 5.815 18.4707 5.57386 18.6431 5.35742C18.8155 5.14099 19.0504 4.96685 19.3478 4.83502C19.6453 4.70318 19.9356 4.64742 20.2188 4.66774C20.4998 4.68318 20.7512 4.77008 20.9731 4.92842C21.1977 5.07973 21.3727 5.29678 21.498 5.57958L20.9202 5.83568C20.8014 5.56751 20.6174 5.38944 20.3684 5.30147C20.1172 5.20862 19.8527 5.22379 19.5748 5.34698C19.2968 5.47017 19.1082 5.65004 19.0089 5.88658C18.9096 6.12312 18.9172 6.37061 19.0317 6.62902C19.1246 6.83868 19.2607 6.99424 19.4398 7.09568C19.619 7.19712 19.825 7.23415 20.0578 7.20676L20.9734 7.08096C21.3677 7.02287 21.7253 7.08604 22.0462 7.27047C22.365 7.45003 22.6055 7.72265 22.7675 8.08834C22.9015 8.39064 22.95 8.68419 22.9129 8.96899C22.8806 9.25163 22.7707 9.51037 22.5831 9.7452C22.3982 9.973 22.1425 10.1593 21.8158 10.3041Z" fill="#999999"/>
<path d="M26.553 8.88677L26.1879 6.71728L23.8404 3.42114L24.5109 3.30829L26.0874 5.54165C26.1665 5.65814 26.2324 5.76062 26.2852 5.8491C26.3432 5.93669 26.3841 6.00282 26.4078 6.0475C26.4165 6.00277 26.4313 5.92997 26.4522 5.82911C26.4774 5.7221 26.511 5.60017 26.5529 5.46333L27.3116 2.83701L27.9585 2.72815L26.819 6.61107L27.1841 8.78057L26.553 8.88677Z" fill="#999999"/>
<path d="M30.6504 8.59153L31.1335 2.77155L31.9786 2.84169L33.4299 8.08371C33.4348 7.96103 33.4392 7.81154 33.4431 7.63527C33.447 7.45899 33.4514 7.27739 33.4562 7.09048C33.4663 6.90401 33.4778 6.73371 33.4906 6.57958L33.7884 2.99191L34.4023 3.04287L33.9192 8.86285L33.0661 8.79205L31.6307 3.55135C31.6281 3.71168 31.6202 3.9358 31.607 4.22369C31.5991 4.51203 31.5842 4.78907 31.5621 5.05483L31.2643 8.64249L30.6504 8.59153Z" fill="#999999"/>
<path d="M37.5537 10.0541C37.06 9.88273 36.7176 9.60865 36.5265 9.23186C36.3373 8.85003 36.3266 8.41727 36.4944 7.93357L37.3757 5.39415C37.5436 4.91045 37.8192 4.57987 38.2026 4.40243C38.5877 4.21994 39.0271 4.21438 39.5209 4.38574C40.0046 4.5536 40.3402 4.83097 40.5278 5.21784C40.7221 5.60141 40.7344 6.03757 40.5648 6.52631L39.9677 6.3191C40.0831 5.98656 40.0816 5.69812 39.9632 5.45378C39.8515 5.20615 39.642 5.02901 39.3347 4.92234C39.0173 4.81218 38.7389 4.81719 38.4996 4.93738C38.262 5.05253 38.0864 5.27385 37.9728 5.60136L37.0915 8.14078C36.9778 8.46828 36.9777 8.75333 37.0911 8.99592C37.2062 9.23347 37.4225 9.40732 37.74 9.51749C38.0524 9.6259 38.3282 9.62001 38.5675 9.49983C38.8085 9.3746 38.9868 9.14572 39.1022 8.81318L39.6992 9.02038C39.5296 9.50912 39.2489 9.84638 38.857 10.0322C38.4718 10.2146 38.0374 10.222 37.5537 10.0541Z" fill="#999999"/>
</svg>
