<svg width="48" height="48" viewBox="0 0 48 48" fill="none" xmlns="http://www.w3.org/2000/svg">
<path d="M12 4C18.627 4 24 9.373 24 16C24 22.627 18.627 28 12 28C5.373 28 0 22.627 0 16C0 9.373 5.373 4 12 4Z" fill="black"/>
<path d="M36 4C42.627 4 48 9.373 48 16C48 22.627 42.627 28 36 28C29.373 28 24 22.627 24 16C24 9.373 29.373 4 36 4Z" fill="black"/>
<path d="M12 20C18.627 20 24 25.373 24 32C24 38.627 18.627 44 12 44C5.373 44 0 38.627 0 32C0 25.373 5.373 20 12 20Z" fill="black"/>
<path d="M36 20C42.627 20 48 25.373 48 32C48 38.627 42.627 44 36 44C29.373 44 24 38.627 24 32C24 25.373 29.373 20 36 20Z" fill="black"/>
</svg>
