<svg width="500" height="350" viewBox="0 0 500 350" fill="none" xmlns="http://www.w3.org/2000/svg">
<g clip-path="url(#clip0_154_540)">
<path d="M500 0H0V350H500V0Z" fill="#F7F7F7"/>
<path d="M42.1873 296.244C41.5453 296.244 40.9984 296.07 40.5467 295.72C40.095 295.368 39.7498 294.858 39.5112 294.19C39.2726 293.52 39.1532 292.71 39.1532 291.761C39.1532 290.818 39.2726 290.013 39.5112 289.345C39.7527 288.675 40.0993 288.163 40.551 287.811C41.0055 287.456 41.551 287.278 42.1873 287.278C42.8237 287.278 43.3677 287.456 43.8194 287.811C44.274 288.163 44.6206 288.675 44.8592 289.345C45.1007 290.013 45.2214 290.818 45.2214 291.761C45.2214 292.71 45.1021 293.52 44.8635 294.19C44.6248 294.858 44.2797 295.368 43.828 295.72C43.3763 296.07 42.8294 296.244 42.1873 296.244ZM42.1873 295.307C42.8237 295.307 43.318 295 43.6703 294.386C44.0226 293.773 44.1987 292.898 44.1987 291.761C44.1987 291.006 44.1177 290.362 43.9558 289.831C43.7967 289.3 43.5666 288.895 43.2655 288.616C42.9672 288.338 42.6078 288.199 42.1873 288.199C41.5567 288.199 41.0638 288.51 40.7086 289.132C40.3535 289.751 40.176 290.628 40.176 291.761C40.176 292.517 40.2555 293.159 40.4146 293.688C40.5737 294.216 40.8024 294.618 41.1007 294.893C41.4018 295.169 41.764 295.307 42.1873 295.307ZM51.2896 294.489V294.028C51.2896 293.71 51.355 293.419 51.4856 293.155C51.6192 292.888 51.8123 292.675 52.0652 292.516C52.3209 292.354 52.6305 292.273 52.9942 292.273C53.3635 292.273 53.6731 292.354 53.9231 292.516C54.1731 292.675 54.3621 292.888 54.4899 293.155C54.6177 293.419 54.6817 293.71 54.6817 294.028V294.489C54.6817 294.807 54.6163 295.099 54.4856 295.366C54.3578 295.631 54.1675 295.844 53.9146 296.006C53.6646 296.165 53.3578 296.244 52.9942 296.244C52.6248 296.244 52.3138 296.165 52.0609 296.006C51.8081 295.844 51.6163 295.631 51.4856 295.366C51.355 295.099 51.2896 294.807 51.2896 294.489ZM52.1589 294.028V294.489C52.1589 294.753 52.2214 294.99 52.3464 295.2C52.4714 295.408 52.6873 295.511 52.9942 295.511C53.2925 295.511 53.5027 295.408 53.6248 295.2C53.7498 294.99 53.8123 294.753 53.8123 294.489V294.028C53.8123 293.764 53.7527 293.528 53.6334 293.321C53.514 293.111 53.301 293.006 52.9942 293.006C52.6959 293.006 52.4814 293.111 52.3507 293.321C52.2228 293.528 52.1589 293.764 52.1589 294.028ZM46.943 289.494V289.034C46.943 288.716 47.0084 288.425 47.139 288.161C47.2726 287.893 47.4657 287.68 47.7186 287.521C47.9743 287.359 48.2839 287.278 48.6476 287.278C49.0169 287.278 49.3265 287.359 49.5765 287.521C49.8265 287.68 50.0155 287.893 50.1433 288.161C50.2711 288.425 50.3351 288.716 50.3351 289.034V289.494C50.3351 289.812 50.2697 290.105 50.139 290.372C50.0112 290.636 49.8209 290.849 49.568 291.011C49.318 291.17 49.0112 291.25 48.6476 291.25C48.2782 291.25 47.9672 291.17 47.7143 291.011C47.4615 290.849 47.2697 290.636 47.139 290.372C47.0084 290.105 46.943 289.812 46.943 289.494ZM47.8123 289.034V289.494C47.8123 289.759 47.8748 289.996 47.9998 290.206C48.1248 290.413 48.3407 290.517 48.6476 290.517C48.9459 290.517 49.1561 290.413 49.2782 290.206C49.4032 289.996 49.4657 289.759 49.4657 289.494V289.034C49.4657 288.77 49.4061 288.534 49.2868 288.327C49.1675 288.116 48.9544 288.011 48.6476 288.011C48.3493 288.011 48.1348 288.116 48.0041 288.327C47.8763 288.534 47.8123 288.77 47.8123 289.034ZM47.2669 296.125L53.2669 287.398H54.2385L48.2385 296.125H47.2669Z" fill="#495057"/>
<path d="M32.2744 243.625V242.858L35.1551 239.705C35.4931 239.335 35.7716 239.014 35.9903 238.741C36.2091 238.466 36.371 238.207 36.4761 237.966C36.5841 237.722 36.638 237.466 36.638 237.199C36.638 236.892 36.5642 236.626 36.4164 236.402C36.2716 236.178 36.0727 236.004 35.8199 235.882C35.567 235.76 35.2829 235.699 34.9676 235.699C34.6324 235.699 34.3397 235.768 34.0897 235.908C33.8426 236.044 33.6508 236.236 33.5145 236.483C33.3809 236.73 33.3142 237.02 33.3142 237.352H32.3085C32.3085 236.841 32.4264 236.392 32.6622 236.006C32.898 235.619 33.219 235.318 33.6252 235.102C34.0343 234.886 34.4931 234.778 35.0017 234.778C35.513 234.778 35.9662 234.886 36.361 235.102C36.7559 235.318 37.0656 235.609 37.29 235.976C37.5145 236.342 37.6267 236.75 37.6267 237.199C37.6267 237.52 37.5684 237.834 37.452 238.141C37.3383 238.445 37.1395 238.784 36.8554 239.159C36.5741 239.531 36.1835 239.986 35.6835 240.523L33.7233 242.619V242.688H37.7801V243.625H32.2744ZM42.2673 243.744C41.7673 243.744 41.317 243.645 40.9164 243.446C40.5159 243.247 40.1949 242.974 39.9534 242.628C39.7119 242.281 39.5798 241.886 39.5571 241.443H40.5798C40.6196 241.838 40.7985 242.165 41.1167 242.423C41.4377 242.679 41.8213 242.807 42.2673 242.807C42.6252 242.807 42.9434 242.723 43.2218 242.555C43.5031 242.388 43.7233 242.158 43.8824 241.865C44.0443 241.57 44.1252 241.236 44.1252 240.864C44.1252 240.483 44.0414 240.143 43.8738 239.845C43.7091 239.544 43.4818 239.307 43.192 239.134C42.9022 238.96 42.5713 238.872 42.1991 238.869C41.9321 238.866 41.6579 238.908 41.3767 238.993C41.0954 239.075 40.8639 239.182 40.6821 239.312L39.6934 239.193L40.2218 234.898H44.7559V235.835H41.1082L40.8014 238.409H40.8525C41.0315 238.267 41.2559 238.149 41.5258 238.055C41.7957 237.962 42.077 237.915 42.3696 237.915C42.9037 237.915 43.3795 238.043 43.7971 238.298C44.2176 238.551 44.5471 238.898 44.7858 239.338C45.0272 239.778 45.148 240.281 45.148 240.847C45.148 241.403 45.023 241.901 44.773 242.338C44.5258 242.773 44.1849 243.116 43.7502 243.369C43.3156 243.619 42.8213 243.744 42.2673 243.744ZM51.2897 241.989V241.528C51.2897 241.21 51.355 240.919 51.4857 240.655C51.6192 240.388 51.8124 240.175 52.0652 240.016C52.3209 239.854 52.6306 239.773 52.9942 239.773C53.3635 239.773 53.6732 239.854 53.9232 240.016C54.1732 240.175 54.3621 240.388 54.4899 240.655C54.6178 240.919 54.6817 241.21 54.6817 241.528V241.989C54.6817 242.307 54.6164 242.599 54.4857 242.866C54.3578 243.131 54.1675 243.344 53.9147 243.506C53.6647 243.665 53.3578 243.744 52.9942 243.744C52.6249 243.744 52.3138 243.665 52.061 243.506C51.8081 243.344 51.6164 243.131 51.4857 242.866C51.355 242.599 51.2897 242.307 51.2897 241.989ZM52.159 241.528V241.989C52.159 242.253 52.2215 242.49 52.3465 242.7C52.4715 242.908 52.6874 243.011 52.9942 243.011C53.2925 243.011 53.5027 242.908 53.6249 242.7C53.7499 242.49 53.8124 242.253 53.8124 241.989V241.528C53.8124 241.264 53.7527 241.028 53.6334 240.821C53.5141 240.611 53.301 240.506 52.9942 240.506C52.6959 240.506 52.4814 240.611 52.3507 240.821C52.2229 241.028 52.159 241.264 52.159 241.528ZM46.9431 236.994V236.534C46.9431 236.216 47.0084 235.925 47.1391 235.661C47.2726 235.393 47.4658 235.18 47.7186 235.021C47.9743 234.859 48.284 234.778 48.6476 234.778C49.0169 234.778 49.3266 234.859 49.5766 235.021C49.8266 235.18 50.0155 235.393 50.1434 235.661C50.2712 235.925 50.3351 236.216 50.3351 236.534V236.994C50.3351 237.312 50.2698 237.605 50.1391 237.872C50.0113 238.136 49.8209 238.349 49.5681 238.511C49.3181 238.67 49.0113 238.75 48.6476 238.75C48.2783 238.75 47.9672 238.67 47.7144 238.511C47.4615 238.349 47.2698 238.136 47.1391 237.872C47.0084 237.605 46.9431 237.312 46.9431 236.994ZM47.8124 236.534V236.994C47.8124 237.259 47.8749 237.496 47.9999 237.706C48.1249 237.913 48.3408 238.017 48.6476 238.017C48.9459 238.017 49.1561 237.913 49.2783 237.706C49.4033 237.496 49.4658 237.259 49.4658 236.994V236.534C49.4658 236.27 49.4061 236.034 49.2868 235.827C49.1675 235.616 48.9544 235.511 48.6476 235.511C48.3493 235.511 48.1348 235.616 48.0042 235.827C47.8763 236.034 47.8124 236.27 47.8124 236.534ZM47.2669 243.625L53.2669 234.898H54.2385L48.2385 243.625H47.2669Z" fill="#495057"/>
<path d="M34.7673 191.244C34.2673 191.244 33.817 191.145 33.4164 190.946C33.0159 190.747 32.6949 190.474 32.4534 190.128C32.2119 189.781 32.0798 189.386 32.0571 188.943H33.0798C33.1196 189.338 33.2985 189.665 33.6167 189.923C33.9377 190.179 34.3213 190.307 34.7673 190.307C35.1252 190.307 35.4434 190.223 35.7218 190.055C36.0031 189.888 36.2233 189.658 36.3824 189.365C36.5443 189.07 36.6252 188.736 36.6252 188.364C36.6252 187.983 36.5414 187.643 36.3738 187.345C36.2091 187.044 35.9818 186.807 35.692 186.634C35.4022 186.46 35.0713 186.372 34.6991 186.369C34.4321 186.366 34.1579 186.408 33.8767 186.493C33.5954 186.575 33.3639 186.682 33.1821 186.812L32.1934 186.693L32.7218 182.398H37.2559V183.335H33.6082L33.3014 185.909H33.3525C33.5315 185.767 33.7559 185.649 34.0258 185.555C34.2957 185.462 34.577 185.415 34.8696 185.415C35.4037 185.415 35.8795 185.543 36.2971 185.798C36.7176 186.051 37.0471 186.398 37.2858 186.838C37.5272 187.278 37.648 187.781 37.648 188.347C37.648 188.903 37.523 189.401 37.273 189.838C37.0258 190.273 36.6849 190.616 36.2502 190.869C35.8156 191.119 35.3213 191.244 34.7673 191.244ZM42.1874 191.244C41.5453 191.244 40.9985 191.07 40.5468 190.72C40.0951 190.368 39.7499 189.858 39.5113 189.19C39.2726 188.52 39.1533 187.71 39.1533 186.761C39.1533 185.818 39.2726 185.013 39.5113 184.345C39.7527 183.675 40.0993 183.163 40.551 182.811C41.0056 182.456 41.551 182.278 42.1874 182.278C42.8238 182.278 43.3678 182.456 43.8195 182.811C44.274 183.163 44.6206 183.675 44.8593 184.345C45.1007 185.013 45.2215 185.818 45.2215 186.761C45.2215 187.71 45.1022 188.52 44.8635 189.19C44.6249 189.858 44.2797 190.368 43.828 190.72C43.3763 191.07 42.8294 191.244 42.1874 191.244ZM42.1874 190.307C42.8238 190.307 43.3181 190 43.6703 189.386C44.0226 188.773 44.1988 187.898 44.1988 186.761C44.1988 186.006 44.1178 185.362 43.9559 184.831C43.7968 184.3 43.5667 183.895 43.2655 183.616C42.9672 183.338 42.6078 183.199 42.1874 183.199C41.5567 183.199 41.0638 183.51 40.7087 184.132C40.3536 184.751 40.176 185.628 40.176 186.761C40.176 187.517 40.2556 188.159 40.4147 188.688C40.5738 189.216 40.8025 189.618 41.1007 189.893C41.4019 190.169 41.7641 190.307 42.1874 190.307ZM51.2897 189.489V189.028C51.2897 188.71 51.355 188.419 51.4857 188.155C51.6192 187.888 51.8124 187.675 52.0652 187.516C52.3209 187.354 52.6306 187.273 52.9942 187.273C53.3635 187.273 53.6732 187.354 53.9232 187.516C54.1732 187.675 54.3621 187.888 54.4899 188.155C54.6178 188.419 54.6817 188.71 54.6817 189.028V189.489C54.6817 189.807 54.6164 190.099 54.4857 190.366C54.3578 190.631 54.1675 190.844 53.9147 191.006C53.6647 191.165 53.3578 191.244 52.9942 191.244C52.6249 191.244 52.3138 191.165 52.061 191.006C51.8081 190.844 51.6164 190.631 51.4857 190.366C51.355 190.099 51.2897 189.807 51.2897 189.489ZM52.159 189.028V189.489C52.159 189.753 52.2215 189.99 52.3465 190.2C52.4715 190.408 52.6874 190.511 52.9942 190.511C53.2925 190.511 53.5027 190.408 53.6249 190.2C53.7499 189.99 53.8124 189.753 53.8124 189.489V189.028C53.8124 188.764 53.7527 188.528 53.6334 188.321C53.5141 188.111 53.301 188.006 52.9942 188.006C52.6959 188.006 52.4814 188.111 52.3507 188.321C52.2229 188.528 52.159 188.764 52.159 189.028ZM46.9431 184.494V184.034C46.9431 183.716 47.0084 183.425 47.1391 183.161C47.2726 182.893 47.4658 182.68 47.7186 182.521C47.9743 182.359 48.284 182.278 48.6476 182.278C49.0169 182.278 49.3266 182.359 49.5766 182.521C49.8266 182.68 50.0155 182.893 50.1434 183.161C50.2712 183.425 50.3351 183.716 50.3351 184.034V184.494C50.3351 184.812 50.2698 185.105 50.1391 185.372C50.0113 185.636 49.8209 185.849 49.5681 186.011C49.3181 186.17 49.0113 186.25 48.6476 186.25C48.2783 186.25 47.9672 186.17 47.7144 186.011C47.4615 185.849 47.2698 185.636 47.1391 185.372C47.0084 185.105 46.9431 184.812 46.9431 184.494ZM47.8124 184.034V184.494C47.8124 184.759 47.8749 184.996 47.9999 185.206C48.1249 185.413 48.3408 185.517 48.6476 185.517C48.9459 185.517 49.1561 185.413 49.2783 185.206C49.4033 184.996 49.4658 184.759 49.4658 184.494V184.034C49.4658 183.77 49.4061 183.534 49.2868 183.327C49.1675 183.116 48.9544 183.011 48.6476 183.011C48.3493 183.011 48.1348 183.116 48.0042 183.327C47.8763 183.534 47.8124 183.77 47.8124 184.034ZM47.2669 191.125L53.2669 182.398H54.2385L48.2385 191.125H47.2669Z" fill="#495057"/>
<path d="M32.9456 138.625L36.849 130.903V130.835H32.349V129.898H37.9399V130.886L34.0535 138.625H32.9456ZM42.1874 138.744C41.5453 138.744 40.9985 138.57 40.5468 138.22C40.0951 137.868 39.7499 137.358 39.5113 136.69C39.2726 136.02 39.1533 135.21 39.1533 134.261C39.1533 133.318 39.2726 132.513 39.5113 131.845C39.7527 131.175 40.0993 130.663 40.551 130.311C41.0056 129.956 41.551 129.778 42.1874 129.778C42.8238 129.778 43.3678 129.956 43.8195 130.311C44.274 130.663 44.6206 131.175 44.8593 131.845C45.1007 132.513 45.2215 133.318 45.2215 134.261C45.2215 135.21 45.1022 136.02 44.8635 136.69C44.6249 137.358 44.2797 137.868 43.828 138.22C43.3763 138.57 42.8294 138.744 42.1874 138.744ZM42.1874 137.807C42.8238 137.807 43.3181 137.5 43.6703 136.886C44.0226 136.273 44.1988 135.398 44.1988 134.261C44.1988 133.506 44.1178 132.862 43.9559 132.331C43.7968 131.8 43.5667 131.395 43.2655 131.116C42.9672 130.838 42.6078 130.699 42.1874 130.699C41.5567 130.699 41.0638 131.01 40.7087 131.632C40.3536 132.251 40.176 133.128 40.176 134.261C40.176 135.017 40.2556 135.659 40.4147 136.188C40.5738 136.716 40.8025 137.118 41.1007 137.393C41.4019 137.669 41.7641 137.807 42.1874 137.807ZM51.2897 136.989V136.528C51.2897 136.21 51.355 135.919 51.4857 135.655C51.6192 135.388 51.8124 135.175 52.0652 135.016C52.3209 134.854 52.6306 134.773 52.9942 134.773C53.3635 134.773 53.6732 134.854 53.9232 135.016C54.1732 135.175 54.3621 135.388 54.4899 135.655C54.6178 135.919 54.6817 136.21 54.6817 136.528V136.989C54.6817 137.307 54.6164 137.599 54.4857 137.866C54.3578 138.131 54.1675 138.344 53.9147 138.506C53.6647 138.665 53.3578 138.744 52.9942 138.744C52.6249 138.744 52.3138 138.665 52.061 138.506C51.8081 138.344 51.6164 138.131 51.4857 137.866C51.355 137.599 51.2897 137.307 51.2897 136.989ZM52.159 136.528V136.989C52.159 137.253 52.2215 137.49 52.3465 137.7C52.4715 137.908 52.6874 138.011 52.9942 138.011C53.2925 138.011 53.5027 137.908 53.6249 137.7C53.7499 137.49 53.8124 137.253 53.8124 136.989V136.528C53.8124 136.264 53.7527 136.028 53.6334 135.821C53.5141 135.611 53.301 135.506 52.9942 135.506C52.6959 135.506 52.4814 135.611 52.3507 135.821C52.2229 136.028 52.159 136.264 52.159 136.528ZM46.9431 131.994V131.534C46.9431 131.216 47.0084 130.925 47.1391 130.661C47.2726 130.393 47.4658 130.18 47.7186 130.021C47.9743 129.859 48.284 129.778 48.6476 129.778C49.0169 129.778 49.3266 129.859 49.5766 130.021C49.8266 130.18 50.0155 130.393 50.1434 130.661C50.2712 130.925 50.3351 131.216 50.3351 131.534V131.994C50.3351 132.312 50.2698 132.605 50.1391 132.872C50.0113 133.136 49.8209 133.349 49.5681 133.511C49.3181 133.67 49.0113 133.75 48.6476 133.75C48.2783 133.75 47.9672 133.67 47.7144 133.511C47.4615 133.349 47.2698 133.136 47.1391 132.872C47.0084 132.605 46.9431 132.312 46.9431 131.994ZM47.8124 131.534V131.994C47.8124 132.259 47.8749 132.496 47.9999 132.706C48.1249 132.913 48.3408 133.017 48.6476 133.017C48.9459 133.017 49.1561 132.913 49.2783 132.706C49.4033 132.496 49.4658 132.259 49.4658 131.994V131.534C49.4658 131.27 49.4061 131.034 49.2868 130.827C49.1675 130.616 48.9544 130.511 48.6476 130.511C48.3493 130.511 48.1348 130.616 48.0042 130.827C47.8763 131.034 47.8124 131.27 47.8124 131.534ZM47.2669 138.625L53.2669 129.898H54.2385L48.2385 138.625H47.2669Z" fill="#495057"/>
<path d="M29.331 77.3977V86.125H28.2741V78.5057H28.223L26.0923 79.9205V78.8466L28.2741 77.3977H29.331ZM34.6875 86.2443C34.0455 86.2443 33.4986 86.0696 33.0469 85.7202C32.5952 85.3679 32.25 84.858 32.0114 84.1903C31.7727 83.5199 31.6534 82.7102 31.6534 81.7614C31.6534 80.8182 31.7727 80.0128 32.0114 79.3452C32.2528 78.6747 32.5994 78.1634 33.0511 77.8111C33.5057 77.456 34.0511 77.2784 34.6875 77.2784C35.3239 77.2784 35.8679 77.456 36.3196 77.8111C36.7741 78.1634 37.1207 78.6747 37.3594 79.3452C37.6009 80.0128 37.7216 80.8182 37.7216 81.7614C37.7216 82.7102 37.6023 83.5199 37.3636 84.1903C37.125 84.858 36.7798 85.3679 36.3281 85.7202C35.8764 86.0696 35.3295 86.2443 34.6875 86.2443ZM34.6875 85.3068C35.3239 85.3068 35.8182 85 36.1705 84.3864C36.5227 83.7727 36.6989 82.8977 36.6989 81.7614C36.6989 81.0057 36.6179 80.3622 36.456 79.831C36.2969 79.2997 36.0668 78.8949 35.7656 78.6165C35.4673 78.3381 35.108 78.1989 34.6875 78.1989C34.0568 78.1989 33.5639 78.5099 33.2088 79.1321C32.8537 79.7514 32.6761 80.6278 32.6761 81.7614C32.6761 82.517 32.7557 83.1591 32.9148 83.6875C33.0739 84.2159 33.3026 84.6179 33.6009 84.8935C33.902 85.169 34.2642 85.3068 34.6875 85.3068ZM42.1875 86.2443C41.5455 86.2443 40.9986 86.0696 40.5469 85.7202C40.0952 85.3679 39.75 84.858 39.5114 84.1903C39.2727 83.5199 39.1534 82.7102 39.1534 81.7614C39.1534 80.8182 39.2727 80.0128 39.5114 79.3452C39.7528 78.6747 40.0994 78.1634 40.5511 77.8111C41.0057 77.456 41.5511 77.2784 42.1875 77.2784C42.8239 77.2784 43.3679 77.456 43.8196 77.8111C44.2741 78.1634 44.6207 78.6747 44.8594 79.3452C45.1009 80.0128 45.2216 80.8182 45.2216 81.7614C45.2216 82.7102 45.1023 83.5199 44.8636 84.1903C44.625 84.858 44.2798 85.3679 43.8281 85.7202C43.3764 86.0696 42.8295 86.2443 42.1875 86.2443ZM42.1875 85.3068C42.8239 85.3068 43.3182 85 43.6705 84.3864C44.0227 83.7727 44.1989 82.8977 44.1989 81.7614C44.1989 81.0057 44.1179 80.3622 43.956 79.831C43.7969 79.2997 43.5668 78.8949 43.2656 78.6165C42.9673 78.3381 42.608 78.1989 42.1875 78.1989C41.5568 78.1989 41.0639 78.5099 40.7088 79.1321C40.3537 79.7514 40.1761 80.6278 40.1761 81.7614C40.1761 82.517 40.2557 83.1591 40.4148 83.6875C40.5739 84.2159 40.8026 84.6179 41.1009 84.8935C41.402 85.169 41.7642 85.3068 42.1875 85.3068ZM51.2898 84.4886V84.0284C51.2898 83.7102 51.3551 83.419 51.4858 83.1548C51.6193 82.8878 51.8125 82.6747 52.0653 82.5156C52.321 82.3537 52.6307 82.2727 52.9943 82.2727C53.3636 82.2727 53.6733 82.3537 53.9233 82.5156C54.1733 82.6747 54.3622 82.8878 54.4901 83.1548C54.6179 83.419 54.6818 83.7102 54.6818 84.0284V84.4886C54.6818 84.8068 54.6165 85.0994 54.4858 85.3665C54.358 85.6307 54.1676 85.8437 53.9148 86.0057C53.6648 86.1648 53.358 86.2443 52.9943 86.2443C52.625 86.2443 52.3139 86.1648 52.0611 86.0057C51.8082 85.8437 51.6165 85.6307 51.4858 85.3665C51.3551 85.0994 51.2898 84.8068 51.2898 84.4886ZM52.1591 84.0284V84.4886C52.1591 84.7528 52.2216 84.9901 52.3466 85.2003C52.4716 85.4077 52.6875 85.5114 52.9943 85.5114C53.2926 85.5114 53.5028 85.4077 53.625 85.2003C53.75 84.9901 53.8125 84.7528 53.8125 84.4886V84.0284C53.8125 83.7642 53.7528 83.5284 53.6335 83.321C53.5142 83.1108 53.3011 83.0057 52.9943 83.0057C52.696 83.0057 52.4815 83.1108 52.3509 83.321C52.223 83.5284 52.1591 83.7642 52.1591 84.0284ZM46.9432 79.4943V79.0341C46.9432 78.7159 47.0085 78.4247 47.1392 78.1605C47.2727 77.8935 47.4659 77.6804 47.7188 77.5213C47.9744 77.3594 48.2841 77.2784 48.6477 77.2784C49.017 77.2784 49.3267 77.3594 49.5767 77.5213C49.8267 77.6804 50.0156 77.8935 50.1435 78.1605C50.2713 78.4247 50.3352 78.7159 50.3352 79.0341V79.4943C50.3352 79.8125 50.2699 80.1051 50.1392 80.3722C50.0114 80.6364 49.821 80.8494 49.5682 81.0114C49.3182 81.1705 49.0114 81.25 48.6477 81.25C48.2784 81.25 47.9673 81.1705 47.7145 81.0114C47.4616 80.8494 47.2699 80.6364 47.1392 80.3722C47.0085 80.1051 46.9432 79.8125 46.9432 79.4943ZM47.8125 79.0341V79.4943C47.8125 79.7585 47.875 79.9957 48 80.206C48.125 80.4134 48.3409 80.517 48.6477 80.517C48.946 80.517 49.1563 80.4134 49.2784 80.206C49.4034 79.9957 49.4659 79.7585 49.4659 79.4943V79.0341C49.4659 78.7699 49.4062 78.5341 49.2869 78.3267C49.1676 78.1165 48.9545 78.0114 48.6477 78.0114C48.3494 78.0114 48.1349 78.1165 48.0043 78.3267C47.8764 78.5341 47.8125 78.7699 47.8125 79.0341ZM47.267 86.125L53.267 77.3977H54.2386L48.2386 86.125H47.267Z" fill="#495057"/>
<path d="M72.9107 315.168V316.105H69.0925V315.168H72.9107ZM77.7314 311.273V320H76.6745V312.381H76.6234L74.4927 313.795V312.722L76.6745 311.273H77.7314ZM83.0879 320.119C82.4458 320.119 81.899 319.945 81.4473 319.595C80.9956 319.243 80.6504 318.733 80.4118 318.065C80.1731 317.395 80.0538 316.585 80.0538 315.636C80.0538 314.693 80.1731 313.888 80.4118 313.22C80.6532 312.55 80.9998 312.038 81.4515 311.686C81.9061 311.331 82.4515 311.153 83.0879 311.153C83.7243 311.153 84.2683 311.331 84.72 311.686C85.1745 312.038 85.5211 312.55 85.7598 313.22C86.0012 313.888 86.122 314.693 86.122 315.636C86.122 316.585 86.0027 317.395 85.764 318.065C85.5254 318.733 85.1802 319.243 84.7285 319.595C84.2768 319.945 83.7299 320.119 83.0879 320.119ZM83.0879 319.182C83.7243 319.182 84.2186 318.875 84.5708 318.261C84.9231 317.648 85.0993 316.773 85.0993 315.636C85.0993 314.881 85.0183 314.237 84.8564 313.706C84.6973 313.175 84.4672 312.77 84.166 312.491C83.8677 312.213 83.5083 312.074 83.0879 312.074C82.4572 312.074 81.9643 312.385 81.6092 313.007C81.2541 313.626 81.0765 314.503 81.0765 315.636C81.0765 316.392 81.1561 317.034 81.3152 317.562C81.4743 318.091 81.7029 318.493 82.0012 318.768C82.3024 319.044 82.6646 319.182 83.0879 319.182ZM87.7583 320V313.455H88.7299V314.477H88.8152C88.9515 314.128 89.1717 313.857 89.4757 313.663C89.7797 313.467 90.1447 313.369 90.5708 313.369C91.0027 313.369 91.362 313.467 91.649 313.663C91.9387 313.857 92.1646 314.128 92.3265 314.477H92.3947C92.5623 314.139 92.8137 313.871 93.149 313.672C93.4842 313.47 93.8862 313.369 94.3549 313.369C94.9402 313.369 95.4189 313.553 95.791 313.919C96.1632 314.283 96.3493 314.849 96.3493 315.619V320H95.3436V315.619C95.3436 315.136 95.2115 314.791 94.9473 314.584C94.6831 314.376 94.372 314.273 94.014 314.273C93.5538 314.273 93.1973 314.412 92.9444 314.69C92.6916 314.966 92.5652 315.315 92.5652 315.739V320H91.5424V315.517C91.5424 315.145 91.4217 314.845 91.1802 314.618C90.9387 314.388 90.6277 314.273 90.247 314.273C89.9856 314.273 89.7413 314.342 89.514 314.482C89.2896 314.621 89.1078 314.814 88.9686 315.061C88.8322 315.305 88.764 315.588 88.764 315.909V320H87.7583ZM98.188 320V313.455H99.1937V320H98.188ZM98.6994 312.364C98.5034 312.364 98.3343 312.297 98.1923 312.163C98.0531 312.03 97.9835 311.869 97.9835 311.682C97.9835 311.494 98.0531 311.334 98.1923 311.2C98.3343 311.067 98.5034 311 98.6994 311C98.8954 311 99.063 311.067 99.2022 311.2C99.3443 311.334 99.4153 311.494 99.4153 311.682C99.4153 311.869 99.3443 312.03 99.2022 312.163C99.063 312.297 98.8954 312.364 98.6994 312.364ZM102.041 316.062V320H101.036V313.455H102.007V314.477H102.093C102.246 314.145 102.479 313.878 102.791 313.676C103.104 313.472 103.507 313.369 104.002 313.369C104.445 313.369 104.833 313.46 105.165 313.642C105.497 313.821 105.756 314.094 105.941 314.46C106.125 314.824 106.218 315.284 106.218 315.841V320H105.212V315.909C105.212 315.395 105.078 314.994 104.811 314.707C104.544 314.418 104.178 314.273 103.712 314.273C103.391 314.273 103.104 314.342 102.851 314.482C102.601 314.621 102.404 314.824 102.259 315.091C102.114 315.358 102.041 315.682 102.041 316.062Z" fill="#495057"/>
<path d="M159.469 315.168V316.105H155.651V315.168H159.469ZM161.225 320L165.128 312.278V312.21H160.628V311.273H166.219V312.261L162.333 320H161.225ZM167.825 320V313.455H168.796V314.477H168.882C169.018 314.128 169.238 313.857 169.542 313.663C169.846 313.467 170.211 313.369 170.637 313.369C171.069 313.369 171.428 313.467 171.715 313.663C172.005 313.857 172.231 314.128 172.393 314.477H172.461C172.629 314.139 172.88 313.871 173.215 313.672C173.551 313.47 173.953 313.369 174.421 313.369C175.007 313.369 175.485 313.553 175.857 313.919C176.23 314.283 176.416 314.849 176.416 315.619V320H175.41V315.619C175.41 315.136 175.278 314.791 175.014 314.584C174.749 314.376 174.438 314.273 174.08 314.273C173.62 314.273 173.264 314.412 173.011 314.69C172.758 314.966 172.632 315.315 172.632 315.739V320H171.609V315.517C171.609 315.145 171.488 314.845 171.247 314.618C171.005 314.388 170.694 314.273 170.313 314.273C170.052 314.273 169.808 314.342 169.58 314.482C169.356 314.621 169.174 314.814 169.035 315.061C168.899 315.305 168.83 315.588 168.83 315.909V320H167.825ZM178.254 320V313.455H179.26V320H178.254ZM178.766 312.364C178.57 312.364 178.401 312.297 178.259 312.163C178.119 312.03 178.05 311.869 178.05 311.682C178.05 311.494 178.119 311.334 178.259 311.2C178.401 311.067 178.57 311 178.766 311C178.962 311 179.129 311.067 179.269 311.2C179.411 311.334 179.482 311.494 179.482 311.682C179.482 311.869 179.411 312.03 179.269 312.163C179.129 312.297 178.962 312.364 178.766 312.364ZM182.108 316.062V320H181.102V313.455H182.074V314.477H182.159C182.312 314.145 182.545 313.878 182.858 313.676C183.17 313.472 183.574 313.369 184.068 313.369C184.511 313.369 184.899 313.46 185.231 313.642C185.564 313.821 185.822 314.094 186.007 314.46C186.192 314.824 186.284 315.284 186.284 315.841V320H185.278V315.909C185.278 315.395 185.145 314.994 184.878 314.707C184.611 314.418 184.244 314.273 183.778 314.273C183.457 314.273 183.17 314.342 182.917 314.482C182.667 314.621 182.47 314.824 182.325 315.091C182.18 315.358 182.108 315.682 182.108 316.062Z" fill="#495057"/>
<path d="M241.362 315.168V316.105H237.544V315.168H241.362ZM245.842 320.119C245.342 320.119 244.891 320.02 244.491 319.821C244.09 319.622 243.769 319.349 243.528 319.003C243.286 318.656 243.154 318.261 243.131 317.818H244.154C244.194 318.213 244.373 318.54 244.691 318.798C245.012 319.054 245.396 319.182 245.842 319.182C246.2 319.182 246.518 319.098 246.796 318.93C247.077 318.763 247.298 318.533 247.457 318.24C247.619 317.945 247.7 317.611 247.7 317.239C247.7 316.858 247.616 316.518 247.448 316.22C247.283 315.919 247.056 315.682 246.766 315.509C246.477 315.335 246.146 315.247 245.773 315.244C245.506 315.241 245.232 315.283 244.951 315.368C244.67 315.45 244.438 315.557 244.256 315.688L243.268 315.568L243.796 311.273H248.33V312.21H244.683L244.376 314.784H244.427C244.606 314.642 244.83 314.524 245.1 314.43C245.37 314.337 245.651 314.29 245.944 314.29C246.478 314.29 246.954 314.418 247.371 314.673C247.792 314.926 248.121 315.273 248.36 315.713C248.602 316.153 248.722 316.656 248.722 317.222C248.722 317.778 248.597 318.276 248.347 318.713C248.1 319.148 247.759 319.491 247.325 319.744C246.89 319.994 246.396 320.119 245.842 320.119ZM250.432 320V313.455H251.404V314.477H251.489C251.625 314.128 251.846 313.857 252.15 313.663C252.453 313.467 252.819 313.369 253.245 313.369C253.676 313.369 254.036 313.467 254.323 313.663C254.613 313.857 254.838 314.128 255 314.477H255.069C255.236 314.139 255.488 313.871 255.823 313.672C256.158 313.47 256.56 313.369 257.029 313.369C257.614 313.369 258.093 313.553 258.465 313.919C258.837 314.283 259.023 314.849 259.023 315.619V320H258.017V315.619C258.017 315.136 257.885 314.791 257.621 314.584C257.357 314.376 257.046 314.273 256.688 314.273C256.228 314.273 255.871 314.412 255.618 314.69C255.365 314.966 255.239 315.315 255.239 315.739V320H254.216V315.517C254.216 315.145 254.096 314.845 253.854 314.618C253.613 314.388 253.301 314.273 252.921 314.273C252.659 314.273 252.415 314.342 252.188 314.482C251.963 314.621 251.782 314.814 251.642 315.061C251.506 315.305 251.438 315.588 251.438 315.909V320H250.432ZM260.862 320V313.455H261.868V320H260.862ZM261.373 312.364C261.177 312.364 261.008 312.297 260.866 312.163C260.727 312.03 260.657 311.869 260.657 311.682C260.657 311.494 260.727 311.334 260.866 311.2C261.008 311.067 261.177 311 261.373 311C261.569 311 261.737 311.067 261.876 311.2C262.018 311.334 262.089 311.494 262.089 311.682C262.089 311.869 262.018 312.03 261.876 312.163C261.737 312.297 261.569 312.364 261.373 312.364ZM264.715 316.062V320H263.71V313.455H264.681V314.477H264.766C264.92 314.145 265.153 313.878 265.465 313.676C265.778 313.472 266.181 313.369 266.675 313.369C267.119 313.369 267.506 313.46 267.839 313.642C268.171 313.821 268.43 314.094 268.614 314.46C268.799 314.824 268.891 315.284 268.891 315.841V320H267.886V315.909C267.886 315.395 267.752 314.994 267.485 314.707C267.218 314.418 266.852 314.273 266.386 314.273C266.065 314.273 265.778 314.342 265.525 314.482C265.275 314.621 265.077 314.824 264.933 315.091C264.788 315.358 264.715 315.682 264.715 316.062Z" fill="#495057"/>
<path d="M324.835 315.168V316.105H321.016V315.168H324.835ZM326.177 320V319.233L329.058 316.08C329.396 315.71 329.674 315.389 329.893 315.116C330.112 314.841 330.273 314.582 330.379 314.341C330.487 314.097 330.54 313.841 330.54 313.574C330.54 313.267 330.467 313.001 330.319 312.777C330.174 312.553 329.975 312.379 329.722 312.257C329.469 312.135 329.185 312.074 328.87 312.074C328.535 312.074 328.242 312.143 327.992 312.283C327.745 312.419 327.553 312.611 327.417 312.858C327.283 313.105 327.217 313.395 327.217 313.727H326.211C326.211 313.216 326.329 312.767 326.565 312.381C326.8 311.994 327.121 311.693 327.528 311.477C327.937 311.261 328.396 311.153 328.904 311.153C329.415 311.153 329.869 311.261 330.263 311.477C330.658 311.693 330.968 311.984 331.192 312.351C331.417 312.717 331.529 313.125 331.529 313.574C331.529 313.895 331.471 314.209 331.354 314.516C331.241 314.82 331.042 315.159 330.758 315.534C330.477 315.906 330.086 316.361 329.586 316.898L327.626 318.994V319.062H331.683V320H326.177ZM333.46 320V313.455H334.431V314.477H334.516C334.653 314.128 334.873 313.857 335.177 313.663C335.481 313.467 335.846 313.369 336.272 313.369C336.704 313.369 337.063 313.467 337.35 313.663C337.64 313.857 337.866 314.128 338.028 314.477H338.096C338.263 314.139 338.515 313.871 338.85 313.672C339.185 313.47 339.587 313.369 340.056 313.369C340.641 313.369 341.12 313.553 341.492 313.919C341.864 314.283 342.05 314.849 342.05 315.619V320H341.045V315.619C341.045 315.136 340.913 314.791 340.648 314.584C340.384 314.376 340.073 314.273 339.715 314.273C339.255 314.273 338.898 314.412 338.646 314.69C338.393 314.966 338.266 315.315 338.266 315.739V320H337.244V315.517C337.244 315.145 337.123 314.845 336.881 314.618C336.64 314.388 336.329 314.273 335.948 314.273C335.687 314.273 335.442 314.342 335.215 314.482C334.991 314.621 334.809 314.814 334.67 315.061C334.533 315.305 334.465 315.588 334.465 315.909V320H333.46ZM343.889 320V313.455H344.895V320H343.889ZM344.401 312.364C344.205 312.364 344.036 312.297 343.893 312.163C343.754 312.03 343.685 311.869 343.685 311.682C343.685 311.494 343.754 311.334 343.893 311.2C344.036 311.067 344.205 311 344.401 311C344.597 311 344.764 311.067 344.903 311.2C345.045 311.334 345.116 311.494 345.116 311.682C345.116 311.869 345.045 312.03 344.903 312.163C344.764 312.297 344.597 312.364 344.401 312.364ZM347.743 316.062V320H346.737V313.455H347.708V314.477H347.794C347.947 314.145 348.18 313.878 348.493 313.676C348.805 313.472 349.208 313.369 349.703 313.369C350.146 313.369 350.534 313.46 350.866 313.642C351.199 313.821 351.457 314.094 351.642 314.46C351.826 314.824 351.919 315.284 351.919 315.841V320H350.913V315.909C350.913 315.395 350.779 314.994 350.512 314.707C350.245 314.418 349.879 314.273 349.413 314.273C349.092 314.273 348.805 314.342 348.552 314.482C348.302 314.621 348.105 314.824 347.96 315.091C347.815 315.358 347.743 315.682 347.743 316.062Z" fill="#495057"/>
<path d="M409.54 320L407.154 311.273H408.228L410.052 318.381H410.137L411.995 311.273H413.188L415.046 318.381H415.131L416.955 311.273H418.029L415.643 320H414.552L412.626 313.045H412.558L410.631 320H409.54ZM420.526 320.153C420.112 320.153 419.735 320.075 419.397 319.919C419.059 319.76 418.79 319.531 418.592 319.233C418.393 318.932 418.293 318.568 418.293 318.142C418.293 317.767 418.367 317.463 418.515 317.23C418.663 316.994 418.86 316.81 419.107 316.676C419.354 316.543 419.627 316.443 419.925 316.378C420.227 316.31 420.529 316.256 420.833 316.216C421.231 316.165 421.553 316.126 421.8 316.101C422.05 316.072 422.232 316.026 422.346 315.96C422.462 315.895 422.521 315.781 422.521 315.619V315.585C422.521 315.165 422.406 314.838 422.175 314.605C421.948 314.372 421.603 314.256 421.14 314.256C420.66 314.256 420.283 314.361 420.011 314.571C419.738 314.781 419.546 315.006 419.435 315.244L418.481 314.903C418.651 314.506 418.879 314.196 419.163 313.974C419.45 313.75 419.762 313.594 420.1 313.506C420.441 313.415 420.776 313.369 421.106 313.369C421.316 313.369 421.558 313.395 421.83 313.446C422.106 313.494 422.371 313.595 422.627 313.749C422.886 313.902 423.1 314.134 423.271 314.443C423.441 314.753 423.526 315.168 423.526 315.688V320H422.521V319.114H422.469C422.401 319.256 422.288 319.408 422.129 319.57C421.969 319.732 421.758 319.869 421.494 319.983C421.229 320.097 420.907 320.153 420.526 320.153ZM420.68 319.25C421.077 319.25 421.413 319.172 421.685 319.016C421.961 318.859 422.168 318.658 422.308 318.411C422.45 318.163 422.521 317.903 422.521 317.631V316.71C422.478 316.761 422.384 316.808 422.239 316.851C422.097 316.891 421.933 316.926 421.745 316.957C421.56 316.986 421.38 317.011 421.204 317.034C421.031 317.054 420.89 317.071 420.782 317.085C420.521 317.119 420.276 317.175 420.049 317.251C419.825 317.325 419.643 317.437 419.504 317.588C419.367 317.736 419.299 317.937 419.299 318.193C419.299 318.543 419.428 318.807 419.687 318.986C419.948 319.162 420.279 319.25 420.68 319.25ZM426.299 317.614L426.282 316.369H426.487L429.35 313.455H430.595L427.544 316.54H427.458L426.299 317.614ZM425.362 320V311.273H426.368V320H425.362ZM429.521 320L426.964 316.761L427.68 316.062L430.799 320H429.521ZM434.364 320.136C433.733 320.136 433.189 319.997 432.732 319.719C432.277 319.438 431.926 319.045 431.679 318.543C431.435 318.037 431.313 317.449 431.313 316.778C431.313 316.108 431.435 315.517 431.679 315.006C431.926 314.491 432.27 314.091 432.711 313.804C433.154 313.514 433.671 313.369 434.262 313.369C434.603 313.369 434.939 313.426 435.272 313.54C435.604 313.653 435.907 313.838 436.179 314.094C436.452 314.347 436.669 314.682 436.831 315.099C436.993 315.517 437.074 316.031 437.074 316.642V317.068H432.029V316.199H436.051C436.051 315.83 435.978 315.5 435.83 315.21C435.685 314.92 435.478 314.692 435.208 314.524C434.941 314.357 434.625 314.273 434.262 314.273C433.861 314.273 433.515 314.372 433.222 314.571C432.932 314.767 432.709 315.023 432.553 315.338C432.397 315.653 432.319 315.991 432.319 316.352V316.932C432.319 317.426 432.404 317.845 432.574 318.189C432.748 318.53 432.988 318.79 433.294 318.969C433.601 319.145 433.958 319.233 434.364 319.233C434.628 319.233 434.867 319.196 435.08 319.122C435.296 319.045 435.482 318.932 435.638 318.781C435.794 318.628 435.915 318.437 436 318.21L436.972 318.483C436.87 318.812 436.698 319.102 436.456 319.352C436.215 319.599 435.917 319.793 435.561 319.932C435.206 320.068 434.807 320.136 434.364 320.136ZM441.638 312.21V311.273H448.184V312.21H445.439V320H444.382V312.21H441.638ZM449.678 320V313.455H450.684V320H449.678ZM450.19 312.364C449.994 312.364 449.825 312.297 449.683 312.163C449.543 312.03 449.474 311.869 449.474 311.682C449.474 311.494 449.543 311.334 449.683 311.2C449.825 311.067 449.994 311 450.19 311C450.386 311 450.553 311.067 450.692 311.2C450.835 311.334 450.906 311.494 450.906 311.682C450.906 311.869 450.835 312.03 450.692 312.163C450.553 312.297 450.386 312.364 450.19 312.364ZM452.526 320V313.455H453.498V314.477H453.583C453.719 314.128 453.939 313.857 454.243 313.663C454.547 313.467 454.912 313.369 455.338 313.369C455.77 313.369 456.13 313.467 456.417 313.663C456.706 313.857 456.932 314.128 457.094 314.477H457.162C457.33 314.139 457.581 313.871 457.917 313.672C458.252 313.47 458.654 313.369 459.123 313.369C459.708 313.369 460.186 313.553 460.559 313.919C460.931 314.283 461.117 314.849 461.117 315.619V320H460.111V315.619C460.111 315.136 459.979 314.791 459.715 314.584C459.451 314.376 459.14 314.273 458.782 314.273C458.321 314.273 457.965 314.412 457.712 314.69C457.459 314.966 457.333 315.315 457.333 315.739V320H456.31V315.517C456.31 315.145 456.189 314.845 455.948 314.618C455.706 314.388 455.395 314.273 455.015 314.273C454.753 314.273 454.509 314.342 454.282 314.482C454.057 314.621 453.875 314.814 453.736 315.061C453.6 315.305 453.532 315.588 453.532 315.909V320H452.526ZM465.7 320.136C465.069 320.136 464.525 319.997 464.068 319.719C463.613 319.438 463.262 319.045 463.015 318.543C462.771 318.037 462.649 317.449 462.649 316.778C462.649 316.108 462.771 315.517 463.015 315.006C463.262 314.491 463.606 314.091 464.047 313.804C464.49 313.514 465.007 313.369 465.598 313.369C465.939 313.369 466.275 313.426 466.608 313.54C466.94 313.653 467.243 313.838 467.515 314.094C467.788 314.347 468.005 314.682 468.167 315.099C468.329 315.517 468.41 316.031 468.41 316.642V317.068H463.365V316.199H467.387C467.387 315.83 467.314 315.5 467.166 315.21C467.021 314.92 466.814 314.692 466.544 314.524C466.277 314.357 465.961 314.273 465.598 314.273C465.197 314.273 464.85 314.372 464.558 314.571C464.268 314.767 464.045 315.023 463.889 315.338C463.733 315.653 463.654 315.991 463.654 316.352V316.932C463.654 317.426 463.74 317.845 463.91 318.189C464.083 318.53 464.324 318.79 464.63 318.969C464.937 319.145 465.294 319.233 465.7 319.233C465.964 319.233 466.203 319.196 466.416 319.122C466.632 319.045 466.818 318.932 466.974 318.781C467.13 318.628 467.251 318.437 467.336 318.21L468.308 318.483C468.206 318.812 468.034 319.102 467.792 319.352C467.551 319.599 467.252 319.793 466.897 319.932C466.542 320.068 466.143 320.136 465.7 320.136Z" fill="#495057"/>
<path d="M27.3634 47H23.4202V35.3636H27.4429C28.5982 35.3636 29.5906 35.5966 30.4202 36.0625C31.2535 36.5246 31.8937 37.1894 32.3406 38.0568C32.7876 38.9242 33.0111 39.9621 33.0111 41.1705C33.0111 42.3826 32.7857 43.4242 32.335 44.2955C31.888 45.1667 31.2422 45.8352 30.3975 46.3011C29.5566 46.767 28.5452 47 27.3634 47ZM25.5281 45.1761H27.2611C28.0717 45.1761 28.7478 45.0284 29.2895 44.733C29.8312 44.4337 30.2384 43.9886 30.5111 43.3977C30.7838 42.803 30.9202 42.0606 30.9202 41.1705C30.9202 40.2803 30.7838 39.5417 30.5111 38.9545C30.2384 38.3636 29.835 37.9223 29.3009 37.6307C28.7706 37.3352 28.1115 37.1875 27.3236 37.1875H25.5281V45.1761ZM37.4344 47.1761C36.8814 47.1761 36.3833 47.0777 35.9401 46.8807C35.5007 46.6799 35.1522 46.3845 34.8946 45.9943C34.6408 45.6042 34.5139 45.1231 34.5139 44.5511C34.5139 44.0587 34.6048 43.6515 34.7867 43.3295C34.9685 43.0076 35.2166 42.75 35.531 42.5568C35.8454 42.3636 36.1995 42.2178 36.5935 42.1193C36.9912 42.017 37.4022 41.9432 37.8264 41.8977C38.3378 41.8447 38.7526 41.7973 39.0708 41.7557C39.3889 41.7102 39.62 41.642 39.7639 41.5511C39.9117 41.4564 39.9855 41.3106 39.9855 41.1136V41.0795C39.9855 40.6515 39.8586 40.3201 39.6048 40.0852C39.3511 39.8504 38.9855 39.733 38.5083 39.733C38.0045 39.733 37.6048 39.8428 37.3094 40.0625C37.0177 40.2822 36.8208 40.5417 36.7185 40.8409L34.798 40.5682C34.9495 40.0379 35.1995 39.5947 35.548 39.2386C35.8965 38.8788 36.3227 38.6098 36.8264 38.4318C37.3302 38.25 37.887 38.1591 38.4969 38.1591C38.9173 38.1591 39.3359 38.2083 39.7526 38.3068C40.1692 38.4053 40.5499 38.5682 40.8946 38.7955C41.2393 39.0189 41.5158 39.3239 41.7242 39.7102C41.9363 40.0966 42.0423 40.5795 42.0423 41.1591V47H40.0651V45.8011H39.9969C39.8719 46.0436 39.6958 46.2708 39.4685 46.483C39.245 46.6913 38.9628 46.8598 38.6219 46.9886C38.2848 47.1136 37.8889 47.1761 37.4344 47.1761ZM37.9685 45.6648C38.3814 45.6648 38.7393 45.5833 39.0423 45.4205C39.3454 45.2538 39.5783 45.0341 39.7412 44.7614C39.9079 44.4886 39.9912 44.1913 39.9912 43.8693V42.8409C39.9268 42.8939 39.817 42.9432 39.6617 42.9886C39.5102 43.0341 39.3397 43.0739 39.1503 43.108C38.9609 43.142 38.7734 43.1723 38.5878 43.1989C38.4022 43.2254 38.2412 43.2481 38.1048 43.267C37.798 43.3087 37.5234 43.3769 37.281 43.4716C37.0386 43.5663 36.8473 43.6989 36.7071 43.8693C36.567 44.036 36.4969 44.2519 36.4969 44.517C36.4969 44.8958 36.6352 45.1818 36.9117 45.375C37.1882 45.5682 37.5405 45.6648 37.9685 45.6648ZM45.9117 47L43.4458 38.2727H45.5423L47.0764 44.4091H47.156L48.7242 38.2727H50.798L52.3662 44.375H52.4514L53.9628 38.2727H56.0651L53.5935 47H51.4514L49.8151 41.1023H49.6958L48.0594 47H45.9117ZM59.558 41.8864V47H57.5012V38.2727H59.4671V39.7557H59.5693C59.7701 39.267 60.0902 38.8788 60.5296 38.5909C60.9727 38.303 61.5201 38.1591 62.1716 38.1591C62.7739 38.1591 63.2985 38.2879 63.7455 38.5455C64.1962 38.803 64.5447 39.1761 64.7909 39.6648C65.0409 40.1534 65.164 40.7462 65.1602 41.4432V47H63.1034V41.7614C63.1034 41.178 62.9519 40.7216 62.6489 40.392C62.3496 40.0625 61.9349 39.8977 61.4046 39.8977C61.0447 39.8977 60.7246 39.9773 60.4443 40.1364C60.1678 40.2917 59.95 40.517 59.7909 40.8125C59.6356 41.108 59.558 41.4659 59.558 41.8864ZM71.5296 47.2216C70.594 47.2216 69.7909 46.9848 69.1205 46.5114C68.4538 46.0341 67.9405 45.3466 67.5807 44.4489C67.2246 43.5473 67.0466 42.4621 67.0466 41.1932C67.0504 39.9242 67.2303 38.8447 67.5864 37.9545C67.9462 37.0606 68.4595 36.3788 69.1262 35.9091C69.7966 35.4394 70.5977 35.2045 71.5296 35.2045C72.4614 35.2045 73.2625 35.4394 73.933 35.9091C74.6034 36.3788 75.1167 37.0606 75.4727 37.9545C75.8326 38.8485 76.0125 39.928 76.0125 41.1932C76.0125 42.4659 75.8326 43.553 75.4727 44.4545C75.1167 45.3523 74.6034 46.0379 73.933 46.5114C73.2663 46.9848 72.4652 47.2216 71.5296 47.2216ZM71.5296 45.4432C72.2568 45.4432 72.8307 45.0852 73.2512 44.3693C73.6754 43.6496 73.8875 42.5909 73.8875 41.1932C73.8875 40.2689 73.7909 39.4924 73.5977 38.8636C73.4046 38.2348 73.1318 37.7614 72.7796 37.4432C72.4273 37.1212 72.0106 36.9602 71.5296 36.9602C70.8061 36.9602 70.2341 37.3201 69.8137 38.0398C69.3932 38.7557 69.1811 39.8068 69.1773 41.1932C69.1735 42.1212 69.2663 42.9015 69.4557 43.5341C69.6489 44.1667 69.9216 44.6439 70.2739 44.9659C70.6262 45.2841 71.0447 45.4432 71.5296 45.4432ZM82.2014 47.2216C81.2658 47.2216 80.4628 46.9848 79.7923 46.5114C79.1257 46.0341 78.6124 45.3466 78.2526 44.4489C77.8965 43.5473 77.7185 42.4621 77.7185 41.1932C77.7223 39.9242 77.9022 38.8447 78.2583 37.9545C78.6181 37.0606 79.1314 36.3788 79.798 35.9091C80.4685 35.4394 81.2696 35.2045 82.2014 35.2045C83.1333 35.2045 83.9344 35.4394 84.6048 35.9091C85.2753 36.3788 85.7886 37.0606 86.1446 37.9545C86.5045 38.8485 86.6844 39.928 86.6844 41.1932C86.6844 42.4659 86.5045 43.553 86.1446 44.4545C85.7886 45.3523 85.2753 46.0379 84.6048 46.5114C83.9382 46.9848 83.137 47.2216 82.2014 47.2216ZM82.2014 45.4432C82.9287 45.4432 83.5026 45.0852 83.923 44.3693C84.3473 43.6496 84.5594 42.5909 84.5594 41.1932C84.5594 40.2689 84.4628 39.4924 84.2696 38.8636C84.0764 38.2348 83.8037 37.7614 83.4514 37.4432C83.0992 37.1212 82.6825 36.9602 82.2014 36.9602C81.478 36.9602 80.906 37.3201 80.4855 38.0398C80.0651 38.7557 79.853 39.8068 79.8492 41.1932C79.8454 42.1212 79.9382 42.9015 80.1276 43.5341C80.3208 44.1667 80.5935 44.6439 80.9458 44.9659C81.298 45.2841 81.7166 45.4432 82.2014 45.4432ZM102.217 35.3636V47H100.342L94.8591 39.0739H94.7625V47H92.6546V35.3636H94.5409L100.018 43.2955H100.12V35.3636H102.217ZM106.934 47.1761C106.381 47.1761 105.883 47.0777 105.44 46.8807C105.001 46.6799 104.652 46.3845 104.395 45.9943C104.141 45.6042 104.014 45.1231 104.014 44.5511C104.014 44.0587 104.105 43.6515 104.287 43.3295C104.468 43.0076 104.717 42.75 105.031 42.5568C105.345 42.3636 105.7 42.2178 106.093 42.1193C106.491 42.017 106.902 41.9432 107.326 41.8977C107.838 41.8447 108.253 41.7973 108.571 41.7557C108.889 41.7102 109.12 41.642 109.264 41.5511C109.412 41.4564 109.486 41.3106 109.486 41.1136V41.0795C109.486 40.6515 109.359 40.3201 109.105 40.0852C108.851 39.8504 108.486 39.733 108.008 39.733C107.504 39.733 107.105 39.8428 106.809 40.0625C106.518 40.2822 106.321 40.5417 106.218 40.8409L104.298 40.5682C104.45 40.0379 104.7 39.5947 105.048 39.2386C105.397 38.8788 105.823 38.6098 106.326 38.4318C106.83 38.25 107.387 38.1591 107.997 38.1591C108.417 38.1591 108.836 38.2083 109.253 38.3068C109.669 38.4053 110.05 38.5682 110.395 38.7955C110.739 39.0189 111.016 39.3239 111.224 39.7102C111.436 40.0966 111.542 40.5795 111.542 41.1591V47H109.565V45.8011H109.497C109.372 46.0436 109.196 46.2708 108.968 46.483C108.745 46.6913 108.463 46.8598 108.122 46.9886C107.785 47.1136 107.389 47.1761 106.934 47.1761ZM107.468 45.6648C107.881 45.6648 108.239 45.5833 108.542 45.4205C108.845 45.2538 109.078 45.0341 109.241 44.7614C109.408 44.4886 109.491 44.1913 109.491 43.8693V42.8409C109.427 42.8939 109.317 42.9432 109.162 42.9886C109.01 43.0341 108.84 43.0739 108.65 43.108C108.461 43.142 108.273 43.1723 108.088 43.1989C107.902 43.2254 107.741 43.2481 107.605 43.267C107.298 43.3087 107.023 43.3769 106.781 43.4716C106.539 43.5663 106.347 43.6989 106.207 43.8693C106.067 44.036 105.997 44.2519 105.997 44.517C105.997 44.8958 106.135 45.1818 106.412 45.375C106.688 45.5682 107.04 45.6648 107.468 45.6648ZM117.968 38.2727V39.8636H112.951V38.2727H117.968ZM114.19 36.1818H116.247V44.375C116.247 44.6515 116.289 44.8636 116.372 45.0114C116.459 45.1553 116.573 45.2538 116.713 45.3068C116.853 45.3598 117.008 45.3864 117.179 45.3864C117.307 45.3864 117.425 45.3769 117.531 45.358C117.641 45.339 117.724 45.322 117.781 45.3068L118.128 46.9148C118.018 46.9527 117.861 46.9943 117.656 47.0398C117.455 47.0852 117.209 47.1117 116.917 47.1193C116.402 47.1345 115.938 47.0568 115.525 46.8864C115.112 46.7121 114.785 46.4432 114.542 46.0795C114.304 45.7159 114.186 45.2614 114.19 44.7159V36.1818ZM125.251 43.3295V38.2727H127.308V47H125.314V45.4489H125.223C125.026 45.9375 124.702 46.3371 124.251 46.6477C123.804 46.9583 123.253 47.1136 122.598 47.1136C122.026 47.1136 121.52 46.9867 121.081 46.733C120.645 46.4754 120.304 46.1023 120.058 45.6136C119.812 45.1212 119.689 44.5265 119.689 43.8295V38.2727H121.745V43.5114C121.745 44.0644 121.897 44.5038 122.2 44.8295C122.503 45.1553 122.901 45.3182 123.393 45.3182C123.696 45.3182 123.99 45.2443 124.274 45.0966C124.558 44.9489 124.791 44.7292 124.973 44.4375C125.158 44.142 125.251 43.7727 125.251 43.3295ZM129.423 47V38.2727H131.417V39.7273H131.508C131.667 39.2235 131.94 38.8352 132.326 38.5625C132.717 38.286 133.162 38.1477 133.662 38.1477C133.775 38.1477 133.902 38.1534 134.042 38.1648C134.186 38.1723 134.306 38.1856 134.4 38.2045V40.0966C134.313 40.0663 134.175 40.0398 133.986 40.017C133.8 39.9905 133.62 39.9773 133.446 39.9773C133.071 39.9773 132.734 40.0587 132.434 40.2216C132.139 40.3807 131.906 40.6023 131.736 40.8864C131.565 41.1705 131.48 41.4981 131.48 41.8693V47H129.423ZM138.122 47.1761C137.569 47.1761 137.071 47.0777 136.628 46.8807C136.188 46.6799 135.84 46.3845 135.582 45.9943C135.328 45.6042 135.201 45.1231 135.201 44.5511C135.201 44.0587 135.292 43.6515 135.474 43.3295C135.656 43.0076 135.904 42.75 136.218 42.5568C136.533 42.3636 136.887 42.2178 137.281 42.1193C137.679 42.017 138.09 41.9432 138.514 41.8977C139.025 41.8447 139.44 41.7973 139.758 41.7557C140.076 41.7102 140.307 41.642 140.451 41.5511C140.599 41.4564 140.673 41.3106 140.673 41.1136V41.0795C140.673 40.6515 140.546 40.3201 140.292 40.0852C140.039 39.8504 139.673 39.733 139.196 39.733C138.692 39.733 138.292 39.8428 137.997 40.0625C137.705 40.2822 137.508 40.5417 137.406 40.8409L135.486 40.5682C135.637 40.0379 135.887 39.5947 136.236 39.2386C136.584 38.8788 137.01 38.6098 137.514 38.4318C138.018 38.25 138.575 38.1591 139.184 38.1591C139.605 38.1591 140.023 38.2083 140.44 38.3068C140.857 38.4053 141.237 38.5682 141.582 38.7955C141.927 39.0189 142.203 39.3239 142.412 39.7102C142.624 40.0966 142.73 40.5795 142.73 41.1591V47H140.753V45.8011H140.684C140.559 46.0436 140.383 46.2708 140.156 46.483C139.932 46.6913 139.65 46.8598 139.309 46.9886C138.972 47.1136 138.576 47.1761 138.122 47.1761ZM138.656 45.6648C139.069 45.6648 139.427 45.5833 139.73 45.4205C140.033 45.2538 140.266 45.0341 140.429 44.7614C140.595 44.4886 140.679 44.1913 140.679 43.8693V42.8409C140.614 42.8939 140.504 42.9432 140.349 42.9886C140.198 43.0341 140.027 43.0739 139.838 43.108C139.648 43.142 139.461 43.1723 139.275 43.1989C139.09 43.2254 138.929 43.2481 138.792 43.267C138.486 43.3087 138.211 43.3769 137.968 43.4716C137.726 43.5663 137.535 43.6989 137.395 43.8693C137.254 44.036 137.184 44.2519 137.184 44.517C137.184 44.8958 137.323 45.1818 137.599 45.375C137.876 45.5682 138.228 45.6648 138.656 45.6648ZM146.855 35.3636V47H144.798V35.3636H146.855ZM155.478 47L152.194 35.3636H154.461L156.558 43.9148H156.666L158.905 35.3636H160.967L163.211 43.9205H163.314L165.41 35.3636H167.677L164.393 47H162.314L159.984 38.8352H159.893L157.558 47H155.478ZM170.669 47.1761C170.116 47.1761 169.618 47.0777 169.174 46.8807C168.735 46.6799 168.387 46.3845 168.129 45.9943C167.875 45.6042 167.748 45.1231 167.748 44.5511C167.748 44.0587 167.839 43.6515 168.021 43.3295C168.203 43.0076 168.451 42.75 168.765 42.5568C169.08 42.3636 169.434 42.2178 169.828 42.1193C170.226 42.017 170.637 41.9432 171.061 41.8977C171.572 41.8447 171.987 41.7973 172.305 41.7557C172.623 41.7102 172.854 41.642 172.998 41.5511C173.146 41.4564 173.22 41.3106 173.22 41.1136V41.0795C173.22 40.6515 173.093 40.3201 172.839 40.0852C172.585 39.8504 172.22 39.733 171.743 39.733C171.239 39.733 170.839 39.8428 170.544 40.0625C170.252 40.2822 170.055 40.5417 169.953 40.8409L168.032 40.5682C168.184 40.0379 168.434 39.5947 168.782 39.2386C169.131 38.8788 169.557 38.6098 170.061 38.4318C170.565 38.25 171.121 38.1591 171.731 38.1591C172.152 38.1591 172.57 38.2083 172.987 38.3068C173.404 38.4053 173.784 38.5682 174.129 38.7955C174.474 39.0189 174.75 39.3239 174.959 39.7102C175.171 40.0966 175.277 40.5795 175.277 41.1591V47H173.299V45.8011H173.231C173.106 46.0436 172.93 46.2708 172.703 46.483C172.479 46.6913 172.197 46.8598 171.856 46.9886C171.519 47.1136 171.123 47.1761 170.669 47.1761ZM171.203 45.6648C171.616 45.6648 171.974 45.5833 172.277 45.4205C172.58 45.2538 172.813 45.0341 172.976 44.7614C173.142 44.4886 173.226 44.1913 173.226 43.8693V42.8409C173.161 42.8939 173.051 42.9432 172.896 42.9886C172.745 43.0341 172.574 43.0739 172.385 43.108C172.195 43.142 172.008 43.1723 171.822 43.1989C171.637 43.2254 171.476 43.2481 171.339 43.267C171.032 43.3087 170.758 43.3769 170.515 43.4716C170.273 43.5663 170.082 43.6989 169.941 43.8693C169.801 44.036 169.731 44.2519 169.731 44.517C169.731 44.8958 169.87 45.1818 170.146 45.375C170.423 45.5682 170.775 45.6648 171.203 45.6648ZM179.22 44.2614L179.214 41.7784H179.544L182.68 38.2727H185.084L181.226 42.5682H180.799L179.22 44.2614ZM177.345 47V35.3636H179.402V47H177.345ZM182.822 47L179.981 43.0284L181.368 41.5795L185.282 47H182.822ZM189.959 47.1705C189.084 47.1705 188.328 46.9886 187.691 46.625C187.059 46.2576 186.572 45.7386 186.231 45.0682C185.89 44.3939 185.72 43.6004 185.72 42.6875C185.72 41.7898 185.89 41.0019 186.231 40.3239C186.576 39.642 187.057 39.1117 187.674 38.733C188.292 38.3504 189.017 38.1591 189.851 38.1591C190.388 38.1591 190.896 38.2462 191.373 38.4205C191.854 38.5909 192.279 38.8561 192.646 39.2159C193.017 39.5758 193.309 40.0341 193.521 40.5909C193.733 41.1439 193.839 41.803 193.839 42.5682V43.1989H186.686V41.8125H191.868C191.864 41.4186 191.779 41.0682 191.612 40.7614C191.445 40.4508 191.212 40.2064 190.913 40.0284C190.618 39.8504 190.273 39.7614 189.879 39.7614C189.459 39.7614 189.089 39.8636 188.771 40.0682C188.453 40.2689 188.205 40.5341 188.027 40.8636C187.852 41.1894 187.763 41.5473 187.76 41.9375V43.1477C187.76 43.6553 187.852 44.0909 188.038 44.4545C188.224 44.8144 188.483 45.0909 188.816 45.2841C189.15 45.4735 189.54 45.5682 189.987 45.5682C190.286 45.5682 190.557 45.5265 190.799 45.4432C191.042 45.3561 191.252 45.2292 191.43 45.0625C191.608 44.8958 191.743 44.6894 191.834 44.4432L193.754 44.6591C193.633 45.1667 193.402 45.6098 193.061 45.9886C192.724 46.3636 192.292 46.6553 191.765 46.8636C191.239 47.0682 190.637 47.1705 189.959 47.1705ZM200.869 41.3068V43H195.63V41.3068H200.869ZM208.595 43.3295V38.2727H210.652V47H208.657V45.4489H208.566C208.37 45.9375 208.046 46.3371 207.595 46.6477C207.148 46.9583 206.597 47.1136 205.941 47.1136C205.37 47.1136 204.864 46.9867 204.424 46.733C203.989 46.4754 203.648 46.1023 203.402 45.6136C203.156 45.1212 203.032 44.5265 203.032 43.8295V38.2727H205.089V43.5114C205.089 44.0644 205.241 44.5038 205.544 44.8295C205.847 45.1553 206.245 45.3182 206.737 45.3182C207.04 45.3182 207.334 45.2443 207.618 45.0966C207.902 44.9489 208.135 44.7292 208.316 44.4375C208.502 44.142 208.595 43.7727 208.595 43.3295ZM212.767 50.2727V38.2727H214.79V39.7159H214.909C215.015 39.5038 215.165 39.2784 215.358 39.0398C215.551 38.7973 215.812 38.5909 216.142 38.4205C216.471 38.2462 216.892 38.1591 217.403 38.1591C218.077 38.1591 218.685 38.3314 219.227 38.6761C219.772 39.017 220.204 39.5227 220.522 40.1932C220.844 40.8598 221.005 41.678 221.005 42.6477C221.005 43.6061 220.848 44.4205 220.534 45.0909C220.219 45.7614 219.791 46.2727 219.25 46.625C218.708 46.9773 218.094 47.1534 217.409 47.1534C216.909 47.1534 216.494 47.0701 216.165 46.9034C215.835 46.7367 215.57 46.536 215.369 46.3011C215.172 46.0625 215.019 45.8371 214.909 45.625H214.824V50.2727H212.767ZM214.784 42.6364C214.784 43.2008 214.863 43.6951 215.022 44.1193C215.185 44.5436 215.418 44.875 215.721 45.1136C216.028 45.3485 216.399 45.4659 216.835 45.4659C217.29 45.4659 217.67 45.3447 217.977 45.1023C218.284 44.8561 218.515 44.5208 218.67 44.0966C218.829 43.6686 218.909 43.1818 218.909 42.6364C218.909 42.0947 218.831 41.6136 218.676 41.1932C218.521 40.7727 218.29 40.4432 217.983 40.2045C217.676 39.9659 217.293 39.8466 216.835 39.8466C216.396 39.8466 216.022 39.9621 215.716 40.1932C215.409 40.4242 215.176 40.7481 215.017 41.1648C214.861 41.5814 214.784 42.072 214.784 42.6364ZM226.826 47V35.3636H231.19C232.084 35.3636 232.834 35.5303 233.44 35.8636C234.05 36.197 234.51 36.6553 234.821 37.2386C235.135 37.8182 235.292 38.4773 235.292 39.2159C235.292 39.9621 235.135 40.625 234.821 41.2045C234.506 41.7841 234.042 42.2405 233.429 42.5739C232.815 42.9034 232.059 43.0682 231.162 43.0682H228.27V41.3352H230.878C231.4 41.3352 231.828 41.2443 232.162 41.0625C232.495 40.8807 232.741 40.6307 232.9 40.3125C233.063 39.9943 233.145 39.6288 233.145 39.2159C233.145 38.803 233.063 38.4394 232.9 38.125C232.741 37.8106 232.493 37.5663 232.156 37.392C231.823 37.214 231.393 37.125 230.866 37.125H228.934V47H226.826ZM237.032 47V38.2727H239.027V39.7273H239.118C239.277 39.2235 239.549 38.8352 239.936 38.5625C240.326 38.286 240.771 38.1477 241.271 38.1477C241.385 38.1477 241.512 38.1534 241.652 38.1648C241.796 38.1723 241.915 38.1856 242.01 38.2045V40.0966C241.923 40.0663 241.784 40.0398 241.595 40.017C241.409 39.9905 241.229 39.9773 241.055 39.9773C240.68 39.9773 240.343 40.0587 240.044 40.2216C239.748 40.3807 239.515 40.6023 239.345 40.8864C239.174 41.1705 239.089 41.4981 239.089 41.8693V47H237.032ZM246.824 47.1705C245.971 47.1705 245.233 46.983 244.608 46.608C243.983 46.233 243.498 45.7083 243.153 45.0341C242.812 44.3598 242.642 43.572 242.642 42.6705C242.642 41.7689 242.812 40.9792 243.153 40.3011C243.498 39.6231 243.983 39.0966 244.608 38.7216C245.233 38.3466 245.971 38.1591 246.824 38.1591C247.676 38.1591 248.415 38.3466 249.04 38.7216C249.665 39.0966 250.147 39.6231 250.488 40.3011C250.833 40.9792 251.005 41.7689 251.005 42.6705C251.005 43.572 250.833 44.3598 250.488 45.0341C250.147 45.7083 249.665 46.233 249.04 46.608C248.415 46.983 247.676 47.1705 246.824 47.1705ZM246.835 45.5227C247.297 45.5227 247.683 45.3958 247.994 45.142C248.305 44.8845 248.536 44.5398 248.687 44.108C248.843 43.6761 248.92 43.1951 248.92 42.6648C248.92 42.1307 248.843 41.6477 248.687 41.2159C248.536 40.7803 248.305 40.4337 247.994 40.1761C247.683 39.9186 247.297 39.7898 246.835 39.7898C246.361 39.7898 245.968 39.9186 245.653 40.1761C245.343 40.4337 245.11 40.7803 244.954 41.2159C244.803 41.6477 244.727 42.1307 244.727 42.6648C244.727 43.1951 244.803 43.6761 244.954 44.108C245.11 44.5398 245.343 44.8845 245.653 45.142C245.968 45.3958 246.361 45.5227 246.835 45.5227ZM256.547 50.4545C255.808 50.4545 255.174 50.3542 254.643 50.1534C254.113 49.9564 253.687 49.6913 253.365 49.358C253.043 49.0246 252.819 48.6553 252.694 48.25L254.547 47.8011C254.63 47.9716 254.751 48.1402 254.91 48.3068C255.069 48.4773 255.283 48.6174 255.552 48.7273C255.825 48.8409 256.168 48.8977 256.581 48.8977C257.164 48.8977 257.647 48.7557 258.03 48.4716C258.412 48.1913 258.603 47.7292 258.603 47.0852V45.4318H258.501C258.395 45.6439 258.24 45.8617 258.035 46.0852C257.834 46.3087 257.567 46.4962 257.234 46.6477C256.905 46.7992 256.49 46.875 255.99 46.875C255.319 46.875 254.711 46.7178 254.166 46.4034C253.624 46.0852 253.192 45.6117 252.87 44.983C252.552 44.3504 252.393 43.5587 252.393 42.608C252.393 41.6496 252.552 40.8409 252.87 40.1818C253.192 39.5189 253.626 39.017 254.172 38.6761C254.717 38.3314 255.325 38.1591 255.995 38.1591C256.507 38.1591 256.927 38.2462 257.257 38.4205C257.59 38.5909 257.855 38.7973 258.052 39.0398C258.249 39.2784 258.399 39.5038 258.501 39.7159H258.615V38.2727H260.643V47.142C260.643 47.8883 260.465 48.5057 260.109 48.9943C259.753 49.483 259.266 49.8485 258.649 50.0909C258.031 50.3333 257.331 50.4545 256.547 50.4545ZM256.564 45.2614C256.999 45.2614 257.37 45.1553 257.677 44.9432C257.984 44.7311 258.217 44.4261 258.376 44.0284C258.535 43.6307 258.615 43.1534 258.615 42.5966C258.615 42.0473 258.535 41.5663 258.376 41.1534C258.221 40.7405 257.99 40.4205 257.683 40.1932C257.38 39.9621 257.007 39.8466 256.564 39.8466C256.105 39.8466 255.723 39.9659 255.416 40.2045C255.109 40.4432 254.878 40.7708 254.723 41.1875C254.567 41.6004 254.49 42.0701 254.49 42.5966C254.49 43.1307 254.567 43.5985 254.723 44C254.882 44.3977 255.115 44.7083 255.422 44.9318C255.732 45.1515 256.113 45.2614 256.564 45.2614ZM262.751 47V38.2727H264.745V39.7273H264.836C264.995 39.2235 265.268 38.8352 265.655 38.5625C266.045 38.286 266.49 38.1477 266.99 38.1477C267.103 38.1477 267.23 38.1534 267.37 38.1648C267.514 38.1723 267.634 38.1856 267.728 38.2045V40.0966C267.641 40.0663 267.503 40.0398 267.314 40.017C267.128 39.9905 266.948 39.9773 266.774 39.9773C266.399 39.9773 266.062 40.0587 265.763 40.2216C265.467 40.3807 265.234 40.6023 265.064 40.8864C264.893 41.1705 264.808 41.4981 264.808 41.8693V47H262.751ZM272.599 47.1705C271.724 47.1705 270.968 46.9886 270.332 46.625C269.7 46.2576 269.213 45.7386 268.872 45.0682C268.531 44.3939 268.361 43.6004 268.361 42.6875C268.361 41.7898 268.531 41.0019 268.872 40.3239C269.217 39.642 269.698 39.1117 270.315 38.733C270.932 38.3504 271.658 38.1591 272.491 38.1591C273.029 38.1591 273.537 38.2462 274.014 38.4205C274.495 38.5909 274.919 38.8561 275.287 39.2159C275.658 39.5758 275.95 40.0341 276.162 40.5909C276.374 41.1439 276.48 41.803 276.48 42.5682V43.1989H269.326V41.8125H274.508C274.504 41.4186 274.419 41.0682 274.253 40.7614C274.086 40.4508 273.853 40.2064 273.554 40.0284C273.258 39.8504 272.914 39.7614 272.52 39.7614C272.099 39.7614 271.73 39.8636 271.412 40.0682C271.093 40.2689 270.845 40.5341 270.667 40.8636C270.493 41.1894 270.404 41.5473 270.4 41.9375V43.1477C270.4 43.6553 270.493 44.0909 270.679 44.4545C270.864 44.8144 271.124 45.0909 271.457 45.2841C271.79 45.4735 272.181 45.5682 272.628 45.5682C272.927 45.5682 273.198 45.5265 273.44 45.4432C273.682 45.3561 273.893 45.2292 274.071 45.0625C274.249 44.8958 274.383 44.6894 274.474 44.4432L276.395 44.6591C276.273 45.1667 276.042 45.6098 275.701 45.9886C275.364 46.3636 274.932 46.6553 274.406 46.8636C273.879 47.0682 273.277 47.1705 272.599 47.1705ZM285.118 40.5795L283.243 40.7841C283.19 40.5947 283.097 40.4167 282.964 40.25C282.835 40.0833 282.661 39.9489 282.441 39.8466C282.222 39.7443 281.953 39.6932 281.635 39.6932C281.207 39.6932 280.847 39.786 280.555 39.9716C280.267 40.1572 280.125 40.3977 280.129 40.6932C280.125 40.947 280.218 41.1534 280.407 41.3125C280.601 41.4716 280.919 41.6023 281.362 41.7045L282.851 42.0227C283.676 42.2008 284.29 42.483 284.691 42.8693C285.097 43.2557 285.301 43.7614 285.305 44.3864C285.301 44.9356 285.14 45.4205 284.822 45.8409C284.508 46.2576 284.07 46.5833 283.51 46.8182C282.949 47.053 282.305 47.1705 281.578 47.1705C280.51 47.1705 279.65 46.947 278.998 46.5C278.347 46.0492 277.959 45.4223 277.834 44.6193L279.839 44.4261C279.93 44.8201 280.123 45.1174 280.419 45.3182C280.714 45.5189 281.099 45.6193 281.572 45.6193C282.061 45.6193 282.453 45.5189 282.748 45.3182C283.048 45.1174 283.197 44.8693 283.197 44.5739C283.197 44.3239 283.101 44.1174 282.907 43.9545C282.718 43.7917 282.423 43.6667 282.021 43.5795L280.532 43.267C279.695 43.0928 279.076 42.7992 278.674 42.3864C278.273 41.9697 278.074 41.4432 278.078 40.8068C278.074 40.2689 278.22 39.803 278.515 39.4091C278.815 39.0114 279.229 38.7045 279.76 38.4886C280.294 38.2689 280.909 38.1591 281.606 38.1591C282.629 38.1591 283.434 38.3769 284.021 38.8125C284.612 39.2481 284.977 39.8371 285.118 40.5795ZM293.899 40.5795L292.024 40.7841C291.971 40.5947 291.878 40.4167 291.745 40.25C291.617 40.0833 291.442 39.9489 291.223 39.8466C291.003 39.7443 290.734 39.6932 290.416 39.6932C289.988 39.6932 289.628 39.786 289.336 39.9716C289.049 40.1572 288.906 40.3977 288.91 40.6932C288.906 40.947 288.999 41.1534 289.189 41.3125C289.382 41.4716 289.7 41.6023 290.143 41.7045L291.632 42.0227C292.458 42.2008 293.071 42.483 293.473 42.8693C293.878 43.2557 294.083 43.7614 294.086 44.3864C294.083 44.9356 293.922 45.4205 293.603 45.8409C293.289 46.2576 292.852 46.5833 292.291 46.8182C291.73 47.053 291.086 47.1705 290.359 47.1705C289.291 47.1705 288.431 46.947 287.78 46.5C287.128 46.0492 286.74 45.4223 286.615 44.6193L288.62 44.4261C288.711 44.8201 288.905 45.1174 289.2 45.3182C289.495 45.5189 289.88 45.6193 290.353 45.6193C290.842 45.6193 291.234 45.5189 291.53 45.3182C291.829 45.1174 291.978 44.8693 291.978 44.5739C291.978 44.3239 291.882 44.1174 291.689 43.9545C291.499 43.7917 291.204 43.6667 290.802 43.5795L289.314 43.267C288.477 43.0928 287.857 42.7992 287.456 42.3864C287.054 41.9697 286.855 41.4432 286.859 40.8068C286.855 40.2689 287.001 39.803 287.297 39.4091C287.596 39.0114 288.011 38.7045 288.541 38.4886C289.075 38.2689 289.691 38.1591 290.388 38.1591C291.41 38.1591 292.215 38.3769 292.802 38.8125C293.393 39.2481 293.759 39.8371 293.899 40.5795ZM295.782 47V38.2727H297.839V47H295.782ZM296.816 37.0341C296.491 37.0341 296.21 36.9261 295.976 36.7102C295.741 36.4905 295.623 36.2273 295.623 35.9205C295.623 35.6098 295.741 35.3466 295.976 35.1307C296.21 34.911 296.491 34.8011 296.816 34.8011C297.146 34.8011 297.426 34.911 297.657 35.1307C297.892 35.3466 298.01 35.6098 298.01 35.9205C298.01 36.2273 297.892 36.4905 297.657 36.7102C297.426 36.9261 297.146 37.0341 296.816 37.0341ZM303.761 47.1705C302.909 47.1705 302.17 46.983 301.545 46.608C300.92 46.233 300.435 45.7083 300.091 45.0341C299.75 44.3598 299.579 43.572 299.579 42.6705C299.579 41.7689 299.75 40.9792 300.091 40.3011C300.435 39.6231 300.92 39.0966 301.545 38.7216C302.17 38.3466 302.909 38.1591 303.761 38.1591C304.613 38.1591 305.352 38.3466 305.977 38.7216C306.602 39.0966 307.085 39.6231 307.426 40.3011C307.771 40.9792 307.943 41.7689 307.943 42.6705C307.943 43.572 307.771 44.3598 307.426 45.0341C307.085 45.7083 306.602 46.233 305.977 46.608C305.352 46.983 304.613 47.1705 303.761 47.1705ZM303.772 45.5227C304.235 45.5227 304.621 45.3958 304.932 45.142C305.242 44.8845 305.473 44.5398 305.625 44.108C305.78 43.6761 305.858 43.1951 305.858 42.6648C305.858 42.1307 305.78 41.6477 305.625 41.2159C305.473 40.7803 305.242 40.4337 304.932 40.1761C304.621 39.9186 304.235 39.7898 303.772 39.7898C303.299 39.7898 302.905 39.9186 302.591 40.1761C302.28 40.4337 302.047 40.7803 301.892 41.2159C301.74 41.6477 301.665 42.1307 301.665 42.6648C301.665 43.1951 301.74 43.6761 301.892 44.108C302.047 44.5398 302.28 44.8845 302.591 45.142C302.905 45.3958 303.299 45.5227 303.772 45.5227ZM311.745 41.8864V47H309.689V38.2727H311.655V39.7557H311.757C311.958 39.267 312.278 38.8788 312.717 38.5909C313.16 38.303 313.708 38.1591 314.359 38.1591C314.961 38.1591 315.486 38.2879 315.933 38.5455C316.384 38.803 316.732 39.1761 316.978 39.6648C317.228 40.1534 317.352 40.7462 317.348 41.4432V47H315.291V41.7614C315.291 41.178 315.139 40.7216 314.836 40.392C314.537 40.0625 314.122 39.8977 313.592 39.8977C313.232 39.8977 312.912 39.9773 312.632 40.1364C312.355 40.2917 312.138 40.517 311.978 40.8125C311.823 41.108 311.745 41.4659 311.745 41.8864Z" fill="#212529"/>
<path d="M75 84H467" stroke="#E9ECEF"/>
<path d="M75 136.5H467" stroke="#E9ECEF"/>
<path d="M75 189H467" stroke="#E9ECEF"/>
<path d="M75 241.5H467" stroke="#E9ECEF"/>
<path d="M75 294H467" stroke="#E9ECEF"/>
<path d="M75 277C126.169 243.597 188.641 201.44 264.729 163.859C342.003 125.694 399.331 108.575 467 84" stroke="#FFD43B" stroke-width="3" stroke-linecap="round"/>
<path d="M75 294C233.688 274.99 370.961 215.746 467 84" stroke="#339AF0" stroke-width="3" stroke-linecap="round"/>
<path d="M359.043 41C359.043 44.3137 361.729 47 365.043 47C368.357 47 371.043 44.3137 371.043 41C371.043 37.6863 368.357 35 365.043 35C361.729 35 359.043 37.6863 359.043 41Z" fill="#FFD43B"/>
<path d="M379.922 45V36.4102H381.059V43.9863H385.289V45H379.922ZM386.52 37.623V36.4102H387.574V37.623H386.52ZM386.52 45V38.7773H387.574V45H386.52ZM388.992 45.5156L390.018 45.668C390.061 45.9844 390.18 46.2148 390.375 46.3594C390.637 46.5547 390.994 46.6523 391.447 46.6523C391.936 46.6523 392.312 46.5547 392.578 46.3594C392.844 46.1641 393.023 45.8906 393.117 45.5391C393.172 45.3242 393.197 44.873 393.193 44.1855C392.732 44.7285 392.158 45 391.471 45C390.615 45 389.953 44.6914 389.484 44.0742C389.016 43.457 388.781 42.7168 388.781 41.8535C388.781 41.2598 388.889 40.7129 389.104 40.2129C389.318 39.709 389.629 39.3203 390.035 39.0469C390.445 38.7734 390.926 38.6367 391.477 38.6367C392.211 38.6367 392.816 38.9336 393.293 39.5273V38.7773H394.266V44.1562C394.266 45.125 394.166 45.8105 393.967 46.2129C393.771 46.6191 393.459 46.9395 393.029 47.1738C392.604 47.4082 392.078 47.5254 391.453 47.5254C390.711 47.5254 390.111 47.3574 389.654 47.0215C389.197 46.6895 388.977 46.1875 388.992 45.5156ZM389.865 41.7773C389.865 42.5938 390.027 43.1895 390.352 43.5645C390.676 43.9395 391.082 44.127 391.57 44.127C392.055 44.127 392.461 43.9414 392.789 43.5703C393.117 43.1953 393.281 42.6094 393.281 41.8125C393.281 41.0508 393.111 40.4766 392.771 40.0898C392.436 39.7031 392.029 39.5098 391.553 39.5098C391.084 39.5098 390.686 39.7012 390.357 40.084C390.029 40.4629 389.865 41.0273 389.865 41.7773ZM395.865 45V36.4102H396.92V39.4922C397.412 38.9219 398.033 38.6367 398.783 38.6367C399.244 38.6367 399.645 38.7285 399.984 38.9121C400.324 39.0918 400.566 39.3418 400.711 39.6621C400.859 39.9824 400.934 40.4473 400.934 41.0566V45H399.879V41.0566C399.879 40.5293 399.764 40.1465 399.533 39.9082C399.307 39.666 398.984 39.5449 398.566 39.5449C398.254 39.5449 397.959 39.627 397.682 39.791C397.408 39.9512 397.213 40.1699 397.096 40.4473C396.979 40.7246 396.92 41.1074 396.92 41.5957V45H395.865ZM404.848 44.0566L405 44.9883C404.703 45.0508 404.438 45.082 404.203 45.082C403.82 45.082 403.523 45.0215 403.312 44.9004C403.102 44.7793 402.953 44.6211 402.867 44.4258C402.781 44.2266 402.738 43.8105 402.738 43.1777V39.5977H401.965V38.7773H402.738V37.2363L403.787 36.6035V38.7773H404.848V39.5977H403.787V43.2363C403.787 43.5371 403.805 43.7305 403.84 43.8164C403.879 43.9023 403.939 43.9707 404.021 44.0215C404.107 44.0723 404.229 44.0977 404.385 44.0977C404.502 44.0977 404.656 44.084 404.848 44.0566Z" fill="#495057"/>
<path d="M414.043 41C414.043 44.3137 416.729 47 420.043 47C423.357 47 426.043 44.3137 426.043 41C426.043 37.6863 423.357 35 420.043 35C416.729 35 414.043 37.6863 414.043 41Z" fill="#339AF0"/>
<path d="M434.582 42.2402L435.654 42.1465C435.705 42.5762 435.822 42.9297 436.006 43.207C436.193 43.4805 436.482 43.7031 436.873 43.875C437.264 44.043 437.703 44.127 438.191 44.127C438.625 44.127 439.008 44.0625 439.34 43.9336C439.672 43.8047 439.918 43.6289 440.078 43.4062C440.242 43.1797 440.324 42.9336 440.324 42.668C440.324 42.3984 440.246 42.1641 440.09 41.9648C439.934 41.7617 439.676 41.5918 439.316 41.4551C439.086 41.3652 438.576 41.2266 437.787 41.0391C436.998 40.8477 436.445 40.668 436.129 40.5C435.719 40.2852 435.412 40.0195 435.209 39.7031C435.01 39.3828 434.91 39.0254 434.91 38.6309C434.91 38.1973 435.033 37.793 435.279 37.418C435.525 37.0391 435.885 36.752 436.357 36.5566C436.83 36.3613 437.355 36.2637 437.934 36.2637C438.57 36.2637 439.131 36.3672 439.615 36.5742C440.104 36.7773 440.479 37.0781 440.74 37.4766C441.002 37.875 441.143 38.3262 441.162 38.8301L440.072 38.9121C440.014 38.3691 439.814 37.959 439.475 37.6816C439.139 37.4043 438.641 37.2656 437.98 37.2656C437.293 37.2656 436.791 37.3926 436.475 37.6465C436.162 37.8965 436.006 38.1992 436.006 38.5547C436.006 38.8633 436.117 39.1172 436.34 39.3164C436.559 39.5156 437.129 39.7207 438.051 39.9316C438.977 40.1387 439.611 40.3203 439.955 40.4766C440.455 40.707 440.824 41 441.062 41.3555C441.301 41.707 441.42 42.1133 441.42 42.5742C441.42 43.0312 441.289 43.4629 441.027 43.8691C440.766 44.2715 440.389 44.5859 439.896 44.8125C439.408 45.0352 438.857 45.1465 438.244 45.1465C437.467 45.1465 436.814 45.0332 436.287 44.8066C435.764 44.5801 435.352 44.2402 435.051 43.7871C434.754 43.3301 434.598 42.8145 434.582 42.2402ZM442.445 41.8887C442.445 40.7363 442.766 39.8828 443.406 39.3281C443.941 38.8672 444.594 38.6367 445.363 38.6367C446.219 38.6367 446.918 38.918 447.461 39.4805C448.004 40.0391 448.275 40.8125 448.275 41.8008C448.275 42.6016 448.154 43.2324 447.912 43.6934C447.674 44.1504 447.324 44.5059 446.863 44.7598C446.406 45.0137 445.906 45.1406 445.363 45.1406C444.492 45.1406 443.787 44.8613 443.248 44.3027C442.713 43.7441 442.445 42.9395 442.445 41.8887ZM443.529 41.8887C443.529 42.6855 443.703 43.2832 444.051 43.6816C444.398 44.0762 444.836 44.2734 445.363 44.2734C445.887 44.2734 446.322 44.0742 446.67 43.6758C447.018 43.2773 447.191 42.6699 447.191 41.8535C447.191 41.084 447.016 40.502 446.664 40.1074C446.316 39.709 445.883 39.5098 445.363 39.5098C444.836 39.5098 444.398 39.707 444.051 40.1016C443.703 40.4961 443.529 41.0918 443.529 41.8887ZM453.596 45V44.0859C453.111 44.7891 452.453 45.1406 451.621 45.1406C451.254 45.1406 450.91 45.0703 450.59 44.9297C450.273 44.7891 450.037 44.6133 449.881 44.4023C449.729 44.1875 449.621 43.9258 449.559 43.6172C449.516 43.4102 449.494 43.082 449.494 42.6328V38.7773H450.549V42.2285C450.549 42.7793 450.57 43.1504 450.613 43.3418C450.68 43.6191 450.82 43.8379 451.035 43.998C451.25 44.1543 451.516 44.2324 451.832 44.2324C452.148 44.2324 452.445 44.1523 452.723 43.9922C453 43.8281 453.195 43.6074 453.309 43.3301C453.426 43.0488 453.484 42.6426 453.484 42.1113V38.7773H454.539V45H453.596ZM456.197 45V38.7773H457.146V39.6621C457.604 38.9785 458.264 38.6367 459.127 38.6367C459.502 38.6367 459.846 38.7051 460.158 38.8418C460.475 38.9746 460.711 39.1504 460.867 39.3691C461.023 39.5879 461.133 39.8477 461.195 40.1484C461.234 40.3438 461.254 40.6855 461.254 41.1738V45H460.199V41.2148C460.199 40.7852 460.158 40.4648 460.076 40.2539C459.994 40.0391 459.848 39.8691 459.637 39.7441C459.43 39.6152 459.186 39.5508 458.904 39.5508C458.455 39.5508 458.066 39.6934 457.738 39.9785C457.414 40.2637 457.252 40.8047 457.252 41.6016V45H456.197ZM466.914 45V44.2148C466.52 44.832 465.939 45.1406 465.174 45.1406C464.678 45.1406 464.221 45.0039 463.803 44.7305C463.389 44.457 463.066 44.0762 462.836 43.5879C462.609 43.0957 462.496 42.5312 462.496 41.8945C462.496 41.2734 462.6 40.7109 462.807 40.207C463.014 39.6992 463.324 39.3105 463.738 39.041C464.152 38.7715 464.615 38.6367 465.127 38.6367C465.502 38.6367 465.836 38.7168 466.129 38.877C466.422 39.0332 466.66 39.2383 466.844 39.4922V36.4102H467.893V45H466.914ZM463.58 41.8945C463.58 42.6914 463.748 43.2871 464.084 43.6816C464.42 44.0762 464.816 44.2734 465.273 44.2734C465.734 44.2734 466.125 44.0859 466.445 43.7109C466.77 43.332 466.932 42.7559 466.932 41.9824C466.932 41.1309 466.768 40.5059 466.439 40.1074C466.111 39.709 465.707 39.5098 465.227 39.5098C464.758 39.5098 464.365 39.7012 464.049 40.084C463.736 40.4668 463.58 41.0703 463.58 41.8945Z" fill="#495057"/>
</g>
<defs>
<clipPath id="clip0_154_540">
<rect width="500" height="350" fill="white"/>
</clipPath>
</defs>
</svg>
