<svg width="561" height="350" viewBox="0 0 561 350" fill="none" xmlns="http://www.w3.org/2000/svg">
<g clip-path="url(#clip0_208_542)">
<path d="M561 0H0V350H561V0Z" fill="#F7F7F7"/>
<path d="M79.1873 296.244C78.5453 296.244 77.9984 296.07 77.5467 295.72C77.095 295.368 76.7498 294.858 76.5112 294.19C76.2726 293.52 76.1532 292.71 76.1532 291.761C76.1532 290.818 76.2726 290.013 76.5112 289.345C76.7527 288.675 77.0993 288.163 77.551 287.811C78.0055 287.456 78.551 287.278 79.1873 287.278C79.8237 287.278 80.3677 287.456 80.8194 287.811C81.274 288.163 81.6206 288.675 81.8592 289.345C82.1007 290.013 82.2214 290.818 82.2214 291.761C82.2214 292.71 82.1021 293.52 81.8635 294.19C81.6248 294.858 81.2797 295.368 80.828 295.72C80.3763 296.07 79.8294 296.244 79.1873 296.244ZM79.1873 295.307C79.8237 295.307 80.318 295 80.6703 294.386C81.0226 293.773 81.1987 292.898 81.1987 291.761C81.1987 291.006 81.1177 290.362 80.9558 289.831C80.7967 289.3 80.5666 288.895 80.2655 288.616C79.9672 288.338 79.6078 288.199 79.1873 288.199C78.5567 288.199 78.0638 288.51 77.7086 289.132C77.3535 289.751 77.176 290.628 77.176 291.761C77.176 292.517 77.2555 293.159 77.4146 293.688C77.5737 294.216 77.8024 294.618 78.1007 294.893C78.4018 295.169 78.764 295.307 79.1873 295.307ZM88.2896 294.489V294.028C88.2896 293.71 88.355 293.419 88.4856 293.155C88.6192 292.888 88.8123 292.675 89.0652 292.516C89.3209 292.354 89.6305 292.273 89.9942 292.273C90.3635 292.273 90.6731 292.354 90.9231 292.516C91.1731 292.675 91.3621 292.888 91.4899 293.155C91.6177 293.419 91.6817 293.71 91.6817 294.028V294.489C91.6817 294.807 91.6163 295.099 91.4856 295.366C91.3578 295.631 91.1675 295.844 90.9146 296.006C90.6646 296.165 90.3578 296.244 89.9942 296.244C89.6248 296.244 89.3138 296.165 89.0609 296.006C88.8081 295.844 88.6163 295.631 88.4856 295.366C88.355 295.099 88.2896 294.807 88.2896 294.489ZM89.1589 294.028V294.489C89.1589 294.753 89.2214 294.99 89.3464 295.2C89.4714 295.408 89.6873 295.511 89.9942 295.511C90.2925 295.511 90.5027 295.408 90.6248 295.2C90.7498 294.99 90.8123 294.753 90.8123 294.489V294.028C90.8123 293.764 90.7527 293.528 90.6334 293.321C90.514 293.111 90.301 293.006 89.9942 293.006C89.6959 293.006 89.4814 293.111 89.3507 293.321C89.2228 293.528 89.1589 293.764 89.1589 294.028ZM83.943 289.494V289.034C83.943 288.716 84.0084 288.425 84.139 288.161C84.2726 287.893 84.4657 287.68 84.7186 287.521C84.9743 287.359 85.2839 287.278 85.6476 287.278C86.0169 287.278 86.3265 287.359 86.5765 287.521C86.8265 287.68 87.0155 287.893 87.1433 288.161C87.2711 288.425 87.3351 288.716 87.3351 289.034V289.494C87.3351 289.812 87.2697 290.105 87.139 290.372C87.0112 290.636 86.8209 290.849 86.568 291.011C86.318 291.17 86.0112 291.25 85.6476 291.25C85.2782 291.25 84.9672 291.17 84.7143 291.011C84.4615 290.849 84.2697 290.636 84.139 290.372C84.0084 290.105 83.943 289.812 83.943 289.494ZM84.8123 289.034V289.494C84.8123 289.759 84.8748 289.996 84.9998 290.206C85.1248 290.413 85.3407 290.517 85.6476 290.517C85.9459 290.517 86.1561 290.413 86.2782 290.206C86.4032 289.996 86.4657 289.759 86.4657 289.494V289.034C86.4657 288.77 86.4061 288.534 86.2868 288.327C86.1675 288.116 85.9544 288.011 85.6476 288.011C85.3493 288.011 85.1348 288.116 85.0041 288.327C84.8763 288.534 84.8123 288.77 84.8123 289.034ZM84.2669 296.125L90.2669 287.398H91.2385L85.2385 296.125H84.2669Z" fill="#495057"/>
<path d="M69.2744 243.625V242.858L72.1551 239.705C72.4931 239.335 72.7716 239.014 72.9903 238.741C73.2091 238.466 73.371 238.207 73.4761 237.966C73.5841 237.722 73.638 237.466 73.638 237.199C73.638 236.892 73.5642 236.626 73.4164 236.402C73.2716 236.178 73.0727 236.004 72.8199 235.882C72.567 235.76 72.2829 235.699 71.9676 235.699C71.6324 235.699 71.3397 235.768 71.0897 235.908C70.8426 236.044 70.6508 236.236 70.5145 236.483C70.3809 236.73 70.3142 237.02 70.3142 237.352H69.3085C69.3085 236.841 69.4264 236.392 69.6622 236.006C69.898 235.619 70.219 235.318 70.6252 235.102C71.0343 234.886 71.4931 234.778 72.0017 234.778C72.513 234.778 72.9662 234.886 73.361 235.102C73.7559 235.318 74.0656 235.609 74.29 235.976C74.5145 236.342 74.6267 236.75 74.6267 237.199C74.6267 237.52 74.5684 237.834 74.452 238.141C74.3383 238.445 74.1395 238.784 73.8554 239.159C73.5741 239.531 73.1835 239.986 72.6835 240.523L70.7233 242.619V242.688H74.7801V243.625H69.2744ZM79.2673 243.744C78.7673 243.744 78.317 243.645 77.9164 243.446C77.5159 243.247 77.1949 242.974 76.9534 242.628C76.7119 242.281 76.5798 241.886 76.5571 241.443H77.5798C77.6196 241.838 77.7985 242.165 78.1167 242.423C78.4377 242.679 78.8213 242.807 79.2673 242.807C79.6252 242.807 79.9434 242.723 80.2218 242.555C80.5031 242.388 80.7233 242.158 80.8824 241.865C81.0443 241.57 81.1252 241.236 81.1252 240.864C81.1252 240.483 81.0414 240.143 80.8738 239.845C80.7091 239.544 80.4818 239.307 80.192 239.134C79.9022 238.96 79.5713 238.872 79.1991 238.869C78.9321 238.866 78.6579 238.908 78.3767 238.993C78.0954 239.075 77.8639 239.182 77.6821 239.312L76.6934 239.193L77.2218 234.898H81.7559V235.835H78.1082L77.8014 238.409H77.8525C78.0315 238.267 78.2559 238.149 78.5258 238.055C78.7957 237.962 79.077 237.915 79.3696 237.915C79.9037 237.915 80.3795 238.043 80.7971 238.298C81.2176 238.551 81.5471 238.898 81.7858 239.338C82.0272 239.778 82.148 240.281 82.148 240.847C82.148 241.403 82.023 241.901 81.773 242.338C81.5258 242.773 81.1849 243.116 80.7502 243.369C80.3156 243.619 79.8213 243.744 79.2673 243.744ZM88.2897 241.989V241.528C88.2897 241.21 88.355 240.919 88.4857 240.655C88.6192 240.388 88.8124 240.175 89.0652 240.016C89.3209 239.854 89.6306 239.773 89.9942 239.773C90.3635 239.773 90.6732 239.854 90.9232 240.016C91.1732 240.175 91.3621 240.388 91.4899 240.655C91.6178 240.919 91.6817 241.21 91.6817 241.528V241.989C91.6817 242.307 91.6164 242.599 91.4857 242.866C91.3578 243.131 91.1675 243.344 90.9147 243.506C90.6647 243.665 90.3578 243.744 89.9942 243.744C89.6249 243.744 89.3138 243.665 89.061 243.506C88.8081 243.344 88.6164 243.131 88.4857 242.866C88.355 242.599 88.2897 242.307 88.2897 241.989ZM89.159 241.528V241.989C89.159 242.253 89.2215 242.49 89.3465 242.7C89.4715 242.908 89.6874 243.011 89.9942 243.011C90.2925 243.011 90.5027 242.908 90.6249 242.7C90.7499 242.49 90.8124 242.253 90.8124 241.989V241.528C90.8124 241.264 90.7527 241.028 90.6334 240.821C90.5141 240.611 90.301 240.506 89.9942 240.506C89.6959 240.506 89.4814 240.611 89.3507 240.821C89.2229 241.028 89.159 241.264 89.159 241.528ZM83.9431 236.994V236.534C83.9431 236.216 84.0084 235.925 84.1391 235.661C84.2726 235.393 84.4658 235.18 84.7186 235.021C84.9743 234.859 85.284 234.778 85.6476 234.778C86.0169 234.778 86.3266 234.859 86.5766 235.021C86.8266 235.18 87.0155 235.393 87.1434 235.661C87.2712 235.925 87.3351 236.216 87.3351 236.534V236.994C87.3351 237.312 87.2698 237.605 87.1391 237.872C87.0113 238.136 86.8209 238.349 86.5681 238.511C86.3181 238.67 86.0113 238.75 85.6476 238.75C85.2783 238.75 84.9672 238.67 84.7144 238.511C84.4615 238.349 84.2698 238.136 84.1391 237.872C84.0084 237.605 83.9431 237.312 83.9431 236.994ZM84.8124 236.534V236.994C84.8124 237.259 84.8749 237.496 84.9999 237.706C85.1249 237.913 85.3408 238.017 85.6476 238.017C85.9459 238.017 86.1561 237.913 86.2783 237.706C86.4033 237.496 86.4658 237.259 86.4658 236.994V236.534C86.4658 236.27 86.4061 236.034 86.2868 235.827C86.1675 235.616 85.9544 235.511 85.6476 235.511C85.3493 235.511 85.1348 235.616 85.0042 235.827C84.8763 236.034 84.8124 236.27 84.8124 236.534ZM84.2669 243.625L90.2669 234.898H91.2385L85.2385 243.625H84.2669Z" fill="#495057"/>
<path d="M71.7673 191.244C71.2673 191.244 70.817 191.145 70.4164 190.946C70.0159 190.747 69.6949 190.474 69.4534 190.128C69.2119 189.781 69.0798 189.386 69.0571 188.943H70.0798C70.1196 189.338 70.2985 189.665 70.6167 189.923C70.9377 190.179 71.3213 190.307 71.7673 190.307C72.1252 190.307 72.4434 190.223 72.7218 190.055C73.0031 189.888 73.2233 189.658 73.3824 189.365C73.5443 189.07 73.6252 188.736 73.6252 188.364C73.6252 187.983 73.5414 187.643 73.3738 187.345C73.2091 187.044 72.9818 186.807 72.692 186.634C72.4022 186.46 72.0713 186.372 71.6991 186.369C71.4321 186.366 71.1579 186.408 70.8767 186.493C70.5954 186.575 70.3639 186.682 70.1821 186.812L69.1934 186.693L69.7218 182.398H74.2559V183.335H70.6082L70.3014 185.909H70.3525C70.5315 185.767 70.7559 185.649 71.0258 185.555C71.2957 185.462 71.577 185.415 71.8696 185.415C72.4037 185.415 72.8795 185.543 73.2971 185.798C73.7176 186.051 74.0471 186.398 74.2858 186.838C74.5272 187.278 74.648 187.781 74.648 188.347C74.648 188.903 74.523 189.401 74.273 189.838C74.0258 190.273 73.6849 190.616 73.2502 190.869C72.8156 191.119 72.3213 191.244 71.7673 191.244ZM79.1874 191.244C78.5453 191.244 77.9985 191.07 77.5468 190.72C77.0951 190.368 76.7499 189.858 76.5113 189.19C76.2726 188.52 76.1533 187.71 76.1533 186.761C76.1533 185.818 76.2726 185.013 76.5113 184.345C76.7527 183.675 77.0993 183.163 77.551 182.811C78.0056 182.456 78.551 182.278 79.1874 182.278C79.8238 182.278 80.3678 182.456 80.8195 182.811C81.274 183.163 81.6206 183.675 81.8593 184.345C82.1007 185.013 82.2215 185.818 82.2215 186.761C82.2215 187.71 82.1022 188.52 81.8635 189.19C81.6249 189.858 81.2797 190.368 80.828 190.72C80.3763 191.07 79.8294 191.244 79.1874 191.244ZM79.1874 190.307C79.8238 190.307 80.3181 190 80.6703 189.386C81.0226 188.773 81.1988 187.898 81.1988 186.761C81.1988 186.006 81.1178 185.362 80.9559 184.831C80.7968 184.3 80.5667 183.895 80.2655 183.616C79.9672 183.338 79.6078 183.199 79.1874 183.199C78.5567 183.199 78.0638 183.51 77.7087 184.132C77.3536 184.751 77.176 185.628 77.176 186.761C77.176 187.517 77.2556 188.159 77.4147 188.688C77.5738 189.216 77.8025 189.618 78.1007 189.893C78.4019 190.169 78.7641 190.307 79.1874 190.307ZM88.2897 189.489V189.028C88.2897 188.71 88.355 188.419 88.4857 188.155C88.6192 187.888 88.8124 187.675 89.0652 187.516C89.3209 187.354 89.6306 187.273 89.9942 187.273C90.3635 187.273 90.6732 187.354 90.9232 187.516C91.1732 187.675 91.3621 187.888 91.4899 188.155C91.6178 188.419 91.6817 188.71 91.6817 189.028V189.489C91.6817 189.807 91.6164 190.099 91.4857 190.366C91.3578 190.631 91.1675 190.844 90.9147 191.006C90.6647 191.165 90.3578 191.244 89.9942 191.244C89.6249 191.244 89.3138 191.165 89.061 191.006C88.8081 190.844 88.6164 190.631 88.4857 190.366C88.355 190.099 88.2897 189.807 88.2897 189.489ZM89.159 189.028V189.489C89.159 189.753 89.2215 189.99 89.3465 190.2C89.4715 190.408 89.6874 190.511 89.9942 190.511C90.2925 190.511 90.5027 190.408 90.6249 190.2C90.7499 189.99 90.8124 189.753 90.8124 189.489V189.028C90.8124 188.764 90.7527 188.528 90.6334 188.321C90.5141 188.111 90.301 188.006 89.9942 188.006C89.6959 188.006 89.4814 188.111 89.3507 188.321C89.2229 188.528 89.159 188.764 89.159 189.028ZM83.9431 184.494V184.034C83.9431 183.716 84.0084 183.425 84.1391 183.161C84.2726 182.893 84.4658 182.68 84.7186 182.521C84.9743 182.359 85.284 182.278 85.6476 182.278C86.0169 182.278 86.3266 182.359 86.5766 182.521C86.8266 182.68 87.0155 182.893 87.1434 183.161C87.2712 183.425 87.3351 183.716 87.3351 184.034V184.494C87.3351 184.812 87.2698 185.105 87.1391 185.372C87.0113 185.636 86.8209 185.849 86.5681 186.011C86.3181 186.17 86.0113 186.25 85.6476 186.25C85.2783 186.25 84.9672 186.17 84.7144 186.011C84.4615 185.849 84.2698 185.636 84.1391 185.372C84.0084 185.105 83.9431 184.812 83.9431 184.494ZM84.8124 184.034V184.494C84.8124 184.759 84.8749 184.996 84.9999 185.206C85.1249 185.413 85.3408 185.517 85.6476 185.517C85.9459 185.517 86.1561 185.413 86.2783 185.206C86.4033 184.996 86.4658 184.759 86.4658 184.494V184.034C86.4658 183.77 86.4061 183.534 86.2868 183.327C86.1675 183.116 85.9544 183.011 85.6476 183.011C85.3493 183.011 85.1348 183.116 85.0042 183.327C84.8763 183.534 84.8124 183.77 84.8124 184.034ZM84.2669 191.125L90.2669 182.398H91.2385L85.2385 191.125H84.2669Z" fill="#495057"/>
<path d="M69.9456 138.625L73.849 130.903V130.835H69.349V129.898H74.9399V130.886L71.0535 138.625H69.9456ZM79.1874 138.744C78.5453 138.744 77.9985 138.57 77.5468 138.22C77.0951 137.868 76.7499 137.358 76.5113 136.69C76.2726 136.02 76.1533 135.21 76.1533 134.261C76.1533 133.318 76.2726 132.513 76.5113 131.845C76.7527 131.175 77.0993 130.663 77.551 130.311C78.0056 129.956 78.551 129.778 79.1874 129.778C79.8238 129.778 80.3678 129.956 80.8195 130.311C81.274 130.663 81.6206 131.175 81.8593 131.845C82.1007 132.513 82.2215 133.318 82.2215 134.261C82.2215 135.21 82.1022 136.02 81.8635 136.69C81.6249 137.358 81.2797 137.868 80.828 138.22C80.3763 138.57 79.8294 138.744 79.1874 138.744ZM79.1874 137.807C79.8238 137.807 80.3181 137.5 80.6703 136.886C81.0226 136.273 81.1988 135.398 81.1988 134.261C81.1988 133.506 81.1178 132.862 80.9559 132.331C80.7968 131.8 80.5667 131.395 80.2655 131.116C79.9672 130.838 79.6078 130.699 79.1874 130.699C78.5567 130.699 78.0638 131.01 77.7087 131.632C77.3536 132.251 77.176 133.128 77.176 134.261C77.176 135.017 77.2556 135.659 77.4147 136.188C77.5738 136.716 77.8025 137.118 78.1007 137.393C78.4019 137.669 78.7641 137.807 79.1874 137.807ZM88.2897 136.989V136.528C88.2897 136.21 88.355 135.919 88.4857 135.655C88.6192 135.388 88.8124 135.175 89.0652 135.016C89.3209 134.854 89.6306 134.773 89.9942 134.773C90.3635 134.773 90.6732 134.854 90.9232 135.016C91.1732 135.175 91.3621 135.388 91.4899 135.655C91.6178 135.919 91.6817 136.21 91.6817 136.528V136.989C91.6817 137.307 91.6164 137.599 91.4857 137.866C91.3578 138.131 91.1675 138.344 90.9147 138.506C90.6647 138.665 90.3578 138.744 89.9942 138.744C89.6249 138.744 89.3138 138.665 89.061 138.506C88.8081 138.344 88.6164 138.131 88.4857 137.866C88.355 137.599 88.2897 137.307 88.2897 136.989ZM89.159 136.528V136.989C89.159 137.253 89.2215 137.49 89.3465 137.7C89.4715 137.908 89.6874 138.011 89.9942 138.011C90.2925 138.011 90.5027 137.908 90.6249 137.7C90.7499 137.49 90.8124 137.253 90.8124 136.989V136.528C90.8124 136.264 90.7527 136.028 90.6334 135.821C90.5141 135.611 90.301 135.506 89.9942 135.506C89.6959 135.506 89.4814 135.611 89.3507 135.821C89.2229 136.028 89.159 136.264 89.159 136.528ZM83.9431 131.994V131.534C83.9431 131.216 84.0084 130.925 84.1391 130.661C84.2726 130.393 84.4658 130.18 84.7186 130.021C84.9743 129.859 85.284 129.778 85.6476 129.778C86.0169 129.778 86.3266 129.859 86.5766 130.021C86.8266 130.18 87.0155 130.393 87.1434 130.661C87.2712 130.925 87.3351 131.216 87.3351 131.534V131.994C87.3351 132.312 87.2698 132.605 87.1391 132.872C87.0113 133.136 86.8209 133.349 86.5681 133.511C86.3181 133.67 86.0113 133.75 85.6476 133.75C85.2783 133.75 84.9672 133.67 84.7144 133.511C84.4615 133.349 84.2698 133.136 84.1391 132.872C84.0084 132.605 83.9431 132.312 83.9431 131.994ZM84.8124 131.534V131.994C84.8124 132.259 84.8749 132.496 84.9999 132.706C85.1249 132.913 85.3408 133.017 85.6476 133.017C85.9459 133.017 86.1561 132.913 86.2783 132.706C86.4033 132.496 86.4658 132.259 86.4658 131.994V131.534C86.4658 131.27 86.4061 131.034 86.2868 130.827C86.1675 130.616 85.9544 130.511 85.6476 130.511C85.3493 130.511 85.1348 130.616 85.0042 130.827C84.8763 131.034 84.8124 131.27 84.8124 131.534ZM84.2669 138.625L90.2669 129.898H91.2385L85.2385 138.625H84.2669Z" fill="#495057"/>
<path d="M66.331 77.3977V86.125H65.2741V78.5057H65.223L63.0923 79.9205V78.8466L65.2741 77.3977H66.331ZM71.6875 86.2443C71.0455 86.2443 70.4986 86.0696 70.0469 85.7202C69.5952 85.3679 69.25 84.858 69.0114 84.1903C68.7727 83.5199 68.6534 82.7102 68.6534 81.7614C68.6534 80.8182 68.7727 80.0128 69.0114 79.3452C69.2528 78.6747 69.5994 78.1634 70.0511 77.8111C70.5057 77.456 71.0511 77.2784 71.6875 77.2784C72.3239 77.2784 72.8679 77.456 73.3196 77.8111C73.7741 78.1634 74.1207 78.6747 74.3594 79.3452C74.6009 80.0128 74.7216 80.8182 74.7216 81.7614C74.7216 82.7102 74.6023 83.5199 74.3636 84.1903C74.125 84.858 73.7798 85.3679 73.3281 85.7202C72.8764 86.0696 72.3295 86.2443 71.6875 86.2443ZM71.6875 85.3068C72.3239 85.3068 72.8182 85 73.1705 84.3864C73.5227 83.7727 73.6989 82.8977 73.6989 81.7614C73.6989 81.0057 73.6179 80.3622 73.456 79.831C73.2969 79.2997 73.0668 78.8949 72.7656 78.6165C72.4673 78.3381 72.108 78.1989 71.6875 78.1989C71.0568 78.1989 70.5639 78.5099 70.2088 79.1321C69.8537 79.7514 69.6761 80.6278 69.6761 81.7614C69.6761 82.517 69.7557 83.1591 69.9148 83.6875C70.0739 84.2159 70.3026 84.6179 70.6009 84.8935C70.902 85.169 71.2642 85.3068 71.6875 85.3068ZM79.1875 86.2443C78.5455 86.2443 77.9986 86.0696 77.5469 85.7202C77.0952 85.3679 76.75 84.858 76.5114 84.1903C76.2727 83.5199 76.1534 82.7102 76.1534 81.7614C76.1534 80.8182 76.2727 80.0128 76.5114 79.3452C76.7528 78.6747 77.0994 78.1634 77.5511 77.8111C78.0057 77.456 78.5511 77.2784 79.1875 77.2784C79.8239 77.2784 80.3679 77.456 80.8196 77.8111C81.2741 78.1634 81.6207 78.6747 81.8594 79.3452C82.1009 80.0128 82.2216 80.8182 82.2216 81.7614C82.2216 82.7102 82.1023 83.5199 81.8636 84.1903C81.625 84.858 81.2798 85.3679 80.8281 85.7202C80.3764 86.0696 79.8295 86.2443 79.1875 86.2443ZM79.1875 85.3068C79.8239 85.3068 80.3182 85 80.6705 84.3864C81.0227 83.7727 81.1989 82.8977 81.1989 81.7614C81.1989 81.0057 81.1179 80.3622 80.956 79.831C80.7969 79.2997 80.5668 78.8949 80.2656 78.6165C79.9673 78.3381 79.608 78.1989 79.1875 78.1989C78.5568 78.1989 78.0639 78.5099 77.7088 79.1321C77.3537 79.7514 77.1761 80.6278 77.1761 81.7614C77.1761 82.517 77.2557 83.1591 77.4148 83.6875C77.5739 84.2159 77.8026 84.6179 78.1009 84.8935C78.402 85.169 78.7642 85.3068 79.1875 85.3068ZM88.2898 84.4886V84.0284C88.2898 83.7102 88.3551 83.419 88.4858 83.1548C88.6193 82.8878 88.8125 82.6747 89.0653 82.5156C89.321 82.3537 89.6307 82.2727 89.9943 82.2727C90.3636 82.2727 90.6733 82.3537 90.9233 82.5156C91.1733 82.6747 91.3622 82.8878 91.4901 83.1548C91.6179 83.419 91.6818 83.7102 91.6818 84.0284V84.4886C91.6818 84.8068 91.6165 85.0994 91.4858 85.3665C91.358 85.6307 91.1676 85.8437 90.9148 86.0057C90.6648 86.1648 90.358 86.2443 89.9943 86.2443C89.625 86.2443 89.3139 86.1648 89.0611 86.0057C88.8082 85.8437 88.6165 85.6307 88.4858 85.3665C88.3551 85.0994 88.2898 84.8068 88.2898 84.4886ZM89.1591 84.0284V84.4886C89.1591 84.7528 89.2216 84.9901 89.3466 85.2003C89.4716 85.4077 89.6875 85.5114 89.9943 85.5114C90.2926 85.5114 90.5028 85.4077 90.625 85.2003C90.75 84.9901 90.8125 84.7528 90.8125 84.4886V84.0284C90.8125 83.7642 90.7528 83.5284 90.6335 83.321C90.5142 83.1108 90.3011 83.0057 89.9943 83.0057C89.696 83.0057 89.4815 83.1108 89.3509 83.321C89.223 83.5284 89.1591 83.7642 89.1591 84.0284ZM83.9432 79.4943V79.0341C83.9432 78.7159 84.0085 78.4247 84.1392 78.1605C84.2727 77.8935 84.4659 77.6804 84.7188 77.5213C84.9744 77.3594 85.2841 77.2784 85.6477 77.2784C86.017 77.2784 86.3267 77.3594 86.5767 77.5213C86.8267 77.6804 87.0156 77.8935 87.1435 78.1605C87.2713 78.4247 87.3352 78.7159 87.3352 79.0341V79.4943C87.3352 79.8125 87.2699 80.1051 87.1392 80.3722C87.0114 80.6364 86.821 80.8494 86.5682 81.0114C86.3182 81.1705 86.0114 81.25 85.6477 81.25C85.2784 81.25 84.9673 81.1705 84.7145 81.0114C84.4616 80.8494 84.2699 80.6364 84.1392 80.3722C84.0085 80.1051 83.9432 79.8125 83.9432 79.4943ZM84.8125 79.0341V79.4943C84.8125 79.7585 84.875 79.9957 85 80.206C85.125 80.4134 85.3409 80.517 85.6477 80.517C85.946 80.517 86.1563 80.4134 86.2784 80.206C86.4034 79.9957 86.4659 79.7585 86.4659 79.4943V79.0341C86.4659 78.7699 86.4062 78.5341 86.2869 78.3267C86.1676 78.1165 85.9545 78.0114 85.6477 78.0114C85.3494 78.0114 85.1349 78.1165 85.0043 78.3267C84.8764 78.5341 84.8125 78.7699 84.8125 79.0341ZM84.267 86.125L90.267 77.3977H91.2386L85.2386 86.125H84.267Z" fill="#495057"/>
<path d="M109.911 315.168V316.105H106.093V315.168H109.911ZM114.731 311.273V320H113.675V312.381H113.623L111.493 313.795V312.722L113.675 311.273H114.731ZM120.088 320.119C119.446 320.119 118.899 319.945 118.447 319.595C117.996 319.243 117.65 318.733 117.412 318.065C117.173 317.395 117.054 316.585 117.054 315.636C117.054 314.693 117.173 313.888 117.412 313.22C117.653 312.55 118 312.038 118.452 311.686C118.906 311.331 119.452 311.153 120.088 311.153C120.724 311.153 121.268 311.331 121.72 311.686C122.175 312.038 122.521 312.55 122.76 313.22C123.001 313.888 123.122 314.693 123.122 315.636C123.122 316.585 123.003 317.395 122.764 318.065C122.525 318.733 122.18 319.243 121.729 319.595C121.277 319.945 120.73 320.119 120.088 320.119ZM120.088 319.182C120.724 319.182 121.219 318.875 121.571 318.261C121.923 317.648 122.099 316.773 122.099 315.636C122.099 314.881 122.018 314.237 121.856 313.706C121.697 313.175 121.467 312.77 121.166 312.491C120.868 312.213 120.508 312.074 120.088 312.074C119.457 312.074 118.964 312.385 118.609 313.007C118.254 313.626 118.077 314.503 118.077 315.636C118.077 316.392 118.156 317.034 118.315 317.562C118.474 318.091 118.703 318.493 119.001 318.768C119.302 319.044 119.665 319.182 120.088 319.182ZM124.758 320V313.455H125.73V314.477H125.815C125.952 314.128 126.172 313.857 126.476 313.663C126.78 313.467 127.145 313.369 127.571 313.369C128.003 313.369 128.362 313.467 128.649 313.663C128.939 313.857 129.165 314.128 129.327 314.477H129.395C129.562 314.139 129.814 313.871 130.149 313.672C130.484 313.47 130.886 313.369 131.355 313.369C131.94 313.369 132.419 313.553 132.791 313.919C133.163 314.283 133.349 314.849 133.349 315.619V320H132.344V315.619C132.344 315.136 132.211 314.791 131.947 314.584C131.683 314.376 131.372 314.273 131.014 314.273C130.554 314.273 130.197 314.412 129.944 314.69C129.692 314.966 129.565 315.315 129.565 315.739V320H128.542V315.517C128.542 315.145 128.422 314.845 128.18 314.618C127.939 314.388 127.628 314.273 127.247 314.273C126.986 314.273 126.741 314.342 126.514 314.482C126.29 314.621 126.108 314.814 125.969 315.061C125.832 315.305 125.764 315.588 125.764 315.909V320H124.758ZM135.188 320V313.455H136.194V320H135.188ZM135.699 312.364C135.503 312.364 135.334 312.297 135.192 312.163C135.053 312.03 134.983 311.869 134.983 311.682C134.983 311.494 135.053 311.334 135.192 311.2C135.334 311.067 135.503 311 135.699 311C135.895 311 136.063 311.067 136.202 311.2C136.344 311.334 136.415 311.494 136.415 311.682C136.415 311.869 136.344 312.03 136.202 312.163C136.063 312.297 135.895 312.364 135.699 312.364ZM139.041 316.062V320H138.036V313.455H139.007V314.477H139.093C139.246 314.145 139.479 313.878 139.791 313.676C140.104 313.472 140.507 313.369 141.002 313.369C141.445 313.369 141.833 313.46 142.165 313.642C142.497 313.821 142.756 314.094 142.941 314.46C143.125 314.824 143.218 315.284 143.218 315.841V320H142.212V315.909C142.212 315.395 142.078 314.994 141.811 314.707C141.544 314.418 141.178 314.273 140.712 314.273C140.391 314.273 140.104 314.342 139.851 314.482C139.601 314.621 139.404 314.824 139.259 315.091C139.114 315.358 139.041 315.682 139.041 316.062Z" fill="#495057"/>
<path d="M196.469 315.168V316.105H192.651V315.168H196.469ZM198.225 320L202.128 312.278V312.21H197.628V311.273H203.219V312.261L199.333 320H198.225ZM204.825 320V313.455H205.796V314.477H205.882C206.018 314.128 206.238 313.857 206.542 313.663C206.846 313.467 207.211 313.369 207.637 313.369C208.069 313.369 208.428 313.467 208.715 313.663C209.005 313.857 209.231 314.128 209.393 314.477H209.461C209.629 314.139 209.88 313.871 210.215 313.672C210.551 313.47 210.953 313.369 211.421 313.369C212.007 313.369 212.485 313.553 212.857 313.919C213.23 314.283 213.416 314.849 213.416 315.619V320H212.41V315.619C212.41 315.136 212.278 314.791 212.014 314.584C211.749 314.376 211.438 314.273 211.08 314.273C210.62 314.273 210.264 314.412 210.011 314.69C209.758 314.966 209.632 315.315 209.632 315.739V320H208.609V315.517C208.609 315.145 208.488 314.845 208.247 314.618C208.005 314.388 207.694 314.273 207.313 314.273C207.052 314.273 206.808 314.342 206.58 314.482C206.356 314.621 206.174 314.814 206.035 315.061C205.899 315.305 205.83 315.588 205.83 315.909V320H204.825ZM215.254 320V313.455H216.26V320H215.254ZM215.766 312.364C215.57 312.364 215.401 312.297 215.259 312.163C215.119 312.03 215.05 311.869 215.05 311.682C215.05 311.494 215.119 311.334 215.259 311.2C215.401 311.067 215.57 311 215.766 311C215.962 311 216.129 311.067 216.269 311.2C216.411 311.334 216.482 311.494 216.482 311.682C216.482 311.869 216.411 312.03 216.269 312.163C216.129 312.297 215.962 312.364 215.766 312.364ZM219.108 316.062V320H218.102V313.455H219.074V314.477H219.159C219.312 314.145 219.545 313.878 219.858 313.676C220.17 313.472 220.574 313.369 221.068 313.369C221.511 313.369 221.899 313.46 222.231 313.642C222.564 313.821 222.822 314.094 223.007 314.46C223.192 314.824 223.284 315.284 223.284 315.841V320H222.278V315.909C222.278 315.395 222.145 314.994 221.878 314.707C221.611 314.418 221.244 314.273 220.778 314.273C220.457 314.273 220.17 314.342 219.917 314.482C219.667 314.621 219.47 314.824 219.325 315.091C219.18 315.358 219.108 315.682 219.108 316.062Z" fill="#495057"/>
<path d="M278.362 315.168V316.105H274.544V315.168H278.362ZM282.842 320.119C282.342 320.119 281.891 320.02 281.491 319.821C281.09 319.622 280.769 319.349 280.528 319.003C280.286 318.656 280.154 318.261 280.131 317.818H281.154C281.194 318.213 281.373 318.54 281.691 318.798C282.012 319.054 282.396 319.182 282.842 319.182C283.2 319.182 283.518 319.098 283.796 318.93C284.077 318.763 284.298 318.533 284.457 318.24C284.619 317.945 284.7 317.611 284.7 317.239C284.7 316.858 284.616 316.518 284.448 316.22C284.283 315.919 284.056 315.682 283.766 315.509C283.477 315.335 283.146 315.247 282.773 315.244C282.506 315.241 282.232 315.283 281.951 315.368C281.67 315.45 281.438 315.557 281.256 315.688L280.268 315.568L280.796 311.273H285.33V312.21H281.683L281.376 314.784H281.427C281.606 314.642 281.83 314.524 282.1 314.43C282.37 314.337 282.651 314.29 282.944 314.29C283.478 314.29 283.954 314.418 284.371 314.673C284.792 314.926 285.121 315.273 285.36 315.713C285.602 316.153 285.722 316.656 285.722 317.222C285.722 317.778 285.597 318.276 285.347 318.713C285.1 319.148 284.759 319.491 284.325 319.744C283.89 319.994 283.396 320.119 282.842 320.119ZM287.432 320V313.455H288.404V314.477H288.489C288.625 314.128 288.846 313.857 289.15 313.663C289.453 313.467 289.819 313.369 290.245 313.369C290.676 313.369 291.036 313.467 291.323 313.663C291.613 313.857 291.838 314.128 292 314.477H292.069C292.236 314.139 292.488 313.871 292.823 313.672C293.158 313.47 293.56 313.369 294.029 313.369C294.614 313.369 295.093 313.553 295.465 313.919C295.837 314.283 296.023 314.849 296.023 315.619V320H295.017V315.619C295.017 315.136 294.885 314.791 294.621 314.584C294.357 314.376 294.046 314.273 293.688 314.273C293.228 314.273 292.871 314.412 292.618 314.69C292.365 314.966 292.239 315.315 292.239 315.739V320H291.216V315.517C291.216 315.145 291.096 314.845 290.854 314.618C290.613 314.388 290.301 314.273 289.921 314.273C289.659 314.273 289.415 314.342 289.188 314.482C288.963 314.621 288.782 314.814 288.642 315.061C288.506 315.305 288.438 315.588 288.438 315.909V320H287.432ZM297.862 320V313.455H298.868V320H297.862ZM298.373 312.364C298.177 312.364 298.008 312.297 297.866 312.163C297.727 312.03 297.657 311.869 297.657 311.682C297.657 311.494 297.727 311.334 297.866 311.2C298.008 311.067 298.177 311 298.373 311C298.569 311 298.737 311.067 298.876 311.2C299.018 311.334 299.089 311.494 299.089 311.682C299.089 311.869 299.018 312.03 298.876 312.163C298.737 312.297 298.569 312.364 298.373 312.364ZM301.715 316.062V320H300.71V313.455H301.681V314.477H301.766C301.92 314.145 302.153 313.878 302.465 313.676C302.778 313.472 303.181 313.369 303.675 313.369C304.119 313.369 304.506 313.46 304.839 313.642C305.171 313.821 305.43 314.094 305.614 314.46C305.799 314.824 305.891 315.284 305.891 315.841V320H304.886V315.909C304.886 315.395 304.752 314.994 304.485 314.707C304.218 314.418 303.852 314.273 303.386 314.273C303.065 314.273 302.778 314.342 302.525 314.482C302.275 314.621 302.077 314.824 301.933 315.091C301.788 315.358 301.715 315.682 301.715 316.062Z" fill="#495057"/>
<path d="M361.835 315.168V316.105H358.016V315.168H361.835ZM363.177 320V319.233L366.058 316.08C366.396 315.71 366.674 315.389 366.893 315.116C367.112 314.841 367.273 314.582 367.379 314.341C367.487 314.097 367.54 313.841 367.54 313.574C367.54 313.267 367.467 313.001 367.319 312.777C367.174 312.553 366.975 312.379 366.722 312.257C366.469 312.135 366.185 312.074 365.87 312.074C365.535 312.074 365.242 312.143 364.992 312.283C364.745 312.419 364.553 312.611 364.417 312.858C364.283 313.105 364.217 313.395 364.217 313.727H363.211C363.211 313.216 363.329 312.767 363.565 312.381C363.8 311.994 364.121 311.693 364.528 311.477C364.937 311.261 365.396 311.153 365.904 311.153C366.415 311.153 366.869 311.261 367.263 311.477C367.658 311.693 367.968 311.984 368.192 312.351C368.417 312.717 368.529 313.125 368.529 313.574C368.529 313.895 368.471 314.209 368.354 314.516C368.241 314.82 368.042 315.159 367.758 315.534C367.477 315.906 367.086 316.361 366.586 316.898L364.626 318.994V319.062H368.683V320H363.177ZM370.46 320V313.455H371.431V314.477H371.516C371.653 314.128 371.873 313.857 372.177 313.663C372.481 313.467 372.846 313.369 373.272 313.369C373.704 313.369 374.063 313.467 374.35 313.663C374.64 313.857 374.866 314.128 375.028 314.477H375.096C375.263 314.139 375.515 313.871 375.85 313.672C376.185 313.47 376.587 313.369 377.056 313.369C377.641 313.369 378.12 313.553 378.492 313.919C378.864 314.283 379.05 314.849 379.05 315.619V320H378.045V315.619C378.045 315.136 377.913 314.791 377.648 314.584C377.384 314.376 377.073 314.273 376.715 314.273C376.255 314.273 375.898 314.412 375.646 314.69C375.393 314.966 375.266 315.315 375.266 315.739V320H374.244V315.517C374.244 315.145 374.123 314.845 373.881 314.618C373.64 314.388 373.329 314.273 372.948 314.273C372.687 314.273 372.442 314.342 372.215 314.482C371.991 314.621 371.809 314.814 371.67 315.061C371.533 315.305 371.465 315.588 371.465 315.909V320H370.46ZM380.889 320V313.455H381.895V320H380.889ZM381.401 312.364C381.205 312.364 381.036 312.297 380.893 312.163C380.754 312.03 380.685 311.869 380.685 311.682C380.685 311.494 380.754 311.334 380.893 311.2C381.036 311.067 381.205 311 381.401 311C381.597 311 381.764 311.067 381.903 311.2C382.045 311.334 382.116 311.494 382.116 311.682C382.116 311.869 382.045 312.03 381.903 312.163C381.764 312.297 381.597 312.364 381.401 312.364ZM384.743 316.062V320H383.737V313.455H384.708V314.477H384.794C384.947 314.145 385.18 313.878 385.493 313.676C385.805 313.472 386.208 313.369 386.703 313.369C387.146 313.369 387.534 313.46 387.866 313.642C388.199 313.821 388.457 314.094 388.642 314.46C388.826 314.824 388.919 315.284 388.919 315.841V320H387.913V315.909C387.913 315.395 387.779 314.994 387.512 314.707C387.245 314.418 386.879 314.273 386.413 314.273C386.092 314.273 385.805 314.342 385.552 314.482C385.302 314.621 385.105 314.824 384.96 315.091C384.815 315.358 384.743 315.682 384.743 316.062Z" fill="#495057"/>
<path d="M446.54 320L444.154 311.273H445.228L447.052 318.381H447.137L448.995 311.273H450.188L452.046 318.381H452.131L453.955 311.273H455.029L452.643 320H451.552L449.626 313.045H449.558L447.631 320H446.54ZM457.526 320.153C457.112 320.153 456.735 320.075 456.397 319.919C456.059 319.76 455.79 319.531 455.592 319.233C455.393 318.932 455.293 318.568 455.293 318.142C455.293 317.767 455.367 317.463 455.515 317.23C455.663 316.994 455.86 316.81 456.107 316.676C456.354 316.543 456.627 316.443 456.925 316.378C457.227 316.31 457.529 316.256 457.833 316.216C458.231 316.165 458.553 316.126 458.8 316.101C459.05 316.072 459.232 316.026 459.346 315.96C459.462 315.895 459.521 315.781 459.521 315.619V315.585C459.521 315.165 459.406 314.838 459.175 314.605C458.948 314.372 458.603 314.256 458.14 314.256C457.66 314.256 457.283 314.361 457.011 314.571C456.738 314.781 456.546 315.006 456.435 315.244L455.481 314.903C455.651 314.506 455.879 314.196 456.163 313.974C456.45 313.75 456.762 313.594 457.1 313.506C457.441 313.415 457.776 313.369 458.106 313.369C458.316 313.369 458.558 313.395 458.83 313.446C459.106 313.494 459.371 313.595 459.627 313.749C459.886 313.902 460.1 314.134 460.271 314.443C460.441 314.753 460.526 315.168 460.526 315.688V320H459.521V319.114H459.469C459.401 319.256 459.288 319.408 459.129 319.57C458.969 319.732 458.758 319.869 458.494 319.983C458.229 320.097 457.907 320.153 457.526 320.153ZM457.68 319.25C458.077 319.25 458.413 319.172 458.685 319.016C458.961 318.859 459.168 318.658 459.308 318.411C459.45 318.163 459.521 317.903 459.521 317.631V316.71C459.478 316.761 459.384 316.808 459.239 316.851C459.097 316.891 458.933 316.926 458.745 316.957C458.56 316.986 458.38 317.011 458.204 317.034C458.031 317.054 457.89 317.071 457.782 317.085C457.521 317.119 457.276 317.175 457.049 317.251C456.825 317.325 456.643 317.437 456.504 317.588C456.367 317.736 456.299 317.937 456.299 318.193C456.299 318.543 456.428 318.807 456.687 318.986C456.948 319.162 457.279 319.25 457.68 319.25ZM463.299 317.614L463.282 316.369H463.487L466.35 313.455H467.595L464.544 316.54H464.458L463.299 317.614ZM462.362 320V311.273H463.368V320H462.362ZM466.521 320L463.964 316.761L464.68 316.062L467.799 320H466.521ZM471.364 320.136C470.733 320.136 470.189 319.997 469.732 319.719C469.277 319.438 468.926 319.045 468.679 318.543C468.435 318.037 468.313 317.449 468.313 316.778C468.313 316.108 468.435 315.517 468.679 315.006C468.926 314.491 469.27 314.091 469.711 313.804C470.154 313.514 470.671 313.369 471.262 313.369C471.603 313.369 471.939 313.426 472.272 313.54C472.604 313.653 472.907 313.838 473.179 314.094C473.452 314.347 473.669 314.682 473.831 315.099C473.993 315.517 474.074 316.031 474.074 316.642V317.068H469.029V316.199H473.051C473.051 315.83 472.978 315.5 472.83 315.21C472.685 314.92 472.478 314.692 472.208 314.524C471.941 314.357 471.625 314.273 471.262 314.273C470.861 314.273 470.515 314.372 470.222 314.571C469.932 314.767 469.709 315.023 469.553 315.338C469.397 315.653 469.319 315.991 469.319 316.352V316.932C469.319 317.426 469.404 317.845 469.574 318.189C469.748 318.53 469.988 318.79 470.294 318.969C470.601 319.145 470.958 319.233 471.364 319.233C471.628 319.233 471.867 319.196 472.08 319.122C472.296 319.045 472.482 318.932 472.638 318.781C472.794 318.628 472.915 318.437 473 318.21L473.972 318.483C473.87 318.812 473.698 319.102 473.456 319.352C473.215 319.599 472.917 319.793 472.561 319.932C472.206 320.068 471.807 320.136 471.364 320.136ZM478.638 312.21V311.273H485.184V312.21H482.439V320H481.382V312.21H478.638ZM486.678 320V313.455H487.684V320H486.678ZM487.19 312.364C486.994 312.364 486.825 312.297 486.683 312.163C486.543 312.03 486.474 311.869 486.474 311.682C486.474 311.494 486.543 311.334 486.683 311.2C486.825 311.067 486.994 311 487.19 311C487.386 311 487.553 311.067 487.692 311.2C487.835 311.334 487.906 311.494 487.906 311.682C487.906 311.869 487.835 312.03 487.692 312.163C487.553 312.297 487.386 312.364 487.19 312.364ZM489.526 320V313.455H490.498V314.477H490.583C490.719 314.128 490.939 313.857 491.243 313.663C491.547 313.467 491.912 313.369 492.338 313.369C492.77 313.369 493.13 313.467 493.417 313.663C493.706 313.857 493.932 314.128 494.094 314.477H494.162C494.33 314.139 494.581 313.871 494.917 313.672C495.252 313.47 495.654 313.369 496.123 313.369C496.708 313.369 497.186 313.553 497.559 313.919C497.931 314.283 498.117 314.849 498.117 315.619V320H497.111V315.619C497.111 315.136 496.979 314.791 496.715 314.584C496.451 314.376 496.14 314.273 495.782 314.273C495.321 314.273 494.965 314.412 494.712 314.69C494.459 314.966 494.333 315.315 494.333 315.739V320H493.31V315.517C493.31 315.145 493.189 314.845 492.948 314.618C492.706 314.388 492.395 314.273 492.015 314.273C491.753 314.273 491.509 314.342 491.282 314.482C491.057 314.621 490.875 314.814 490.736 315.061C490.6 315.305 490.532 315.588 490.532 315.909V320H489.526ZM502.7 320.136C502.069 320.136 501.525 319.997 501.068 319.719C500.613 319.438 500.262 319.045 500.015 318.543C499.771 318.037 499.649 317.449 499.649 316.778C499.649 316.108 499.771 315.517 500.015 315.006C500.262 314.491 500.606 314.091 501.047 313.804C501.49 313.514 502.007 313.369 502.598 313.369C502.939 313.369 503.275 313.426 503.608 313.54C503.94 313.653 504.243 313.838 504.515 314.094C504.788 314.347 505.005 314.682 505.167 315.099C505.329 315.517 505.41 316.031 505.41 316.642V317.068H500.365V316.199H504.387C504.387 315.83 504.314 315.5 504.166 315.21C504.021 314.92 503.814 314.692 503.544 314.524C503.277 314.357 502.961 314.273 502.598 314.273C502.197 314.273 501.85 314.372 501.558 314.571C501.268 314.767 501.045 315.023 500.889 315.338C500.733 315.653 500.654 315.991 500.654 316.352V316.932C500.654 317.426 500.74 317.845 500.91 318.189C501.083 318.53 501.324 318.79 501.63 318.969C501.937 319.145 502.294 319.233 502.7 319.233C502.964 319.233 503.203 319.196 503.416 319.122C503.632 319.045 503.818 318.932 503.974 318.781C504.13 318.628 504.251 318.437 504.336 318.21L505.308 318.483C505.206 318.812 505.034 319.102 504.792 319.352C504.551 319.599 504.252 319.793 503.897 319.932C503.542 320.068 503.143 320.136 502.7 320.136Z" fill="#495057"/>
<path d="M64.3634 47H60.4202V35.3636H64.4429C65.5982 35.3636 66.5906 35.5966 67.4202 36.0625C68.2535 36.5246 68.8937 37.1894 69.3406 38.0568C69.7876 38.9242 70.0111 39.9621 70.0111 41.1705C70.0111 42.3826 69.7857 43.4242 69.335 44.2955C68.888 45.1667 68.2422 45.8352 67.3975 46.3011C66.5566 46.767 65.5452 47 64.3634 47ZM62.5281 45.1761H64.2611C65.0717 45.1761 65.7478 45.0284 66.2895 44.733C66.8312 44.4337 67.2384 43.9886 67.5111 43.3977C67.7838 42.803 67.9202 42.0606 67.9202 41.1705C67.9202 40.2803 67.7838 39.5417 67.5111 38.9545C67.2384 38.3636 66.835 37.9223 66.3009 37.6307C65.7706 37.3352 65.1115 37.1875 64.3236 37.1875H62.5281V45.1761ZM74.4344 47.1761C73.8814 47.1761 73.3833 47.0777 72.9401 46.8807C72.5007 46.6799 72.1522 46.3845 71.8946 45.9943C71.6408 45.6042 71.5139 45.1231 71.5139 44.5511C71.5139 44.0587 71.6048 43.6515 71.7867 43.3295C71.9685 43.0076 72.2166 42.75 72.531 42.5568C72.8454 42.3636 73.1995 42.2178 73.5935 42.1193C73.9912 42.017 74.4022 41.9432 74.8264 41.8977C75.3378 41.8447 75.7526 41.7973 76.0708 41.7557C76.3889 41.7102 76.62 41.642 76.7639 41.5511C76.9117 41.4564 76.9855 41.3106 76.9855 41.1136V41.0795C76.9855 40.6515 76.8586 40.3201 76.6048 40.0852C76.3511 39.8504 75.9855 39.733 75.5083 39.733C75.0045 39.733 74.6048 39.8428 74.3094 40.0625C74.0177 40.2822 73.8208 40.5417 73.7185 40.8409L71.798 40.5682C71.9495 40.0379 72.1995 39.5947 72.548 39.2386C72.8965 38.8788 73.3227 38.6098 73.8264 38.4318C74.3302 38.25 74.887 38.1591 75.4969 38.1591C75.9173 38.1591 76.3359 38.2083 76.7526 38.3068C77.1692 38.4053 77.5499 38.5682 77.8946 38.7955C78.2393 39.0189 78.5158 39.3239 78.7242 39.7102C78.9363 40.0966 79.0423 40.5795 79.0423 41.1591V47H77.0651V45.8011H76.9969C76.8719 46.0436 76.6958 46.2708 76.4685 46.483C76.245 46.6913 75.9628 46.8598 75.6219 46.9886C75.2848 47.1136 74.8889 47.1761 74.4344 47.1761ZM74.9685 45.6648C75.3814 45.6648 75.7393 45.5833 76.0423 45.4205C76.3454 45.2538 76.5783 45.0341 76.7412 44.7614C76.9079 44.4886 76.9912 44.1913 76.9912 43.8693V42.8409C76.9268 42.8939 76.817 42.9432 76.6617 42.9886C76.5102 43.0341 76.3397 43.0739 76.1503 43.108C75.9609 43.142 75.7734 43.1723 75.5878 43.1989C75.4022 43.2254 75.2412 43.2481 75.1048 43.267C74.798 43.3087 74.5234 43.3769 74.281 43.4716C74.0386 43.5663 73.8473 43.6989 73.7071 43.8693C73.567 44.036 73.4969 44.2519 73.4969 44.517C73.4969 44.8958 73.6352 45.1818 73.9117 45.375C74.1882 45.5682 74.5405 45.6648 74.9685 45.6648ZM82.9117 47L80.4458 38.2727H82.5423L84.0764 44.4091H84.156L85.7242 38.2727H87.798L89.3662 44.375H89.4514L90.9628 38.2727H93.0651L90.5935 47H88.4514L86.8151 41.1023H86.6958L85.0594 47H82.9117ZM96.558 41.8864V47H94.5012V38.2727H96.4671V39.7557H96.5693C96.7701 39.267 97.0902 38.8788 97.5296 38.5909C97.9727 38.303 98.5201 38.1591 99.1716 38.1591C99.7739 38.1591 100.299 38.2879 100.745 38.5455C101.196 38.803 101.545 39.1761 101.791 39.6648C102.041 40.1534 102.164 40.7462 102.16 41.4432V47H100.103V41.7614C100.103 41.178 99.9519 40.7216 99.6489 40.392C99.3496 40.0625 98.9349 39.8977 98.4046 39.8977C98.0447 39.8977 97.7246 39.9773 97.4443 40.1364C97.1678 40.2917 96.95 40.517 96.7909 40.8125C96.6356 41.108 96.558 41.4659 96.558 41.8864ZM108.53 47.2216C107.594 47.2216 106.791 46.9848 106.12 46.5114C105.454 46.0341 104.941 45.3466 104.581 44.4489C104.225 43.5473 104.047 42.4621 104.047 41.1932C104.05 39.9242 104.23 38.8447 104.586 37.9545C104.946 37.0606 105.459 36.3788 106.126 35.9091C106.797 35.4394 107.598 35.2045 108.53 35.2045C109.461 35.2045 110.263 35.4394 110.933 35.9091C111.603 36.3788 112.117 37.0606 112.473 37.9545C112.833 38.8485 113.013 39.928 113.013 41.1932C113.013 42.4659 112.833 43.553 112.473 44.4545C112.117 45.3523 111.603 46.0379 110.933 46.5114C110.266 46.9848 109.465 47.2216 108.53 47.2216ZM108.53 45.4432C109.257 45.4432 109.831 45.0852 110.251 44.3693C110.675 43.6496 110.888 42.5909 110.888 41.1932C110.888 40.2689 110.791 39.4924 110.598 38.8636C110.405 38.2348 110.132 37.7614 109.78 37.4432C109.427 37.1212 109.011 36.9602 108.53 36.9602C107.806 36.9602 107.234 37.3201 106.814 38.0398C106.393 38.7557 106.181 39.8068 106.177 41.1932C106.174 42.1212 106.266 42.9015 106.456 43.5341C106.649 44.1667 106.922 44.6439 107.274 44.9659C107.626 45.2841 108.045 45.4432 108.53 45.4432ZM119.201 47.2216C118.266 47.2216 117.463 46.9848 116.792 46.5114C116.126 46.0341 115.612 45.3466 115.253 44.4489C114.897 43.5473 114.718 42.4621 114.718 41.1932C114.722 39.9242 114.902 38.8447 115.258 37.9545C115.618 37.0606 116.131 36.3788 116.798 35.9091C117.468 35.4394 118.27 35.2045 119.201 35.2045C120.133 35.2045 120.934 35.4394 121.605 35.9091C122.275 36.3788 122.789 37.0606 123.145 37.9545C123.504 38.8485 123.684 39.928 123.684 41.1932C123.684 42.4659 123.504 43.553 123.145 44.4545C122.789 45.3523 122.275 46.0379 121.605 46.5114C120.938 46.9848 120.137 47.2216 119.201 47.2216ZM119.201 45.4432C119.929 45.4432 120.503 45.0852 120.923 44.3693C121.347 43.6496 121.559 42.5909 121.559 41.1932C121.559 40.2689 121.463 39.4924 121.27 38.8636C121.076 38.2348 120.804 37.7614 120.451 37.4432C120.099 37.1212 119.682 36.9602 119.201 36.9602C118.478 36.9602 117.906 37.3201 117.486 38.0398C117.065 38.7557 116.853 39.8068 116.849 41.1932C116.845 42.1212 116.938 42.9015 117.128 43.5341C117.321 44.1667 117.593 44.6439 117.946 44.9659C118.298 45.2841 118.717 45.4432 119.201 45.4432ZM139.217 35.3636V47H137.342L131.859 39.0739H131.763V47H129.655V35.3636H131.541L137.018 43.2955H137.12V35.3636H139.217ZM143.934 47.1761C143.381 47.1761 142.883 47.0777 142.44 46.8807C142.001 46.6799 141.652 46.3845 141.395 45.9943C141.141 45.6042 141.014 45.1231 141.014 44.5511C141.014 44.0587 141.105 43.6515 141.287 43.3295C141.468 43.0076 141.717 42.75 142.031 42.5568C142.345 42.3636 142.7 42.2178 143.093 42.1193C143.491 42.017 143.902 41.9432 144.326 41.8977C144.838 41.8447 145.253 41.7973 145.571 41.7557C145.889 41.7102 146.12 41.642 146.264 41.5511C146.412 41.4564 146.486 41.3106 146.486 41.1136V41.0795C146.486 40.6515 146.359 40.3201 146.105 40.0852C145.851 39.8504 145.486 39.733 145.008 39.733C144.504 39.733 144.105 39.8428 143.809 40.0625C143.518 40.2822 143.321 40.5417 143.218 40.8409L141.298 40.5682C141.45 40.0379 141.7 39.5947 142.048 39.2386C142.397 38.8788 142.823 38.6098 143.326 38.4318C143.83 38.25 144.387 38.1591 144.997 38.1591C145.417 38.1591 145.836 38.2083 146.253 38.3068C146.669 38.4053 147.05 38.5682 147.395 38.7955C147.739 39.0189 148.016 39.3239 148.224 39.7102C148.436 40.0966 148.542 40.5795 148.542 41.1591V47H146.565V45.8011H146.497C146.372 46.0436 146.196 46.2708 145.968 46.483C145.745 46.6913 145.463 46.8598 145.122 46.9886C144.785 47.1136 144.389 47.1761 143.934 47.1761ZM144.468 45.6648C144.881 45.6648 145.239 45.5833 145.542 45.4205C145.845 45.2538 146.078 45.0341 146.241 44.7614C146.408 44.4886 146.491 44.1913 146.491 43.8693V42.8409C146.427 42.8939 146.317 42.9432 146.162 42.9886C146.01 43.0341 145.84 43.0739 145.65 43.108C145.461 43.142 145.273 43.1723 145.088 43.1989C144.902 43.2254 144.741 43.2481 144.605 43.267C144.298 43.3087 144.023 43.3769 143.781 43.4716C143.539 43.5663 143.347 43.6989 143.207 43.8693C143.067 44.036 142.997 44.2519 142.997 44.517C142.997 44.8958 143.135 45.1818 143.412 45.375C143.688 45.5682 144.04 45.6648 144.468 45.6648ZM154.968 38.2727V39.8636H149.951V38.2727H154.968ZM151.19 36.1818H153.247V44.375C153.247 44.6515 153.289 44.8636 153.372 45.0114C153.459 45.1553 153.573 45.2538 153.713 45.3068C153.853 45.3598 154.008 45.3864 154.179 45.3864C154.307 45.3864 154.425 45.3769 154.531 45.358C154.641 45.339 154.724 45.322 154.781 45.3068L155.128 46.9148C155.018 46.9527 154.861 46.9943 154.656 47.0398C154.455 47.0852 154.209 47.1117 153.917 47.1193C153.402 47.1345 152.938 47.0568 152.525 46.8864C152.112 46.7121 151.785 46.4432 151.542 46.0795C151.304 45.7159 151.186 45.2614 151.19 44.7159V36.1818ZM162.251 43.3295V38.2727H164.308V47H162.314V45.4489H162.223C162.026 45.9375 161.702 46.3371 161.251 46.6477C160.804 46.9583 160.253 47.1136 159.598 47.1136C159.026 47.1136 158.52 46.9867 158.081 46.733C157.645 46.4754 157.304 46.1023 157.058 45.6136C156.812 45.1212 156.689 44.5265 156.689 43.8295V38.2727H158.745V43.5114C158.745 44.0644 158.897 44.5038 159.2 44.8295C159.503 45.1553 159.901 45.3182 160.393 45.3182C160.696 45.3182 160.99 45.2443 161.274 45.0966C161.558 44.9489 161.791 44.7292 161.973 44.4375C162.158 44.142 162.251 43.7727 162.251 43.3295ZM166.423 47V38.2727H168.417V39.7273H168.508C168.667 39.2235 168.94 38.8352 169.326 38.5625C169.717 38.286 170.162 38.1477 170.662 38.1477C170.775 38.1477 170.902 38.1534 171.042 38.1648C171.186 38.1723 171.306 38.1856 171.4 38.2045V40.0966C171.313 40.0663 171.175 40.0398 170.986 40.017C170.8 39.9905 170.62 39.9773 170.446 39.9773C170.071 39.9773 169.734 40.0587 169.434 40.2216C169.139 40.3807 168.906 40.6023 168.736 40.8864C168.565 41.1705 168.48 41.4981 168.48 41.8693V47H166.423ZM175.122 47.1761C174.569 47.1761 174.071 47.0777 173.628 46.8807C173.188 46.6799 172.84 46.3845 172.582 45.9943C172.328 45.6042 172.201 45.1231 172.201 44.5511C172.201 44.0587 172.292 43.6515 172.474 43.3295C172.656 43.0076 172.904 42.75 173.218 42.5568C173.533 42.3636 173.887 42.2178 174.281 42.1193C174.679 42.017 175.09 41.9432 175.514 41.8977C176.025 41.8447 176.44 41.7973 176.758 41.7557C177.076 41.7102 177.307 41.642 177.451 41.5511C177.599 41.4564 177.673 41.3106 177.673 41.1136V41.0795C177.673 40.6515 177.546 40.3201 177.292 40.0852C177.039 39.8504 176.673 39.733 176.196 39.733C175.692 39.733 175.292 39.8428 174.997 40.0625C174.705 40.2822 174.508 40.5417 174.406 40.8409L172.486 40.5682C172.637 40.0379 172.887 39.5947 173.236 39.2386C173.584 38.8788 174.01 38.6098 174.514 38.4318C175.018 38.25 175.575 38.1591 176.184 38.1591C176.605 38.1591 177.023 38.2083 177.44 38.3068C177.857 38.4053 178.237 38.5682 178.582 38.7955C178.927 39.0189 179.203 39.3239 179.412 39.7102C179.624 40.0966 179.73 40.5795 179.73 41.1591V47H177.753V45.8011H177.684C177.559 46.0436 177.383 46.2708 177.156 46.483C176.932 46.6913 176.65 46.8598 176.309 46.9886C175.972 47.1136 175.576 47.1761 175.122 47.1761ZM175.656 45.6648C176.069 45.6648 176.427 45.5833 176.73 45.4205C177.033 45.2538 177.266 45.0341 177.429 44.7614C177.595 44.4886 177.679 44.1913 177.679 43.8693V42.8409C177.614 42.8939 177.504 42.9432 177.349 42.9886C177.198 43.0341 177.027 43.0739 176.838 43.108C176.648 43.142 176.461 43.1723 176.275 43.1989C176.09 43.2254 175.929 43.2481 175.792 43.267C175.486 43.3087 175.211 43.3769 174.968 43.4716C174.726 43.5663 174.535 43.6989 174.395 43.8693C174.254 44.036 174.184 44.2519 174.184 44.517C174.184 44.8958 174.323 45.1818 174.599 45.375C174.876 45.5682 175.228 45.6648 175.656 45.6648ZM183.855 35.3636V47H181.798V35.3636H183.855ZM192.478 47L189.194 35.3636H191.461L193.558 43.9148H193.666L195.905 35.3636H197.967L200.211 43.9205H200.314L202.41 35.3636H204.677L201.393 47H199.314L196.984 38.8352H196.893L194.558 47H192.478ZM207.669 47.1761C207.116 47.1761 206.618 47.0777 206.174 46.8807C205.735 46.6799 205.387 46.3845 205.129 45.9943C204.875 45.6042 204.748 45.1231 204.748 44.5511C204.748 44.0587 204.839 43.6515 205.021 43.3295C205.203 43.0076 205.451 42.75 205.765 42.5568C206.08 42.3636 206.434 42.2178 206.828 42.1193C207.226 42.017 207.637 41.9432 208.061 41.8977C208.572 41.8447 208.987 41.7973 209.305 41.7557C209.623 41.7102 209.854 41.642 209.998 41.5511C210.146 41.4564 210.22 41.3106 210.22 41.1136V41.0795C210.22 40.6515 210.093 40.3201 209.839 40.0852C209.585 39.8504 209.22 39.733 208.743 39.733C208.239 39.733 207.839 39.8428 207.544 40.0625C207.252 40.2822 207.055 40.5417 206.953 40.8409L205.032 40.5682C205.184 40.0379 205.434 39.5947 205.782 39.2386C206.131 38.8788 206.557 38.6098 207.061 38.4318C207.565 38.25 208.121 38.1591 208.731 38.1591C209.152 38.1591 209.57 38.2083 209.987 38.3068C210.404 38.4053 210.784 38.5682 211.129 38.7955C211.474 39.0189 211.75 39.3239 211.959 39.7102C212.171 40.0966 212.277 40.5795 212.277 41.1591V47H210.299V45.8011H210.231C210.106 46.0436 209.93 46.2708 209.703 46.483C209.479 46.6913 209.197 46.8598 208.856 46.9886C208.519 47.1136 208.123 47.1761 207.669 47.1761ZM208.203 45.6648C208.616 45.6648 208.974 45.5833 209.277 45.4205C209.58 45.2538 209.813 45.0341 209.976 44.7614C210.142 44.4886 210.226 44.1913 210.226 43.8693V42.8409C210.161 42.8939 210.051 42.9432 209.896 42.9886C209.745 43.0341 209.574 43.0739 209.385 43.108C209.195 43.142 209.008 43.1723 208.822 43.1989C208.637 43.2254 208.476 43.2481 208.339 43.267C208.032 43.3087 207.758 43.3769 207.515 43.4716C207.273 43.5663 207.082 43.6989 206.941 43.8693C206.801 44.036 206.731 44.2519 206.731 44.517C206.731 44.8958 206.87 45.1818 207.146 45.375C207.423 45.5682 207.775 45.6648 208.203 45.6648ZM216.22 44.2614L216.214 41.7784H216.544L219.68 38.2727H222.084L218.226 42.5682H217.799L216.22 44.2614ZM214.345 47V35.3636H216.402V47H214.345ZM219.822 47L216.981 43.0284L218.368 41.5795L222.282 47H219.822ZM226.959 47.1705C226.084 47.1705 225.328 46.9886 224.691 46.625C224.059 46.2576 223.572 45.7386 223.231 45.0682C222.89 44.3939 222.72 43.6004 222.72 42.6875C222.72 41.7898 222.89 41.0019 223.231 40.3239C223.576 39.642 224.057 39.1117 224.674 38.733C225.292 38.3504 226.017 38.1591 226.851 38.1591C227.388 38.1591 227.896 38.2462 228.373 38.4205C228.854 38.5909 229.279 38.8561 229.646 39.2159C230.017 39.5758 230.309 40.0341 230.521 40.5909C230.733 41.1439 230.839 41.803 230.839 42.5682V43.1989H223.686V41.8125H228.868C228.864 41.4186 228.779 41.0682 228.612 40.7614C228.445 40.4508 228.212 40.2064 227.913 40.0284C227.618 39.8504 227.273 39.7614 226.879 39.7614C226.459 39.7614 226.089 39.8636 225.771 40.0682C225.453 40.2689 225.205 40.5341 225.027 40.8636C224.852 41.1894 224.763 41.5473 224.76 41.9375V43.1477C224.76 43.6553 224.852 44.0909 225.038 44.4545C225.224 44.8144 225.483 45.0909 225.816 45.2841C226.15 45.4735 226.54 45.5682 226.987 45.5682C227.286 45.5682 227.557 45.5265 227.799 45.4432C228.042 45.3561 228.252 45.2292 228.43 45.0625C228.608 44.8958 228.743 44.6894 228.834 44.4432L230.754 44.6591C230.633 45.1667 230.402 45.6098 230.061 45.9886C229.724 46.3636 229.292 46.6553 228.765 46.8636C228.239 47.0682 227.637 47.1705 226.959 47.1705ZM237.869 41.3068V43H232.63V41.3068H237.869ZM245.595 43.3295V38.2727H247.652V47H245.657V45.4489H245.566C245.37 45.9375 245.046 46.3371 244.595 46.6477C244.148 46.9583 243.597 47.1136 242.941 47.1136C242.37 47.1136 241.864 46.9867 241.424 46.733C240.989 46.4754 240.648 46.1023 240.402 45.6136C240.156 45.1212 240.032 44.5265 240.032 43.8295V38.2727H242.089V43.5114C242.089 44.0644 242.241 44.5038 242.544 44.8295C242.847 45.1553 243.245 45.3182 243.737 45.3182C244.04 45.3182 244.334 45.2443 244.618 45.0966C244.902 44.9489 245.135 44.7292 245.316 44.4375C245.502 44.142 245.595 43.7727 245.595 43.3295ZM249.767 50.2727V38.2727H251.79V39.7159H251.909C252.015 39.5038 252.165 39.2784 252.358 39.0398C252.551 38.7973 252.812 38.5909 253.142 38.4205C253.471 38.2462 253.892 38.1591 254.403 38.1591C255.077 38.1591 255.685 38.3314 256.227 38.6761C256.772 39.017 257.204 39.5227 257.522 40.1932C257.844 40.8598 258.005 41.678 258.005 42.6477C258.005 43.6061 257.848 44.4205 257.534 45.0909C257.219 45.7614 256.791 46.2727 256.25 46.625C255.708 46.9773 255.094 47.1534 254.409 47.1534C253.909 47.1534 253.494 47.0701 253.165 46.9034C252.835 46.7367 252.57 46.536 252.369 46.3011C252.172 46.0625 252.019 45.8371 251.909 45.625H251.824V50.2727H249.767ZM251.784 42.6364C251.784 43.2008 251.863 43.6951 252.022 44.1193C252.185 44.5436 252.418 44.875 252.721 45.1136C253.028 45.3485 253.399 45.4659 253.835 45.4659C254.29 45.4659 254.67 45.3447 254.977 45.1023C255.284 44.8561 255.515 44.5208 255.67 44.0966C255.829 43.6686 255.909 43.1818 255.909 42.6364C255.909 42.0947 255.831 41.6136 255.676 41.1932C255.521 40.7727 255.29 40.4432 254.983 40.2045C254.676 39.9659 254.293 39.8466 253.835 39.8466C253.396 39.8466 253.022 39.9621 252.716 40.1932C252.409 40.4242 252.176 40.7481 252.017 41.1648C251.861 41.5814 251.784 42.072 251.784 42.6364ZM263.826 47V35.3636H268.19C269.084 35.3636 269.834 35.5303 270.44 35.8636C271.05 36.197 271.51 36.6553 271.821 37.2386C272.135 37.8182 272.292 38.4773 272.292 39.2159C272.292 39.9621 272.135 40.625 271.821 41.2045C271.506 41.7841 271.042 42.2405 270.429 42.5739C269.815 42.9034 269.059 43.0682 268.162 43.0682H265.27V41.3352H267.878C268.4 41.3352 268.828 41.2443 269.162 41.0625C269.495 40.8807 269.741 40.6307 269.9 40.3125C270.063 39.9943 270.145 39.6288 270.145 39.2159C270.145 38.803 270.063 38.4394 269.9 38.125C269.741 37.8106 269.493 37.5663 269.156 37.392C268.823 37.214 268.393 37.125 267.866 37.125H265.934V47H263.826ZM274.032 47V38.2727H276.027V39.7273H276.118C276.277 39.2235 276.549 38.8352 276.936 38.5625C277.326 38.286 277.771 38.1477 278.271 38.1477C278.385 38.1477 278.512 38.1534 278.652 38.1648C278.796 38.1723 278.915 38.1856 279.01 38.2045V40.0966C278.923 40.0663 278.784 40.0398 278.595 40.017C278.409 39.9905 278.229 39.9773 278.055 39.9773C277.68 39.9773 277.343 40.0587 277.044 40.2216C276.748 40.3807 276.515 40.6023 276.345 40.8864C276.174 41.1705 276.089 41.4981 276.089 41.8693V47H274.032ZM283.824 47.1705C282.971 47.1705 282.233 46.983 281.608 46.608C280.983 46.233 280.498 45.7083 280.153 45.0341C279.812 44.3598 279.642 43.572 279.642 42.6705C279.642 41.7689 279.812 40.9792 280.153 40.3011C280.498 39.6231 280.983 39.0966 281.608 38.7216C282.233 38.3466 282.971 38.1591 283.824 38.1591C284.676 38.1591 285.415 38.3466 286.04 38.7216C286.665 39.0966 287.147 39.6231 287.488 40.3011C287.833 40.9792 288.005 41.7689 288.005 42.6705C288.005 43.572 287.833 44.3598 287.488 45.0341C287.147 45.7083 286.665 46.233 286.04 46.608C285.415 46.983 284.676 47.1705 283.824 47.1705ZM283.835 45.5227C284.297 45.5227 284.683 45.3958 284.994 45.142C285.305 44.8845 285.536 44.5398 285.687 44.108C285.843 43.6761 285.92 43.1951 285.92 42.6648C285.92 42.1307 285.843 41.6477 285.687 41.2159C285.536 40.7803 285.305 40.4337 284.994 40.1761C284.683 39.9186 284.297 39.7898 283.835 39.7898C283.361 39.7898 282.968 39.9186 282.653 40.1761C282.343 40.4337 282.11 40.7803 281.954 41.2159C281.803 41.6477 281.727 42.1307 281.727 42.6648C281.727 43.1951 281.803 43.6761 281.954 44.108C282.11 44.5398 282.343 44.8845 282.653 45.142C282.968 45.3958 283.361 45.5227 283.835 45.5227ZM293.547 50.4545C292.808 50.4545 292.174 50.3542 291.643 50.1534C291.113 49.9564 290.687 49.6913 290.365 49.358C290.043 49.0246 289.819 48.6553 289.694 48.25L291.547 47.8011C291.63 47.9716 291.751 48.1402 291.91 48.3068C292.069 48.4773 292.283 48.6174 292.552 48.7273C292.825 48.8409 293.168 48.8977 293.581 48.8977C294.164 48.8977 294.647 48.7557 295.03 48.4716C295.412 48.1913 295.603 47.7292 295.603 47.0852V45.4318H295.501C295.395 45.6439 295.24 45.8617 295.035 46.0852C294.834 46.3087 294.567 46.4962 294.234 46.6477C293.905 46.7992 293.49 46.875 292.99 46.875C292.319 46.875 291.711 46.7178 291.166 46.4034C290.624 46.0852 290.192 45.6117 289.87 44.983C289.552 44.3504 289.393 43.5587 289.393 42.608C289.393 41.6496 289.552 40.8409 289.87 40.1818C290.192 39.5189 290.626 39.017 291.172 38.6761C291.717 38.3314 292.325 38.1591 292.995 38.1591C293.507 38.1591 293.927 38.2462 294.257 38.4205C294.59 38.5909 294.855 38.7973 295.052 39.0398C295.249 39.2784 295.399 39.5038 295.501 39.7159H295.615V38.2727H297.643V47.142C297.643 47.8883 297.465 48.5057 297.109 48.9943C296.753 49.483 296.266 49.8485 295.649 50.0909C295.031 50.3333 294.331 50.4545 293.547 50.4545ZM293.564 45.2614C293.999 45.2614 294.37 45.1553 294.677 44.9432C294.984 44.7311 295.217 44.4261 295.376 44.0284C295.535 43.6307 295.615 43.1534 295.615 42.5966C295.615 42.0473 295.535 41.5663 295.376 41.1534C295.221 40.7405 294.99 40.4205 294.683 40.1932C294.38 39.9621 294.007 39.8466 293.564 39.8466C293.105 39.8466 292.723 39.9659 292.416 40.2045C292.109 40.4432 291.878 40.7708 291.723 41.1875C291.567 41.6004 291.49 42.0701 291.49 42.5966C291.49 43.1307 291.567 43.5985 291.723 44C291.882 44.3977 292.115 44.7083 292.422 44.9318C292.732 45.1515 293.113 45.2614 293.564 45.2614ZM299.751 47V38.2727H301.745V39.7273H301.836C301.995 39.2235 302.268 38.8352 302.655 38.5625C303.045 38.286 303.49 38.1477 303.99 38.1477C304.103 38.1477 304.23 38.1534 304.37 38.1648C304.514 38.1723 304.634 38.1856 304.728 38.2045V40.0966C304.641 40.0663 304.503 40.0398 304.314 40.017C304.128 39.9905 303.948 39.9773 303.774 39.9773C303.399 39.9773 303.062 40.0587 302.763 40.2216C302.467 40.3807 302.234 40.6023 302.064 40.8864C301.893 41.1705 301.808 41.4981 301.808 41.8693V47H299.751ZM309.599 47.1705C308.724 47.1705 307.968 46.9886 307.332 46.625C306.7 46.2576 306.213 45.7386 305.872 45.0682C305.531 44.3939 305.361 43.6004 305.361 42.6875C305.361 41.7898 305.531 41.0019 305.872 40.3239C306.217 39.642 306.698 39.1117 307.315 38.733C307.932 38.3504 308.658 38.1591 309.491 38.1591C310.029 38.1591 310.537 38.2462 311.014 38.4205C311.495 38.5909 311.919 38.8561 312.287 39.2159C312.658 39.5758 312.95 40.0341 313.162 40.5909C313.374 41.1439 313.48 41.803 313.48 42.5682V43.1989H306.326V41.8125H311.508C311.504 41.4186 311.419 41.0682 311.253 40.7614C311.086 40.4508 310.853 40.2064 310.554 40.0284C310.258 39.8504 309.914 39.7614 309.52 39.7614C309.099 39.7614 308.73 39.8636 308.412 40.0682C308.093 40.2689 307.845 40.5341 307.667 40.8636C307.493 41.1894 307.404 41.5473 307.4 41.9375V43.1477C307.4 43.6553 307.493 44.0909 307.679 44.4545C307.864 44.8144 308.124 45.0909 308.457 45.2841C308.79 45.4735 309.181 45.5682 309.628 45.5682C309.927 45.5682 310.198 45.5265 310.44 45.4432C310.682 45.3561 310.893 45.2292 311.071 45.0625C311.249 44.8958 311.383 44.6894 311.474 44.4432L313.395 44.6591C313.273 45.1667 313.042 45.6098 312.701 45.9886C312.364 46.3636 311.932 46.6553 311.406 46.8636C310.879 47.0682 310.277 47.1705 309.599 47.1705ZM322.118 40.5795L320.243 40.7841C320.19 40.5947 320.097 40.4167 319.964 40.25C319.835 40.0833 319.661 39.9489 319.441 39.8466C319.222 39.7443 318.953 39.6932 318.635 39.6932C318.207 39.6932 317.847 39.786 317.555 39.9716C317.267 40.1572 317.125 40.3977 317.129 40.6932C317.125 40.947 317.218 41.1534 317.407 41.3125C317.601 41.4716 317.919 41.6023 318.362 41.7045L319.851 42.0227C320.676 42.2008 321.29 42.483 321.691 42.8693C322.097 43.2557 322.301 43.7614 322.305 44.3864C322.301 44.9356 322.14 45.4205 321.822 45.8409C321.508 46.2576 321.07 46.5833 320.51 46.8182C319.949 47.053 319.305 47.1705 318.578 47.1705C317.51 47.1705 316.65 46.947 315.998 46.5C315.347 46.0492 314.959 45.4223 314.834 44.6193L316.839 44.4261C316.93 44.8201 317.123 45.1174 317.419 45.3182C317.714 45.5189 318.099 45.6193 318.572 45.6193C319.061 45.6193 319.453 45.5189 319.748 45.3182C320.048 45.1174 320.197 44.8693 320.197 44.5739C320.197 44.3239 320.101 44.1174 319.907 43.9545C319.718 43.7917 319.423 43.6667 319.021 43.5795L317.532 43.267C316.695 43.0928 316.076 42.7992 315.674 42.3864C315.273 41.9697 315.074 41.4432 315.078 40.8068C315.074 40.2689 315.22 39.803 315.515 39.4091C315.815 39.0114 316.229 38.7045 316.76 38.4886C317.294 38.2689 317.909 38.1591 318.606 38.1591C319.629 38.1591 320.434 38.3769 321.021 38.8125C321.612 39.2481 321.977 39.8371 322.118 40.5795ZM330.899 40.5795L329.024 40.7841C328.971 40.5947 328.878 40.4167 328.745 40.25C328.617 40.0833 328.442 39.9489 328.223 39.8466C328.003 39.7443 327.734 39.6932 327.416 39.6932C326.988 39.6932 326.628 39.786 326.336 39.9716C326.049 40.1572 325.906 40.3977 325.91 40.6932C325.906 40.947 325.999 41.1534 326.189 41.3125C326.382 41.4716 326.7 41.6023 327.143 41.7045L328.632 42.0227C329.458 42.2008 330.071 42.483 330.473 42.8693C330.878 43.2557 331.083 43.7614 331.086 44.3864C331.083 44.9356 330.922 45.4205 330.603 45.8409C330.289 46.2576 329.852 46.5833 329.291 46.8182C328.73 47.053 328.086 47.1705 327.359 47.1705C326.291 47.1705 325.431 46.947 324.78 46.5C324.128 46.0492 323.74 45.4223 323.615 44.6193L325.62 44.4261C325.711 44.8201 325.905 45.1174 326.2 45.3182C326.495 45.5189 326.88 45.6193 327.353 45.6193C327.842 45.6193 328.234 45.5189 328.53 45.3182C328.829 45.1174 328.978 44.8693 328.978 44.5739C328.978 44.3239 328.882 44.1174 328.689 43.9545C328.499 43.7917 328.204 43.6667 327.802 43.5795L326.314 43.267C325.477 43.0928 324.857 42.7992 324.456 42.3864C324.054 41.9697 323.855 41.4432 323.859 40.8068C323.855 40.2689 324.001 39.803 324.297 39.4091C324.596 39.0114 325.011 38.7045 325.541 38.4886C326.075 38.2689 326.691 38.1591 327.388 38.1591C328.41 38.1591 329.215 38.3769 329.802 38.8125C330.393 39.2481 330.759 39.8371 330.899 40.5795ZM332.782 47V38.2727H334.839V47H332.782ZM333.816 37.0341C333.491 37.0341 333.21 36.9261 332.976 36.7102C332.741 36.4905 332.623 36.2273 332.623 35.9205C332.623 35.6098 332.741 35.3466 332.976 35.1307C333.21 34.911 333.491 34.8011 333.816 34.8011C334.146 34.8011 334.426 34.911 334.657 35.1307C334.892 35.3466 335.01 35.6098 335.01 35.9205C335.01 36.2273 334.892 36.4905 334.657 36.7102C334.426 36.9261 334.146 37.0341 333.816 37.0341ZM340.761 47.1705C339.909 47.1705 339.17 46.983 338.545 46.608C337.92 46.233 337.435 45.7083 337.091 45.0341C336.75 44.3598 336.579 43.572 336.579 42.6705C336.579 41.7689 336.75 40.9792 337.091 40.3011C337.435 39.6231 337.92 39.0966 338.545 38.7216C339.17 38.3466 339.909 38.1591 340.761 38.1591C341.613 38.1591 342.352 38.3466 342.977 38.7216C343.602 39.0966 344.085 39.6231 344.426 40.3011C344.771 40.9792 344.943 41.7689 344.943 42.6705C344.943 43.572 344.771 44.3598 344.426 45.0341C344.085 45.7083 343.602 46.233 342.977 46.608C342.352 46.983 341.613 47.1705 340.761 47.1705ZM340.772 45.5227C341.235 45.5227 341.621 45.3958 341.932 45.142C342.242 44.8845 342.473 44.5398 342.625 44.108C342.78 43.6761 342.858 43.1951 342.858 42.6648C342.858 42.1307 342.78 41.6477 342.625 41.2159C342.473 40.7803 342.242 40.4337 341.932 40.1761C341.621 39.9186 341.235 39.7898 340.772 39.7898C340.299 39.7898 339.905 39.9186 339.591 40.1761C339.28 40.4337 339.047 40.7803 338.892 41.2159C338.74 41.6477 338.665 42.1307 338.665 42.6648C338.665 43.1951 338.74 43.6761 338.892 44.108C339.047 44.5398 339.28 44.8845 339.591 45.142C339.905 45.3958 340.299 45.5227 340.772 45.5227ZM348.745 41.8864V47H346.689V38.2727H348.655V39.7557H348.757C348.958 39.267 349.278 38.8788 349.717 38.5909C350.16 38.303 350.708 38.1591 351.359 38.1591C351.961 38.1591 352.486 38.2879 352.933 38.5455C353.384 38.803 353.732 39.1761 353.978 39.6648C354.228 40.1534 354.352 40.7462 354.348 41.4432V47H352.291V41.7614C352.291 41.178 352.139 40.7216 351.836 40.392C351.537 40.0625 351.122 39.8977 350.592 39.8977C350.232 39.8977 349.912 39.9773 349.632 40.1364C349.355 40.2917 349.138 40.517 348.978 40.8125C348.823 41.108 348.745 41.4659 348.745 41.8864Z" fill="#212529"/>
<path d="M112 84H504" stroke="#E9ECEF"/>
<path d="M112 136.5H504" stroke="#E9ECEF"/>
<path d="M112 189H504" stroke="#E9ECEF"/>
<path d="M112 241.5H504" stroke="#E9ECEF"/>
<path d="M112 294H504" stroke="#E9ECEF"/>
<path d="M112 277C163.169 243.597 225.641 201.44 301.729 163.859C379.003 125.694 436.331 108.575 504 84" stroke="#FFD43B" stroke-width="3" stroke-linecap="round"/>
<path d="M112 294C270.688 274.99 407.961 215.746 504 84" stroke="#339AF0" stroke-width="3" stroke-linecap="round"/>
<path d="M396.043 41C396.043 44.3137 398.729 47 402.043 47C405.357 47 408.043 44.3137 408.043 41C408.043 37.6863 405.357 35 402.043 35C398.729 35 396.043 37.6863 396.043 41Z" fill="#FFD43B"/>
<path d="M416.922 45V36.4102H418.059V43.9863H422.289V45H416.922ZM423.52 37.623V36.4102H424.574V37.623H423.52ZM423.52 45V38.7773H424.574V45H423.52ZM425.992 45.5156L427.018 45.668C427.061 45.9844 427.18 46.2148 427.375 46.3594C427.637 46.5547 427.994 46.6523 428.447 46.6523C428.936 46.6523 429.312 46.5547 429.578 46.3594C429.844 46.1641 430.023 45.8906 430.117 45.5391C430.172 45.3242 430.197 44.873 430.193 44.1855C429.732 44.7285 429.158 45 428.471 45C427.615 45 426.953 44.6914 426.484 44.0742C426.016 43.457 425.781 42.7168 425.781 41.8535C425.781 41.2598 425.889 40.7129 426.104 40.2129C426.318 39.709 426.629 39.3203 427.035 39.0469C427.445 38.7734 427.926 38.6367 428.477 38.6367C429.211 38.6367 429.816 38.9336 430.293 39.5273V38.7773H431.266V44.1562C431.266 45.125 431.166 45.8105 430.967 46.2129C430.771 46.6191 430.459 46.9395 430.029 47.1738C429.604 47.4082 429.078 47.5254 428.453 47.5254C427.711 47.5254 427.111 47.3574 426.654 47.0215C426.197 46.6895 425.977 46.1875 425.992 45.5156ZM426.865 41.7773C426.865 42.5938 427.027 43.1895 427.352 43.5645C427.676 43.9395 428.082 44.127 428.57 44.127C429.055 44.127 429.461 43.9414 429.789 43.5703C430.117 43.1953 430.281 42.6094 430.281 41.8125C430.281 41.0508 430.111 40.4766 429.771 40.0898C429.436 39.7031 429.029 39.5098 428.553 39.5098C428.084 39.5098 427.686 39.7012 427.357 40.084C427.029 40.4629 426.865 41.0273 426.865 41.7773ZM432.865 45V36.4102H433.92V39.4922C434.412 38.9219 435.033 38.6367 435.783 38.6367C436.244 38.6367 436.645 38.7285 436.984 38.9121C437.324 39.0918 437.566 39.3418 437.711 39.6621C437.859 39.9824 437.934 40.4473 437.934 41.0566V45H436.879V41.0566C436.879 40.5293 436.764 40.1465 436.533 39.9082C436.307 39.666 435.984 39.5449 435.566 39.5449C435.254 39.5449 434.959 39.627 434.682 39.791C434.408 39.9512 434.213 40.1699 434.096 40.4473C433.979 40.7246 433.92 41.1074 433.92 41.5957V45H432.865ZM441.848 44.0566L442 44.9883C441.703 45.0508 441.438 45.082 441.203 45.082C440.82 45.082 440.523 45.0215 440.312 44.9004C440.102 44.7793 439.953 44.6211 439.867 44.4258C439.781 44.2266 439.738 43.8105 439.738 43.1777V39.5977H438.965V38.7773H439.738V37.2363L440.787 36.6035V38.7773H441.848V39.5977H440.787V43.2363C440.787 43.5371 440.805 43.7305 440.84 43.8164C440.879 43.9023 440.939 43.9707 441.021 44.0215C441.107 44.0723 441.229 44.0977 441.385 44.0977C441.502 44.0977 441.656 44.084 441.848 44.0566Z" fill="#495057"/>
<path d="M451.043 41C451.043 44.3137 453.729 47 457.043 47C460.357 47 463.043 44.3137 463.043 41C463.043 37.6863 460.357 35 457.043 35C453.729 35 451.043 37.6863 451.043 41Z" fill="#339AF0"/>
<path d="M471.582 42.2402L472.654 42.1465C472.705 42.5762 472.822 42.9297 473.006 43.207C473.193 43.4805 473.482 43.7031 473.873 43.875C474.264 44.043 474.703 44.127 475.191 44.127C475.625 44.127 476.008 44.0625 476.34 43.9336C476.672 43.8047 476.918 43.6289 477.078 43.4062C477.242 43.1797 477.324 42.9336 477.324 42.668C477.324 42.3984 477.246 42.1641 477.09 41.9648C476.934 41.7617 476.676 41.5918 476.316 41.4551C476.086 41.3652 475.576 41.2266 474.787 41.0391C473.998 40.8477 473.445 40.668 473.129 40.5C472.719 40.2852 472.412 40.0195 472.209 39.7031C472.01 39.3828 471.91 39.0254 471.91 38.6309C471.91 38.1973 472.033 37.793 472.279 37.418C472.525 37.0391 472.885 36.752 473.357 36.5566C473.83 36.3613 474.355 36.2637 474.934 36.2637C475.57 36.2637 476.131 36.3672 476.615 36.5742C477.104 36.7773 477.479 37.0781 477.74 37.4766C478.002 37.875 478.143 38.3262 478.162 38.8301L477.072 38.9121C477.014 38.3691 476.814 37.959 476.475 37.6816C476.139 37.4043 475.641 37.2656 474.98 37.2656C474.293 37.2656 473.791 37.3926 473.475 37.6465C473.162 37.8965 473.006 38.1992 473.006 38.5547C473.006 38.8633 473.117 39.1172 473.34 39.3164C473.559 39.5156 474.129 39.7207 475.051 39.9316C475.977 40.1387 476.611 40.3203 476.955 40.4766C477.455 40.707 477.824 41 478.062 41.3555C478.301 41.707 478.42 42.1133 478.42 42.5742C478.42 43.0312 478.289 43.4629 478.027 43.8691C477.766 44.2715 477.389 44.5859 476.896 44.8125C476.408 45.0352 475.857 45.1465 475.244 45.1465C474.467 45.1465 473.814 45.0332 473.287 44.8066C472.764 44.5801 472.352 44.2402 472.051 43.7871C471.754 43.3301 471.598 42.8145 471.582 42.2402ZM479.445 41.8887C479.445 40.7363 479.766 39.8828 480.406 39.3281C480.941 38.8672 481.594 38.6367 482.363 38.6367C483.219 38.6367 483.918 38.918 484.461 39.4805C485.004 40.0391 485.275 40.8125 485.275 41.8008C485.275 42.6016 485.154 43.2324 484.912 43.6934C484.674 44.1504 484.324 44.5059 483.863 44.7598C483.406 45.0137 482.906 45.1406 482.363 45.1406C481.492 45.1406 480.787 44.8613 480.248 44.3027C479.713 43.7441 479.445 42.9395 479.445 41.8887ZM480.529 41.8887C480.529 42.6855 480.703 43.2832 481.051 43.6816C481.398 44.0762 481.836 44.2734 482.363 44.2734C482.887 44.2734 483.322 44.0742 483.67 43.6758C484.018 43.2773 484.191 42.6699 484.191 41.8535C484.191 41.084 484.016 40.502 483.664 40.1074C483.316 39.709 482.883 39.5098 482.363 39.5098C481.836 39.5098 481.398 39.707 481.051 40.1016C480.703 40.4961 480.529 41.0918 480.529 41.8887ZM490.596 45V44.0859C490.111 44.7891 489.453 45.1406 488.621 45.1406C488.254 45.1406 487.91 45.0703 487.59 44.9297C487.273 44.7891 487.037 44.6133 486.881 44.4023C486.729 44.1875 486.621 43.9258 486.559 43.6172C486.516 43.4102 486.494 43.082 486.494 42.6328V38.7773H487.549V42.2285C487.549 42.7793 487.57 43.1504 487.613 43.3418C487.68 43.6191 487.82 43.8379 488.035 43.998C488.25 44.1543 488.516 44.2324 488.832 44.2324C489.148 44.2324 489.445 44.1523 489.723 43.9922C490 43.8281 490.195 43.6074 490.309 43.3301C490.426 43.0488 490.484 42.6426 490.484 42.1113V38.7773H491.539V45H490.596ZM493.197 45V38.7773H494.146V39.6621C494.604 38.9785 495.264 38.6367 496.127 38.6367C496.502 38.6367 496.846 38.7051 497.158 38.8418C497.475 38.9746 497.711 39.1504 497.867 39.3691C498.023 39.5879 498.133 39.8477 498.195 40.1484C498.234 40.3438 498.254 40.6855 498.254 41.1738V45H497.199V41.2148C497.199 40.7852 497.158 40.4648 497.076 40.2539C496.994 40.0391 496.848 39.8691 496.637 39.7441C496.43 39.6152 496.186 39.5508 495.904 39.5508C495.455 39.5508 495.066 39.6934 494.738 39.9785C494.414 40.2637 494.252 40.8047 494.252 41.6016V45H493.197ZM503.914 45V44.2148C503.52 44.832 502.939 45.1406 502.174 45.1406C501.678 45.1406 501.221 45.0039 500.803 44.7305C500.389 44.457 500.066 44.0762 499.836 43.5879C499.609 43.0957 499.496 42.5312 499.496 41.8945C499.496 41.2734 499.6 40.7109 499.807 40.207C500.014 39.6992 500.324 39.3105 500.738 39.041C501.152 38.7715 501.615 38.6367 502.127 38.6367C502.502 38.6367 502.836 38.7168 503.129 38.877C503.422 39.0332 503.66 39.2383 503.844 39.4922V36.4102H504.893V45H503.914ZM500.58 41.8945C500.58 42.6914 500.748 43.2871 501.084 43.6816C501.42 44.0762 501.816 44.2734 502.273 44.2734C502.734 44.2734 503.125 44.0859 503.445 43.7109C503.77 43.332 503.932 42.7559 503.932 41.9824C503.932 41.1309 503.768 40.5059 503.439 40.1074C503.111 39.709 502.707 39.5098 502.227 39.5098C501.758 39.5098 501.365 39.7012 501.049 40.084C500.736 40.4668 500.58 41.0703 500.58 41.8945Z" fill="#495057"/>
</g>
<defs>
<clipPath id="clip0_208_542">
<rect width="561" height="350" fill="white"/>
</clipPath>
</defs>
</svg>
